%FSLAX45Y45*%
G04 Gerber Fmt 4.5, Leading zero omitted, Abs format (unit mm)*
G04 Created by KiCad (PCBNEW (6.0.2)) date 2022-06-11 16:42:49*
%MOMM*%
%LPD*%
G01*
G04 APERTURE LIST*
%TA.AperFunction,Profile*%
%ADD10C,0.500000*%
%TD*%
%ADD11C,0.200000*%
%ADD12C,0.030000*%
%ADD13C,0.040000*%
%ADD14C,0.100000*%
G04 APERTURE END LIST*
D10*
X250000Y0D02*
X5750000Y0D01*
X5750000Y0D02*
X5750000Y-10000000D01*
X5750000Y-10000000D02*
X250000Y-10000000D01*
X250000Y-10000000D02*
X250000Y0D01*
D11*
D12*
X748025Y-7430000D02*
X778025Y-7460000D01*
X778025Y-7430000D02*
X748025Y-7460000D01*
X881620Y-7521180D02*
X911620Y-7551180D01*
X911620Y-7521180D02*
X881620Y-7551180D01*
X1079000Y-5424000D02*
X1109000Y-5454000D01*
X1109000Y-5424000D02*
X1079000Y-5454000D01*
X1130540Y-7437360D02*
X1160540Y-7467360D01*
X1160540Y-7437360D02*
X1130540Y-7467360D01*
X1187000Y-7186000D02*
X1217000Y-7216000D01*
X1217000Y-7186000D02*
X1187000Y-7216000D01*
X1238450Y-4986000D02*
X1268450Y-5016000D01*
X1268450Y-4986000D02*
X1238450Y-5016000D01*
X1272780Y-1667610D02*
X1302780Y-1697610D01*
X1302780Y-1667610D02*
X1272780Y-1697610D01*
X1362000Y-4307000D02*
X1392000Y-4337000D01*
X1392000Y-4307000D02*
X1362000Y-4337000D01*
X1384000Y-6585000D02*
X1414000Y-6615000D01*
X1414000Y-6585000D02*
X1384000Y-6615000D01*
X1400841Y-7964159D02*
X1430841Y-7994159D01*
X1430841Y-7964159D02*
X1400841Y-7994159D01*
X1427500Y-6163500D02*
X1457500Y-6193500D01*
X1457500Y-6163500D02*
X1427500Y-6193500D01*
X1429000Y-5214000D02*
X1459000Y-5244000D01*
X1459000Y-5214000D02*
X1429000Y-5244000D01*
X1524000Y-5427000D02*
X1554000Y-5457000D01*
X1554000Y-5427000D02*
X1524000Y-5457000D01*
X1563000Y-7557000D02*
X1593000Y-7587000D01*
X1593000Y-7557000D02*
X1563000Y-7587000D01*
X1722000Y-6458000D02*
X1752000Y-6488000D01*
X1752000Y-6458000D02*
X1722000Y-6488000D01*
X1733000Y-4985000D02*
X1763000Y-5015000D01*
X1763000Y-4985000D02*
X1733000Y-5015000D01*
X2384000Y-5885000D02*
X2414000Y-5915000D01*
X2414000Y-5885000D02*
X2384000Y-5915000D01*
X2384000Y-7881000D02*
X2414000Y-7911000D01*
X2414000Y-7881000D02*
X2384000Y-7911000D01*
X2385000Y-1893000D02*
X2415000Y-1923000D01*
X2415000Y-1893000D02*
X2385000Y-1923000D01*
X2386000Y-3896000D02*
X2416000Y-3926000D01*
X2416000Y-3896000D02*
X2386000Y-3926000D01*
X2489440Y-5070080D02*
X2519440Y-5100080D01*
X2519440Y-5070080D02*
X2489440Y-5100080D01*
X2536599Y-5438000D02*
X2566599Y-5468000D01*
X2566599Y-5438000D02*
X2536599Y-5468000D01*
X2601200Y-3284460D02*
X2631200Y-3314460D01*
X2631200Y-3284460D02*
X2601200Y-3314460D01*
X2728450Y-5433000D02*
X2758450Y-5463000D01*
X2758450Y-5433000D02*
X2728450Y-5463000D01*
X2753600Y-3284460D02*
X2783600Y-3314460D01*
X2783600Y-3284460D02*
X2753600Y-3314460D01*
X2753600Y-5070080D02*
X2783600Y-5100080D01*
X2783600Y-5070080D02*
X2753600Y-5100080D01*
X3584000Y-6082000D02*
X3614000Y-6112000D01*
X3614000Y-6082000D02*
X3584000Y-6112000D01*
X3584000Y-8082000D02*
X3614000Y-8112000D01*
X3614000Y-8082000D02*
X3584000Y-8112000D01*
X3585000Y-2066000D02*
X3615000Y-2096000D01*
X3615000Y-2066000D02*
X3585000Y-2096000D01*
X3588000Y-4385000D02*
X3618000Y-4415000D01*
X3618000Y-4385000D02*
X3588000Y-4415000D01*
X4386820Y-9471900D02*
X4416820Y-9501900D01*
X4416820Y-9471900D02*
X4386820Y-9501900D01*
X4399520Y-8910560D02*
X4429520Y-8940560D01*
X4429520Y-8910560D02*
X4399520Y-8940560D01*
X4473180Y-9299180D02*
X4503180Y-9329180D01*
X4503180Y-9299180D02*
X4473180Y-9329180D01*
X4473180Y-9403320D02*
X4503180Y-9433320D01*
X4503180Y-9403320D02*
X4473180Y-9433320D01*
X4591000Y-2085000D02*
X4621000Y-2115000D01*
X4621000Y-2085000D02*
X4591000Y-2115000D01*
D13*
X1244280Y-1079500D02*
G75*
G03*
X1244280Y-1079500I-20000J0D01*
G01*
X1447480Y-9290110D02*
G75*
G03*
X1447480Y-9290110I-20000J0D01*
G01*
X1450020Y-9456420D02*
G75*
G03*
X1450020Y-9456420I-20000J0D01*
G01*
X1526220Y-9156700D02*
G75*
G03*
X1526220Y-9156700I-20000J0D01*
G01*
X1698940Y-8821420D02*
G75*
G03*
X1698940Y-8821420I-20000J0D01*
G01*
X1866580Y-1173480D02*
G75*
G03*
X1866580Y-1173480I-20000J0D01*
G01*
X2253000Y-513000D02*
G75*
G03*
X2253000Y-513000I-20000J0D01*
G01*
X2433000Y-8524240D02*
G75*
G03*
X2433000Y-8524240I-20000J0D01*
G01*
X2435540Y-8945220D02*
G75*
G03*
X2435540Y-8945220I-20000J0D01*
G01*
X2438080Y-881380D02*
G75*
G03*
X2438080Y-881380I-20000J0D01*
G01*
X2440620Y-9331300D02*
G75*
G03*
X2440620Y-9331300I-20000J0D01*
G01*
X2953700Y-8041640D02*
G75*
G03*
X2953700Y-8041640I-20000J0D01*
G01*
X3088320Y-8818880D02*
G75*
G03*
X3088320Y-8818880I-20000J0D01*
G01*
X3184840Y-9232900D02*
G75*
G03*
X3184840Y-9232900I-20000J0D01*
G01*
X3187380Y-9438640D02*
G75*
G03*
X3187380Y-9438640I-20000J0D01*
G01*
X3547997Y-9289117D02*
G75*
G03*
X3547997Y-9289117I-20000J0D01*
G01*
X3548060Y-9525000D02*
G75*
G03*
X3548060Y-9525000I-20000J0D01*
G01*
X4207000Y-6900000D02*
G75*
G03*
X4207000Y-6900000I-20000J0D01*
G01*
X4228000Y-2800000D02*
G75*
G03*
X4228000Y-2800000I-20000J0D01*
G01*
X4410000Y-7126000D02*
G75*
G03*
X4410000Y-7126000I-20000J0D01*
G01*
X4418000Y-5195000D02*
G75*
G03*
X4418000Y-5195000I-20000J0D01*
G01*
X4425050Y-3000000D02*
G75*
G03*
X4425050Y-3000000I-20000J0D01*
G01*
X4571000Y-6250000D02*
G75*
G03*
X4571000Y-6250000I-20000J0D01*
G01*
X4740000Y-6250000D02*
G75*
G03*
X4740000Y-6250000I-20000J0D01*
G01*
X4815000Y-2250000D02*
G75*
G03*
X4815000Y-2250000I-20000J0D01*
G01*
X4820000Y-3170000D02*
G75*
G03*
X4820000Y-3170000I-20000J0D01*
G01*
X4821000Y-2630000D02*
G75*
G03*
X4821000Y-2630000I-20000J0D01*
G01*
X4920000Y-7276000D02*
G75*
G03*
X4920000Y-7276000I-20000J0D01*
G01*
X4921000Y-6740000D02*
G75*
G03*
X4921000Y-6740000I-20000J0D01*
G01*
X5001000Y-2250000D02*
G75*
G03*
X5001000Y-2250000I-20000J0D01*
G01*
D14*
X2800000Y-250000D02*
X2800000Y-350000D01*
X2750000Y-300000D02*
X2850000Y-300000D01*
X2800000Y-600000D02*
X2800000Y-700000D01*
X2750000Y-650000D02*
X2850000Y-650000D01*
X2800000Y-950000D02*
X2800000Y-1050000D01*
X2750000Y-1000000D02*
X2850000Y-1000000D01*
X544556Y-3563356D02*
X544556Y-3492644D01*
X473844Y-3492644D01*
X473844Y-3563356D01*
X544556Y-3563356D01*
X544556Y-3817356D02*
X544556Y-3746644D01*
X473844Y-3746644D01*
X473844Y-3817356D01*
X544556Y-3817356D01*
X544556Y-4071356D02*
X544556Y-4000644D01*
X473844Y-4000644D01*
X473844Y-4071356D01*
X544556Y-4071356D01*
X544556Y-4325356D02*
X544556Y-4254644D01*
X473844Y-4254644D01*
X473844Y-4325356D01*
X544556Y-4325356D01*
X544556Y-4579356D02*
X544556Y-4508644D01*
X473844Y-4508644D01*
X473844Y-4579356D01*
X544556Y-4579356D01*
X544556Y-4833356D02*
X544556Y-4762644D01*
X473844Y-4762644D01*
X473844Y-4833356D01*
X544556Y-4833356D01*
X544556Y-5087356D02*
X544556Y-5016644D01*
X473844Y-5016644D01*
X473844Y-5087356D01*
X544556Y-5087356D01*
X544556Y-5341356D02*
X544556Y-5270644D01*
X473844Y-5270644D01*
X473844Y-5341356D01*
X544556Y-5341356D01*
X544556Y-5595356D02*
X544556Y-5524644D01*
X473844Y-5524644D01*
X473844Y-5595356D01*
X544556Y-5595356D01*
X544556Y-5849356D02*
X544556Y-5778644D01*
X473844Y-5778644D01*
X473844Y-5849356D01*
X544556Y-5849356D01*
X3084556Y-3563356D02*
X3084556Y-3492644D01*
X3013844Y-3492644D01*
X3013844Y-3563356D01*
X3084556Y-3563356D01*
X3084556Y-3817356D02*
X3084556Y-3746644D01*
X3013844Y-3746644D01*
X3013844Y-3817356D01*
X3084556Y-3817356D01*
X3084556Y-4071356D02*
X3084556Y-4000644D01*
X3013844Y-4000644D01*
X3013844Y-4071356D01*
X3084556Y-4071356D01*
X3084556Y-4325356D02*
X3084556Y-4254644D01*
X3013844Y-4254644D01*
X3013844Y-4325356D01*
X3084556Y-4325356D01*
X3084556Y-4579356D02*
X3084556Y-4508644D01*
X3013844Y-4508644D01*
X3013844Y-4579356D01*
X3084556Y-4579356D01*
X3084556Y-4833356D02*
X3084556Y-4762644D01*
X3013844Y-4762644D01*
X3013844Y-4833356D01*
X3084556Y-4833356D01*
X3084556Y-5087356D02*
X3084556Y-5016644D01*
X3013844Y-5016644D01*
X3013844Y-5087356D01*
X3084556Y-5087356D01*
X3084556Y-5341356D02*
X3084556Y-5270644D01*
X3013844Y-5270644D01*
X3013844Y-5341356D01*
X3084556Y-5341356D01*
X3084556Y-5595356D02*
X3084556Y-5524644D01*
X3013844Y-5524644D01*
X3013844Y-5595356D01*
X3084556Y-5595356D01*
X3084556Y-5849356D02*
X3084556Y-5778644D01*
X3013844Y-5778644D01*
X3013844Y-5849356D01*
X3084556Y-5849356D01*
D11*
X482619Y-10335476D02*
X482619Y-10135476D01*
X530238Y-10135476D01*
X558810Y-10145000D01*
X577857Y-10164048D01*
X587381Y-10183095D01*
X596905Y-10221190D01*
X596905Y-10249762D01*
X587381Y-10287857D01*
X577857Y-10306905D01*
X558810Y-10325952D01*
X530238Y-10335476D01*
X482619Y-10335476D01*
X682619Y-10335476D02*
X682619Y-10202143D01*
X682619Y-10240238D02*
X692143Y-10221190D01*
X701667Y-10211667D01*
X720714Y-10202143D01*
X739762Y-10202143D01*
X806428Y-10335476D02*
X806428Y-10202143D01*
X806428Y-10135476D02*
X796905Y-10145000D01*
X806428Y-10154524D01*
X815952Y-10145000D01*
X806428Y-10135476D01*
X806428Y-10154524D01*
X930238Y-10335476D02*
X911190Y-10325952D01*
X901667Y-10306905D01*
X901667Y-10135476D01*
X1035000Y-10335476D02*
X1015952Y-10325952D01*
X1006428Y-10306905D01*
X1006428Y-10135476D01*
X1263571Y-10335476D02*
X1263571Y-10135476D01*
X1330238Y-10278333D01*
X1396905Y-10135476D01*
X1396905Y-10335476D01*
X1577857Y-10335476D02*
X1577857Y-10230714D01*
X1568333Y-10211667D01*
X1549286Y-10202143D01*
X1511190Y-10202143D01*
X1492143Y-10211667D01*
X1577857Y-10325952D02*
X1558809Y-10335476D01*
X1511190Y-10335476D01*
X1492143Y-10325952D01*
X1482619Y-10306905D01*
X1482619Y-10287857D01*
X1492143Y-10268810D01*
X1511190Y-10259286D01*
X1558809Y-10259286D01*
X1577857Y-10249762D01*
X1673095Y-10202143D02*
X1673095Y-10402143D01*
X1673095Y-10211667D02*
X1692143Y-10202143D01*
X1730238Y-10202143D01*
X1749286Y-10211667D01*
X1758809Y-10221190D01*
X1768333Y-10240238D01*
X1768333Y-10297381D01*
X1758809Y-10316429D01*
X1749286Y-10325952D01*
X1730238Y-10335476D01*
X1692143Y-10335476D01*
X1673095Y-10325952D01*
X1854048Y-10316429D02*
X1863571Y-10325952D01*
X1854048Y-10335476D01*
X1844524Y-10325952D01*
X1854048Y-10316429D01*
X1854048Y-10335476D01*
X1854048Y-10211667D02*
X1863571Y-10221190D01*
X1854048Y-10230714D01*
X1844524Y-10221190D01*
X1854048Y-10211667D01*
X1854048Y-10230714D01*
D12*
X195000Y-10650000D02*
X225000Y-10680000D01*
X225000Y-10650000D02*
X195000Y-10680000D01*
D11*
X520714Y-10555476D02*
X539762Y-10555476D01*
X558810Y-10565000D01*
X568333Y-10574524D01*
X577857Y-10593571D01*
X587381Y-10631667D01*
X587381Y-10679286D01*
X577857Y-10717381D01*
X568333Y-10736429D01*
X558810Y-10745952D01*
X539762Y-10755476D01*
X520714Y-10755476D01*
X501667Y-10745952D01*
X492143Y-10736429D01*
X482619Y-10717381D01*
X473095Y-10679286D01*
X473095Y-10631667D01*
X482619Y-10593571D01*
X492143Y-10574524D01*
X501667Y-10565000D01*
X520714Y-10555476D01*
X673095Y-10736429D02*
X682619Y-10745952D01*
X673095Y-10755476D01*
X663571Y-10745952D01*
X673095Y-10736429D01*
X673095Y-10755476D01*
X749286Y-10555476D02*
X873095Y-10555476D01*
X806428Y-10631667D01*
X835000Y-10631667D01*
X854048Y-10641190D01*
X863571Y-10650714D01*
X873095Y-10669762D01*
X873095Y-10717381D01*
X863571Y-10736429D01*
X854048Y-10745952D01*
X835000Y-10755476D01*
X777857Y-10755476D01*
X758809Y-10745952D01*
X749286Y-10736429D01*
X996905Y-10555476D02*
X1015952Y-10555476D01*
X1035000Y-10565000D01*
X1044524Y-10574524D01*
X1054048Y-10593571D01*
X1063571Y-10631667D01*
X1063571Y-10679286D01*
X1054048Y-10717381D01*
X1044524Y-10736429D01*
X1035000Y-10745952D01*
X1015952Y-10755476D01*
X996905Y-10755476D01*
X977857Y-10745952D01*
X968333Y-10736429D01*
X958809Y-10717381D01*
X949286Y-10679286D01*
X949286Y-10631667D01*
X958809Y-10593571D01*
X968333Y-10574524D01*
X977857Y-10565000D01*
X996905Y-10555476D01*
X1187381Y-10555476D02*
X1206429Y-10555476D01*
X1225476Y-10565000D01*
X1235000Y-10574524D01*
X1244524Y-10593571D01*
X1254048Y-10631667D01*
X1254048Y-10679286D01*
X1244524Y-10717381D01*
X1235000Y-10736429D01*
X1225476Y-10745952D01*
X1206429Y-10755476D01*
X1187381Y-10755476D01*
X1168333Y-10745952D01*
X1158810Y-10736429D01*
X1149286Y-10717381D01*
X1139762Y-10679286D01*
X1139762Y-10631667D01*
X1149286Y-10593571D01*
X1158810Y-10574524D01*
X1168333Y-10565000D01*
X1187381Y-10555476D01*
X1339762Y-10755476D02*
X1339762Y-10622143D01*
X1339762Y-10641190D02*
X1349286Y-10631667D01*
X1368333Y-10622143D01*
X1396905Y-10622143D01*
X1415952Y-10631667D01*
X1425476Y-10650714D01*
X1425476Y-10755476D01*
X1425476Y-10650714D02*
X1435000Y-10631667D01*
X1454048Y-10622143D01*
X1482619Y-10622143D01*
X1501667Y-10631667D01*
X1511190Y-10650714D01*
X1511190Y-10755476D01*
X1606428Y-10755476D02*
X1606428Y-10622143D01*
X1606428Y-10641190D02*
X1615952Y-10631667D01*
X1635000Y-10622143D01*
X1663571Y-10622143D01*
X1682619Y-10631667D01*
X1692143Y-10650714D01*
X1692143Y-10755476D01*
X1692143Y-10650714D02*
X1701667Y-10631667D01*
X1720714Y-10622143D01*
X1749286Y-10622143D01*
X1768333Y-10631667D01*
X1777857Y-10650714D01*
X1777857Y-10755476D01*
X2168333Y-10545952D02*
X1996905Y-10803095D01*
X2425476Y-10555476D02*
X2444524Y-10555476D01*
X2463571Y-10565000D01*
X2473095Y-10574524D01*
X2482619Y-10593571D01*
X2492143Y-10631667D01*
X2492143Y-10679286D01*
X2482619Y-10717381D01*
X2473095Y-10736429D01*
X2463571Y-10745952D01*
X2444524Y-10755476D01*
X2425476Y-10755476D01*
X2406429Y-10745952D01*
X2396905Y-10736429D01*
X2387381Y-10717381D01*
X2377857Y-10679286D01*
X2377857Y-10631667D01*
X2387381Y-10593571D01*
X2396905Y-10574524D01*
X2406429Y-10565000D01*
X2425476Y-10555476D01*
X2577857Y-10736429D02*
X2587381Y-10745952D01*
X2577857Y-10755476D01*
X2568333Y-10745952D01*
X2577857Y-10736429D01*
X2577857Y-10755476D01*
X2711190Y-10555476D02*
X2730238Y-10555476D01*
X2749286Y-10565000D01*
X2758810Y-10574524D01*
X2768333Y-10593571D01*
X2777857Y-10631667D01*
X2777857Y-10679286D01*
X2768333Y-10717381D01*
X2758810Y-10736429D01*
X2749286Y-10745952D01*
X2730238Y-10755476D01*
X2711190Y-10755476D01*
X2692143Y-10745952D01*
X2682619Y-10736429D01*
X2673095Y-10717381D01*
X2663571Y-10679286D01*
X2663571Y-10631667D01*
X2673095Y-10593571D01*
X2682619Y-10574524D01*
X2692143Y-10565000D01*
X2711190Y-10555476D01*
X2968333Y-10755476D02*
X2854048Y-10755476D01*
X2911190Y-10755476D02*
X2911190Y-10555476D01*
X2892143Y-10584048D01*
X2873095Y-10603095D01*
X2854048Y-10612619D01*
X3158809Y-10755476D02*
X3044524Y-10755476D01*
X3101667Y-10755476D02*
X3101667Y-10555476D01*
X3082619Y-10584048D01*
X3063571Y-10603095D01*
X3044524Y-10612619D01*
X3273095Y-10641190D02*
X3254048Y-10631667D01*
X3244524Y-10622143D01*
X3235000Y-10603095D01*
X3235000Y-10593571D01*
X3244524Y-10574524D01*
X3254048Y-10565000D01*
X3273095Y-10555476D01*
X3311190Y-10555476D01*
X3330238Y-10565000D01*
X3339762Y-10574524D01*
X3349286Y-10593571D01*
X3349286Y-10603095D01*
X3339762Y-10622143D01*
X3330238Y-10631667D01*
X3311190Y-10641190D01*
X3273095Y-10641190D01*
X3254048Y-10650714D01*
X3244524Y-10660238D01*
X3235000Y-10679286D01*
X3235000Y-10717381D01*
X3244524Y-10736429D01*
X3254048Y-10745952D01*
X3273095Y-10755476D01*
X3311190Y-10755476D01*
X3330238Y-10745952D01*
X3339762Y-10736429D01*
X3349286Y-10717381D01*
X3349286Y-10679286D01*
X3339762Y-10660238D01*
X3330238Y-10650714D01*
X3311190Y-10641190D01*
X3425476Y-10555476D02*
X3425476Y-10593571D01*
X3501667Y-10555476D02*
X3501667Y-10593571D01*
X3796905Y-10831667D02*
X3787381Y-10822143D01*
X3768333Y-10793571D01*
X3758809Y-10774524D01*
X3749286Y-10745952D01*
X3739762Y-10698333D01*
X3739762Y-10660238D01*
X3749286Y-10612619D01*
X3758809Y-10584048D01*
X3768333Y-10565000D01*
X3787381Y-10536429D01*
X3796905Y-10526905D01*
X3854048Y-10555476D02*
X3977857Y-10555476D01*
X3911190Y-10631667D01*
X3939762Y-10631667D01*
X3958809Y-10641190D01*
X3968333Y-10650714D01*
X3977857Y-10669762D01*
X3977857Y-10717381D01*
X3968333Y-10736429D01*
X3958809Y-10745952D01*
X3939762Y-10755476D01*
X3882619Y-10755476D01*
X3863571Y-10745952D01*
X3854048Y-10736429D01*
X4158809Y-10555476D02*
X4063571Y-10555476D01*
X4054048Y-10650714D01*
X4063571Y-10641190D01*
X4082619Y-10631667D01*
X4130238Y-10631667D01*
X4149286Y-10641190D01*
X4158809Y-10650714D01*
X4168333Y-10669762D01*
X4168333Y-10717381D01*
X4158809Y-10736429D01*
X4149286Y-10745952D01*
X4130238Y-10755476D01*
X4082619Y-10755476D01*
X4063571Y-10745952D01*
X4054048Y-10736429D01*
X4406429Y-10755476D02*
X4406429Y-10555476D01*
X4492143Y-10755476D02*
X4492143Y-10650714D01*
X4482619Y-10631667D01*
X4463571Y-10622143D01*
X4435000Y-10622143D01*
X4415952Y-10631667D01*
X4406429Y-10641190D01*
X4615952Y-10755476D02*
X4596905Y-10745952D01*
X4587381Y-10736429D01*
X4577857Y-10717381D01*
X4577857Y-10660238D01*
X4587381Y-10641190D01*
X4596905Y-10631667D01*
X4615952Y-10622143D01*
X4644524Y-10622143D01*
X4663571Y-10631667D01*
X4673095Y-10641190D01*
X4682619Y-10660238D01*
X4682619Y-10717381D01*
X4673095Y-10736429D01*
X4663571Y-10745952D01*
X4644524Y-10755476D01*
X4615952Y-10755476D01*
X4796905Y-10755476D02*
X4777857Y-10745952D01*
X4768333Y-10726905D01*
X4768333Y-10555476D01*
X4949286Y-10745952D02*
X4930238Y-10755476D01*
X4892143Y-10755476D01*
X4873095Y-10745952D01*
X4863571Y-10726905D01*
X4863571Y-10650714D01*
X4873095Y-10631667D01*
X4892143Y-10622143D01*
X4930238Y-10622143D01*
X4949286Y-10631667D01*
X4958810Y-10650714D01*
X4958810Y-10669762D01*
X4863571Y-10688810D01*
X5035000Y-10745952D02*
X5054048Y-10755476D01*
X5092143Y-10755476D01*
X5111190Y-10745952D01*
X5120714Y-10726905D01*
X5120714Y-10717381D01*
X5111190Y-10698333D01*
X5092143Y-10688810D01*
X5063571Y-10688810D01*
X5044524Y-10679286D01*
X5035000Y-10660238D01*
X5035000Y-10650714D01*
X5044524Y-10631667D01*
X5063571Y-10622143D01*
X5092143Y-10622143D01*
X5111190Y-10631667D01*
X5187381Y-10831667D02*
X5196905Y-10822143D01*
X5215952Y-10793571D01*
X5225476Y-10774524D01*
X5235000Y-10745952D01*
X5244524Y-10698333D01*
X5244524Y-10660238D01*
X5235000Y-10612619D01*
X5225476Y-10584048D01*
X5215952Y-10565000D01*
X5196905Y-10536429D01*
X5187381Y-10526905D01*
D13*
X225000Y-10929000D02*
G75*
G03*
X225000Y-10929000I-20000J0D01*
G01*
D11*
X520714Y-10819476D02*
X539762Y-10819476D01*
X558810Y-10829000D01*
X568333Y-10838524D01*
X577857Y-10857571D01*
X587381Y-10895667D01*
X587381Y-10943286D01*
X577857Y-10981381D01*
X568333Y-11000429D01*
X558810Y-11009952D01*
X539762Y-11019476D01*
X520714Y-11019476D01*
X501667Y-11009952D01*
X492143Y-11000429D01*
X482619Y-10981381D01*
X473095Y-10943286D01*
X473095Y-10895667D01*
X482619Y-10857571D01*
X492143Y-10838524D01*
X501667Y-10829000D01*
X520714Y-10819476D01*
X673095Y-11000429D02*
X682619Y-11009952D01*
X673095Y-11019476D01*
X663571Y-11009952D01*
X673095Y-11000429D01*
X673095Y-11019476D01*
X854048Y-10886143D02*
X854048Y-11019476D01*
X806428Y-10809952D02*
X758809Y-10952810D01*
X882619Y-10952810D01*
X996905Y-10819476D02*
X1015952Y-10819476D01*
X1035000Y-10829000D01*
X1044524Y-10838524D01*
X1054048Y-10857571D01*
X1063571Y-10895667D01*
X1063571Y-10943286D01*
X1054048Y-10981381D01*
X1044524Y-11000429D01*
X1035000Y-11009952D01*
X1015952Y-11019476D01*
X996905Y-11019476D01*
X977857Y-11009952D01*
X968333Y-11000429D01*
X958809Y-10981381D01*
X949286Y-10943286D01*
X949286Y-10895667D01*
X958809Y-10857571D01*
X968333Y-10838524D01*
X977857Y-10829000D01*
X996905Y-10819476D01*
X1187381Y-10819476D02*
X1206429Y-10819476D01*
X1225476Y-10829000D01*
X1235000Y-10838524D01*
X1244524Y-10857571D01*
X1254048Y-10895667D01*
X1254048Y-10943286D01*
X1244524Y-10981381D01*
X1235000Y-11000429D01*
X1225476Y-11009952D01*
X1206429Y-11019476D01*
X1187381Y-11019476D01*
X1168333Y-11009952D01*
X1158810Y-11000429D01*
X1149286Y-10981381D01*
X1139762Y-10943286D01*
X1139762Y-10895667D01*
X1149286Y-10857571D01*
X1158810Y-10838524D01*
X1168333Y-10829000D01*
X1187381Y-10819476D01*
X1339762Y-11019476D02*
X1339762Y-10886143D01*
X1339762Y-10905190D02*
X1349286Y-10895667D01*
X1368333Y-10886143D01*
X1396905Y-10886143D01*
X1415952Y-10895667D01*
X1425476Y-10914714D01*
X1425476Y-11019476D01*
X1425476Y-10914714D02*
X1435000Y-10895667D01*
X1454048Y-10886143D01*
X1482619Y-10886143D01*
X1501667Y-10895667D01*
X1511190Y-10914714D01*
X1511190Y-11019476D01*
X1606428Y-11019476D02*
X1606428Y-10886143D01*
X1606428Y-10905190D02*
X1615952Y-10895667D01*
X1635000Y-10886143D01*
X1663571Y-10886143D01*
X1682619Y-10895667D01*
X1692143Y-10914714D01*
X1692143Y-11019476D01*
X1692143Y-10914714D02*
X1701667Y-10895667D01*
X1720714Y-10886143D01*
X1749286Y-10886143D01*
X1768333Y-10895667D01*
X1777857Y-10914714D01*
X1777857Y-11019476D01*
X2168333Y-10809952D02*
X1996905Y-11067095D01*
X2425476Y-10819476D02*
X2444524Y-10819476D01*
X2463571Y-10829000D01*
X2473095Y-10838524D01*
X2482619Y-10857571D01*
X2492143Y-10895667D01*
X2492143Y-10943286D01*
X2482619Y-10981381D01*
X2473095Y-11000429D01*
X2463571Y-11009952D01*
X2444524Y-11019476D01*
X2425476Y-11019476D01*
X2406429Y-11009952D01*
X2396905Y-11000429D01*
X2387381Y-10981381D01*
X2377857Y-10943286D01*
X2377857Y-10895667D01*
X2387381Y-10857571D01*
X2396905Y-10838524D01*
X2406429Y-10829000D01*
X2425476Y-10819476D01*
X2577857Y-11000429D02*
X2587381Y-11009952D01*
X2577857Y-11019476D01*
X2568333Y-11009952D01*
X2577857Y-11000429D01*
X2577857Y-11019476D01*
X2711190Y-10819476D02*
X2730238Y-10819476D01*
X2749286Y-10829000D01*
X2758810Y-10838524D01*
X2768333Y-10857571D01*
X2777857Y-10895667D01*
X2777857Y-10943286D01*
X2768333Y-10981381D01*
X2758810Y-11000429D01*
X2749286Y-11009952D01*
X2730238Y-11019476D01*
X2711190Y-11019476D01*
X2692143Y-11009952D01*
X2682619Y-11000429D01*
X2673095Y-10981381D01*
X2663571Y-10943286D01*
X2663571Y-10895667D01*
X2673095Y-10857571D01*
X2682619Y-10838524D01*
X2692143Y-10829000D01*
X2711190Y-10819476D01*
X2968333Y-11019476D02*
X2854048Y-11019476D01*
X2911190Y-11019476D02*
X2911190Y-10819476D01*
X2892143Y-10848048D01*
X2873095Y-10867095D01*
X2854048Y-10876619D01*
X3149286Y-10819476D02*
X3054048Y-10819476D01*
X3044524Y-10914714D01*
X3054048Y-10905190D01*
X3073095Y-10895667D01*
X3120714Y-10895667D01*
X3139762Y-10905190D01*
X3149286Y-10914714D01*
X3158809Y-10933762D01*
X3158809Y-10981381D01*
X3149286Y-11000429D01*
X3139762Y-11009952D01*
X3120714Y-11019476D01*
X3073095Y-11019476D01*
X3054048Y-11009952D01*
X3044524Y-11000429D01*
X3225476Y-10819476D02*
X3358809Y-10819476D01*
X3273095Y-11019476D01*
X3425476Y-10819476D02*
X3425476Y-10857571D01*
X3501667Y-10819476D02*
X3501667Y-10857571D01*
X3796905Y-11095667D02*
X3787381Y-11086143D01*
X3768333Y-11057571D01*
X3758809Y-11038524D01*
X3749286Y-11009952D01*
X3739762Y-10962333D01*
X3739762Y-10924238D01*
X3749286Y-10876619D01*
X3758809Y-10848048D01*
X3768333Y-10829000D01*
X3787381Y-10800429D01*
X3796905Y-10790905D01*
X3854048Y-10819476D02*
X3977857Y-10819476D01*
X3911190Y-10895667D01*
X3939762Y-10895667D01*
X3958809Y-10905190D01*
X3968333Y-10914714D01*
X3977857Y-10933762D01*
X3977857Y-10981381D01*
X3968333Y-11000429D01*
X3958809Y-11009952D01*
X3939762Y-11019476D01*
X3882619Y-11019476D01*
X3863571Y-11009952D01*
X3854048Y-11000429D01*
X4101667Y-10819476D02*
X4120714Y-10819476D01*
X4139762Y-10829000D01*
X4149286Y-10838524D01*
X4158809Y-10857571D01*
X4168333Y-10895667D01*
X4168333Y-10943286D01*
X4158809Y-10981381D01*
X4149286Y-11000429D01*
X4139762Y-11009952D01*
X4120714Y-11019476D01*
X4101667Y-11019476D01*
X4082619Y-11009952D01*
X4073095Y-11000429D01*
X4063571Y-10981381D01*
X4054048Y-10943286D01*
X4054048Y-10895667D01*
X4063571Y-10857571D01*
X4073095Y-10838524D01*
X4082619Y-10829000D01*
X4101667Y-10819476D01*
X4406429Y-11019476D02*
X4406429Y-10819476D01*
X4492143Y-11019476D02*
X4492143Y-10914714D01*
X4482619Y-10895667D01*
X4463571Y-10886143D01*
X4435000Y-10886143D01*
X4415952Y-10895667D01*
X4406429Y-10905190D01*
X4615952Y-11019476D02*
X4596905Y-11009952D01*
X4587381Y-11000429D01*
X4577857Y-10981381D01*
X4577857Y-10924238D01*
X4587381Y-10905190D01*
X4596905Y-10895667D01*
X4615952Y-10886143D01*
X4644524Y-10886143D01*
X4663571Y-10895667D01*
X4673095Y-10905190D01*
X4682619Y-10924238D01*
X4682619Y-10981381D01*
X4673095Y-11000429D01*
X4663571Y-11009952D01*
X4644524Y-11019476D01*
X4615952Y-11019476D01*
X4796905Y-11019476D02*
X4777857Y-11009952D01*
X4768333Y-10990905D01*
X4768333Y-10819476D01*
X4949286Y-11009952D02*
X4930238Y-11019476D01*
X4892143Y-11019476D01*
X4873095Y-11009952D01*
X4863571Y-10990905D01*
X4863571Y-10914714D01*
X4873095Y-10895667D01*
X4892143Y-10886143D01*
X4930238Y-10886143D01*
X4949286Y-10895667D01*
X4958810Y-10914714D01*
X4958810Y-10933762D01*
X4863571Y-10952810D01*
X5035000Y-11009952D02*
X5054048Y-11019476D01*
X5092143Y-11019476D01*
X5111190Y-11009952D01*
X5120714Y-10990905D01*
X5120714Y-10981381D01*
X5111190Y-10962333D01*
X5092143Y-10952810D01*
X5063571Y-10952810D01*
X5044524Y-10943286D01*
X5035000Y-10924238D01*
X5035000Y-10914714D01*
X5044524Y-10895667D01*
X5063571Y-10886143D01*
X5092143Y-10886143D01*
X5111190Y-10895667D01*
X5187381Y-11095667D02*
X5196905Y-11086143D01*
X5215952Y-11057571D01*
X5225476Y-11038524D01*
X5235000Y-11009952D01*
X5244524Y-10962333D01*
X5244524Y-10924238D01*
X5235000Y-10876619D01*
X5225476Y-10848048D01*
X5215952Y-10829000D01*
X5196905Y-10800429D01*
X5187381Y-10790905D01*
D14*
X175000Y-11143000D02*
X175000Y-11243000D01*
X125000Y-11193000D02*
X225000Y-11193000D01*
D11*
X587381Y-11283476D02*
X473095Y-11283476D01*
X530238Y-11283476D02*
X530238Y-11083476D01*
X511190Y-11112048D01*
X492143Y-11131095D01*
X473095Y-11140619D01*
X673095Y-11264428D02*
X682619Y-11273952D01*
X673095Y-11283476D01*
X663571Y-11273952D01*
X673095Y-11264428D01*
X673095Y-11283476D01*
X806428Y-11083476D02*
X825476Y-11083476D01*
X844524Y-11093000D01*
X854048Y-11102524D01*
X863571Y-11121571D01*
X873095Y-11159667D01*
X873095Y-11207286D01*
X863571Y-11245381D01*
X854048Y-11264428D01*
X844524Y-11273952D01*
X825476Y-11283476D01*
X806428Y-11283476D01*
X787381Y-11273952D01*
X777857Y-11264428D01*
X768333Y-11245381D01*
X758809Y-11207286D01*
X758809Y-11159667D01*
X768333Y-11121571D01*
X777857Y-11102524D01*
X787381Y-11093000D01*
X806428Y-11083476D01*
X996905Y-11083476D02*
X1015952Y-11083476D01*
X1035000Y-11093000D01*
X1044524Y-11102524D01*
X1054048Y-11121571D01*
X1063571Y-11159667D01*
X1063571Y-11207286D01*
X1054048Y-11245381D01*
X1044524Y-11264428D01*
X1035000Y-11273952D01*
X1015952Y-11283476D01*
X996905Y-11283476D01*
X977857Y-11273952D01*
X968333Y-11264428D01*
X958809Y-11245381D01*
X949286Y-11207286D01*
X949286Y-11159667D01*
X958809Y-11121571D01*
X968333Y-11102524D01*
X977857Y-11093000D01*
X996905Y-11083476D01*
X1187381Y-11083476D02*
X1206429Y-11083476D01*
X1225476Y-11093000D01*
X1235000Y-11102524D01*
X1244524Y-11121571D01*
X1254048Y-11159667D01*
X1254048Y-11207286D01*
X1244524Y-11245381D01*
X1235000Y-11264428D01*
X1225476Y-11273952D01*
X1206429Y-11283476D01*
X1187381Y-11283476D01*
X1168333Y-11273952D01*
X1158810Y-11264428D01*
X1149286Y-11245381D01*
X1139762Y-11207286D01*
X1139762Y-11159667D01*
X1149286Y-11121571D01*
X1158810Y-11102524D01*
X1168333Y-11093000D01*
X1187381Y-11083476D01*
X1339762Y-11283476D02*
X1339762Y-11150143D01*
X1339762Y-11169190D02*
X1349286Y-11159667D01*
X1368333Y-11150143D01*
X1396905Y-11150143D01*
X1415952Y-11159667D01*
X1425476Y-11178714D01*
X1425476Y-11283476D01*
X1425476Y-11178714D02*
X1435000Y-11159667D01*
X1454048Y-11150143D01*
X1482619Y-11150143D01*
X1501667Y-11159667D01*
X1511190Y-11178714D01*
X1511190Y-11283476D01*
X1606428Y-11283476D02*
X1606428Y-11150143D01*
X1606428Y-11169190D02*
X1615952Y-11159667D01*
X1635000Y-11150143D01*
X1663571Y-11150143D01*
X1682619Y-11159667D01*
X1692143Y-11178714D01*
X1692143Y-11283476D01*
X1692143Y-11178714D02*
X1701667Y-11159667D01*
X1720714Y-11150143D01*
X1749286Y-11150143D01*
X1768333Y-11159667D01*
X1777857Y-11178714D01*
X1777857Y-11283476D01*
X2168333Y-11073952D02*
X1996905Y-11331095D01*
X2425476Y-11083476D02*
X2444524Y-11083476D01*
X2463571Y-11093000D01*
X2473095Y-11102524D01*
X2482619Y-11121571D01*
X2492143Y-11159667D01*
X2492143Y-11207286D01*
X2482619Y-11245381D01*
X2473095Y-11264428D01*
X2463571Y-11273952D01*
X2444524Y-11283476D01*
X2425476Y-11283476D01*
X2406429Y-11273952D01*
X2396905Y-11264428D01*
X2387381Y-11245381D01*
X2377857Y-11207286D01*
X2377857Y-11159667D01*
X2387381Y-11121571D01*
X2396905Y-11102524D01*
X2406429Y-11093000D01*
X2425476Y-11083476D01*
X2577857Y-11264428D02*
X2587381Y-11273952D01*
X2577857Y-11283476D01*
X2568333Y-11273952D01*
X2577857Y-11264428D01*
X2577857Y-11283476D01*
X2711190Y-11083476D02*
X2730238Y-11083476D01*
X2749286Y-11093000D01*
X2758810Y-11102524D01*
X2768333Y-11121571D01*
X2777857Y-11159667D01*
X2777857Y-11207286D01*
X2768333Y-11245381D01*
X2758810Y-11264428D01*
X2749286Y-11273952D01*
X2730238Y-11283476D01*
X2711190Y-11283476D01*
X2692143Y-11273952D01*
X2682619Y-11264428D01*
X2673095Y-11245381D01*
X2663571Y-11207286D01*
X2663571Y-11159667D01*
X2673095Y-11121571D01*
X2682619Y-11102524D01*
X2692143Y-11093000D01*
X2711190Y-11083476D01*
X2844524Y-11083476D02*
X2968333Y-11083476D01*
X2901667Y-11159667D01*
X2930238Y-11159667D01*
X2949286Y-11169190D01*
X2958809Y-11178714D01*
X2968333Y-11197762D01*
X2968333Y-11245381D01*
X2958809Y-11264428D01*
X2949286Y-11273952D01*
X2930238Y-11283476D01*
X2873095Y-11283476D01*
X2854048Y-11273952D01*
X2844524Y-11264428D01*
X3063571Y-11283476D02*
X3101667Y-11283476D01*
X3120714Y-11273952D01*
X3130238Y-11264428D01*
X3149286Y-11235857D01*
X3158809Y-11197762D01*
X3158809Y-11121571D01*
X3149286Y-11102524D01*
X3139762Y-11093000D01*
X3120714Y-11083476D01*
X3082619Y-11083476D01*
X3063571Y-11093000D01*
X3054048Y-11102524D01*
X3044524Y-11121571D01*
X3044524Y-11169190D01*
X3054048Y-11188238D01*
X3063571Y-11197762D01*
X3082619Y-11207286D01*
X3120714Y-11207286D01*
X3139762Y-11197762D01*
X3149286Y-11188238D01*
X3158809Y-11169190D01*
X3330238Y-11150143D02*
X3330238Y-11283476D01*
X3282619Y-11073952D02*
X3235000Y-11216809D01*
X3358809Y-11216809D01*
X3425476Y-11083476D02*
X3425476Y-11121571D01*
X3501667Y-11083476D02*
X3501667Y-11121571D01*
X3796905Y-11359667D02*
X3787381Y-11350143D01*
X3768333Y-11321571D01*
X3758809Y-11302524D01*
X3749286Y-11273952D01*
X3739762Y-11226333D01*
X3739762Y-11188238D01*
X3749286Y-11140619D01*
X3758809Y-11112048D01*
X3768333Y-11093000D01*
X3787381Y-11064429D01*
X3796905Y-11054905D01*
X3854048Y-11083476D02*
X3977857Y-11083476D01*
X3911190Y-11159667D01*
X3939762Y-11159667D01*
X3958809Y-11169190D01*
X3968333Y-11178714D01*
X3977857Y-11197762D01*
X3977857Y-11245381D01*
X3968333Y-11264428D01*
X3958809Y-11273952D01*
X3939762Y-11283476D01*
X3882619Y-11283476D01*
X3863571Y-11273952D01*
X3854048Y-11264428D01*
X4215952Y-11283476D02*
X4215952Y-11083476D01*
X4301667Y-11283476D02*
X4301667Y-11178714D01*
X4292143Y-11159667D01*
X4273095Y-11150143D01*
X4244524Y-11150143D01*
X4225476Y-11159667D01*
X4215952Y-11169190D01*
X4425476Y-11283476D02*
X4406429Y-11273952D01*
X4396905Y-11264428D01*
X4387381Y-11245381D01*
X4387381Y-11188238D01*
X4396905Y-11169190D01*
X4406429Y-11159667D01*
X4425476Y-11150143D01*
X4454048Y-11150143D01*
X4473095Y-11159667D01*
X4482619Y-11169190D01*
X4492143Y-11188238D01*
X4492143Y-11245381D01*
X4482619Y-11264428D01*
X4473095Y-11273952D01*
X4454048Y-11283476D01*
X4425476Y-11283476D01*
X4606429Y-11283476D02*
X4587381Y-11273952D01*
X4577857Y-11254905D01*
X4577857Y-11083476D01*
X4758810Y-11273952D02*
X4739762Y-11283476D01*
X4701667Y-11283476D01*
X4682619Y-11273952D01*
X4673095Y-11254905D01*
X4673095Y-11178714D01*
X4682619Y-11159667D01*
X4701667Y-11150143D01*
X4739762Y-11150143D01*
X4758810Y-11159667D01*
X4768333Y-11178714D01*
X4768333Y-11197762D01*
X4673095Y-11216809D01*
X4844524Y-11273952D02*
X4863571Y-11283476D01*
X4901667Y-11283476D01*
X4920714Y-11273952D01*
X4930238Y-11254905D01*
X4930238Y-11245381D01*
X4920714Y-11226333D01*
X4901667Y-11216809D01*
X4873095Y-11216809D01*
X4854048Y-11207286D01*
X4844524Y-11188238D01*
X4844524Y-11178714D01*
X4854048Y-11159667D01*
X4873095Y-11150143D01*
X4901667Y-11150143D01*
X4920714Y-11159667D01*
X4996905Y-11359667D02*
X5006429Y-11350143D01*
X5025476Y-11321571D01*
X5035000Y-11302524D01*
X5044524Y-11273952D01*
X5054048Y-11226333D01*
X5054048Y-11188238D01*
X5044524Y-11140619D01*
X5035000Y-11112048D01*
X5025476Y-11093000D01*
X5006429Y-11064429D01*
X4996905Y-11054905D01*
D14*
X210356Y-11492356D02*
X210356Y-11421644D01*
X139644Y-11421644D01*
X139644Y-11492356D01*
X210356Y-11492356D01*
D11*
X587381Y-11547476D02*
X473095Y-11547476D01*
X530238Y-11547476D02*
X530238Y-11347476D01*
X511190Y-11376048D01*
X492143Y-11395095D01*
X473095Y-11404619D01*
X673095Y-11528428D02*
X682619Y-11537952D01*
X673095Y-11547476D01*
X663571Y-11537952D01*
X673095Y-11528428D01*
X673095Y-11547476D01*
X806428Y-11347476D02*
X825476Y-11347476D01*
X844524Y-11357000D01*
X854048Y-11366524D01*
X863571Y-11385571D01*
X873095Y-11423667D01*
X873095Y-11471286D01*
X863571Y-11509381D01*
X854048Y-11528428D01*
X844524Y-11537952D01*
X825476Y-11547476D01*
X806428Y-11547476D01*
X787381Y-11537952D01*
X777857Y-11528428D01*
X768333Y-11509381D01*
X758809Y-11471286D01*
X758809Y-11423667D01*
X768333Y-11385571D01*
X777857Y-11366524D01*
X787381Y-11357000D01*
X806428Y-11347476D01*
X996905Y-11347476D02*
X1015952Y-11347476D01*
X1035000Y-11357000D01*
X1044524Y-11366524D01*
X1054048Y-11385571D01*
X1063571Y-11423667D01*
X1063571Y-11471286D01*
X1054048Y-11509381D01*
X1044524Y-11528428D01*
X1035000Y-11537952D01*
X1015952Y-11547476D01*
X996905Y-11547476D01*
X977857Y-11537952D01*
X968333Y-11528428D01*
X958809Y-11509381D01*
X949286Y-11471286D01*
X949286Y-11423667D01*
X958809Y-11385571D01*
X968333Y-11366524D01*
X977857Y-11357000D01*
X996905Y-11347476D01*
X1187381Y-11347476D02*
X1206429Y-11347476D01*
X1225476Y-11357000D01*
X1235000Y-11366524D01*
X1244524Y-11385571D01*
X1254048Y-11423667D01*
X1254048Y-11471286D01*
X1244524Y-11509381D01*
X1235000Y-11528428D01*
X1225476Y-11537952D01*
X1206429Y-11547476D01*
X1187381Y-11547476D01*
X1168333Y-11537952D01*
X1158810Y-11528428D01*
X1149286Y-11509381D01*
X1139762Y-11471286D01*
X1139762Y-11423667D01*
X1149286Y-11385571D01*
X1158810Y-11366524D01*
X1168333Y-11357000D01*
X1187381Y-11347476D01*
X1339762Y-11547476D02*
X1339762Y-11414143D01*
X1339762Y-11433190D02*
X1349286Y-11423667D01*
X1368333Y-11414143D01*
X1396905Y-11414143D01*
X1415952Y-11423667D01*
X1425476Y-11442714D01*
X1425476Y-11547476D01*
X1425476Y-11442714D02*
X1435000Y-11423667D01*
X1454048Y-11414143D01*
X1482619Y-11414143D01*
X1501667Y-11423667D01*
X1511190Y-11442714D01*
X1511190Y-11547476D01*
X1606428Y-11547476D02*
X1606428Y-11414143D01*
X1606428Y-11433190D02*
X1615952Y-11423667D01*
X1635000Y-11414143D01*
X1663571Y-11414143D01*
X1682619Y-11423667D01*
X1692143Y-11442714D01*
X1692143Y-11547476D01*
X1692143Y-11442714D02*
X1701667Y-11423667D01*
X1720714Y-11414143D01*
X1749286Y-11414143D01*
X1768333Y-11423667D01*
X1777857Y-11442714D01*
X1777857Y-11547476D01*
X2168333Y-11337952D02*
X1996905Y-11595095D01*
X2425476Y-11347476D02*
X2444524Y-11347476D01*
X2463571Y-11357000D01*
X2473095Y-11366524D01*
X2482619Y-11385571D01*
X2492143Y-11423667D01*
X2492143Y-11471286D01*
X2482619Y-11509381D01*
X2473095Y-11528428D01*
X2463571Y-11537952D01*
X2444524Y-11547476D01*
X2425476Y-11547476D01*
X2406429Y-11537952D01*
X2396905Y-11528428D01*
X2387381Y-11509381D01*
X2377857Y-11471286D01*
X2377857Y-11423667D01*
X2387381Y-11385571D01*
X2396905Y-11366524D01*
X2406429Y-11357000D01*
X2425476Y-11347476D01*
X2577857Y-11528428D02*
X2587381Y-11537952D01*
X2577857Y-11547476D01*
X2568333Y-11537952D01*
X2577857Y-11528428D01*
X2577857Y-11547476D01*
X2711190Y-11347476D02*
X2730238Y-11347476D01*
X2749286Y-11357000D01*
X2758810Y-11366524D01*
X2768333Y-11385571D01*
X2777857Y-11423667D01*
X2777857Y-11471286D01*
X2768333Y-11509381D01*
X2758810Y-11528428D01*
X2749286Y-11537952D01*
X2730238Y-11547476D01*
X2711190Y-11547476D01*
X2692143Y-11537952D01*
X2682619Y-11528428D01*
X2673095Y-11509381D01*
X2663571Y-11471286D01*
X2663571Y-11423667D01*
X2673095Y-11385571D01*
X2682619Y-11366524D01*
X2692143Y-11357000D01*
X2711190Y-11347476D01*
X2844524Y-11347476D02*
X2968333Y-11347476D01*
X2901667Y-11423667D01*
X2930238Y-11423667D01*
X2949286Y-11433190D01*
X2958809Y-11442714D01*
X2968333Y-11461762D01*
X2968333Y-11509381D01*
X2958809Y-11528428D01*
X2949286Y-11537952D01*
X2930238Y-11547476D01*
X2873095Y-11547476D01*
X2854048Y-11537952D01*
X2844524Y-11528428D01*
X3063571Y-11547476D02*
X3101667Y-11547476D01*
X3120714Y-11537952D01*
X3130238Y-11528428D01*
X3149286Y-11499857D01*
X3158809Y-11461762D01*
X3158809Y-11385571D01*
X3149286Y-11366524D01*
X3139762Y-11357000D01*
X3120714Y-11347476D01*
X3082619Y-11347476D01*
X3063571Y-11357000D01*
X3054048Y-11366524D01*
X3044524Y-11385571D01*
X3044524Y-11433190D01*
X3054048Y-11452238D01*
X3063571Y-11461762D01*
X3082619Y-11471286D01*
X3120714Y-11471286D01*
X3139762Y-11461762D01*
X3149286Y-11452238D01*
X3158809Y-11433190D01*
X3330238Y-11414143D02*
X3330238Y-11547476D01*
X3282619Y-11337952D02*
X3235000Y-11480809D01*
X3358809Y-11480809D01*
X3425476Y-11347476D02*
X3425476Y-11385571D01*
X3501667Y-11347476D02*
X3501667Y-11385571D01*
X3796905Y-11623667D02*
X3787381Y-11614143D01*
X3768333Y-11585571D01*
X3758809Y-11566524D01*
X3749286Y-11537952D01*
X3739762Y-11490333D01*
X3739762Y-11452238D01*
X3749286Y-11404619D01*
X3758809Y-11376048D01*
X3768333Y-11357000D01*
X3787381Y-11328428D01*
X3796905Y-11318905D01*
X3863571Y-11366524D02*
X3873095Y-11357000D01*
X3892143Y-11347476D01*
X3939762Y-11347476D01*
X3958809Y-11357000D01*
X3968333Y-11366524D01*
X3977857Y-11385571D01*
X3977857Y-11404619D01*
X3968333Y-11433190D01*
X3854048Y-11547476D01*
X3977857Y-11547476D01*
X4101667Y-11347476D02*
X4120714Y-11347476D01*
X4139762Y-11357000D01*
X4149286Y-11366524D01*
X4158809Y-11385571D01*
X4168333Y-11423667D01*
X4168333Y-11471286D01*
X4158809Y-11509381D01*
X4149286Y-11528428D01*
X4139762Y-11537952D01*
X4120714Y-11547476D01*
X4101667Y-11547476D01*
X4082619Y-11537952D01*
X4073095Y-11528428D01*
X4063571Y-11509381D01*
X4054048Y-11471286D01*
X4054048Y-11423667D01*
X4063571Y-11385571D01*
X4073095Y-11366524D01*
X4082619Y-11357000D01*
X4101667Y-11347476D01*
X4406429Y-11547476D02*
X4406429Y-11347476D01*
X4492143Y-11547476D02*
X4492143Y-11442714D01*
X4482619Y-11423667D01*
X4463571Y-11414143D01*
X4435000Y-11414143D01*
X4415952Y-11423667D01*
X4406429Y-11433190D01*
X4615952Y-11547476D02*
X4596905Y-11537952D01*
X4587381Y-11528428D01*
X4577857Y-11509381D01*
X4577857Y-11452238D01*
X4587381Y-11433190D01*
X4596905Y-11423667D01*
X4615952Y-11414143D01*
X4644524Y-11414143D01*
X4663571Y-11423667D01*
X4673095Y-11433190D01*
X4682619Y-11452238D01*
X4682619Y-11509381D01*
X4673095Y-11528428D01*
X4663571Y-11537952D01*
X4644524Y-11547476D01*
X4615952Y-11547476D01*
X4796905Y-11547476D02*
X4777857Y-11537952D01*
X4768333Y-11518905D01*
X4768333Y-11347476D01*
X4949286Y-11537952D02*
X4930238Y-11547476D01*
X4892143Y-11547476D01*
X4873095Y-11537952D01*
X4863571Y-11518905D01*
X4863571Y-11442714D01*
X4873095Y-11423667D01*
X4892143Y-11414143D01*
X4930238Y-11414143D01*
X4949286Y-11423667D01*
X4958810Y-11442714D01*
X4958810Y-11461762D01*
X4863571Y-11480809D01*
X5035000Y-11537952D02*
X5054048Y-11547476D01*
X5092143Y-11547476D01*
X5111190Y-11537952D01*
X5120714Y-11518905D01*
X5120714Y-11509381D01*
X5111190Y-11490333D01*
X5092143Y-11480809D01*
X5063571Y-11480809D01*
X5044524Y-11471286D01*
X5035000Y-11452238D01*
X5035000Y-11442714D01*
X5044524Y-11423667D01*
X5063571Y-11414143D01*
X5092143Y-11414143D01*
X5111190Y-11423667D01*
X5187381Y-11623667D02*
X5196905Y-11614143D01*
X5215952Y-11585571D01*
X5225476Y-11566524D01*
X5235000Y-11537952D01*
X5244524Y-11490333D01*
X5244524Y-11452238D01*
X5235000Y-11404619D01*
X5225476Y-11376048D01*
X5215952Y-11357000D01*
X5196905Y-11328428D01*
X5187381Y-11318905D01*
M02*
