%FSLAX45Y45*%
G04 Gerber Fmt 4.5, Leading zero omitted, Abs format (unit mm)*
G04 Created by KiCad (PCBNEW (6.0.2)) date 2022-04-01 11:59:31*
%MOMM*%
%LPD*%
G01*
G04 APERTURE LIST*
%TA.AperFunction,Profile*%
%ADD10C,0.500000*%
%TD*%
%ADD11C,0.200000*%
%ADD12C,0.430000*%
G04 APERTURE END LIST*
D10*
X0Y0D02*
X6000000Y0D01*
X6000000Y0D02*
X6000000Y-10000000D01*
X6000000Y-10000000D02*
X0Y-10000000D01*
X0Y-10000000D02*
X0Y0D01*
D11*
D12*
X285000Y-285000D02*
X715000Y-715000D01*
X715000Y-285000D02*
X285000Y-715000D01*
X285000Y-9285000D02*
X715000Y-9715000D01*
X715000Y-9285000D02*
X285000Y-9715000D01*
X5285000Y-285000D02*
X5715000Y-715000D01*
X5715000Y-285000D02*
X5285000Y-715000D01*
X5285000Y-4785000D02*
X5715000Y-5215000D01*
X5715000Y-4785000D02*
X5285000Y-5215000D01*
X5285000Y-9285000D02*
X5715000Y-9715000D01*
X5715000Y-9285000D02*
X5285000Y-9715000D01*
D11*
X232619Y-10335476D02*
X232619Y-10135476D01*
X280238Y-10135476D01*
X308810Y-10145000D01*
X327857Y-10164048D01*
X337381Y-10183095D01*
X346905Y-10221190D01*
X346905Y-10249762D01*
X337381Y-10287857D01*
X327857Y-10306905D01*
X308810Y-10325952D01*
X280238Y-10335476D01*
X232619Y-10335476D01*
X432619Y-10335476D02*
X432619Y-10202143D01*
X432619Y-10240238D02*
X442143Y-10221190D01*
X451667Y-10211667D01*
X470714Y-10202143D01*
X489762Y-10202143D01*
X556429Y-10335476D02*
X556429Y-10202143D01*
X556429Y-10135476D02*
X546905Y-10145000D01*
X556429Y-10154524D01*
X565952Y-10145000D01*
X556429Y-10135476D01*
X556429Y-10154524D01*
X680238Y-10335476D02*
X661190Y-10325952D01*
X651667Y-10306905D01*
X651667Y-10135476D01*
X785000Y-10335476D02*
X765952Y-10325952D01*
X756428Y-10306905D01*
X756428Y-10135476D01*
X1013571Y-10335476D02*
X1013571Y-10135476D01*
X1080238Y-10278333D01*
X1146905Y-10135476D01*
X1146905Y-10335476D01*
X1327857Y-10335476D02*
X1327857Y-10230714D01*
X1318333Y-10211667D01*
X1299286Y-10202143D01*
X1261190Y-10202143D01*
X1242143Y-10211667D01*
X1327857Y-10325952D02*
X1308810Y-10335476D01*
X1261190Y-10335476D01*
X1242143Y-10325952D01*
X1232619Y-10306905D01*
X1232619Y-10287857D01*
X1242143Y-10268810D01*
X1261190Y-10259286D01*
X1308810Y-10259286D01*
X1327857Y-10249762D01*
X1423095Y-10202143D02*
X1423095Y-10402143D01*
X1423095Y-10211667D02*
X1442143Y-10202143D01*
X1480238Y-10202143D01*
X1499286Y-10211667D01*
X1508809Y-10221190D01*
X1518333Y-10240238D01*
X1518333Y-10297381D01*
X1508809Y-10316429D01*
X1499286Y-10325952D01*
X1480238Y-10335476D01*
X1442143Y-10335476D01*
X1423095Y-10325952D01*
X1604048Y-10316429D02*
X1613571Y-10325952D01*
X1604048Y-10335476D01*
X1594524Y-10325952D01*
X1604048Y-10316429D01*
X1604048Y-10335476D01*
X1604048Y-10211667D02*
X1613571Y-10221190D01*
X1604048Y-10230714D01*
X1594524Y-10221190D01*
X1604048Y-10211667D01*
X1604048Y-10230714D01*
X-225000Y-10565000D02*
X-25000Y-10765000D01*
X-25000Y-10565000D02*
X-225000Y-10765000D01*
X318333Y-10622143D02*
X318333Y-10755476D01*
X270714Y-10545952D02*
X223095Y-10688810D01*
X346905Y-10688810D01*
X423095Y-10736429D02*
X432619Y-10745952D01*
X423095Y-10755476D01*
X413571Y-10745952D01*
X423095Y-10736429D01*
X423095Y-10755476D01*
X499286Y-10555476D02*
X623095Y-10555476D01*
X556429Y-10631667D01*
X585000Y-10631667D01*
X604048Y-10641190D01*
X613571Y-10650714D01*
X623095Y-10669762D01*
X623095Y-10717381D01*
X613571Y-10736429D01*
X604048Y-10745952D01*
X585000Y-10755476D01*
X527857Y-10755476D01*
X508809Y-10745952D01*
X499286Y-10736429D01*
X746905Y-10555476D02*
X765952Y-10555476D01*
X785000Y-10565000D01*
X794524Y-10574524D01*
X804048Y-10593571D01*
X813571Y-10631667D01*
X813571Y-10679286D01*
X804048Y-10717381D01*
X794524Y-10736429D01*
X785000Y-10745952D01*
X765952Y-10755476D01*
X746905Y-10755476D01*
X727857Y-10745952D01*
X718333Y-10736429D01*
X708809Y-10717381D01*
X699286Y-10679286D01*
X699286Y-10631667D01*
X708809Y-10593571D01*
X718333Y-10574524D01*
X727857Y-10565000D01*
X746905Y-10555476D01*
X937381Y-10555476D02*
X956428Y-10555476D01*
X975476Y-10565000D01*
X985000Y-10574524D01*
X994524Y-10593571D01*
X1004048Y-10631667D01*
X1004048Y-10679286D01*
X994524Y-10717381D01*
X985000Y-10736429D01*
X975476Y-10745952D01*
X956428Y-10755476D01*
X937381Y-10755476D01*
X918333Y-10745952D01*
X908809Y-10736429D01*
X899286Y-10717381D01*
X889762Y-10679286D01*
X889762Y-10631667D01*
X899286Y-10593571D01*
X908809Y-10574524D01*
X918333Y-10565000D01*
X937381Y-10555476D01*
X1089762Y-10755476D02*
X1089762Y-10622143D01*
X1089762Y-10641190D02*
X1099286Y-10631667D01*
X1118333Y-10622143D01*
X1146905Y-10622143D01*
X1165952Y-10631667D01*
X1175476Y-10650714D01*
X1175476Y-10755476D01*
X1175476Y-10650714D02*
X1185000Y-10631667D01*
X1204048Y-10622143D01*
X1232619Y-10622143D01*
X1251667Y-10631667D01*
X1261190Y-10650714D01*
X1261190Y-10755476D01*
X1356429Y-10755476D02*
X1356429Y-10622143D01*
X1356429Y-10641190D02*
X1365952Y-10631667D01*
X1385000Y-10622143D01*
X1413571Y-10622143D01*
X1432619Y-10631667D01*
X1442143Y-10650714D01*
X1442143Y-10755476D01*
X1442143Y-10650714D02*
X1451667Y-10631667D01*
X1470714Y-10622143D01*
X1499286Y-10622143D01*
X1518333Y-10631667D01*
X1527857Y-10650714D01*
X1527857Y-10755476D01*
X1918333Y-10545952D02*
X1746905Y-10803095D01*
X2175476Y-10555476D02*
X2194524Y-10555476D01*
X2213571Y-10565000D01*
X2223095Y-10574524D01*
X2232619Y-10593571D01*
X2242143Y-10631667D01*
X2242143Y-10679286D01*
X2232619Y-10717381D01*
X2223095Y-10736429D01*
X2213571Y-10745952D01*
X2194524Y-10755476D01*
X2175476Y-10755476D01*
X2156429Y-10745952D01*
X2146905Y-10736429D01*
X2137381Y-10717381D01*
X2127857Y-10679286D01*
X2127857Y-10631667D01*
X2137381Y-10593571D01*
X2146905Y-10574524D01*
X2156429Y-10565000D01*
X2175476Y-10555476D01*
X2327857Y-10736429D02*
X2337381Y-10745952D01*
X2327857Y-10755476D01*
X2318333Y-10745952D01*
X2327857Y-10736429D01*
X2327857Y-10755476D01*
X2527857Y-10755476D02*
X2413571Y-10755476D01*
X2470714Y-10755476D02*
X2470714Y-10555476D01*
X2451667Y-10584048D01*
X2432619Y-10603095D01*
X2413571Y-10612619D01*
X2699286Y-10555476D02*
X2661190Y-10555476D01*
X2642143Y-10565000D01*
X2632619Y-10574524D01*
X2613571Y-10603095D01*
X2604048Y-10641190D01*
X2604048Y-10717381D01*
X2613571Y-10736429D01*
X2623095Y-10745952D01*
X2642143Y-10755476D01*
X2680238Y-10755476D01*
X2699286Y-10745952D01*
X2708810Y-10736429D01*
X2718333Y-10717381D01*
X2718333Y-10669762D01*
X2708810Y-10650714D01*
X2699286Y-10641190D01*
X2680238Y-10631667D01*
X2642143Y-10631667D01*
X2623095Y-10641190D01*
X2613571Y-10650714D01*
X2604048Y-10669762D01*
X2813571Y-10755476D02*
X2851667Y-10755476D01*
X2870714Y-10745952D01*
X2880238Y-10736429D01*
X2899286Y-10707857D01*
X2908809Y-10669762D01*
X2908809Y-10593571D01*
X2899286Y-10574524D01*
X2889762Y-10565000D01*
X2870714Y-10555476D01*
X2832619Y-10555476D01*
X2813571Y-10565000D01*
X2804048Y-10574524D01*
X2794524Y-10593571D01*
X2794524Y-10641190D01*
X2804048Y-10660238D01*
X2813571Y-10669762D01*
X2832619Y-10679286D01*
X2870714Y-10679286D01*
X2889762Y-10669762D01*
X2899286Y-10660238D01*
X2908809Y-10641190D01*
X2975476Y-10555476D02*
X3099286Y-10555476D01*
X3032619Y-10631667D01*
X3061190Y-10631667D01*
X3080238Y-10641190D01*
X3089762Y-10650714D01*
X3099286Y-10669762D01*
X3099286Y-10717381D01*
X3089762Y-10736429D01*
X3080238Y-10745952D01*
X3061190Y-10755476D01*
X3004048Y-10755476D01*
X2985000Y-10745952D01*
X2975476Y-10736429D01*
X3175476Y-10555476D02*
X3175476Y-10593571D01*
X3251667Y-10555476D02*
X3251667Y-10593571D01*
X3546905Y-10831667D02*
X3537381Y-10822143D01*
X3518333Y-10793571D01*
X3508809Y-10774524D01*
X3499286Y-10745952D01*
X3489762Y-10698333D01*
X3489762Y-10660238D01*
X3499286Y-10612619D01*
X3508809Y-10584048D01*
X3518333Y-10565000D01*
X3537381Y-10536429D01*
X3546905Y-10526905D01*
X3718333Y-10555476D02*
X3623095Y-10555476D01*
X3613571Y-10650714D01*
X3623095Y-10641190D01*
X3642143Y-10631667D01*
X3689762Y-10631667D01*
X3708809Y-10641190D01*
X3718333Y-10650714D01*
X3727857Y-10669762D01*
X3727857Y-10717381D01*
X3718333Y-10736429D01*
X3708809Y-10745952D01*
X3689762Y-10755476D01*
X3642143Y-10755476D01*
X3623095Y-10745952D01*
X3613571Y-10736429D01*
X3965952Y-10755476D02*
X3965952Y-10555476D01*
X4051667Y-10755476D02*
X4051667Y-10650714D01*
X4042143Y-10631667D01*
X4023095Y-10622143D01*
X3994524Y-10622143D01*
X3975476Y-10631667D01*
X3965952Y-10641190D01*
X4175476Y-10755476D02*
X4156428Y-10745952D01*
X4146905Y-10736429D01*
X4137381Y-10717381D01*
X4137381Y-10660238D01*
X4146905Y-10641190D01*
X4156428Y-10631667D01*
X4175476Y-10622143D01*
X4204048Y-10622143D01*
X4223095Y-10631667D01*
X4232619Y-10641190D01*
X4242143Y-10660238D01*
X4242143Y-10717381D01*
X4232619Y-10736429D01*
X4223095Y-10745952D01*
X4204048Y-10755476D01*
X4175476Y-10755476D01*
X4356429Y-10755476D02*
X4337381Y-10745952D01*
X4327857Y-10726905D01*
X4327857Y-10555476D01*
X4508810Y-10745952D02*
X4489762Y-10755476D01*
X4451667Y-10755476D01*
X4432619Y-10745952D01*
X4423095Y-10726905D01*
X4423095Y-10650714D01*
X4432619Y-10631667D01*
X4451667Y-10622143D01*
X4489762Y-10622143D01*
X4508810Y-10631667D01*
X4518333Y-10650714D01*
X4518333Y-10669762D01*
X4423095Y-10688810D01*
X4594524Y-10745952D02*
X4613571Y-10755476D01*
X4651667Y-10755476D01*
X4670714Y-10745952D01*
X4680238Y-10726905D01*
X4680238Y-10717381D01*
X4670714Y-10698333D01*
X4651667Y-10688810D01*
X4623095Y-10688810D01*
X4604048Y-10679286D01*
X4594524Y-10660238D01*
X4594524Y-10650714D01*
X4604048Y-10631667D01*
X4623095Y-10622143D01*
X4651667Y-10622143D01*
X4670714Y-10631667D01*
X4746905Y-10831667D02*
X4756429Y-10822143D01*
X4775476Y-10793571D01*
X4785000Y-10774524D01*
X4794524Y-10745952D01*
X4804048Y-10698333D01*
X4804048Y-10660238D01*
X4794524Y-10612619D01*
X4785000Y-10584048D01*
X4775476Y-10565000D01*
X4756429Y-10536429D01*
X4746905Y-10526905D01*
X5108810Y-10831667D02*
X5099286Y-10822143D01*
X5080238Y-10793571D01*
X5070714Y-10774524D01*
X5061190Y-10745952D01*
X5051667Y-10698333D01*
X5051667Y-10660238D01*
X5061190Y-10612619D01*
X5070714Y-10584048D01*
X5080238Y-10565000D01*
X5099286Y-10536429D01*
X5108810Y-10526905D01*
X5185000Y-10622143D02*
X5185000Y-10755476D01*
X5185000Y-10641190D02*
X5194524Y-10631667D01*
X5213571Y-10622143D01*
X5242143Y-10622143D01*
X5261190Y-10631667D01*
X5270714Y-10650714D01*
X5270714Y-10755476D01*
X5394524Y-10755476D02*
X5375476Y-10745952D01*
X5365952Y-10736429D01*
X5356429Y-10717381D01*
X5356429Y-10660238D01*
X5365952Y-10641190D01*
X5375476Y-10631667D01*
X5394524Y-10622143D01*
X5423095Y-10622143D01*
X5442143Y-10631667D01*
X5451667Y-10641190D01*
X5461190Y-10660238D01*
X5461190Y-10717381D01*
X5451667Y-10736429D01*
X5442143Y-10745952D01*
X5423095Y-10755476D01*
X5394524Y-10755476D01*
X5518333Y-10622143D02*
X5594524Y-10622143D01*
X5546905Y-10555476D02*
X5546905Y-10726905D01*
X5556429Y-10745952D01*
X5575476Y-10755476D01*
X5594524Y-10755476D01*
X5813571Y-10622143D02*
X5813571Y-10822143D01*
X5813571Y-10631667D02*
X5832619Y-10622143D01*
X5870714Y-10622143D01*
X5889762Y-10631667D01*
X5899286Y-10641190D01*
X5908809Y-10660238D01*
X5908809Y-10717381D01*
X5899286Y-10736429D01*
X5889762Y-10745952D01*
X5870714Y-10755476D01*
X5832619Y-10755476D01*
X5813571Y-10745952D01*
X6023095Y-10755476D02*
X6004048Y-10745952D01*
X5994524Y-10726905D01*
X5994524Y-10555476D01*
X6185000Y-10755476D02*
X6185000Y-10650714D01*
X6175476Y-10631667D01*
X6156428Y-10622143D01*
X6118333Y-10622143D01*
X6099286Y-10631667D01*
X6185000Y-10745952D02*
X6165952Y-10755476D01*
X6118333Y-10755476D01*
X6099286Y-10745952D01*
X6089762Y-10726905D01*
X6089762Y-10707857D01*
X6099286Y-10688810D01*
X6118333Y-10679286D01*
X6165952Y-10679286D01*
X6185000Y-10669762D01*
X6251667Y-10622143D02*
X6327857Y-10622143D01*
X6280238Y-10555476D02*
X6280238Y-10726905D01*
X6289762Y-10745952D01*
X6308809Y-10755476D01*
X6327857Y-10755476D01*
X6470714Y-10745952D02*
X6451667Y-10755476D01*
X6413571Y-10755476D01*
X6394524Y-10745952D01*
X6385000Y-10726905D01*
X6385000Y-10650714D01*
X6394524Y-10631667D01*
X6413571Y-10622143D01*
X6451667Y-10622143D01*
X6470714Y-10631667D01*
X6480238Y-10650714D01*
X6480238Y-10669762D01*
X6385000Y-10688810D01*
X6651667Y-10755476D02*
X6651667Y-10555476D01*
X6651667Y-10745952D02*
X6632619Y-10755476D01*
X6594524Y-10755476D01*
X6575476Y-10745952D01*
X6565952Y-10736429D01*
X6556428Y-10717381D01*
X6556428Y-10660238D01*
X6565952Y-10641190D01*
X6575476Y-10631667D01*
X6594524Y-10622143D01*
X6632619Y-10622143D01*
X6651667Y-10631667D01*
X6727857Y-10831667D02*
X6737381Y-10822143D01*
X6756428Y-10793571D01*
X6765952Y-10774524D01*
X6775476Y-10745952D01*
X6785000Y-10698333D01*
X6785000Y-10660238D01*
X6775476Y-10612619D01*
X6765952Y-10584048D01*
X6756428Y-10565000D01*
X6737381Y-10536429D01*
X6727857Y-10526905D01*
M02*
