G04 #@! TF.GenerationSoftware,KiCad,Pcbnew,(6.0.2)*
G04 #@! TF.CreationDate,2022-06-11T16:39:15+02:00*
G04 #@! TF.ProjectId,cartteFille,63617274-7465-4466-996c-6c652e6b6963,rev?*
G04 #@! TF.SameCoordinates,Original*
G04 #@! TF.FileFunction,Copper,L1,Top*
G04 #@! TF.FilePolarity,Positive*
%FSLAX46Y46*%
G04 Gerber Fmt 4.6, Leading zero omitted, Abs format (unit mm)*
G04 Created by KiCad (PCBNEW (6.0.2)) date 2022-06-11 16:39:15*
%MOMM*%
%LPD*%
G01*
G04 APERTURE LIST*
G04 Aperture macros list*
%AMRoundRect*
0 Rectangle with rounded corners*
0 $1 Rounding radius*
0 $2 $3 $4 $5 $6 $7 $8 $9 X,Y pos of 4 corners*
0 Add a 4 corners polygon primitive as box body*
4,1,4,$2,$3,$4,$5,$6,$7,$8,$9,$2,$3,0*
0 Add four circle primitives for the rounded corners*
1,1,$1+$1,$2,$3*
1,1,$1+$1,$4,$5*
1,1,$1+$1,$6,$7*
1,1,$1+$1,$8,$9*
0 Add four rect primitives between the rounded corners*
20,1,$1+$1,$2,$3,$4,$5,0*
20,1,$1+$1,$4,$5,$6,$7,0*
20,1,$1+$1,$6,$7,$8,$9,0*
20,1,$1+$1,$8,$9,$2,$3,0*%
G04 Aperture macros list end*
G04 #@! TA.AperFunction,SMDPad,CuDef*
%ADD10R,1.473200X0.355600*%
G04 #@! TD*
G04 #@! TA.AperFunction,SMDPad,CuDef*
%ADD11RoundRect,0.200000X0.275000X-0.200000X0.275000X0.200000X-0.275000X0.200000X-0.275000X-0.200000X0*%
G04 #@! TD*
G04 #@! TA.AperFunction,SMDPad,CuDef*
%ADD12RoundRect,0.200000X-0.200000X-0.275000X0.200000X-0.275000X0.200000X0.275000X-0.200000X0.275000X0*%
G04 #@! TD*
G04 #@! TA.AperFunction,SMDPad,CuDef*
%ADD13R,1.300000X2.000000*%
G04 #@! TD*
G04 #@! TA.AperFunction,SMDPad,CuDef*
%ADD14RoundRect,0.064000X0.336000X-0.496000X0.336000X0.496000X-0.336000X0.496000X-0.336000X-0.496000X0*%
G04 #@! TD*
G04 #@! TA.AperFunction,ComponentPad*
%ADD15C,1.778000*%
G04 #@! TD*
G04 #@! TA.AperFunction,ComponentPad*
%ADD16R,1.778000X1.778000*%
G04 #@! TD*
G04 #@! TA.AperFunction,SMDPad,CuDef*
%ADD17RoundRect,0.200000X0.200000X0.275000X-0.200000X0.275000X-0.200000X-0.275000X0.200000X-0.275000X0*%
G04 #@! TD*
G04 #@! TA.AperFunction,SMDPad,CuDef*
%ADD18RoundRect,0.225000X0.225000X0.250000X-0.225000X0.250000X-0.225000X-0.250000X0.225000X-0.250000X0*%
G04 #@! TD*
G04 #@! TA.AperFunction,SMDPad,CuDef*
%ADD19RoundRect,0.225000X-0.225000X-0.250000X0.225000X-0.250000X0.225000X0.250000X-0.225000X0.250000X0*%
G04 #@! TD*
G04 #@! TA.AperFunction,SMDPad,CuDef*
%ADD20RoundRect,0.200000X-0.275000X0.200000X-0.275000X-0.200000X0.275000X-0.200000X0.275000X0.200000X0*%
G04 #@! TD*
G04 #@! TA.AperFunction,SMDPad,CuDef*
%ADD21RoundRect,0.040600X0.564400X0.249400X-0.564400X0.249400X-0.564400X-0.249400X0.564400X-0.249400X0*%
G04 #@! TD*
G04 #@! TA.AperFunction,SMDPad,CuDef*
%ADD22RoundRect,0.040600X-0.249400X0.564400X-0.249400X-0.564400X0.249400X-0.564400X0.249400X0.564400X0*%
G04 #@! TD*
G04 #@! TA.AperFunction,SMDPad,CuDef*
%ADD23RoundRect,0.064000X-0.336000X0.496000X-0.336000X-0.496000X0.336000X-0.496000X0.336000X0.496000X0*%
G04 #@! TD*
G04 #@! TA.AperFunction,SMDPad,CuDef*
%ADD24RoundRect,0.225000X-0.250000X0.225000X-0.250000X-0.225000X0.250000X-0.225000X0.250000X0.225000X0*%
G04 #@! TD*
G04 #@! TA.AperFunction,SMDPad,CuDef*
%ADD25RoundRect,0.064000X0.496000X0.336000X-0.496000X0.336000X-0.496000X-0.336000X0.496000X-0.336000X0*%
G04 #@! TD*
G04 #@! TA.AperFunction,SMDPad,CuDef*
%ADD26RoundRect,0.150000X0.650000X0.150000X-0.650000X0.150000X-0.650000X-0.150000X0.650000X-0.150000X0*%
G04 #@! TD*
G04 #@! TA.AperFunction,SMDPad,CuDef*
%ADD27RoundRect,0.225000X0.250000X-0.225000X0.250000X0.225000X-0.250000X0.225000X-0.250000X-0.225000X0*%
G04 #@! TD*
G04 #@! TA.AperFunction,ViaPad*
%ADD28C,0.600000*%
G04 #@! TD*
G04 #@! TA.AperFunction,ViaPad*
%ADD29C,0.800000*%
G04 #@! TD*
G04 #@! TA.AperFunction,ViaPad*
%ADD30C,2.000000*%
G04 #@! TD*
G04 #@! TA.AperFunction,Conductor*
%ADD31C,0.250000*%
G04 #@! TD*
G04 APERTURE END LIST*
D10*
X22870200Y-94286000D03*
X22870200Y-93625600D03*
X22870200Y-92965200D03*
X22870200Y-92330200D03*
X22870200Y-91669800D03*
X22870200Y-91034800D03*
X22870200Y-90374400D03*
X22870200Y-89714000D03*
X17129800Y-89714000D03*
X17129800Y-90374400D03*
X17129800Y-91034800D03*
X17129800Y-91669800D03*
X17129800Y-92330200D03*
X17129800Y-92965200D03*
X17129800Y-93625600D03*
X17129800Y-94286000D03*
D11*
X40000000Y-72825000D03*
X40000000Y-71175000D03*
D12*
X10503400Y-77927200D03*
X12153400Y-77927200D03*
D13*
X24000000Y-17510000D03*
X16000000Y-22510000D03*
X24000000Y-22510000D03*
X16000000Y-17510000D03*
D11*
X33000000Y-70825000D03*
X33000000Y-69175000D03*
D13*
X36000000Y-82500000D03*
X44000000Y-77500000D03*
X36000000Y-77500000D03*
X44000000Y-82500000D03*
D12*
X16175000Y-70000000D03*
X17825000Y-70000000D03*
D14*
X36017200Y-14122400D03*
X36017200Y-10662400D03*
D15*
X30492000Y-58140000D03*
X30492000Y-55600000D03*
X30492000Y-53060000D03*
X30492000Y-50520000D03*
X30492000Y-47980000D03*
X30492000Y-45440000D03*
X30492000Y-42900000D03*
X30492000Y-40360000D03*
X30492000Y-37820000D03*
D16*
X30492000Y-35280000D03*
D12*
X20587200Y-53111400D03*
X22237200Y-53111400D03*
D17*
X44825000Y-32000000D03*
X43175000Y-32000000D03*
D18*
X44775000Y-28000000D03*
X43225000Y-28000000D03*
X48775000Y-21000000D03*
X47225000Y-21000000D03*
D19*
X12225000Y-42000000D03*
X13775000Y-42000000D03*
D20*
X21132800Y-46813200D03*
X21132800Y-48463200D03*
D11*
X36017200Y-13217400D03*
X36017200Y-11567400D03*
D20*
X22000000Y-70825000D03*
X22000000Y-69175000D03*
D21*
X10755000Y-72950000D03*
X10755000Y-72000000D03*
X10755000Y-71050000D03*
X8245000Y-71050000D03*
X8245000Y-72000000D03*
X8245000Y-72950000D03*
D17*
X25825000Y-6500000D03*
X24175000Y-6500000D03*
D22*
X48950000Y-27745000D03*
X48000000Y-27745000D03*
X47050000Y-27745000D03*
X47050000Y-30255000D03*
X48000000Y-30255000D03*
X48950000Y-30255000D03*
D15*
X5092000Y-58140000D03*
X5092000Y-55600000D03*
X5092000Y-53060000D03*
X5092000Y-50520000D03*
X5092000Y-47980000D03*
X5092000Y-45440000D03*
X5092000Y-42900000D03*
X5092000Y-40360000D03*
X5092000Y-37820000D03*
D16*
X5092000Y-35280000D03*
D23*
X22000000Y-71730000D03*
X22000000Y-68270000D03*
D13*
X24000000Y-77500000D03*
X16000000Y-82500000D03*
X24000000Y-82500000D03*
X16000000Y-77500000D03*
D17*
X40196000Y-52679600D03*
X41846000Y-52679600D03*
X10825000Y-82000000D03*
X9175000Y-82000000D03*
D19*
X11264600Y-17983200D03*
X12814600Y-17983200D03*
D10*
X42870200Y-94286000D03*
X42870200Y-93625600D03*
X42870200Y-92965200D03*
X42870200Y-92330200D03*
X42870200Y-91669800D03*
X42870200Y-91034800D03*
X42870200Y-90374400D03*
X42870200Y-89714000D03*
X37129800Y-89714000D03*
X37129800Y-90374400D03*
X37129800Y-91034800D03*
X37129800Y-91669800D03*
X37129800Y-92330200D03*
X37129800Y-92965200D03*
X37129800Y-93625600D03*
X37129800Y-94286000D03*
D14*
X33000000Y-71730000D03*
X33000000Y-68270000D03*
D23*
X21132800Y-45908200D03*
X21132800Y-49368200D03*
X21000000Y-25270000D03*
X21000000Y-28730000D03*
D24*
X44000000Y-50775000D03*
X44000000Y-49225000D03*
D17*
X36175000Y-33000000D03*
X37825000Y-33000000D03*
D12*
X24175000Y-3000000D03*
X25825000Y-3000000D03*
D13*
X36000000Y-22500000D03*
X44000000Y-17500000D03*
X36000000Y-17500000D03*
X44000000Y-22500000D03*
X36000000Y-62500000D03*
X44000000Y-57500000D03*
X36000000Y-57500000D03*
X44000000Y-62500000D03*
D12*
X15175000Y-33000000D03*
X16825000Y-33000000D03*
D17*
X48825000Y-17000000D03*
X47175000Y-17000000D03*
D25*
X35270000Y-33000000D03*
X38730000Y-33000000D03*
D19*
X11225000Y-66000000D03*
X12775000Y-66000000D03*
D18*
X44775000Y-69000000D03*
X43225000Y-69000000D03*
D12*
X11175000Y-63000000D03*
X12825000Y-63000000D03*
D26*
X20820000Y-8885000D03*
X20820000Y-7615000D03*
X20820000Y-6345000D03*
X20820000Y-5075000D03*
X13620000Y-5075000D03*
X13620000Y-6345000D03*
X13620000Y-7615000D03*
X13620000Y-8885000D03*
D24*
X11000000Y-9225000D03*
X11000000Y-10775000D03*
D12*
X15126200Y-27203400D03*
X16776200Y-27203400D03*
D11*
X36000000Y-51175000D03*
X36000000Y-52825000D03*
D25*
X11730000Y-82000000D03*
X8270000Y-82000000D03*
D22*
X49950000Y-68745000D03*
X49000000Y-68745000D03*
X48050000Y-68745000D03*
X48050000Y-71255000D03*
X49000000Y-71255000D03*
X49950000Y-71255000D03*
D11*
X40030400Y-28638000D03*
X40030400Y-26988000D03*
D17*
X42126400Y-46558200D03*
X43776400Y-46558200D03*
D13*
X24000000Y-37500000D03*
X16000000Y-42500000D03*
X24000000Y-42500000D03*
X16000000Y-37500000D03*
D20*
X15590000Y-11670000D03*
X15590000Y-13320000D03*
D12*
X16175000Y-73000000D03*
X17825000Y-73000000D03*
D27*
X19600000Y-13280000D03*
X19600000Y-11730000D03*
D12*
X12175000Y-38000000D03*
X13825000Y-38000000D03*
D14*
X36000000Y-50270000D03*
X36000000Y-53730000D03*
D21*
X16255000Y-50950000D03*
X16255000Y-50000000D03*
X16255000Y-49050000D03*
X13745000Y-49050000D03*
X13745000Y-50000000D03*
X13745000Y-50950000D03*
D20*
X21000000Y-26175000D03*
X21000000Y-27825000D03*
D13*
X36000000Y-42500000D03*
X44000000Y-37500000D03*
X36000000Y-37500000D03*
X44000000Y-42500000D03*
D12*
X11316200Y-21945600D03*
X12966200Y-21945600D03*
D13*
X24000000Y-57500000D03*
X16000000Y-62500000D03*
X24000000Y-62500000D03*
X16000000Y-57500000D03*
D27*
X8966200Y-76364800D03*
X8966200Y-77914800D03*
D17*
X44825000Y-73000000D03*
X43175000Y-73000000D03*
X43825000Y-13385800D03*
X42175000Y-13385800D03*
X25825000Y-10000000D03*
X24175000Y-10000000D03*
D28*
X8966200Y-75361800D03*
D29*
X48010000Y-26300000D03*
D28*
X23990000Y-78960000D03*
D29*
X49010000Y-67400000D03*
D28*
X35990000Y-60970000D03*
X12877800Y-16826100D03*
X44145200Y-89255600D03*
D29*
X12242800Y-10795000D03*
D28*
X35990000Y-80970000D03*
X46060000Y-21000000D03*
X13770000Y-43220000D03*
X44881800Y-94183200D03*
X13990000Y-66000000D03*
X23990000Y-59000000D03*
X36030000Y-44000000D03*
D29*
X18465800Y-11734800D03*
X24155400Y-89452200D03*
D28*
X12020000Y-72010000D03*
X17480000Y-50000000D03*
D29*
X43980000Y-51950000D03*
D28*
X24000000Y-19080000D03*
X44018200Y-94869000D03*
D29*
X42080000Y-28000000D03*
D28*
X36000000Y-20810000D03*
D29*
X24180800Y-8813800D03*
X41870000Y-69000000D03*
X22330000Y-5130000D03*
X24206200Y-93313000D03*
D28*
X44881800Y-93141800D03*
X24010000Y-39110000D03*
D29*
X31648400Y-92329000D03*
D28*
X25044400Y-50850800D03*
D29*
X43900000Y-71260000D03*
X48000000Y-31700000D03*
D28*
X15780000Y-75720000D03*
X14440000Y-52290000D03*
X27686000Y-32994600D03*
D29*
X31673800Y-94386400D03*
D28*
X17370000Y-64730000D03*
D29*
X30683200Y-88188800D03*
D28*
X11455400Y-74523600D03*
X14158411Y-79791589D03*
D29*
X44050500Y-30000000D03*
D28*
X14425000Y-61785000D03*
X7630250Y-74450000D03*
D29*
X49000000Y-72760000D03*
D28*
X27686000Y-50850800D03*
X26162000Y-32994600D03*
X12534500Y-50010000D03*
D29*
X24130000Y-85242400D03*
D28*
X27434500Y-54480000D03*
D29*
X15062200Y-91567000D03*
D28*
X15390000Y-54420000D03*
D29*
X29337000Y-80416400D03*
D28*
X10940000Y-54390000D03*
X25515991Y-54530000D03*
D29*
X16789400Y-88214200D03*
X35280600Y-95250000D03*
X14274800Y-92901100D03*
X14300200Y-94564200D03*
X35279973Y-92891171D03*
D30*
X28000000Y-10000000D03*
X28000000Y-3000000D03*
D29*
X47950000Y-22500000D03*
X49810000Y-22500000D03*
X45510000Y-62500000D03*
X47200000Y-62500000D03*
D30*
X28000000Y-6500000D03*
D31*
X22235400Y-45908200D02*
X21132800Y-45908200D01*
X22250400Y-45923200D02*
X22235400Y-45908200D01*
X41833800Y-46948000D02*
X42175000Y-46606800D01*
X41833800Y-51104800D02*
X41833800Y-46948000D01*
X42175000Y-51446000D02*
X41833800Y-51104800D01*
X15113000Y-23397000D02*
X15113000Y-27190200D01*
X16000000Y-22510000D02*
X15113000Y-23397000D01*
X15113000Y-27190200D02*
X15126200Y-27203400D01*
X16776200Y-32951200D02*
X16825000Y-33000000D01*
X16776200Y-27203400D02*
X16776200Y-32951200D01*
X12877800Y-17920000D02*
X12871700Y-17926100D01*
X12877800Y-16826100D02*
X12877800Y-17920000D01*
X12871700Y-17926100D02*
X12882800Y-17926100D01*
X12966200Y-21945600D02*
X15435600Y-21945600D01*
X15435600Y-21945600D02*
X16000000Y-22510000D01*
X17630000Y-49050000D02*
X16255000Y-49050000D01*
X17750000Y-48930000D02*
X17630000Y-49050000D01*
X17750000Y-47280000D02*
X17750000Y-48930000D01*
X9950000Y-43990000D02*
X12370000Y-46410000D01*
X16880000Y-46410000D02*
X17750000Y-47280000D01*
X9950000Y-23311800D02*
X9950000Y-43990000D01*
X12370000Y-46410000D02*
X16880000Y-46410000D01*
X11316200Y-21945600D02*
X9950000Y-23311800D01*
X11303000Y-21932400D02*
X11316200Y-21945600D01*
X11303000Y-18021600D02*
X11303000Y-21932400D01*
X11264600Y-17983200D02*
X11303000Y-18021600D01*
X40804600Y-26988000D02*
X41130000Y-26662600D01*
X40030400Y-26988000D02*
X40804600Y-26988000D01*
X41130000Y-28640000D02*
X41130000Y-26662600D01*
X41130000Y-26662600D02*
X41130000Y-25280400D01*
X33900400Y-24790400D02*
X31560000Y-22450000D01*
X41130000Y-25280400D02*
X40640000Y-24790400D01*
X42490000Y-30000000D02*
X41130000Y-28640000D01*
X40640000Y-24790400D02*
X33900400Y-24790400D01*
X44050500Y-30000000D02*
X42490000Y-30000000D01*
X40000000Y-28668400D02*
X40030400Y-28638000D01*
X40000000Y-31130000D02*
X40000000Y-28668400D01*
X40870000Y-32000000D02*
X40000000Y-31130000D01*
X43175000Y-32000000D02*
X40870000Y-32000000D01*
X26162000Y-32994600D02*
X18821400Y-32994600D01*
X21000000Y-30816000D02*
X21000000Y-28730000D01*
X18816000Y-33000000D02*
X21000000Y-30816000D01*
X16825000Y-33000000D02*
X18816000Y-33000000D01*
X24000000Y-44173600D02*
X22250400Y-45923200D01*
X24000000Y-42500000D02*
X24000000Y-44173600D01*
X21132800Y-49377200D02*
X19583200Y-50926800D01*
X21132800Y-49368200D02*
X21132800Y-49377200D01*
X8966200Y-75361800D02*
X8966200Y-76364800D01*
X8978600Y-77927200D02*
X10503400Y-77927200D01*
X8966200Y-77914800D02*
X8978600Y-77927200D01*
X8430000Y-74533443D02*
X8430000Y-73135000D01*
X6858000Y-76105443D02*
X8430000Y-74533443D01*
X6858000Y-82854800D02*
X6858000Y-76105443D01*
X12453680Y-88450480D02*
X6858000Y-82854800D01*
X15070597Y-88450480D02*
X12453680Y-88450480D01*
X8430000Y-73135000D02*
X8245000Y-72950000D01*
X16334118Y-89714000D02*
X15070597Y-88450480D01*
X17129800Y-89714000D02*
X16334118Y-89714000D01*
X11455400Y-74523600D02*
X12176400Y-74523600D01*
X17720000Y-72100000D02*
X17825000Y-71995000D01*
X14600000Y-72100000D02*
X17720000Y-72100000D01*
X12176400Y-74523600D02*
X14600000Y-72100000D01*
X11099800Y-73634600D02*
X11099800Y-72950000D01*
X10503400Y-74231000D02*
X11099800Y-73634600D01*
X10503400Y-77927200D02*
X10503400Y-74231000D01*
X11099800Y-72950000D02*
X10755000Y-72950000D01*
X13769200Y-77927200D02*
X13842000Y-78000000D01*
X12153400Y-77927200D02*
X13769200Y-77927200D01*
X43825000Y-49050000D02*
X44000000Y-49225000D01*
X43825000Y-46606800D02*
X43825000Y-49050000D01*
X43776400Y-46558200D02*
X43825000Y-46606800D01*
X42175000Y-46606800D02*
X42126400Y-46558200D01*
X41846000Y-51775000D02*
X42175000Y-51446000D01*
X41846000Y-52679600D02*
X41846000Y-51775000D01*
X34150000Y-47020000D02*
X33979989Y-46849989D01*
X38280000Y-47020000D02*
X34150000Y-47020000D01*
X40196000Y-48936000D02*
X38280000Y-47020000D01*
X40196000Y-52679600D02*
X40196000Y-48936000D01*
X27700000Y-40612000D02*
X27700000Y-41340000D01*
X30492000Y-37820000D02*
X27700000Y-40612000D01*
X33979989Y-41307989D02*
X33979989Y-41635811D01*
X30492000Y-37820000D02*
X33979989Y-41307989D01*
X33979989Y-34290011D02*
X33979989Y-41635811D01*
X35270000Y-33000000D02*
X33979989Y-34290011D01*
X33979989Y-41635811D02*
X33979989Y-46849989D01*
X36000000Y-50270000D02*
X34536978Y-50270000D01*
X34536978Y-50270000D02*
X33979989Y-49713011D01*
X33979989Y-46849989D02*
X33979989Y-49713011D01*
X33979989Y-49713011D02*
X33979989Y-65154989D01*
X27700000Y-26310000D02*
X27700000Y-41340000D01*
X15590000Y-13320000D02*
X19560000Y-13320000D01*
X8680000Y-36772000D02*
X5092000Y-40360000D01*
X10200000Y-14530000D02*
X8680000Y-16050000D01*
X14380000Y-14530000D02*
X10200000Y-14530000D01*
X15590000Y-13320000D02*
X14380000Y-14530000D01*
X19560000Y-13320000D02*
X19600000Y-13280000D01*
X8680000Y-16050000D02*
X8680000Y-36772000D01*
X44119800Y-89255600D02*
X43661400Y-89714000D01*
X24206200Y-93313000D02*
X23893600Y-93625600D01*
X49000000Y-67410000D02*
X49010000Y-67400000D01*
X35990000Y-60970000D02*
X36000000Y-60980000D01*
X24206200Y-93313000D02*
X23858400Y-92965200D01*
X24180800Y-8813800D02*
X24175000Y-8819600D01*
X23893600Y-89714000D02*
X22870200Y-89714000D01*
X36000000Y-60980000D02*
X36000000Y-62500000D01*
X12010000Y-72000000D02*
X10755000Y-72000000D01*
X22275000Y-5075000D02*
X22330000Y-5130000D01*
X44705200Y-92965200D02*
X42870200Y-92965200D01*
X35990000Y-80970000D02*
X36000000Y-80980000D01*
X24000000Y-39100000D02*
X24010000Y-39110000D01*
X24000000Y-78950000D02*
X24000000Y-77500000D01*
X13775000Y-43215000D02*
X13770000Y-43220000D01*
X43225000Y-28000000D02*
X42080000Y-28000000D01*
X43661400Y-89714000D02*
X42870200Y-89714000D01*
X19600000Y-11730000D02*
X18470600Y-11730000D01*
X44018200Y-94869000D02*
X43435200Y-94286000D01*
X11000000Y-10775000D02*
X12222800Y-10775000D01*
X44881800Y-93141800D02*
X44705200Y-92965200D01*
X48000000Y-26310000D02*
X48010000Y-26300000D01*
X24155400Y-89452200D02*
X23893600Y-89714000D01*
X44145200Y-89255600D02*
X44119800Y-89255600D01*
X36000000Y-22500000D02*
X36000000Y-20810000D01*
X23990000Y-78960000D02*
X24000000Y-78950000D01*
X44324200Y-93625600D02*
X42870200Y-93625600D01*
X24000000Y-37500000D02*
X24000000Y-39100000D01*
X12775000Y-66000000D02*
X13990000Y-66000000D01*
X12020000Y-72010000D02*
X12010000Y-72000000D01*
X18470600Y-11730000D02*
X18465800Y-11734800D01*
X12222800Y-10775000D02*
X12242800Y-10795000D01*
X17480000Y-50000000D02*
X16255000Y-50000000D01*
X43435200Y-94286000D02*
X42870200Y-94286000D01*
X43225000Y-69000000D02*
X41870000Y-69000000D01*
X48000000Y-27745000D02*
X48000000Y-26310000D01*
X24000000Y-19080000D02*
X24000000Y-17510000D01*
X23858400Y-92965200D02*
X22870200Y-92965200D01*
X23990000Y-59000000D02*
X24000000Y-58990000D01*
X44881800Y-94183200D02*
X44324200Y-93625600D01*
X44000000Y-50775000D02*
X44000000Y-51930000D01*
X49000000Y-68745000D02*
X49000000Y-67410000D01*
X20820000Y-5075000D02*
X22275000Y-5075000D01*
X46060000Y-21000000D02*
X47225000Y-21000000D01*
X23893600Y-93625600D02*
X22870200Y-93625600D01*
X13775000Y-42000000D02*
X13775000Y-43215000D01*
X36000000Y-80980000D02*
X36000000Y-82500000D01*
X36000000Y-43970000D02*
X36000000Y-42500000D01*
X24175000Y-8819600D02*
X24175000Y-10000000D01*
X24000000Y-58990000D02*
X24000000Y-57500000D01*
X31560000Y-22450000D02*
X27700000Y-26310000D01*
X17370000Y-64730000D02*
X17825000Y-65185000D01*
X17825000Y-71995000D02*
X17825000Y-73000000D01*
X13280000Y-9225000D02*
X11965000Y-9225000D01*
X48000000Y-31700000D02*
X48000000Y-30255000D01*
X16103600Y-94970600D02*
X17119600Y-95986600D01*
X25905000Y-4730000D02*
X24175000Y-3000000D01*
X24257000Y-94735400D02*
X23807600Y-94286000D01*
X30353000Y-79476600D02*
X30353000Y-61645800D01*
X22000000Y-71730000D02*
X22000000Y-70825000D01*
X30632400Y-79756000D02*
X30353000Y-79476600D01*
X14158411Y-79791589D02*
X7998411Y-79791589D01*
X17825000Y-73000000D02*
X20730000Y-73000000D01*
X7770000Y-80020000D02*
X7770000Y-81500000D01*
X36017200Y-10662400D02*
X36017200Y-9855200D01*
X31648400Y-92329000D02*
X28194000Y-92329000D01*
X19786600Y-53111400D02*
X20587200Y-53111400D01*
X21000000Y-28730000D02*
X21000000Y-27825000D01*
X18370000Y-52140000D02*
X18592600Y-51917400D01*
X21132800Y-49368200D02*
X21132800Y-48463200D01*
X14440000Y-52290000D02*
X14590000Y-52140000D01*
X12544500Y-50000000D02*
X13745000Y-50000000D01*
X17825000Y-73000000D02*
X17825000Y-73675000D01*
X49000000Y-71255000D02*
X49000000Y-72940000D01*
X11965000Y-3895000D02*
X11965000Y-9225000D01*
X36017200Y-9855200D02*
X36452400Y-9420000D01*
X34310000Y-9420000D02*
X37410800Y-9420000D01*
X24257000Y-95834200D02*
X24257000Y-94735400D01*
X23648600Y-94286000D02*
X22870200Y-94286000D01*
X27700000Y-50836800D02*
X27686000Y-50850800D01*
X14590000Y-52140000D02*
X18370000Y-52140000D01*
X36452400Y-9420000D02*
X37410800Y-9420000D01*
X34310000Y-9420000D02*
X29620000Y-4730000D01*
X23807600Y-94286000D02*
X23648600Y-94286000D01*
X7630250Y-74450000D02*
X6959600Y-73779350D01*
X42175000Y-10725000D02*
X42175000Y-13385800D01*
X18592600Y-51917400D02*
X19340000Y-51170000D01*
X6959600Y-73779350D02*
X6959600Y-72415400D01*
X13620000Y-8885000D02*
X13280000Y-9225000D01*
X14410000Y-52320000D02*
X14410000Y-61770000D01*
X17825000Y-65185000D02*
X17825000Y-71995000D01*
X7998411Y-79791589D02*
X7770000Y-80020000D01*
X14410000Y-61770000D02*
X14425000Y-61785000D01*
X31673800Y-94386400D02*
X31774200Y-94286000D01*
X30632400Y-88138000D02*
X30632400Y-79756000D01*
X28194000Y-92329000D02*
X26237000Y-94286000D01*
X11965000Y-9225000D02*
X11000000Y-9225000D01*
X16103600Y-94691200D02*
X16103600Y-94970600D01*
X16508800Y-94286000D02*
X16103600Y-94691200D01*
X24104600Y-95986600D02*
X24257000Y-95834200D01*
X7375000Y-72000000D02*
X8245000Y-72000000D01*
X27686000Y-52501800D02*
X27686000Y-50850800D01*
X40870000Y-9420000D02*
X42175000Y-10725000D01*
X33979989Y-65154989D02*
X40000000Y-71175000D01*
X28295600Y-59588400D02*
X28295600Y-53111400D01*
X27700000Y-41340000D02*
X27700000Y-50836800D01*
X43815000Y-71175000D02*
X43900000Y-71260000D01*
X40000000Y-71175000D02*
X43815000Y-71175000D01*
X19659200Y-50850800D02*
X19583200Y-50926800D01*
X36000000Y-50270000D02*
X36000000Y-51175000D01*
X14440000Y-52290000D02*
X14410000Y-52320000D01*
X17825000Y-73675000D02*
X15780000Y-75720000D01*
X7770000Y-81500000D02*
X8270000Y-82000000D01*
X28295600Y-53111400D02*
X27686000Y-52501800D01*
X24175000Y-3000000D02*
X12860000Y-3000000D01*
X30683200Y-88188800D02*
X30632400Y-88138000D01*
X25044400Y-50850800D02*
X19659200Y-50850800D01*
X17825000Y-70000000D02*
X17825000Y-65185000D01*
X30353000Y-61645800D02*
X28295600Y-59588400D01*
X26237000Y-94286000D02*
X23648600Y-94286000D01*
X18592600Y-51917400D02*
X19786600Y-53111400D01*
X12860000Y-3000000D02*
X11965000Y-3895000D01*
X17119600Y-95986600D02*
X24104600Y-95986600D01*
X6959600Y-72415400D02*
X7375000Y-72000000D01*
X31560000Y-22450000D02*
X31560000Y-12170000D01*
X8270000Y-82000000D02*
X9175000Y-82000000D01*
X35270000Y-33000000D02*
X36175000Y-33000000D01*
X29620000Y-4730000D02*
X25905000Y-4730000D01*
X33000000Y-68270000D02*
X33000000Y-66134978D01*
X20730000Y-73000000D02*
X22000000Y-71730000D01*
X31774200Y-94286000D02*
X37129800Y-94286000D01*
X17129800Y-94286000D02*
X16508800Y-94286000D01*
X37410800Y-9420000D02*
X40870000Y-9420000D01*
X31560000Y-12170000D02*
X34310000Y-9420000D01*
X19583200Y-50926800D02*
X19340000Y-51170000D01*
X33000000Y-66134978D02*
X33979989Y-65154989D01*
X36000000Y-10645200D02*
X36000000Y-11304800D01*
X18510000Y-50190000D02*
X17750000Y-50950000D01*
X12225000Y-44275000D02*
X13320000Y-45370000D01*
X12175000Y-38000000D02*
X11980000Y-38195000D01*
X18510000Y-46730000D02*
X18510000Y-50190000D01*
X17750000Y-50950000D02*
X16255000Y-50950000D01*
X12225000Y-42000000D02*
X12225000Y-44275000D01*
X11980000Y-41755000D02*
X12225000Y-42000000D01*
X11980000Y-38195000D02*
X11980000Y-41755000D01*
X13320000Y-45370000D02*
X17150000Y-45370000D01*
X17150000Y-45370000D02*
X18510000Y-46730000D01*
X10930000Y-66295000D02*
X10930000Y-70875000D01*
X11225000Y-66000000D02*
X10930000Y-66295000D01*
X11175000Y-65950000D02*
X11225000Y-66000000D01*
X10930000Y-70875000D02*
X10755000Y-71050000D01*
X11175000Y-63000000D02*
X11175000Y-65950000D01*
X48950000Y-21175000D02*
X48775000Y-21000000D01*
X48950000Y-27745000D02*
X48950000Y-21175000D01*
X48825000Y-17000000D02*
X48825000Y-20950000D01*
X44775000Y-28000000D02*
X46795000Y-28000000D01*
X44775000Y-28000000D02*
X44775000Y-31950000D01*
X46795000Y-28000000D02*
X47050000Y-27745000D01*
X44775000Y-31950000D02*
X44825000Y-32000000D01*
X44907000Y-49225000D02*
X45466000Y-49784000D01*
X46234511Y-61982511D02*
X46234511Y-63534511D01*
X46234511Y-63534511D02*
X49950000Y-67250000D01*
X49950000Y-67250000D02*
X49950000Y-68745000D01*
X45466000Y-49784000D02*
X45466000Y-61214000D01*
X45466000Y-61214000D02*
X46234511Y-61982511D01*
X44000000Y-49225000D02*
X44907000Y-49225000D01*
X47795000Y-69000000D02*
X48050000Y-68745000D01*
X44825000Y-69050000D02*
X44775000Y-69000000D01*
X44825000Y-73000000D02*
X44825000Y-69050000D01*
X44775000Y-69000000D02*
X47795000Y-69000000D01*
X21132800Y-45908200D02*
X21132800Y-46813200D01*
X24000000Y-22510000D02*
X24000000Y-23610000D01*
X22340000Y-25270000D02*
X21000000Y-25270000D01*
X21000000Y-26175000D02*
X21000000Y-25270000D01*
X24000000Y-23610000D02*
X22340000Y-25270000D01*
X11730000Y-82400000D02*
X13430000Y-84100000D01*
X11730000Y-82000000D02*
X11730000Y-82400000D01*
X24000000Y-83530000D02*
X24000000Y-82500000D01*
X23430000Y-84100000D02*
X24000000Y-83530000D01*
X10825000Y-82000000D02*
X11730000Y-82000000D01*
X13430000Y-84100000D02*
X23430000Y-84100000D01*
X24000000Y-66270000D02*
X22000000Y-68270000D01*
X24000000Y-62500000D02*
X24000000Y-66270000D01*
X36000000Y-14139600D02*
X36000000Y-17500000D01*
X36017200Y-14122400D02*
X36000000Y-14139600D01*
X38730000Y-33000000D02*
X36000000Y-35730000D01*
X36000000Y-35730000D02*
X36000000Y-37500000D01*
X36000000Y-53730000D02*
X36000000Y-57500000D01*
X33000000Y-76310000D02*
X33000000Y-71730000D01*
X36000000Y-77500000D02*
X34190000Y-77500000D01*
X34190000Y-77500000D02*
X33000000Y-76310000D01*
X25515991Y-54530000D02*
X25405991Y-54420000D01*
X16789400Y-88214200D02*
X19761200Y-85242400D01*
X15062200Y-91567000D02*
X15825400Y-92330200D01*
X10490000Y-54390000D02*
X8440000Y-52340000D01*
X8440000Y-52340000D02*
X8440000Y-50500000D01*
X29337000Y-88722200D02*
X29337000Y-80416400D01*
X22846800Y-54420000D02*
X15390000Y-54420000D01*
X37129800Y-92330200D02*
X36067489Y-92330200D01*
X29337000Y-80416400D02*
X29337000Y-62382400D01*
X35839400Y-92102111D02*
X32716911Y-92102111D01*
X22237200Y-53111400D02*
X22237200Y-53810400D01*
X22237200Y-53810400D02*
X22846800Y-54420000D01*
X27434500Y-60479900D02*
X27434500Y-54480000D01*
X32716911Y-92102111D02*
X29337000Y-88722200D01*
X19761200Y-85242400D02*
X24130000Y-85242400D01*
X36067489Y-92330200D02*
X35839400Y-92102111D01*
X25405991Y-54420000D02*
X22846800Y-54420000D01*
X5920000Y-47980000D02*
X5092000Y-47980000D01*
X10940000Y-54390000D02*
X10490000Y-54390000D01*
X8440000Y-50500000D02*
X5920000Y-47980000D01*
X29337000Y-62382400D02*
X27434500Y-60479900D01*
X15825400Y-92330200D02*
X17129800Y-92330200D01*
X35354002Y-92965200D02*
X37129800Y-92965200D01*
X35279973Y-92891171D02*
X35354002Y-92965200D01*
X17129800Y-92965200D02*
X14338900Y-92965200D01*
X12764100Y-92901100D02*
X4368800Y-84505800D01*
X35280600Y-95250000D02*
X33223200Y-97307400D01*
X33223200Y-97307400D02*
X16433800Y-97307400D01*
X7320000Y-51110000D02*
X6730000Y-50520000D01*
X14300200Y-95173800D02*
X14300200Y-94564200D01*
X7320000Y-63450000D02*
X7320000Y-51110000D01*
X16433800Y-97307400D02*
X14300200Y-95173800D01*
X6730000Y-50520000D02*
X5092000Y-50520000D01*
X4368800Y-84505800D02*
X4368800Y-66401200D01*
X14274800Y-92901100D02*
X12764100Y-92901100D01*
X4368800Y-66401200D02*
X7320000Y-63450000D01*
X14338900Y-92965200D02*
X14274800Y-92901100D01*
X34671000Y-93675200D02*
X37080200Y-93675200D01*
X15392400Y-94361000D02*
X15392400Y-95250000D01*
X12345600Y-93625600D02*
X17129800Y-93625600D01*
X37080200Y-93675200D02*
X37129800Y-93625600D01*
X28067000Y-93446600D02*
X34442400Y-93446600D01*
X15392400Y-95250000D02*
X16847880Y-96705480D01*
X16127800Y-93625600D02*
X15392400Y-94361000D01*
X34442400Y-93446600D02*
X34671000Y-93675200D01*
X3708400Y-84988400D02*
X12345600Y-93625600D01*
X5092000Y-63928000D02*
X3708400Y-65311600D01*
X5092000Y-58140000D02*
X5092000Y-63928000D01*
X3708400Y-65311600D02*
X3708400Y-84988400D01*
X16847880Y-96705480D02*
X24808120Y-96705480D01*
X24808120Y-96705480D02*
X28067000Y-93446600D01*
X17129800Y-93625600D02*
X16127800Y-93625600D01*
X25825000Y-10000000D02*
X28000000Y-10000000D01*
X25825000Y-3000000D02*
X28000000Y-3000000D01*
X14860000Y-33315000D02*
X15175000Y-33000000D01*
X14860000Y-36965000D02*
X14860000Y-33315000D01*
X13825000Y-38045000D02*
X16000000Y-40220000D01*
X13825000Y-38000000D02*
X13825000Y-38045000D01*
X13825000Y-38000000D02*
X14860000Y-36965000D01*
X16000000Y-40220000D02*
X16000000Y-42500000D01*
X16000000Y-80158000D02*
X16000000Y-82500000D01*
X14970000Y-74205000D02*
X14970000Y-76872000D01*
X13842000Y-78000000D02*
X16000000Y-80158000D01*
X14970000Y-76872000D02*
X13842000Y-78000000D01*
X16175000Y-73000000D02*
X14970000Y-74205000D01*
X13325000Y-62500000D02*
X16000000Y-62500000D01*
X12825000Y-63000000D02*
X13325000Y-62500000D01*
X16000000Y-69825000D02*
X16000000Y-62500000D01*
X16175000Y-70000000D02*
X16000000Y-69825000D01*
X44000000Y-13560800D02*
X44000000Y-17500000D01*
X44510000Y-16990000D02*
X47165000Y-16990000D01*
X44000000Y-17500000D02*
X44510000Y-16990000D01*
X43825000Y-13385800D02*
X44000000Y-13560800D01*
X47165000Y-16990000D02*
X47175000Y-17000000D01*
X43175000Y-34405000D02*
X44000000Y-35230000D01*
X44000000Y-35230000D02*
X44000000Y-37500000D01*
X43175000Y-32000000D02*
X43175000Y-34405000D01*
X44000000Y-53271000D02*
X42175000Y-51446000D01*
X44000000Y-57500000D02*
X44000000Y-53271000D01*
X44000000Y-75990000D02*
X44000000Y-77500000D01*
X43175000Y-75165000D02*
X44000000Y-75990000D01*
X43175000Y-73000000D02*
X40175000Y-73000000D01*
X40175000Y-73000000D02*
X40000000Y-72825000D01*
X43175000Y-73000000D02*
X43175000Y-75165000D01*
X26140491Y-37270491D02*
X24700000Y-35830000D01*
X24700000Y-35830000D02*
X16790000Y-35830000D01*
X22870200Y-91669800D02*
X26465600Y-91669800D01*
X26465600Y-91669800D02*
X27355800Y-90779600D01*
X16000000Y-36620000D02*
X16000000Y-37500000D01*
X26140491Y-63097491D02*
X26140491Y-37270491D01*
X27355800Y-90779600D02*
X27355800Y-64312800D01*
X27355800Y-64312800D02*
X26140491Y-63097491D01*
X16790000Y-35830000D02*
X16000000Y-36620000D01*
X26810000Y-61836600D02*
X26810000Y-16960000D01*
X25470000Y-15620000D02*
X16730000Y-15620000D01*
X16000000Y-16350000D02*
X16000000Y-17510000D01*
X28371800Y-91236800D02*
X28371800Y-63398400D01*
X22870200Y-92330200D02*
X27278400Y-92330200D01*
X26810000Y-16960000D02*
X25470000Y-15620000D01*
X28371800Y-63398400D02*
X26810000Y-61836600D01*
X27278400Y-92330200D02*
X28371800Y-91236800D01*
X16730000Y-15620000D02*
X16000000Y-16350000D01*
X24840000Y-75540000D02*
X25400000Y-76100000D01*
X16000000Y-77500000D02*
X16000000Y-76590000D01*
X16000000Y-76590000D02*
X17050000Y-75540000D01*
X17050000Y-75540000D02*
X24840000Y-75540000D01*
X24257814Y-90374400D02*
X22870200Y-90374400D01*
X25400000Y-76100000D02*
X25400000Y-89232214D01*
X25400000Y-89232214D02*
X24259014Y-90373200D01*
X24259014Y-90373200D02*
X24257000Y-90373200D01*
X25250000Y-56250000D02*
X25250000Y-63990000D01*
X16260000Y-55540000D02*
X24540000Y-55540000D01*
X26263600Y-89306400D02*
X24535200Y-91034800D01*
X16000000Y-57500000D02*
X16000000Y-55800000D01*
X25250000Y-63990000D02*
X26263600Y-65003600D01*
X16000000Y-55800000D02*
X16260000Y-55540000D01*
X26263600Y-65003600D02*
X26263600Y-89306400D01*
X24540000Y-55540000D02*
X25250000Y-56250000D01*
X24535200Y-91034800D02*
X22870200Y-91034800D01*
X55727600Y-82473800D02*
X45871200Y-92330200D01*
X49810000Y-22500000D02*
X52070000Y-24760000D01*
X44000000Y-22500000D02*
X47950000Y-22500000D01*
X48514000Y-56591200D02*
X55727600Y-63804800D01*
X48514000Y-40843200D02*
X48514000Y-56591200D01*
X45871200Y-92330200D02*
X42870200Y-92330200D01*
X52070000Y-24760000D02*
X52070000Y-37287200D01*
X55727600Y-63804800D02*
X55727600Y-82473800D01*
X52070000Y-37287200D02*
X48514000Y-40843200D01*
X44000000Y-42500000D02*
X45212000Y-43712000D01*
X45212000Y-48260000D02*
X46228000Y-49276000D01*
X52578000Y-81864200D02*
X44067800Y-90374400D01*
X46228000Y-49276000D02*
X46228000Y-59944000D01*
X44067800Y-90374400D02*
X42870200Y-90374400D01*
X45212000Y-43712000D02*
X45212000Y-48260000D01*
X46228000Y-59944000D02*
X52578000Y-66294000D01*
X52578000Y-66294000D02*
X52578000Y-81864200D01*
X44000000Y-62500000D02*
X45510000Y-62500000D01*
X35224800Y-88920400D02*
X36018400Y-89714000D01*
X46685200Y-86436200D02*
X35839400Y-86436200D01*
X51714400Y-67014400D02*
X51714400Y-81407000D01*
X47200000Y-62500000D02*
X51714400Y-67014400D01*
X36018400Y-89714000D02*
X37129800Y-89714000D01*
X51714400Y-81407000D02*
X46685200Y-86436200D01*
X35224800Y-87050800D02*
X35224800Y-88920400D01*
X35839400Y-86436200D02*
X35224800Y-87050800D01*
X33943791Y-91652591D02*
X37112591Y-91652591D01*
X44000000Y-83600000D02*
X43500600Y-84099400D01*
X32207200Y-89916000D02*
X33943791Y-91652591D01*
X37112591Y-91652591D02*
X37129800Y-91669800D01*
X34239200Y-84099400D02*
X32207200Y-86131400D01*
X44000000Y-82500000D02*
X44000000Y-83600000D01*
X43500600Y-84099400D02*
X34239200Y-84099400D01*
X32207200Y-86131400D02*
X32207200Y-89916000D01*
X11690000Y-57520000D02*
X11690000Y-49700000D01*
X17129800Y-91669800D02*
X16382764Y-91669800D01*
X8700000Y-64020000D02*
X8700000Y-60510000D01*
X12340000Y-49050000D02*
X13745000Y-49050000D01*
X11690000Y-49700000D02*
X12340000Y-49050000D01*
X11734800Y-90728800D02*
X4978400Y-83972400D01*
X4978400Y-83972400D02*
X4978400Y-67741600D01*
X15441764Y-90728800D02*
X11734800Y-90728800D01*
X8700000Y-60510000D02*
X11690000Y-57520000D01*
X4978400Y-67741600D02*
X8700000Y-64020000D01*
X16382764Y-91669800D02*
X15441764Y-90728800D01*
X15163082Y-89814400D02*
X11887200Y-89814400D01*
X5588000Y-83515200D02*
X5588000Y-68762000D01*
X9960000Y-61010000D02*
X13745000Y-57225000D01*
X17129800Y-91034800D02*
X16383483Y-91034800D01*
X16383483Y-91034800D02*
X15163082Y-89814400D01*
X13745000Y-57225000D02*
X13745000Y-50950000D01*
X9960000Y-64390000D02*
X9960000Y-61010000D01*
X11887200Y-89814400D02*
X5588000Y-83515200D01*
X5588000Y-68762000D02*
X9960000Y-64390000D01*
X6290000Y-72399200D02*
X7639200Y-71050000D01*
X6290000Y-83277400D02*
X6290000Y-72399200D01*
X15349280Y-89364880D02*
X12377480Y-89364880D01*
X12377480Y-89364880D02*
X6290000Y-83277400D01*
X16358801Y-90374400D02*
X15349280Y-89364880D01*
X17129800Y-90374400D02*
X16358801Y-90374400D01*
X7639200Y-71050000D02*
X8245000Y-71050000D01*
X46228000Y-35433000D02*
X46228000Y-47752000D01*
X46939200Y-48463200D02*
X46939200Y-58877200D01*
X46939200Y-58877200D02*
X53594000Y-65532000D01*
X47050000Y-30255000D02*
X47050000Y-34611000D01*
X44575800Y-91034800D02*
X42870200Y-91034800D01*
X53594000Y-65532000D02*
X53594000Y-82016600D01*
X47050000Y-34611000D02*
X46228000Y-35433000D01*
X46228000Y-47752000D02*
X46939200Y-48463200D01*
X53594000Y-82016600D02*
X44575800Y-91034800D01*
X47726600Y-57886600D02*
X54559200Y-64719200D01*
X45261600Y-91669800D02*
X42870200Y-91669800D01*
X47726600Y-35585400D02*
X47726600Y-57886600D01*
X48950000Y-30255000D02*
X48950000Y-34362000D01*
X48950000Y-34362000D02*
X47726600Y-35585400D01*
X54559200Y-82372200D02*
X45261600Y-91669800D01*
X54559200Y-64719200D02*
X54559200Y-82372200D01*
X25825000Y-6500000D02*
X28000000Y-6500000D01*
X24175000Y-6500000D02*
X20975000Y-6500000D01*
X20975000Y-6500000D02*
X20820000Y-6345000D01*
X34848800Y-84861400D02*
X33197800Y-86512400D01*
X48050000Y-81080000D02*
X44268600Y-84861400D01*
X48050000Y-71255000D02*
X48050000Y-81080000D01*
X44268600Y-84861400D02*
X34848800Y-84861400D01*
X33197800Y-86512400D02*
X33197800Y-89484200D01*
X33197800Y-89484200D02*
X34748400Y-91034800D01*
X34748400Y-91034800D02*
X37129800Y-91034800D01*
X35307200Y-90374400D02*
X37129800Y-90374400D01*
X45262800Y-85699600D02*
X35255200Y-85699600D01*
X35255200Y-85699600D02*
X34188400Y-86766400D01*
X49950000Y-81012400D02*
X45262800Y-85699600D01*
X34188400Y-86766400D02*
X34188400Y-89255600D01*
X49950000Y-71255000D02*
X49950000Y-81012400D01*
X34188400Y-89255600D02*
X35307200Y-90374400D01*
X20820000Y-7615000D02*
X20820000Y-8885000D01*
X21894800Y-10566400D02*
X16027400Y-10566400D01*
X15590000Y-11003800D02*
X15590000Y-11670000D01*
X16027400Y-10566400D02*
X15590000Y-11003800D01*
X22352000Y-10109200D02*
X21894800Y-10566400D01*
X20820000Y-8885000D02*
X21915200Y-8885000D01*
X21915200Y-8885000D02*
X22352000Y-9321800D01*
X22352000Y-9321800D02*
X22352000Y-10109200D01*
M02*
