G04 #@! TF.GenerationSoftware,KiCad,Pcbnew,(6.0.2)*
G04 #@! TF.CreationDate,2022-06-11T16:39:15+02:00*
G04 #@! TF.ProjectId,cartteFille,63617274-7465-4466-996c-6c652e6b6963,rev?*
G04 #@! TF.SameCoordinates,Original*
G04 #@! TF.FileFunction,Soldermask,Top*
G04 #@! TF.FilePolarity,Negative*
%FSLAX46Y46*%
G04 Gerber Fmt 4.6, Leading zero omitted, Abs format (unit mm)*
G04 Created by KiCad (PCBNEW (6.0.2)) date 2022-06-11 16:39:15*
%MOMM*%
%LPD*%
G01*
G04 APERTURE LIST*
G04 Aperture macros list*
%AMRoundRect*
0 Rectangle with rounded corners*
0 $1 Rounding radius*
0 $2 $3 $4 $5 $6 $7 $8 $9 X,Y pos of 4 corners*
0 Add a 4 corners polygon primitive as box body*
4,1,4,$2,$3,$4,$5,$6,$7,$8,$9,$2,$3,0*
0 Add four circle primitives for the rounded corners*
1,1,$1+$1,$2,$3*
1,1,$1+$1,$4,$5*
1,1,$1+$1,$6,$7*
1,1,$1+$1,$8,$9*
0 Add four rect primitives between the rounded corners*
20,1,$1+$1,$2,$3,$4,$5,0*
20,1,$1+$1,$4,$5,$6,$7,0*
20,1,$1+$1,$6,$7,$8,$9,0*
20,1,$1+$1,$8,$9,$2,$3,0*%
G04 Aperture macros list end*
%ADD10R,1.473200X0.355600*%
%ADD11RoundRect,0.200000X0.275000X-0.200000X0.275000X0.200000X-0.275000X0.200000X-0.275000X-0.200000X0*%
%ADD12RoundRect,0.200000X-0.200000X-0.275000X0.200000X-0.275000X0.200000X0.275000X-0.200000X0.275000X0*%
%ADD13C,4.300000*%
%ADD14R,1.300000X2.000000*%
%ADD15RoundRect,0.064000X0.336000X-0.496000X0.336000X0.496000X-0.336000X0.496000X-0.336000X-0.496000X0*%
%ADD16C,1.879600*%
%ADD17RoundRect,0.050800X-0.889000X0.889000X-0.889000X-0.889000X0.889000X-0.889000X0.889000X0.889000X0*%
%ADD18RoundRect,0.200000X0.200000X0.275000X-0.200000X0.275000X-0.200000X-0.275000X0.200000X-0.275000X0*%
%ADD19RoundRect,0.225000X0.225000X0.250000X-0.225000X0.250000X-0.225000X-0.250000X0.225000X-0.250000X0*%
%ADD20RoundRect,0.225000X-0.225000X-0.250000X0.225000X-0.250000X0.225000X0.250000X-0.225000X0.250000X0*%
%ADD21RoundRect,0.200000X-0.275000X0.200000X-0.275000X-0.200000X0.275000X-0.200000X0.275000X0.200000X0*%
%ADD22RoundRect,0.040600X0.564400X0.249400X-0.564400X0.249400X-0.564400X-0.249400X0.564400X-0.249400X0*%
%ADD23RoundRect,0.040600X-0.249400X0.564400X-0.249400X-0.564400X0.249400X-0.564400X0.249400X0.564400X0*%
%ADD24RoundRect,0.064000X-0.336000X0.496000X-0.336000X-0.496000X0.336000X-0.496000X0.336000X0.496000X0*%
%ADD25RoundRect,0.225000X-0.250000X0.225000X-0.250000X-0.225000X0.250000X-0.225000X0.250000X0.225000X0*%
%ADD26RoundRect,0.064000X0.496000X0.336000X-0.496000X0.336000X-0.496000X-0.336000X0.496000X-0.336000X0*%
%ADD27RoundRect,0.150000X0.650000X0.150000X-0.650000X0.150000X-0.650000X-0.150000X0.650000X-0.150000X0*%
%ADD28RoundRect,0.225000X0.250000X-0.225000X0.250000X0.225000X-0.250000X0.225000X-0.250000X-0.225000X0*%
G04 APERTURE END LIST*
D10*
X22870200Y-94286000D03*
X22870200Y-93625600D03*
X22870200Y-92965200D03*
X22870200Y-92330200D03*
X22870200Y-91669800D03*
X22870200Y-91034800D03*
X22870200Y-90374400D03*
X22870200Y-89714000D03*
X17129800Y-89714000D03*
X17129800Y-90374400D03*
X17129800Y-91034800D03*
X17129800Y-91669800D03*
X17129800Y-92330200D03*
X17129800Y-92965200D03*
X17129800Y-93625600D03*
X17129800Y-94286000D03*
D11*
X40000000Y-72825000D03*
X40000000Y-71175000D03*
D12*
X10503400Y-77927200D03*
X12153400Y-77927200D03*
D13*
X7500000Y-95000000D03*
D14*
X24000000Y-17510000D03*
X16000000Y-22510000D03*
X24000000Y-22510000D03*
X16000000Y-17510000D03*
D11*
X33000000Y-70825000D03*
X33000000Y-69175000D03*
D14*
X36000000Y-82500000D03*
X44000000Y-77500000D03*
X36000000Y-77500000D03*
X44000000Y-82500000D03*
D12*
X16175000Y-70000000D03*
X17825000Y-70000000D03*
D15*
X36017200Y-14122400D03*
X36017200Y-10662400D03*
D16*
X30492000Y-58140000D03*
X30492000Y-55600000D03*
X30492000Y-53060000D03*
X30492000Y-50520000D03*
X30492000Y-47980000D03*
X30492000Y-45440000D03*
X30492000Y-42900000D03*
X30492000Y-40360000D03*
X30492000Y-37820000D03*
D17*
X30492000Y-35280000D03*
D12*
X20587200Y-53111400D03*
X22237200Y-53111400D03*
D18*
X44825000Y-32000000D03*
X43175000Y-32000000D03*
D19*
X44775000Y-28000000D03*
X43225000Y-28000000D03*
X48775000Y-21000000D03*
X47225000Y-21000000D03*
D20*
X12225000Y-42000000D03*
X13775000Y-42000000D03*
D21*
X21132800Y-46813200D03*
X21132800Y-48463200D03*
D11*
X36017200Y-13217400D03*
X36017200Y-11567400D03*
D21*
X22000000Y-70825000D03*
X22000000Y-69175000D03*
D22*
X10755000Y-72950000D03*
X10755000Y-72000000D03*
X10755000Y-71050000D03*
X8245000Y-71050000D03*
X8245000Y-72000000D03*
X8245000Y-72950000D03*
D13*
X52500000Y-95000000D03*
D18*
X25825000Y-6500000D03*
X24175000Y-6500000D03*
D23*
X48950000Y-27745000D03*
X48000000Y-27745000D03*
X47050000Y-27745000D03*
X47050000Y-30255000D03*
X48000000Y-30255000D03*
X48950000Y-30255000D03*
D16*
X5092000Y-58140000D03*
X5092000Y-55600000D03*
X5092000Y-53060000D03*
X5092000Y-50520000D03*
X5092000Y-47980000D03*
X5092000Y-45440000D03*
X5092000Y-42900000D03*
X5092000Y-40360000D03*
X5092000Y-37820000D03*
D17*
X5092000Y-35280000D03*
D24*
X22000000Y-71730000D03*
X22000000Y-68270000D03*
D13*
X52500000Y-50000000D03*
D14*
X24000000Y-77500000D03*
X16000000Y-82500000D03*
X24000000Y-82500000D03*
X16000000Y-77500000D03*
D13*
X52500000Y-5000000D03*
D18*
X40196000Y-52679600D03*
X41846000Y-52679600D03*
X10825000Y-82000000D03*
X9175000Y-82000000D03*
D20*
X11264600Y-17983200D03*
X12814600Y-17983200D03*
D10*
X42870200Y-94286000D03*
X42870200Y-93625600D03*
X42870200Y-92965200D03*
X42870200Y-92330200D03*
X42870200Y-91669800D03*
X42870200Y-91034800D03*
X42870200Y-90374400D03*
X42870200Y-89714000D03*
X37129800Y-89714000D03*
X37129800Y-90374400D03*
X37129800Y-91034800D03*
X37129800Y-91669800D03*
X37129800Y-92330200D03*
X37129800Y-92965200D03*
X37129800Y-93625600D03*
X37129800Y-94286000D03*
D15*
X33000000Y-71730000D03*
X33000000Y-68270000D03*
D24*
X21132800Y-45908200D03*
X21132800Y-49368200D03*
X21000000Y-25270000D03*
X21000000Y-28730000D03*
D25*
X44000000Y-50775000D03*
X44000000Y-49225000D03*
D18*
X36175000Y-33000000D03*
X37825000Y-33000000D03*
D12*
X24175000Y-3000000D03*
X25825000Y-3000000D03*
D14*
X36000000Y-22500000D03*
X44000000Y-17500000D03*
X36000000Y-17500000D03*
X44000000Y-22500000D03*
X36000000Y-62500000D03*
X44000000Y-57500000D03*
X36000000Y-57500000D03*
X44000000Y-62500000D03*
D12*
X15175000Y-33000000D03*
X16825000Y-33000000D03*
D18*
X48825000Y-17000000D03*
X47175000Y-17000000D03*
D26*
X35270000Y-33000000D03*
X38730000Y-33000000D03*
D20*
X11225000Y-66000000D03*
X12775000Y-66000000D03*
D19*
X44775000Y-69000000D03*
X43225000Y-69000000D03*
D12*
X11175000Y-63000000D03*
X12825000Y-63000000D03*
D27*
X20820000Y-8885000D03*
X20820000Y-7615000D03*
X20820000Y-6345000D03*
X20820000Y-5075000D03*
X13620000Y-5075000D03*
X13620000Y-6345000D03*
X13620000Y-7615000D03*
X13620000Y-8885000D03*
D25*
X11000000Y-9225000D03*
X11000000Y-10775000D03*
D12*
X15126200Y-27203400D03*
X16776200Y-27203400D03*
D11*
X36000000Y-51175000D03*
X36000000Y-52825000D03*
D26*
X11730000Y-82000000D03*
X8270000Y-82000000D03*
D23*
X49950000Y-68745000D03*
X49000000Y-68745000D03*
X48050000Y-68745000D03*
X48050000Y-71255000D03*
X49000000Y-71255000D03*
X49950000Y-71255000D03*
D11*
X40030400Y-28638000D03*
X40030400Y-26988000D03*
D18*
X42126400Y-46558200D03*
X43776400Y-46558200D03*
D14*
X24000000Y-37500000D03*
X16000000Y-42500000D03*
X24000000Y-42500000D03*
X16000000Y-37500000D03*
D21*
X15590000Y-11670000D03*
X15590000Y-13320000D03*
D12*
X16175000Y-73000000D03*
X17825000Y-73000000D03*
D28*
X19600000Y-13280000D03*
X19600000Y-11730000D03*
D12*
X12175000Y-38000000D03*
X13825000Y-38000000D03*
D15*
X36000000Y-50270000D03*
X36000000Y-53730000D03*
D22*
X16255000Y-50950000D03*
X16255000Y-50000000D03*
X16255000Y-49050000D03*
X13745000Y-49050000D03*
X13745000Y-50000000D03*
X13745000Y-50950000D03*
D21*
X21000000Y-26175000D03*
X21000000Y-27825000D03*
D14*
X36000000Y-42500000D03*
X44000000Y-37500000D03*
X36000000Y-37500000D03*
X44000000Y-42500000D03*
D12*
X11316200Y-21945600D03*
X12966200Y-21945600D03*
D14*
X24000000Y-57500000D03*
X16000000Y-62500000D03*
X24000000Y-62500000D03*
X16000000Y-57500000D03*
D28*
X8966200Y-76364800D03*
X8966200Y-77914800D03*
D18*
X44825000Y-73000000D03*
X43175000Y-73000000D03*
X43825000Y-13385800D03*
X42175000Y-13385800D03*
X25825000Y-10000000D03*
X24175000Y-10000000D03*
D13*
X7500000Y-5000000D03*
G36*
X28159480Y-1985640D02*
G01*
X28404702Y-2052519D01*
X28438329Y-2067231D01*
X28613635Y-2176797D01*
X28635950Y-2194550D01*
X28793450Y-2352050D01*
X28811203Y-2374365D01*
X28922655Y-2552688D01*
X28935341Y-2579623D01*
X29024594Y-2847381D01*
X29030866Y-2894215D01*
X29008425Y-3298148D01*
X28992438Y-3352932D01*
X28793699Y-3706246D01*
X28751526Y-3750774D01*
X28511888Y-3903271D01*
X28484087Y-3916504D01*
X28078098Y-4051834D01*
X28004530Y-4053703D01*
X27600857Y-3941571D01*
X27569753Y-3928212D01*
X27347370Y-3794782D01*
X27317372Y-3769710D01*
X27164385Y-3594868D01*
X27145031Y-3565180D01*
X26986621Y-3225731D01*
X26974800Y-3172447D01*
X26974800Y-2774967D01*
X26989861Y-2715230D01*
X27143834Y-2429280D01*
X27165678Y-2399922D01*
X27458869Y-2106731D01*
X27515499Y-2074080D01*
X27847848Y-1985454D01*
X27880313Y-1981200D01*
X28126327Y-1981200D01*
X28159480Y-1985640D01*
G37*
G36*
X28159480Y-5490840D02*
G01*
X28404702Y-5557719D01*
X28438329Y-5572431D01*
X28613635Y-5681997D01*
X28635950Y-5699750D01*
X28793450Y-5857250D01*
X28811203Y-5879565D01*
X28922655Y-6057888D01*
X28935341Y-6084823D01*
X29024594Y-6352581D01*
X29030866Y-6399415D01*
X29008425Y-6803348D01*
X28992438Y-6858132D01*
X28793699Y-7211446D01*
X28751526Y-7255974D01*
X28511888Y-7408471D01*
X28484087Y-7421704D01*
X28078098Y-7557034D01*
X28004530Y-7558903D01*
X27600857Y-7446771D01*
X27569753Y-7433412D01*
X27347370Y-7299982D01*
X27317372Y-7274910D01*
X27164385Y-7100068D01*
X27145031Y-7070380D01*
X26986621Y-6730931D01*
X26974800Y-6677647D01*
X26974800Y-6280167D01*
X26989861Y-6220430D01*
X27143834Y-5934480D01*
X27165678Y-5905122D01*
X27458869Y-5611931D01*
X27515499Y-5579280D01*
X27847848Y-5490654D01*
X27880313Y-5486400D01*
X28126327Y-5486400D01*
X28159480Y-5490840D01*
G37*
G36*
X28149873Y-8984905D02*
G01*
X28395095Y-9051784D01*
X28428722Y-9066496D01*
X28604028Y-9176062D01*
X28626343Y-9193815D01*
X28783843Y-9351315D01*
X28801596Y-9373630D01*
X28913048Y-9551953D01*
X28925734Y-9578888D01*
X29014987Y-9846646D01*
X29021259Y-9893480D01*
X28998818Y-10297413D01*
X28982831Y-10352197D01*
X28784092Y-10705511D01*
X28741919Y-10750039D01*
X28502281Y-10902536D01*
X28474480Y-10915769D01*
X28068491Y-11051099D01*
X27994923Y-11052968D01*
X27591250Y-10940836D01*
X27560146Y-10927477D01*
X27337763Y-10794047D01*
X27307765Y-10768975D01*
X27154778Y-10594133D01*
X27135424Y-10564445D01*
X26977014Y-10224996D01*
X26965193Y-10171712D01*
X26965193Y-9774232D01*
X26980254Y-9714495D01*
X27134227Y-9428545D01*
X27156071Y-9399187D01*
X27449262Y-9105996D01*
X27505892Y-9073345D01*
X27838241Y-8984719D01*
X27870706Y-8980465D01*
X28116720Y-8980465D01*
X28149873Y-8984905D01*
G37*
M02*
