M48
; DRILL file {KiCad (6.0.2)} date Sat Jun 11 16:41:05 2022
; FORMAT={-:-/ absolute / metric / decimal}
; #@! TF.CreationDate,2022-06-11T16:41:05+02:00
; #@! TF.GenerationSoftware,Kicad,Pcbnew,(6.0.2)
; #@! TF.FileFunction,Plated,1,2,PTH
FMAT,2
METRIC
; #@! TA.AperFunction,Plated,PTH,ViaDrill
T1C0.300
; #@! TA.AperFunction,Plated,PTH,ViaDrill
T2C0.400
; #@! TA.AperFunction,Plated,PTH,ViaDrill
T3C1.000
; #@! TA.AperFunction,Plated,PTH,ComponentDrill
T4C1.000
%
G90
G05
T1
X7.63Y-74.45
X8.966Y-75.362
X10.94Y-54.39
X11.455Y-74.524
X12.02Y-72.01
X12.534Y-50.01
X12.878Y-16.826
X13.77Y-43.22
X13.99Y-66.0
X14.158Y-79.792
X14.425Y-61.785
X14.44Y-52.29
X15.39Y-54.42
X15.78Y-75.72
X17.37Y-64.73
X17.48Y-50.0
X23.99Y-59.0
X23.99Y-78.96
X24.0Y-19.08
X24.01Y-39.11
X25.044Y-50.851
X25.516Y-54.53
X26.162Y-32.995
X27.434Y-54.48
X27.686Y-32.995
X27.686Y-50.851
X35.99Y-60.97
X35.99Y-80.97
X36.0Y-20.81
X36.03Y-44.0
X44.018Y-94.869
X44.145Y-89.256
X44.882Y-93.142
X44.882Y-94.183
X46.06Y-21.0
T2
X12.243Y-10.795
X14.275Y-92.901
X14.3Y-94.564
X15.062Y-91.567
X16.789Y-88.214
X18.466Y-11.735
X22.33Y-5.13
X24.13Y-85.242
X24.155Y-89.452
X24.181Y-8.814
X24.206Y-93.313
X29.337Y-80.416
X30.683Y-88.189
X31.648Y-92.329
X31.674Y-94.386
X35.28Y-92.891
X35.281Y-95.25
X41.87Y-69.0
X42.08Y-28.0
X43.9Y-71.26
X43.98Y-51.95
X44.05Y-30.0
X45.51Y-62.5
X47.2Y-62.5
X47.95Y-22.5
X48.0Y-31.7
X48.01Y-26.3
X49.0Y-72.76
X49.01Y-67.4
X49.81Y-22.5
T3
X28.0Y-3.0
X28.0Y-6.5
X28.0Y-10.0
T4
X5.092Y-35.28
X5.092Y-37.82
X5.092Y-40.36
X5.092Y-42.9
X5.092Y-45.44
X5.092Y-47.98
X5.092Y-50.52
X5.092Y-53.06
X5.092Y-55.6
X5.092Y-58.14
X30.492Y-35.28
X30.492Y-37.82
X30.492Y-40.36
X30.492Y-42.9
X30.492Y-45.44
X30.492Y-47.98
X30.492Y-50.52
X30.492Y-53.06
X30.492Y-55.6
X30.492Y-58.14
T0
M30
