G04 #@! TF.GenerationSoftware,KiCad,Pcbnew,(6.0.2)*
G04 #@! TF.CreationDate,2022-06-11T16:39:15+02:00*
G04 #@! TF.ProjectId,cartteFille,63617274-7465-4466-996c-6c652e6b6963,rev?*
G04 #@! TF.SameCoordinates,Original*
G04 #@! TF.FileFunction,Legend,Top*
G04 #@! TF.FilePolarity,Positive*
%FSLAX46Y46*%
G04 Gerber Fmt 4.6, Leading zero omitted, Abs format (unit mm)*
G04 Created by KiCad (PCBNEW (6.0.2)) date 2022-06-11 16:39:15*
%MOMM*%
%LPD*%
G01*
G04 APERTURE LIST*
G04 Aperture macros list*
%AMRoundRect*
0 Rectangle with rounded corners*
0 $1 Rounding radius*
0 $2 $3 $4 $5 $6 $7 $8 $9 X,Y pos of 4 corners*
0 Add a 4 corners polygon primitive as box body*
4,1,4,$2,$3,$4,$5,$6,$7,$8,$9,$2,$3,0*
0 Add four circle primitives for the rounded corners*
1,1,$1+$1,$2,$3*
1,1,$1+$1,$4,$5*
1,1,$1+$1,$6,$7*
1,1,$1+$1,$8,$9*
0 Add four rect primitives between the rounded corners*
20,1,$1+$1,$2,$3,$4,$5,0*
20,1,$1+$1,$4,$5,$6,$7,0*
20,1,$1+$1,$6,$7,$8,$9,0*
20,1,$1+$1,$8,$9,$2,$3,0*%
G04 Aperture macros list end*
%ADD10C,0.150000*%
%ADD11C,0.152400*%
%ADD12C,0.120000*%
%ADD13C,0.127000*%
%ADD14C,0.100000*%
%ADD15C,0.254000*%
%ADD16C,0.200000*%
%ADD17R,1.473200X0.355600*%
%ADD18RoundRect,0.200000X0.275000X-0.200000X0.275000X0.200000X-0.275000X0.200000X-0.275000X-0.200000X0*%
%ADD19RoundRect,0.200000X-0.200000X-0.275000X0.200000X-0.275000X0.200000X0.275000X-0.200000X0.275000X0*%
%ADD20C,4.300000*%
%ADD21R,1.300000X2.000000*%
%ADD22RoundRect,0.064000X0.336000X-0.496000X0.336000X0.496000X-0.336000X0.496000X-0.336000X-0.496000X0*%
%ADD23C,1.879600*%
%ADD24RoundRect,0.050800X-0.889000X0.889000X-0.889000X-0.889000X0.889000X-0.889000X0.889000X0.889000X0*%
%ADD25RoundRect,0.200000X0.200000X0.275000X-0.200000X0.275000X-0.200000X-0.275000X0.200000X-0.275000X0*%
%ADD26RoundRect,0.225000X0.225000X0.250000X-0.225000X0.250000X-0.225000X-0.250000X0.225000X-0.250000X0*%
%ADD27RoundRect,0.225000X-0.225000X-0.250000X0.225000X-0.250000X0.225000X0.250000X-0.225000X0.250000X0*%
%ADD28RoundRect,0.200000X-0.275000X0.200000X-0.275000X-0.200000X0.275000X-0.200000X0.275000X0.200000X0*%
%ADD29RoundRect,0.040600X0.564400X0.249400X-0.564400X0.249400X-0.564400X-0.249400X0.564400X-0.249400X0*%
%ADD30RoundRect,0.040600X-0.249400X0.564400X-0.249400X-0.564400X0.249400X-0.564400X0.249400X0.564400X0*%
%ADD31RoundRect,0.064000X-0.336000X0.496000X-0.336000X-0.496000X0.336000X-0.496000X0.336000X0.496000X0*%
%ADD32RoundRect,0.225000X-0.250000X0.225000X-0.250000X-0.225000X0.250000X-0.225000X0.250000X0.225000X0*%
%ADD33RoundRect,0.064000X0.496000X0.336000X-0.496000X0.336000X-0.496000X-0.336000X0.496000X-0.336000X0*%
%ADD34RoundRect,0.150000X0.650000X0.150000X-0.650000X0.150000X-0.650000X-0.150000X0.650000X-0.150000X0*%
%ADD35RoundRect,0.225000X0.250000X-0.225000X0.250000X0.225000X-0.250000X0.225000X-0.250000X-0.225000X0*%
G04 APERTURE END LIST*
D10*
X29489447Y-10739428D02*
X30251352Y-10739428D01*
X29121219Y-7329514D02*
X29359314Y-7996180D01*
X29597409Y-7329514D01*
X30406933Y-7996180D02*
X30406933Y-7472371D01*
X30359314Y-7377133D01*
X30264076Y-7329514D01*
X30073600Y-7329514D01*
X29978361Y-7377133D01*
X30406933Y-7948561D02*
X30311695Y-7996180D01*
X30073600Y-7996180D01*
X29978361Y-7948561D01*
X29930742Y-7853323D01*
X29930742Y-7758085D01*
X29978361Y-7662847D01*
X30073600Y-7615228D01*
X30311695Y-7615228D01*
X30406933Y-7567609D01*
X31025980Y-7996180D02*
X30930742Y-7948561D01*
X30883123Y-7853323D01*
X30883123Y-6996180D01*
X29438647Y-3830628D02*
X30200552Y-3830628D01*
X29819600Y-4211580D02*
X29819600Y-3449676D01*
X18260314Y-90715780D02*
X18260314Y-91525304D01*
X18307933Y-91620542D01*
X18355552Y-91668161D01*
X18450790Y-91715780D01*
X18641266Y-91715780D01*
X18736504Y-91668161D01*
X18784123Y-91620542D01*
X18831742Y-91525304D01*
X18831742Y-90715780D01*
X19260314Y-90811019D02*
X19307933Y-90763400D01*
X19403171Y-90715780D01*
X19641266Y-90715780D01*
X19736504Y-90763400D01*
X19784123Y-90811019D01*
X19831742Y-90906257D01*
X19831742Y-91001495D01*
X19784123Y-91144352D01*
X19212695Y-91715780D01*
X19831742Y-91715780D01*
X20450790Y-90715780D02*
X20546028Y-90715780D01*
X20641266Y-90763400D01*
X20688885Y-90811019D01*
X20736504Y-90906257D01*
X20784123Y-91096733D01*
X20784123Y-91334828D01*
X20736504Y-91525304D01*
X20688885Y-91620542D01*
X20641266Y-91668161D01*
X20546028Y-91715780D01*
X20450790Y-91715780D01*
X20355552Y-91668161D01*
X20307933Y-91620542D01*
X20260314Y-91525304D01*
X20212695Y-91334828D01*
X20212695Y-91096733D01*
X20260314Y-90906257D01*
X20307933Y-90811019D01*
X20355552Y-90763400D01*
X20450790Y-90715780D01*
X21165076Y-90811019D02*
X21212695Y-90763400D01*
X21307933Y-90715780D01*
X21546028Y-90715780D01*
X21641266Y-90763400D01*
X21688885Y-90811019D01*
X21736504Y-90906257D01*
X21736504Y-91001495D01*
X21688885Y-91144352D01*
X21117457Y-91715780D01*
X21736504Y-91715780D01*
X38922380Y-74449047D02*
X38446190Y-74782380D01*
X38922380Y-75020476D02*
X37922380Y-75020476D01*
X37922380Y-74639523D01*
X37970000Y-74544285D01*
X38017619Y-74496666D01*
X38112857Y-74449047D01*
X38255714Y-74449047D01*
X38350952Y-74496666D01*
X38398571Y-74544285D01*
X38446190Y-74639523D01*
X38446190Y-75020476D01*
X38017619Y-74068095D02*
X37970000Y-74020476D01*
X37922380Y-73925238D01*
X37922380Y-73687142D01*
X37970000Y-73591904D01*
X38017619Y-73544285D01*
X38112857Y-73496666D01*
X38208095Y-73496666D01*
X38350952Y-73544285D01*
X38922380Y-74115714D01*
X38922380Y-73496666D01*
X38350952Y-72925238D02*
X38303333Y-73020476D01*
X38255714Y-73068095D01*
X38160476Y-73115714D01*
X38112857Y-73115714D01*
X38017619Y-73068095D01*
X37970000Y-73020476D01*
X37922380Y-72925238D01*
X37922380Y-72734761D01*
X37970000Y-72639523D01*
X38017619Y-72591904D01*
X38112857Y-72544285D01*
X38160476Y-72544285D01*
X38255714Y-72591904D01*
X38303333Y-72639523D01*
X38350952Y-72734761D01*
X38350952Y-72925238D01*
X38398571Y-73020476D01*
X38446190Y-73068095D01*
X38541428Y-73115714D01*
X38731904Y-73115714D01*
X38827142Y-73068095D01*
X38874761Y-73020476D01*
X38922380Y-72925238D01*
X38922380Y-72734761D01*
X38874761Y-72639523D01*
X38827142Y-72591904D01*
X38731904Y-72544285D01*
X38541428Y-72544285D01*
X38446190Y-72591904D01*
X38398571Y-72639523D01*
X38350952Y-72734761D01*
X38017619Y-72163333D02*
X37970000Y-72115714D01*
X37922380Y-72020476D01*
X37922380Y-71782380D01*
X37970000Y-71687142D01*
X38017619Y-71639523D01*
X38112857Y-71591904D01*
X38208095Y-71591904D01*
X38350952Y-71639523D01*
X38922380Y-72210952D01*
X38922380Y-71591904D01*
X11326952Y-76779380D02*
X10993619Y-76303190D01*
X10755523Y-76779380D02*
X10755523Y-75779380D01*
X11136476Y-75779380D01*
X11231714Y-75827000D01*
X11279333Y-75874619D01*
X11326952Y-75969857D01*
X11326952Y-76112714D01*
X11279333Y-76207952D01*
X11231714Y-76255571D01*
X11136476Y-76303190D01*
X10755523Y-76303190D01*
X11707904Y-75874619D02*
X11755523Y-75827000D01*
X11850761Y-75779380D01*
X12088857Y-75779380D01*
X12184095Y-75827000D01*
X12231714Y-75874619D01*
X12279333Y-75969857D01*
X12279333Y-76065095D01*
X12231714Y-76207952D01*
X11660285Y-76779380D01*
X12279333Y-76779380D01*
X12612666Y-75779380D02*
X13231714Y-75779380D01*
X12898380Y-76160333D01*
X13041238Y-76160333D01*
X13136476Y-76207952D01*
X13184095Y-76255571D01*
X13231714Y-76350809D01*
X13231714Y-76588904D01*
X13184095Y-76684142D01*
X13136476Y-76731761D01*
X13041238Y-76779380D01*
X12755523Y-76779380D01*
X12660285Y-76731761D01*
X12612666Y-76684142D01*
X14184095Y-76779380D02*
X13612666Y-76779380D01*
X13898380Y-76779380D02*
X13898380Y-75779380D01*
X13803142Y-75922238D01*
X13707904Y-76017476D01*
X13612666Y-76065095D01*
X10596666Y-97827619D02*
X10644285Y-97780000D01*
X10739523Y-97732380D01*
X10977619Y-97732380D01*
X11072857Y-97780000D01*
X11120476Y-97827619D01*
X11168095Y-97922857D01*
X11168095Y-98018095D01*
X11120476Y-98160952D01*
X10549047Y-98732380D01*
X11168095Y-98732380D01*
X11596666Y-98732380D02*
X11596666Y-97732380D01*
X11930000Y-98446666D01*
X12263333Y-97732380D01*
X12263333Y-98732380D01*
X13168095Y-98065714D02*
X13168095Y-98732380D01*
X12930000Y-97684761D02*
X12691904Y-98399047D01*
X13310952Y-98399047D01*
X17864761Y-21248095D02*
X17912380Y-21105238D01*
X17912380Y-20867142D01*
X17864761Y-20771904D01*
X17817142Y-20724285D01*
X17721904Y-20676666D01*
X17626666Y-20676666D01*
X17531428Y-20724285D01*
X17483809Y-20771904D01*
X17436190Y-20867142D01*
X17388571Y-21057619D01*
X17340952Y-21152857D01*
X17293333Y-21200476D01*
X17198095Y-21248095D01*
X17102857Y-21248095D01*
X17007619Y-21200476D01*
X16960000Y-21152857D01*
X16912380Y-21057619D01*
X16912380Y-20819523D01*
X16960000Y-20676666D01*
X17007619Y-20295714D02*
X16960000Y-20248095D01*
X16912380Y-20152857D01*
X16912380Y-19914761D01*
X16960000Y-19819523D01*
X17007619Y-19771904D01*
X17102857Y-19724285D01*
X17198095Y-19724285D01*
X17340952Y-19771904D01*
X17912380Y-20343333D01*
X17912380Y-19724285D01*
X17007619Y-19343333D02*
X16960000Y-19295714D01*
X16912380Y-19200476D01*
X16912380Y-18962380D01*
X16960000Y-18867142D01*
X17007619Y-18819523D01*
X17102857Y-18771904D01*
X17198095Y-18771904D01*
X17340952Y-18819523D01*
X17912380Y-19390952D01*
X17912380Y-18771904D01*
X35732980Y-70080047D02*
X35256790Y-70413380D01*
X35732980Y-70651476D02*
X34732980Y-70651476D01*
X34732980Y-70270523D01*
X34780600Y-70175285D01*
X34828219Y-70127666D01*
X34923457Y-70080047D01*
X35066314Y-70080047D01*
X35161552Y-70127666D01*
X35209171Y-70175285D01*
X35256790Y-70270523D01*
X35256790Y-70651476D01*
X34828219Y-69699095D02*
X34780600Y-69651476D01*
X34732980Y-69556238D01*
X34732980Y-69318142D01*
X34780600Y-69222904D01*
X34828219Y-69175285D01*
X34923457Y-69127666D01*
X35018695Y-69127666D01*
X35161552Y-69175285D01*
X35732980Y-69746714D01*
X35732980Y-69127666D01*
X35161552Y-68556238D02*
X35113933Y-68651476D01*
X35066314Y-68699095D01*
X34971076Y-68746714D01*
X34923457Y-68746714D01*
X34828219Y-68699095D01*
X34780600Y-68651476D01*
X34732980Y-68556238D01*
X34732980Y-68365761D01*
X34780600Y-68270523D01*
X34828219Y-68222904D01*
X34923457Y-68175285D01*
X34971076Y-68175285D01*
X35066314Y-68222904D01*
X35113933Y-68270523D01*
X35161552Y-68365761D01*
X35161552Y-68556238D01*
X35209171Y-68651476D01*
X35256790Y-68699095D01*
X35352028Y-68746714D01*
X35542504Y-68746714D01*
X35637742Y-68699095D01*
X35685361Y-68651476D01*
X35732980Y-68556238D01*
X35732980Y-68365761D01*
X35685361Y-68270523D01*
X35637742Y-68222904D01*
X35542504Y-68175285D01*
X35352028Y-68175285D01*
X35256790Y-68222904D01*
X35209171Y-68270523D01*
X35161552Y-68365761D01*
X34732980Y-67841952D02*
X34732980Y-67222904D01*
X35113933Y-67556238D01*
X35113933Y-67413380D01*
X35161552Y-67318142D01*
X35209171Y-67270523D01*
X35304409Y-67222904D01*
X35542504Y-67222904D01*
X35637742Y-67270523D01*
X35685361Y-67318142D01*
X35732980Y-67413380D01*
X35732980Y-67699095D01*
X35685361Y-67794333D01*
X35637742Y-67841952D01*
X42944761Y-81238095D02*
X42992380Y-81095238D01*
X42992380Y-80857142D01*
X42944761Y-80761904D01*
X42897142Y-80714285D01*
X42801904Y-80666666D01*
X42706666Y-80666666D01*
X42611428Y-80714285D01*
X42563809Y-80761904D01*
X42516190Y-80857142D01*
X42468571Y-81047619D01*
X42420952Y-81142857D01*
X42373333Y-81190476D01*
X42278095Y-81238095D01*
X42182857Y-81238095D01*
X42087619Y-81190476D01*
X42040000Y-81142857D01*
X41992380Y-81047619D01*
X41992380Y-80809523D01*
X42040000Y-80666666D01*
X42087619Y-80285714D02*
X42040000Y-80238095D01*
X41992380Y-80142857D01*
X41992380Y-79904761D01*
X42040000Y-79809523D01*
X42087619Y-79761904D01*
X42182857Y-79714285D01*
X42278095Y-79714285D01*
X42420952Y-79761904D01*
X42992380Y-80333333D01*
X42992380Y-79714285D01*
X42420952Y-79142857D02*
X42373333Y-79238095D01*
X42325714Y-79285714D01*
X42230476Y-79333333D01*
X42182857Y-79333333D01*
X42087619Y-79285714D01*
X42040000Y-79238095D01*
X41992380Y-79142857D01*
X41992380Y-78952380D01*
X42040000Y-78857142D01*
X42087619Y-78809523D01*
X42182857Y-78761904D01*
X42230476Y-78761904D01*
X42325714Y-78809523D01*
X42373333Y-78857142D01*
X42420952Y-78952380D01*
X42420952Y-79142857D01*
X42468571Y-79238095D01*
X42516190Y-79285714D01*
X42611428Y-79333333D01*
X42801904Y-79333333D01*
X42897142Y-79285714D01*
X42944761Y-79238095D01*
X42992380Y-79142857D01*
X42992380Y-78952380D01*
X42944761Y-78857142D01*
X42897142Y-78809523D01*
X42801904Y-78761904D01*
X42611428Y-78761904D01*
X42516190Y-78809523D01*
X42468571Y-78857142D01*
X42420952Y-78952380D01*
X12440952Y-70402380D02*
X12107619Y-69926190D01*
X11869523Y-70402380D02*
X11869523Y-69402380D01*
X12250476Y-69402380D01*
X12345714Y-69450000D01*
X12393333Y-69497619D01*
X12440952Y-69592857D01*
X12440952Y-69735714D01*
X12393333Y-69830952D01*
X12345714Y-69878571D01*
X12250476Y-69926190D01*
X11869523Y-69926190D01*
X12821904Y-69497619D02*
X12869523Y-69450000D01*
X12964761Y-69402380D01*
X13202857Y-69402380D01*
X13298095Y-69450000D01*
X13345714Y-69497619D01*
X13393333Y-69592857D01*
X13393333Y-69688095D01*
X13345714Y-69830952D01*
X12774285Y-70402380D01*
X13393333Y-70402380D01*
X14250476Y-69735714D02*
X14250476Y-70402380D01*
X14012380Y-69354761D02*
X13774285Y-70069047D01*
X14393333Y-70069047D01*
X14726666Y-69497619D02*
X14774285Y-69450000D01*
X14869523Y-69402380D01*
X15107619Y-69402380D01*
X15202857Y-69450000D01*
X15250476Y-69497619D01*
X15298095Y-69592857D01*
X15298095Y-69688095D01*
X15250476Y-69830952D01*
X14679047Y-70402380D01*
X15298095Y-70402380D01*
X39559580Y-15026685D02*
X38559580Y-15026685D01*
X38559580Y-14788590D01*
X38607200Y-14645733D01*
X38702438Y-14550495D01*
X38797676Y-14502876D01*
X38988152Y-14455257D01*
X39131009Y-14455257D01*
X39321485Y-14502876D01*
X39416723Y-14550495D01*
X39511961Y-14645733D01*
X39559580Y-14788590D01*
X39559580Y-15026685D01*
X38654819Y-14074304D02*
X38607200Y-14026685D01*
X38559580Y-13931447D01*
X38559580Y-13693352D01*
X38607200Y-13598114D01*
X38654819Y-13550495D01*
X38750057Y-13502876D01*
X38845295Y-13502876D01*
X38988152Y-13550495D01*
X39559580Y-14121923D01*
X39559580Y-13502876D01*
X38559580Y-12598114D02*
X38559580Y-13074304D01*
X39035771Y-13121923D01*
X38988152Y-13074304D01*
X38940533Y-12979066D01*
X38940533Y-12740971D01*
X38988152Y-12645733D01*
X39035771Y-12598114D01*
X39131009Y-12550495D01*
X39369104Y-12550495D01*
X39464342Y-12598114D01*
X39511961Y-12645733D01*
X39559580Y-12740971D01*
X39559580Y-12979066D01*
X39511961Y-13074304D01*
X39464342Y-13121923D01*
X28652380Y-32978571D02*
X28985714Y-32978571D01*
X29128571Y-33502380D02*
X28652380Y-33502380D01*
X28652380Y-32502380D01*
X29128571Y-32502380D01*
X29461904Y-32502380D02*
X30128571Y-33502380D01*
X30128571Y-32502380D02*
X29461904Y-33502380D01*
X30366666Y-32502380D02*
X30938095Y-32502380D01*
X30652380Y-33502380D02*
X30652380Y-32502380D01*
X31795238Y-33502380D02*
X31223809Y-33502380D01*
X31509523Y-33502380D02*
X31509523Y-32502380D01*
X31414285Y-32645238D01*
X31319047Y-32740476D01*
X31223809Y-32788095D01*
X20445552Y-52166780D02*
X20112219Y-51690590D01*
X19874123Y-52166780D02*
X19874123Y-51166780D01*
X20255076Y-51166780D01*
X20350314Y-51214400D01*
X20397933Y-51262019D01*
X20445552Y-51357257D01*
X20445552Y-51500114D01*
X20397933Y-51595352D01*
X20350314Y-51642971D01*
X20255076Y-51690590D01*
X19874123Y-51690590D01*
X21064600Y-51166780D02*
X21159838Y-51166780D01*
X21255076Y-51214400D01*
X21302695Y-51262019D01*
X21350314Y-51357257D01*
X21397933Y-51547733D01*
X21397933Y-51785828D01*
X21350314Y-51976304D01*
X21302695Y-52071542D01*
X21255076Y-52119161D01*
X21159838Y-52166780D01*
X21064600Y-52166780D01*
X20969361Y-52119161D01*
X20921742Y-52071542D01*
X20874123Y-51976304D01*
X20826504Y-51785828D01*
X20826504Y-51547733D01*
X20874123Y-51357257D01*
X20921742Y-51262019D01*
X20969361Y-51214400D01*
X21064600Y-51166780D01*
X22016980Y-51166780D02*
X22112219Y-51166780D01*
X22207457Y-51214400D01*
X22255076Y-51262019D01*
X22302695Y-51357257D01*
X22350314Y-51547733D01*
X22350314Y-51785828D01*
X22302695Y-51976304D01*
X22255076Y-52071542D01*
X22207457Y-52119161D01*
X22112219Y-52166780D01*
X22016980Y-52166780D01*
X21921742Y-52119161D01*
X21874123Y-52071542D01*
X21826504Y-51976304D01*
X21778885Y-51785828D01*
X21778885Y-51547733D01*
X21826504Y-51357257D01*
X21874123Y-51262019D01*
X21921742Y-51214400D01*
X22016980Y-51166780D01*
X23302695Y-52166780D02*
X22731266Y-52166780D01*
X23016980Y-52166780D02*
X23016980Y-51166780D01*
X22921742Y-51309638D01*
X22826504Y-51404876D01*
X22731266Y-51452495D01*
X43965952Y-34081980D02*
X43632619Y-33605790D01*
X43394523Y-34081980D02*
X43394523Y-33081980D01*
X43775476Y-33081980D01*
X43870714Y-33129600D01*
X43918333Y-33177219D01*
X43965952Y-33272457D01*
X43965952Y-33415314D01*
X43918333Y-33510552D01*
X43870714Y-33558171D01*
X43775476Y-33605790D01*
X43394523Y-33605790D01*
X44346904Y-33177219D02*
X44394523Y-33129600D01*
X44489761Y-33081980D01*
X44727857Y-33081980D01*
X44823095Y-33129600D01*
X44870714Y-33177219D01*
X44918333Y-33272457D01*
X44918333Y-33367695D01*
X44870714Y-33510552D01*
X44299285Y-34081980D01*
X44918333Y-34081980D01*
X45775476Y-33081980D02*
X45585000Y-33081980D01*
X45489761Y-33129600D01*
X45442142Y-33177219D01*
X45346904Y-33320076D01*
X45299285Y-33510552D01*
X45299285Y-33891504D01*
X45346904Y-33986742D01*
X45394523Y-34034361D01*
X45489761Y-34081980D01*
X45680238Y-34081980D01*
X45775476Y-34034361D01*
X45823095Y-33986742D01*
X45870714Y-33891504D01*
X45870714Y-33653409D01*
X45823095Y-33558171D01*
X45775476Y-33510552D01*
X45680238Y-33462933D01*
X45489761Y-33462933D01*
X45394523Y-33510552D01*
X45346904Y-33558171D01*
X45299285Y-33653409D01*
X46823095Y-34081980D02*
X46251666Y-34081980D01*
X46537380Y-34081980D02*
X46537380Y-33081980D01*
X46442142Y-33224838D01*
X46346904Y-33320076D01*
X46251666Y-33367695D01*
X42780952Y-26377142D02*
X42733333Y-26424761D01*
X42590476Y-26472380D01*
X42495238Y-26472380D01*
X42352380Y-26424761D01*
X42257142Y-26329523D01*
X42209523Y-26234285D01*
X42161904Y-26043809D01*
X42161904Y-25900952D01*
X42209523Y-25710476D01*
X42257142Y-25615238D01*
X42352380Y-25520000D01*
X42495238Y-25472380D01*
X42590476Y-25472380D01*
X42733333Y-25520000D01*
X42780952Y-25567619D01*
X43161904Y-25567619D02*
X43209523Y-25520000D01*
X43304761Y-25472380D01*
X43542857Y-25472380D01*
X43638095Y-25520000D01*
X43685714Y-25567619D01*
X43733333Y-25662857D01*
X43733333Y-25758095D01*
X43685714Y-25900952D01*
X43114285Y-26472380D01*
X43733333Y-26472380D01*
X44590476Y-25472380D02*
X44400000Y-25472380D01*
X44304761Y-25520000D01*
X44257142Y-25567619D01*
X44161904Y-25710476D01*
X44114285Y-25900952D01*
X44114285Y-26281904D01*
X44161904Y-26377142D01*
X44209523Y-26424761D01*
X44304761Y-26472380D01*
X44495238Y-26472380D01*
X44590476Y-26424761D01*
X44638095Y-26377142D01*
X44685714Y-26281904D01*
X44685714Y-26043809D01*
X44638095Y-25948571D01*
X44590476Y-25900952D01*
X44495238Y-25853333D01*
X44304761Y-25853333D01*
X44209523Y-25900952D01*
X44161904Y-25948571D01*
X44114285Y-26043809D01*
X45638095Y-26472380D02*
X45066666Y-26472380D01*
X45352380Y-26472380D02*
X45352380Y-25472380D01*
X45257142Y-25615238D01*
X45161904Y-25710476D01*
X45066666Y-25758095D01*
X50798552Y-21362942D02*
X50750933Y-21410561D01*
X50608076Y-21458180D01*
X50512838Y-21458180D01*
X50369980Y-21410561D01*
X50274742Y-21315323D01*
X50227123Y-21220085D01*
X50179504Y-21029609D01*
X50179504Y-20886752D01*
X50227123Y-20696276D01*
X50274742Y-20601038D01*
X50369980Y-20505800D01*
X50512838Y-20458180D01*
X50608076Y-20458180D01*
X50750933Y-20505800D01*
X50798552Y-20553419D01*
X51179504Y-20553419D02*
X51227123Y-20505800D01*
X51322361Y-20458180D01*
X51560457Y-20458180D01*
X51655695Y-20505800D01*
X51703314Y-20553419D01*
X51750933Y-20648657D01*
X51750933Y-20743895D01*
X51703314Y-20886752D01*
X51131885Y-21458180D01*
X51750933Y-21458180D01*
X52655695Y-20458180D02*
X52179504Y-20458180D01*
X52131885Y-20934371D01*
X52179504Y-20886752D01*
X52274742Y-20839133D01*
X52512838Y-20839133D01*
X52608076Y-20886752D01*
X52655695Y-20934371D01*
X52703314Y-21029609D01*
X52703314Y-21267704D01*
X52655695Y-21362942D01*
X52608076Y-21410561D01*
X52512838Y-21458180D01*
X52274742Y-21458180D01*
X52179504Y-21410561D01*
X52131885Y-21362942D01*
X53655695Y-21458180D02*
X53084266Y-21458180D01*
X53369980Y-21458180D02*
X53369980Y-20458180D01*
X53274742Y-20601038D01*
X53179504Y-20696276D01*
X53084266Y-20743895D01*
X12850952Y-40907142D02*
X12803333Y-40954761D01*
X12660476Y-41002380D01*
X12565238Y-41002380D01*
X12422380Y-40954761D01*
X12327142Y-40859523D01*
X12279523Y-40764285D01*
X12231904Y-40573809D01*
X12231904Y-40430952D01*
X12279523Y-40240476D01*
X12327142Y-40145238D01*
X12422380Y-40050000D01*
X12565238Y-40002380D01*
X12660476Y-40002380D01*
X12803333Y-40050000D01*
X12850952Y-40097619D01*
X13231904Y-40097619D02*
X13279523Y-40050000D01*
X13374761Y-40002380D01*
X13612857Y-40002380D01*
X13708095Y-40050000D01*
X13755714Y-40097619D01*
X13803333Y-40192857D01*
X13803333Y-40288095D01*
X13755714Y-40430952D01*
X13184285Y-41002380D01*
X13803333Y-41002380D01*
X14755714Y-41002380D02*
X14184285Y-41002380D01*
X14470000Y-41002380D02*
X14470000Y-40002380D01*
X14374761Y-40145238D01*
X14279523Y-40240476D01*
X14184285Y-40288095D01*
X15708095Y-41002380D02*
X15136666Y-41002380D01*
X15422380Y-41002380D02*
X15422380Y-40002380D01*
X15327142Y-40145238D01*
X15231904Y-40240476D01*
X15136666Y-40288095D01*
X23532266Y-49983133D02*
X23198933Y-50216466D01*
X23532266Y-50383133D02*
X22832266Y-50383133D01*
X22832266Y-50116466D01*
X22865600Y-50049800D01*
X22898933Y-50016466D01*
X22965600Y-49983133D01*
X23065600Y-49983133D01*
X23132266Y-50016466D01*
X23165600Y-50049800D01*
X23198933Y-50116466D01*
X23198933Y-50383133D01*
X22898933Y-49716466D02*
X22865600Y-49683133D01*
X22832266Y-49616466D01*
X22832266Y-49449800D01*
X22865600Y-49383133D01*
X22898933Y-49349800D01*
X22965600Y-49316466D01*
X23032266Y-49316466D01*
X23132266Y-49349800D01*
X23532266Y-49749800D01*
X23532266Y-49316466D01*
X23532266Y-48649800D02*
X23532266Y-49049800D01*
X23532266Y-48849800D02*
X22832266Y-48849800D01*
X22932266Y-48916466D01*
X22998933Y-48983133D01*
X23032266Y-49049800D01*
X22832266Y-48416466D02*
X22832266Y-47983133D01*
X23098933Y-48216466D01*
X23098933Y-48116466D01*
X23132266Y-48049800D01*
X23165600Y-48016466D01*
X23232266Y-47983133D01*
X23398933Y-47983133D01*
X23465600Y-48016466D01*
X23498933Y-48049800D01*
X23532266Y-48116466D01*
X23532266Y-48316466D01*
X23498933Y-48383133D01*
X23465600Y-48416466D01*
X38379580Y-14371447D02*
X37903390Y-14704780D01*
X38379580Y-14942876D02*
X37379580Y-14942876D01*
X37379580Y-14561923D01*
X37427200Y-14466685D01*
X37474819Y-14419066D01*
X37570057Y-14371447D01*
X37712914Y-14371447D01*
X37808152Y-14419066D01*
X37855771Y-14466685D01*
X37903390Y-14561923D01*
X37903390Y-14942876D01*
X37474819Y-13990495D02*
X37427200Y-13942876D01*
X37379580Y-13847638D01*
X37379580Y-13609542D01*
X37427200Y-13514304D01*
X37474819Y-13466685D01*
X37570057Y-13419066D01*
X37665295Y-13419066D01*
X37808152Y-13466685D01*
X38379580Y-14038114D01*
X38379580Y-13419066D01*
X37379580Y-12514304D02*
X37379580Y-12990495D01*
X37855771Y-13038114D01*
X37808152Y-12990495D01*
X37760533Y-12895257D01*
X37760533Y-12657161D01*
X37808152Y-12561923D01*
X37855771Y-12514304D01*
X37951009Y-12466685D01*
X38189104Y-12466685D01*
X38284342Y-12514304D01*
X38331961Y-12561923D01*
X38379580Y-12657161D01*
X38379580Y-12895257D01*
X38331961Y-12990495D01*
X38284342Y-13038114D01*
X37379580Y-12133352D02*
X37379580Y-11514304D01*
X37760533Y-11847638D01*
X37760533Y-11704780D01*
X37808152Y-11609542D01*
X37855771Y-11561923D01*
X37951009Y-11514304D01*
X38189104Y-11514304D01*
X38284342Y-11561923D01*
X38331961Y-11609542D01*
X38379580Y-11704780D01*
X38379580Y-11990495D01*
X38331961Y-12085733D01*
X38284342Y-12133352D01*
X24480780Y-71451647D02*
X24004590Y-71784980D01*
X24480780Y-72023076D02*
X23480780Y-72023076D01*
X23480780Y-71642123D01*
X23528400Y-71546885D01*
X23576019Y-71499266D01*
X23671257Y-71451647D01*
X23814114Y-71451647D01*
X23909352Y-71499266D01*
X23956971Y-71546885D01*
X24004590Y-71642123D01*
X24004590Y-72023076D01*
X23576019Y-71070695D02*
X23528400Y-71023076D01*
X23480780Y-70927838D01*
X23480780Y-70689742D01*
X23528400Y-70594504D01*
X23576019Y-70546885D01*
X23671257Y-70499266D01*
X23766495Y-70499266D01*
X23909352Y-70546885D01*
X24480780Y-71118314D01*
X24480780Y-70499266D01*
X23814114Y-69642123D02*
X24480780Y-69642123D01*
X23433161Y-69880219D02*
X24147447Y-70118314D01*
X24147447Y-69499266D01*
X23480780Y-69213552D02*
X23480780Y-68594504D01*
X23861733Y-68927838D01*
X23861733Y-68784980D01*
X23909352Y-68689742D01*
X23956971Y-68642123D01*
X24052209Y-68594504D01*
X24290304Y-68594504D01*
X24385542Y-68642123D01*
X24433161Y-68689742D01*
X24480780Y-68784980D01*
X24480780Y-69070695D01*
X24433161Y-69165933D01*
X24385542Y-69213552D01*
X5976666Y-69092380D02*
X5976666Y-69901904D01*
X6024285Y-69997142D01*
X6071904Y-70044761D01*
X6167142Y-70092380D01*
X6357619Y-70092380D01*
X6452857Y-70044761D01*
X6500476Y-69997142D01*
X6548095Y-69901904D01*
X6548095Y-69092380D01*
X6976666Y-69187619D02*
X7024285Y-69140000D01*
X7119523Y-69092380D01*
X7357619Y-69092380D01*
X7452857Y-69140000D01*
X7500476Y-69187619D01*
X7548095Y-69282857D01*
X7548095Y-69378095D01*
X7500476Y-69520952D01*
X6929047Y-70092380D01*
X7548095Y-70092380D01*
X7881428Y-69092380D02*
X8500476Y-69092380D01*
X8167142Y-69473333D01*
X8310000Y-69473333D01*
X8405238Y-69520952D01*
X8452857Y-69568571D01*
X8500476Y-69663809D01*
X8500476Y-69901904D01*
X8452857Y-69997142D01*
X8405238Y-70044761D01*
X8310000Y-70092380D01*
X8024285Y-70092380D01*
X7929047Y-70044761D01*
X7881428Y-69997142D01*
X8929047Y-69711428D02*
X9690952Y-69711428D01*
X10595714Y-69425714D02*
X10595714Y-70092380D01*
X10357619Y-69044761D02*
X10119523Y-69759047D01*
X10738571Y-69759047D01*
X53309047Y-89282380D02*
X53928095Y-89282380D01*
X53594761Y-89663333D01*
X53737619Y-89663333D01*
X53832857Y-89710952D01*
X53880476Y-89758571D01*
X53928095Y-89853809D01*
X53928095Y-90091904D01*
X53880476Y-90187142D01*
X53832857Y-90234761D01*
X53737619Y-90282380D01*
X53451904Y-90282380D01*
X53356666Y-90234761D01*
X53309047Y-90187142D01*
X54356666Y-90282380D02*
X54356666Y-89282380D01*
X54690000Y-89996666D01*
X55023333Y-89282380D01*
X55023333Y-90282380D01*
X55928095Y-89615714D02*
X55928095Y-90282380D01*
X55690000Y-89234761D02*
X55451904Y-89949047D01*
X56070952Y-89949047D01*
X23547142Y-5612380D02*
X23213809Y-5136190D01*
X22975714Y-5612380D02*
X22975714Y-4612380D01*
X23356666Y-4612380D01*
X23451904Y-4660000D01*
X23499523Y-4707619D01*
X23547142Y-4802857D01*
X23547142Y-4945714D01*
X23499523Y-5040952D01*
X23451904Y-5088571D01*
X23356666Y-5136190D01*
X22975714Y-5136190D01*
X24499523Y-5612380D02*
X23928095Y-5612380D01*
X24213809Y-5612380D02*
X24213809Y-4612380D01*
X24118571Y-4755238D01*
X24023333Y-4850476D01*
X23928095Y-4898095D01*
X24880476Y-4707619D02*
X24928095Y-4660000D01*
X25023333Y-4612380D01*
X25261428Y-4612380D01*
X25356666Y-4660000D01*
X25404285Y-4707619D01*
X25451904Y-4802857D01*
X25451904Y-4898095D01*
X25404285Y-5040952D01*
X24832857Y-5612380D01*
X25451904Y-5612380D01*
X49871380Y-31441733D02*
X50680904Y-31441733D01*
X50776142Y-31394114D01*
X50823761Y-31346495D01*
X50871380Y-31251257D01*
X50871380Y-31060780D01*
X50823761Y-30965542D01*
X50776142Y-30917923D01*
X50680904Y-30870304D01*
X49871380Y-30870304D01*
X49966619Y-30441733D02*
X49919000Y-30394114D01*
X49871380Y-30298876D01*
X49871380Y-30060780D01*
X49919000Y-29965542D01*
X49966619Y-29917923D01*
X50061857Y-29870304D01*
X50157095Y-29870304D01*
X50299952Y-29917923D01*
X50871380Y-30489352D01*
X50871380Y-29870304D01*
X49871380Y-28965542D02*
X49871380Y-29441733D01*
X50347571Y-29489352D01*
X50299952Y-29441733D01*
X50252333Y-29346495D01*
X50252333Y-29108400D01*
X50299952Y-29013161D01*
X50347571Y-28965542D01*
X50442809Y-28917923D01*
X50680904Y-28917923D01*
X50776142Y-28965542D01*
X50823761Y-29013161D01*
X50871380Y-29108400D01*
X50871380Y-29346495D01*
X50823761Y-29441733D01*
X50776142Y-29489352D01*
X50490428Y-28489352D02*
X50490428Y-27727447D01*
X49871380Y-26822685D02*
X49871380Y-27013161D01*
X49919000Y-27108400D01*
X49966619Y-27156019D01*
X50109476Y-27251257D01*
X50299952Y-27298876D01*
X50680904Y-27298876D01*
X50776142Y-27251257D01*
X50823761Y-27203638D01*
X50871380Y-27108400D01*
X50871380Y-26917923D01*
X50823761Y-26822685D01*
X50776142Y-26775066D01*
X50680904Y-26727447D01*
X50442809Y-26727447D01*
X50347571Y-26775066D01*
X50299952Y-26822685D01*
X50252333Y-26917923D01*
X50252333Y-27108400D01*
X50299952Y-27203638D01*
X50347571Y-27251257D01*
X50442809Y-27298876D01*
X3652380Y-33088571D02*
X3985714Y-33088571D01*
X4128571Y-33612380D02*
X3652380Y-33612380D01*
X3652380Y-32612380D01*
X4128571Y-32612380D01*
X4461904Y-32612380D02*
X5128571Y-33612380D01*
X5128571Y-32612380D02*
X4461904Y-33612380D01*
X5366666Y-32612380D02*
X5938095Y-32612380D01*
X5652380Y-33612380D02*
X5652380Y-32612380D01*
X6223809Y-32707619D02*
X6271428Y-32660000D01*
X6366666Y-32612380D01*
X6604761Y-32612380D01*
X6700000Y-32660000D01*
X6747619Y-32707619D01*
X6795238Y-32802857D01*
X6795238Y-32898095D01*
X6747619Y-33040952D01*
X6176190Y-33612380D01*
X6795238Y-33612380D01*
X21899714Y-73756780D02*
X21899714Y-72756780D01*
X22137809Y-72756780D01*
X22280666Y-72804400D01*
X22375904Y-72899638D01*
X22423523Y-72994876D01*
X22471142Y-73185352D01*
X22471142Y-73328209D01*
X22423523Y-73518685D01*
X22375904Y-73613923D01*
X22280666Y-73709161D01*
X22137809Y-73756780D01*
X21899714Y-73756780D01*
X22852095Y-72852019D02*
X22899714Y-72804400D01*
X22994952Y-72756780D01*
X23233047Y-72756780D01*
X23328285Y-72804400D01*
X23375904Y-72852019D01*
X23423523Y-72947257D01*
X23423523Y-73042495D01*
X23375904Y-73185352D01*
X22804476Y-73756780D01*
X23423523Y-73756780D01*
X24280666Y-73090114D02*
X24280666Y-73756780D01*
X24042571Y-72709161D02*
X23804476Y-73423447D01*
X24423523Y-73423447D01*
X51702857Y-54725714D02*
X51702857Y-55392380D01*
X51464761Y-54344761D02*
X51226666Y-55059047D01*
X51845714Y-55059047D01*
X52226666Y-55392380D02*
X52226666Y-54392380D01*
X52560000Y-55106666D01*
X52893333Y-54392380D01*
X52893333Y-55392380D01*
X53798095Y-54725714D02*
X53798095Y-55392380D01*
X53560000Y-54344761D02*
X53321904Y-55059047D01*
X53940952Y-55059047D01*
X18424761Y-81228095D02*
X18472380Y-81085238D01*
X18472380Y-80847142D01*
X18424761Y-80751904D01*
X18377142Y-80704285D01*
X18281904Y-80656666D01*
X18186666Y-80656666D01*
X18091428Y-80704285D01*
X18043809Y-80751904D01*
X17996190Y-80847142D01*
X17948571Y-81037619D01*
X17900952Y-81132857D01*
X17853333Y-81180476D01*
X17758095Y-81228095D01*
X17662857Y-81228095D01*
X17567619Y-81180476D01*
X17520000Y-81132857D01*
X17472380Y-81037619D01*
X17472380Y-80799523D01*
X17520000Y-80656666D01*
X17567619Y-80275714D02*
X17520000Y-80228095D01*
X17472380Y-80132857D01*
X17472380Y-79894761D01*
X17520000Y-79799523D01*
X17567619Y-79751904D01*
X17662857Y-79704285D01*
X17758095Y-79704285D01*
X17900952Y-79751904D01*
X18472380Y-80323333D01*
X18472380Y-79704285D01*
X17472380Y-79370952D02*
X17472380Y-78751904D01*
X17853333Y-79085238D01*
X17853333Y-78942380D01*
X17900952Y-78847142D01*
X17948571Y-78799523D01*
X18043809Y-78751904D01*
X18281904Y-78751904D01*
X18377142Y-78799523D01*
X18424761Y-78847142D01*
X18472380Y-78942380D01*
X18472380Y-79228095D01*
X18424761Y-79323333D01*
X18377142Y-79370952D01*
X51750476Y-9392380D02*
X51274285Y-9392380D01*
X51226666Y-9868571D01*
X51274285Y-9820952D01*
X51369523Y-9773333D01*
X51607619Y-9773333D01*
X51702857Y-9820952D01*
X51750476Y-9868571D01*
X51798095Y-9963809D01*
X51798095Y-10201904D01*
X51750476Y-10297142D01*
X51702857Y-10344761D01*
X51607619Y-10392380D01*
X51369523Y-10392380D01*
X51274285Y-10344761D01*
X51226666Y-10297142D01*
X52226666Y-10392380D02*
X52226666Y-9392380D01*
X52560000Y-10106666D01*
X52893333Y-9392380D01*
X52893333Y-10392380D01*
X53798095Y-9725714D02*
X53798095Y-10392380D01*
X53560000Y-9344761D02*
X53321904Y-10059047D01*
X53940952Y-10059047D01*
X40181352Y-54503580D02*
X39848019Y-54027390D01*
X39609923Y-54503580D02*
X39609923Y-53503580D01*
X39990876Y-53503580D01*
X40086114Y-53551200D01*
X40133733Y-53598819D01*
X40181352Y-53694057D01*
X40181352Y-53836914D01*
X40133733Y-53932152D01*
X40086114Y-53979771D01*
X39990876Y-54027390D01*
X39609923Y-54027390D01*
X40562304Y-53598819D02*
X40609923Y-53551200D01*
X40705161Y-53503580D01*
X40943257Y-53503580D01*
X41038495Y-53551200D01*
X41086114Y-53598819D01*
X41133733Y-53694057D01*
X41133733Y-53789295D01*
X41086114Y-53932152D01*
X40514685Y-54503580D01*
X41133733Y-54503580D01*
X41467066Y-53503580D02*
X42133733Y-53503580D01*
X41705161Y-54503580D01*
X42467066Y-53598819D02*
X42514685Y-53551200D01*
X42609923Y-53503580D01*
X42848019Y-53503580D01*
X42943257Y-53551200D01*
X42990876Y-53598819D01*
X43038495Y-53694057D01*
X43038495Y-53789295D01*
X42990876Y-53932152D01*
X42419447Y-54503580D01*
X43038495Y-54503580D01*
X9290952Y-84322380D02*
X8957619Y-83846190D01*
X8719523Y-84322380D02*
X8719523Y-83322380D01*
X9100476Y-83322380D01*
X9195714Y-83370000D01*
X9243333Y-83417619D01*
X9290952Y-83512857D01*
X9290952Y-83655714D01*
X9243333Y-83750952D01*
X9195714Y-83798571D01*
X9100476Y-83846190D01*
X8719523Y-83846190D01*
X9671904Y-83417619D02*
X9719523Y-83370000D01*
X9814761Y-83322380D01*
X10052857Y-83322380D01*
X10148095Y-83370000D01*
X10195714Y-83417619D01*
X10243333Y-83512857D01*
X10243333Y-83608095D01*
X10195714Y-83750952D01*
X9624285Y-84322380D01*
X10243333Y-84322380D01*
X10576666Y-83322380D02*
X11195714Y-83322380D01*
X10862380Y-83703333D01*
X11005238Y-83703333D01*
X11100476Y-83750952D01*
X11148095Y-83798571D01*
X11195714Y-83893809D01*
X11195714Y-84131904D01*
X11148095Y-84227142D01*
X11100476Y-84274761D01*
X11005238Y-84322380D01*
X10719523Y-84322380D01*
X10624285Y-84274761D01*
X10576666Y-84227142D01*
X11529047Y-83322380D02*
X12148095Y-83322380D01*
X11814761Y-83703333D01*
X11957619Y-83703333D01*
X12052857Y-83750952D01*
X12100476Y-83798571D01*
X12148095Y-83893809D01*
X12148095Y-84131904D01*
X12100476Y-84227142D01*
X12052857Y-84274761D01*
X11957619Y-84322380D01*
X11671904Y-84322380D01*
X11576666Y-84274761D01*
X11529047Y-84227142D01*
X9599752Y-16943342D02*
X9552133Y-16990961D01*
X9409276Y-17038580D01*
X9314038Y-17038580D01*
X9171180Y-16990961D01*
X9075942Y-16895723D01*
X9028323Y-16800485D01*
X8980704Y-16610009D01*
X8980704Y-16467152D01*
X9028323Y-16276676D01*
X9075942Y-16181438D01*
X9171180Y-16086200D01*
X9314038Y-16038580D01*
X9409276Y-16038580D01*
X9552133Y-16086200D01*
X9599752Y-16133819D01*
X9980704Y-16133819D02*
X10028323Y-16086200D01*
X10123561Y-16038580D01*
X10361657Y-16038580D01*
X10456895Y-16086200D01*
X10504514Y-16133819D01*
X10552133Y-16229057D01*
X10552133Y-16324295D01*
X10504514Y-16467152D01*
X9933085Y-17038580D01*
X10552133Y-17038580D01*
X10933085Y-16133819D02*
X10980704Y-16086200D01*
X11075942Y-16038580D01*
X11314038Y-16038580D01*
X11409276Y-16086200D01*
X11456895Y-16133819D01*
X11504514Y-16229057D01*
X11504514Y-16324295D01*
X11456895Y-16467152D01*
X10885466Y-17038580D01*
X11504514Y-17038580D01*
X12456895Y-17038580D02*
X11885466Y-17038580D01*
X12171180Y-17038580D02*
X12171180Y-16038580D01*
X12075942Y-16181438D01*
X11980704Y-16276676D01*
X11885466Y-16324295D01*
X38239914Y-90663780D02*
X38239914Y-91473304D01*
X38287533Y-91568542D01*
X38335152Y-91616161D01*
X38430390Y-91663780D01*
X38620866Y-91663780D01*
X38716104Y-91616161D01*
X38763723Y-91568542D01*
X38811342Y-91473304D01*
X38811342Y-90663780D01*
X39239914Y-90759019D02*
X39287533Y-90711400D01*
X39382771Y-90663780D01*
X39620866Y-90663780D01*
X39716104Y-90711400D01*
X39763723Y-90759019D01*
X39811342Y-90854257D01*
X39811342Y-90949495D01*
X39763723Y-91092352D01*
X39192295Y-91663780D01*
X39811342Y-91663780D01*
X40430390Y-90663780D02*
X40525628Y-90663780D01*
X40620866Y-90711400D01*
X40668485Y-90759019D01*
X40716104Y-90854257D01*
X40763723Y-91044733D01*
X40763723Y-91282828D01*
X40716104Y-91473304D01*
X40668485Y-91568542D01*
X40620866Y-91616161D01*
X40525628Y-91663780D01*
X40430390Y-91663780D01*
X40335152Y-91616161D01*
X40287533Y-91568542D01*
X40239914Y-91473304D01*
X40192295Y-91282828D01*
X40192295Y-91044733D01*
X40239914Y-90854257D01*
X40287533Y-90759019D01*
X40335152Y-90711400D01*
X40430390Y-90663780D01*
X41716104Y-91663780D02*
X41144676Y-91663780D01*
X41430390Y-91663780D02*
X41430390Y-90663780D01*
X41335152Y-90806638D01*
X41239914Y-90901876D01*
X41144676Y-90949495D01*
X35707580Y-73883685D02*
X34707580Y-73883685D01*
X34707580Y-73645590D01*
X34755200Y-73502733D01*
X34850438Y-73407495D01*
X34945676Y-73359876D01*
X35136152Y-73312257D01*
X35279009Y-73312257D01*
X35469485Y-73359876D01*
X35564723Y-73407495D01*
X35659961Y-73502733D01*
X35707580Y-73645590D01*
X35707580Y-73883685D01*
X34802819Y-72931304D02*
X34755200Y-72883685D01*
X34707580Y-72788447D01*
X34707580Y-72550352D01*
X34755200Y-72455114D01*
X34802819Y-72407495D01*
X34898057Y-72359876D01*
X34993295Y-72359876D01*
X35136152Y-72407495D01*
X35707580Y-72978923D01*
X35707580Y-72359876D01*
X35136152Y-71788447D02*
X35088533Y-71883685D01*
X35040914Y-71931304D01*
X34945676Y-71978923D01*
X34898057Y-71978923D01*
X34802819Y-71931304D01*
X34755200Y-71883685D01*
X34707580Y-71788447D01*
X34707580Y-71597971D01*
X34755200Y-71502733D01*
X34802819Y-71455114D01*
X34898057Y-71407495D01*
X34945676Y-71407495D01*
X35040914Y-71455114D01*
X35088533Y-71502733D01*
X35136152Y-71597971D01*
X35136152Y-71788447D01*
X35183771Y-71883685D01*
X35231390Y-71931304D01*
X35326628Y-71978923D01*
X35517104Y-71978923D01*
X35612342Y-71931304D01*
X35659961Y-71883685D01*
X35707580Y-71788447D01*
X35707580Y-71597971D01*
X35659961Y-71502733D01*
X35612342Y-71455114D01*
X35517104Y-71407495D01*
X35326628Y-71407495D01*
X35231390Y-71455114D01*
X35183771Y-71502733D01*
X35136152Y-71597971D01*
X23557666Y-47509800D02*
X22857666Y-47509800D01*
X22857666Y-47343133D01*
X22891000Y-47243133D01*
X22957666Y-47176466D01*
X23024333Y-47143133D01*
X23157666Y-47109800D01*
X23257666Y-47109800D01*
X23391000Y-47143133D01*
X23457666Y-47176466D01*
X23524333Y-47243133D01*
X23557666Y-47343133D01*
X23557666Y-47509800D01*
X22924333Y-46843133D02*
X22891000Y-46809800D01*
X22857666Y-46743133D01*
X22857666Y-46576466D01*
X22891000Y-46509800D01*
X22924333Y-46476466D01*
X22991000Y-46443133D01*
X23057666Y-46443133D01*
X23157666Y-46476466D01*
X23557666Y-46876466D01*
X23557666Y-46443133D01*
X23557666Y-45776466D02*
X23557666Y-46176466D01*
X23557666Y-45976466D02*
X22857666Y-45976466D01*
X22957666Y-46043133D01*
X23024333Y-46109800D01*
X23057666Y-46176466D01*
X23662380Y-27594285D02*
X22662380Y-27594285D01*
X22662380Y-27356190D01*
X22710000Y-27213333D01*
X22805238Y-27118095D01*
X22900476Y-27070476D01*
X23090952Y-27022857D01*
X23233809Y-27022857D01*
X23424285Y-27070476D01*
X23519523Y-27118095D01*
X23614761Y-27213333D01*
X23662380Y-27356190D01*
X23662380Y-27594285D01*
X22757619Y-26641904D02*
X22710000Y-26594285D01*
X22662380Y-26499047D01*
X22662380Y-26260952D01*
X22710000Y-26165714D01*
X22757619Y-26118095D01*
X22852857Y-26070476D01*
X22948095Y-26070476D01*
X23090952Y-26118095D01*
X23662380Y-26689523D01*
X23662380Y-26070476D01*
X22757619Y-25689523D02*
X22710000Y-25641904D01*
X22662380Y-25546666D01*
X22662380Y-25308571D01*
X22710000Y-25213333D01*
X22757619Y-25165714D01*
X22852857Y-25118095D01*
X22948095Y-25118095D01*
X23090952Y-25165714D01*
X23662380Y-25737142D01*
X23662380Y-25118095D01*
X43156142Y-50699847D02*
X43203761Y-50747466D01*
X43251380Y-50890323D01*
X43251380Y-50985561D01*
X43203761Y-51128419D01*
X43108523Y-51223657D01*
X43013285Y-51271276D01*
X42822809Y-51318895D01*
X42679952Y-51318895D01*
X42489476Y-51271276D01*
X42394238Y-51223657D01*
X42299000Y-51128419D01*
X42251380Y-50985561D01*
X42251380Y-50890323D01*
X42299000Y-50747466D01*
X42346619Y-50699847D01*
X42346619Y-50318895D02*
X42299000Y-50271276D01*
X42251380Y-50176038D01*
X42251380Y-49937942D01*
X42299000Y-49842704D01*
X42346619Y-49795085D01*
X42441857Y-49747466D01*
X42537095Y-49747466D01*
X42679952Y-49795085D01*
X43251380Y-50366514D01*
X43251380Y-49747466D01*
X42251380Y-49414133D02*
X42251380Y-48747466D01*
X43251380Y-49176038D01*
X43251380Y-47842704D02*
X43251380Y-48414133D01*
X43251380Y-48128419D02*
X42251380Y-48128419D01*
X42394238Y-48223657D01*
X42489476Y-48318895D01*
X42537095Y-48414133D01*
X35700952Y-31622380D02*
X35367619Y-31146190D01*
X35129523Y-31622380D02*
X35129523Y-30622380D01*
X35510476Y-30622380D01*
X35605714Y-30670000D01*
X35653333Y-30717619D01*
X35700952Y-30812857D01*
X35700952Y-30955714D01*
X35653333Y-31050952D01*
X35605714Y-31098571D01*
X35510476Y-31146190D01*
X35129523Y-31146190D01*
X36081904Y-30717619D02*
X36129523Y-30670000D01*
X36224761Y-30622380D01*
X36462857Y-30622380D01*
X36558095Y-30670000D01*
X36605714Y-30717619D01*
X36653333Y-30812857D01*
X36653333Y-30908095D01*
X36605714Y-31050952D01*
X36034285Y-31622380D01*
X36653333Y-31622380D01*
X37510476Y-30622380D02*
X37320000Y-30622380D01*
X37224761Y-30670000D01*
X37177142Y-30717619D01*
X37081904Y-30860476D01*
X37034285Y-31050952D01*
X37034285Y-31431904D01*
X37081904Y-31527142D01*
X37129523Y-31574761D01*
X37224761Y-31622380D01*
X37415238Y-31622380D01*
X37510476Y-31574761D01*
X37558095Y-31527142D01*
X37605714Y-31431904D01*
X37605714Y-31193809D01*
X37558095Y-31098571D01*
X37510476Y-31050952D01*
X37415238Y-31003333D01*
X37224761Y-31003333D01*
X37129523Y-31050952D01*
X37081904Y-31098571D01*
X37034285Y-31193809D01*
X37939047Y-30622380D02*
X38558095Y-30622380D01*
X38224761Y-31003333D01*
X38367619Y-31003333D01*
X38462857Y-31050952D01*
X38510476Y-31098571D01*
X38558095Y-31193809D01*
X38558095Y-31431904D01*
X38510476Y-31527142D01*
X38462857Y-31574761D01*
X38367619Y-31622380D01*
X38081904Y-31622380D01*
X37986666Y-31574761D01*
X37939047Y-31527142D01*
X24417142Y-1912380D02*
X24083809Y-1436190D01*
X23845714Y-1912380D02*
X23845714Y-912380D01*
X24226666Y-912380D01*
X24321904Y-960000D01*
X24369523Y-1007619D01*
X24417142Y-1102857D01*
X24417142Y-1245714D01*
X24369523Y-1340952D01*
X24321904Y-1388571D01*
X24226666Y-1436190D01*
X23845714Y-1436190D01*
X25369523Y-1912380D02*
X24798095Y-1912380D01*
X25083809Y-1912380D02*
X25083809Y-912380D01*
X24988571Y-1055238D01*
X24893333Y-1150476D01*
X24798095Y-1198095D01*
X26274285Y-912380D02*
X25798095Y-912380D01*
X25750476Y-1388571D01*
X25798095Y-1340952D01*
X25893333Y-1293333D01*
X26131428Y-1293333D01*
X26226666Y-1340952D01*
X26274285Y-1388571D01*
X26321904Y-1483809D01*
X26321904Y-1721904D01*
X26274285Y-1817142D01*
X26226666Y-1864761D01*
X26131428Y-1912380D01*
X25893333Y-1912380D01*
X25798095Y-1864761D01*
X25750476Y-1817142D01*
X42944761Y-21238095D02*
X42992380Y-21095238D01*
X42992380Y-20857142D01*
X42944761Y-20761904D01*
X42897142Y-20714285D01*
X42801904Y-20666666D01*
X42706666Y-20666666D01*
X42611428Y-20714285D01*
X42563809Y-20761904D01*
X42516190Y-20857142D01*
X42468571Y-21047619D01*
X42420952Y-21142857D01*
X42373333Y-21190476D01*
X42278095Y-21238095D01*
X42182857Y-21238095D01*
X42087619Y-21190476D01*
X42040000Y-21142857D01*
X41992380Y-21047619D01*
X41992380Y-20809523D01*
X42040000Y-20666666D01*
X42087619Y-20285714D02*
X42040000Y-20238095D01*
X41992380Y-20142857D01*
X41992380Y-19904761D01*
X42040000Y-19809523D01*
X42087619Y-19761904D01*
X42182857Y-19714285D01*
X42278095Y-19714285D01*
X42420952Y-19761904D01*
X42992380Y-20333333D01*
X42992380Y-19714285D01*
X41992380Y-18809523D02*
X41992380Y-19285714D01*
X42468571Y-19333333D01*
X42420952Y-19285714D01*
X42373333Y-19190476D01*
X42373333Y-18952380D01*
X42420952Y-18857142D01*
X42468571Y-18809523D01*
X42563809Y-18761904D01*
X42801904Y-18761904D01*
X42897142Y-18809523D01*
X42944761Y-18857142D01*
X42992380Y-18952380D01*
X42992380Y-19190476D01*
X42944761Y-19285714D01*
X42897142Y-19333333D01*
X42944761Y-61238095D02*
X42992380Y-61095238D01*
X42992380Y-60857142D01*
X42944761Y-60761904D01*
X42897142Y-60714285D01*
X42801904Y-60666666D01*
X42706666Y-60666666D01*
X42611428Y-60714285D01*
X42563809Y-60761904D01*
X42516190Y-60857142D01*
X42468571Y-61047619D01*
X42420952Y-61142857D01*
X42373333Y-61190476D01*
X42278095Y-61238095D01*
X42182857Y-61238095D01*
X42087619Y-61190476D01*
X42040000Y-61142857D01*
X41992380Y-61047619D01*
X41992380Y-60809523D01*
X42040000Y-60666666D01*
X42087619Y-60285714D02*
X42040000Y-60238095D01*
X41992380Y-60142857D01*
X41992380Y-59904761D01*
X42040000Y-59809523D01*
X42087619Y-59761904D01*
X42182857Y-59714285D01*
X42278095Y-59714285D01*
X42420952Y-59761904D01*
X42992380Y-60333333D01*
X42992380Y-59714285D01*
X41992380Y-59380952D02*
X41992380Y-58714285D01*
X42992380Y-59142857D01*
X13600952Y-32072380D02*
X13267619Y-31596190D01*
X13029523Y-32072380D02*
X13029523Y-31072380D01*
X13410476Y-31072380D01*
X13505714Y-31120000D01*
X13553333Y-31167619D01*
X13600952Y-31262857D01*
X13600952Y-31405714D01*
X13553333Y-31500952D01*
X13505714Y-31548571D01*
X13410476Y-31596190D01*
X13029523Y-31596190D01*
X13981904Y-31167619D02*
X14029523Y-31120000D01*
X14124761Y-31072380D01*
X14362857Y-31072380D01*
X14458095Y-31120000D01*
X14505714Y-31167619D01*
X14553333Y-31262857D01*
X14553333Y-31358095D01*
X14505714Y-31500952D01*
X13934285Y-32072380D01*
X14553333Y-32072380D01*
X15505714Y-32072380D02*
X14934285Y-32072380D01*
X15220000Y-32072380D02*
X15220000Y-31072380D01*
X15124761Y-31215238D01*
X15029523Y-31310476D01*
X14934285Y-31358095D01*
X15886666Y-31167619D02*
X15934285Y-31120000D01*
X16029523Y-31072380D01*
X16267619Y-31072380D01*
X16362857Y-31120000D01*
X16410476Y-31167619D01*
X16458095Y-31262857D01*
X16458095Y-31358095D01*
X16410476Y-31500952D01*
X15839047Y-32072380D01*
X16458095Y-32072380D01*
X50519152Y-17343380D02*
X50185819Y-16867190D01*
X49947723Y-17343380D02*
X49947723Y-16343380D01*
X50328676Y-16343380D01*
X50423914Y-16391000D01*
X50471533Y-16438619D01*
X50519152Y-16533857D01*
X50519152Y-16676714D01*
X50471533Y-16771952D01*
X50423914Y-16819571D01*
X50328676Y-16867190D01*
X49947723Y-16867190D01*
X50900104Y-16438619D02*
X50947723Y-16391000D01*
X51042961Y-16343380D01*
X51281057Y-16343380D01*
X51376295Y-16391000D01*
X51423914Y-16438619D01*
X51471533Y-16533857D01*
X51471533Y-16629095D01*
X51423914Y-16771952D01*
X50852485Y-17343380D01*
X51471533Y-17343380D01*
X52376295Y-16343380D02*
X51900104Y-16343380D01*
X51852485Y-16819571D01*
X51900104Y-16771952D01*
X51995342Y-16724333D01*
X52233438Y-16724333D01*
X52328676Y-16771952D01*
X52376295Y-16819571D01*
X52423914Y-16914809D01*
X52423914Y-17152904D01*
X52376295Y-17248142D01*
X52328676Y-17295761D01*
X52233438Y-17343380D01*
X51995342Y-17343380D01*
X51900104Y-17295761D01*
X51852485Y-17248142D01*
X53376295Y-17343380D02*
X52804866Y-17343380D01*
X53090580Y-17343380D02*
X53090580Y-16343380D01*
X52995342Y-16486238D01*
X52900104Y-16581476D01*
X52804866Y-16629095D01*
X35055714Y-30162380D02*
X35055714Y-29162380D01*
X35293809Y-29162380D01*
X35436666Y-29210000D01*
X35531904Y-29305238D01*
X35579523Y-29400476D01*
X35627142Y-29590952D01*
X35627142Y-29733809D01*
X35579523Y-29924285D01*
X35531904Y-30019523D01*
X35436666Y-30114761D01*
X35293809Y-30162380D01*
X35055714Y-30162380D01*
X36008095Y-29257619D02*
X36055714Y-29210000D01*
X36150952Y-29162380D01*
X36389047Y-29162380D01*
X36484285Y-29210000D01*
X36531904Y-29257619D01*
X36579523Y-29352857D01*
X36579523Y-29448095D01*
X36531904Y-29590952D01*
X35960476Y-30162380D01*
X36579523Y-30162380D01*
X37436666Y-29162380D02*
X37246190Y-29162380D01*
X37150952Y-29210000D01*
X37103333Y-29257619D01*
X37008095Y-29400476D01*
X36960476Y-29590952D01*
X36960476Y-29971904D01*
X37008095Y-30067142D01*
X37055714Y-30114761D01*
X37150952Y-30162380D01*
X37341428Y-30162380D01*
X37436666Y-30114761D01*
X37484285Y-30067142D01*
X37531904Y-29971904D01*
X37531904Y-29733809D01*
X37484285Y-29638571D01*
X37436666Y-29590952D01*
X37341428Y-29543333D01*
X37150952Y-29543333D01*
X37055714Y-29590952D01*
X37008095Y-29638571D01*
X36960476Y-29733809D01*
X12010952Y-67837142D02*
X11963333Y-67884761D01*
X11820476Y-67932380D01*
X11725238Y-67932380D01*
X11582380Y-67884761D01*
X11487142Y-67789523D01*
X11439523Y-67694285D01*
X11391904Y-67503809D01*
X11391904Y-67360952D01*
X11439523Y-67170476D01*
X11487142Y-67075238D01*
X11582380Y-66980000D01*
X11725238Y-66932380D01*
X11820476Y-66932380D01*
X11963333Y-66980000D01*
X12010952Y-67027619D01*
X12391904Y-67027619D02*
X12439523Y-66980000D01*
X12534761Y-66932380D01*
X12772857Y-66932380D01*
X12868095Y-66980000D01*
X12915714Y-67027619D01*
X12963333Y-67122857D01*
X12963333Y-67218095D01*
X12915714Y-67360952D01*
X12344285Y-67932380D01*
X12963333Y-67932380D01*
X13820476Y-67265714D02*
X13820476Y-67932380D01*
X13582380Y-66884761D02*
X13344285Y-67599047D01*
X13963333Y-67599047D01*
X14868095Y-67932380D02*
X14296666Y-67932380D01*
X14582380Y-67932380D02*
X14582380Y-66932380D01*
X14487142Y-67075238D01*
X14391904Y-67170476D01*
X14296666Y-67218095D01*
X42949952Y-67997342D02*
X42902333Y-68044961D01*
X42759476Y-68092580D01*
X42664238Y-68092580D01*
X42521380Y-68044961D01*
X42426142Y-67949723D01*
X42378523Y-67854485D01*
X42330904Y-67664009D01*
X42330904Y-67521152D01*
X42378523Y-67330676D01*
X42426142Y-67235438D01*
X42521380Y-67140200D01*
X42664238Y-67092580D01*
X42759476Y-67092580D01*
X42902333Y-67140200D01*
X42949952Y-67187819D01*
X43330904Y-67187819D02*
X43378523Y-67140200D01*
X43473761Y-67092580D01*
X43711857Y-67092580D01*
X43807095Y-67140200D01*
X43854714Y-67187819D01*
X43902333Y-67283057D01*
X43902333Y-67378295D01*
X43854714Y-67521152D01*
X43283285Y-68092580D01*
X43902333Y-68092580D01*
X44473761Y-67521152D02*
X44378523Y-67473533D01*
X44330904Y-67425914D01*
X44283285Y-67330676D01*
X44283285Y-67283057D01*
X44330904Y-67187819D01*
X44378523Y-67140200D01*
X44473761Y-67092580D01*
X44664238Y-67092580D01*
X44759476Y-67140200D01*
X44807095Y-67187819D01*
X44854714Y-67283057D01*
X44854714Y-67330676D01*
X44807095Y-67425914D01*
X44759476Y-67473533D01*
X44664238Y-67521152D01*
X44473761Y-67521152D01*
X44378523Y-67568771D01*
X44330904Y-67616390D01*
X44283285Y-67711628D01*
X44283285Y-67902104D01*
X44330904Y-67997342D01*
X44378523Y-68044961D01*
X44473761Y-68092580D01*
X44664238Y-68092580D01*
X44759476Y-68044961D01*
X44807095Y-67997342D01*
X44854714Y-67902104D01*
X44854714Y-67711628D01*
X44807095Y-67616390D01*
X44759476Y-67568771D01*
X44664238Y-67521152D01*
X45807095Y-68092580D02*
X45235666Y-68092580D01*
X45521380Y-68092580D02*
X45521380Y-67092580D01*
X45426142Y-67235438D01*
X45330904Y-67330676D01*
X45235666Y-67378295D01*
X10980952Y-61992380D02*
X10647619Y-61516190D01*
X10409523Y-61992380D02*
X10409523Y-60992380D01*
X10790476Y-60992380D01*
X10885714Y-61040000D01*
X10933333Y-61087619D01*
X10980952Y-61182857D01*
X10980952Y-61325714D01*
X10933333Y-61420952D01*
X10885714Y-61468571D01*
X10790476Y-61516190D01*
X10409523Y-61516190D01*
X11361904Y-61087619D02*
X11409523Y-61040000D01*
X11504761Y-60992380D01*
X11742857Y-60992380D01*
X11838095Y-61040000D01*
X11885714Y-61087619D01*
X11933333Y-61182857D01*
X11933333Y-61278095D01*
X11885714Y-61420952D01*
X11314285Y-61992380D01*
X11933333Y-61992380D01*
X12790476Y-61325714D02*
X12790476Y-61992380D01*
X12552380Y-60944761D02*
X12314285Y-61659047D01*
X12933333Y-61659047D01*
X13838095Y-61992380D02*
X13266666Y-61992380D01*
X13552380Y-61992380D02*
X13552380Y-60992380D01*
X13457142Y-61135238D01*
X13361904Y-61230476D01*
X13266666Y-61278095D01*
X16498095Y-7642380D02*
X16498095Y-8451904D01*
X16545714Y-8547142D01*
X16593333Y-8594761D01*
X16688571Y-8642380D01*
X16879047Y-8642380D01*
X16974285Y-8594761D01*
X17021904Y-8547142D01*
X17069523Y-8451904D01*
X17069523Y-7642380D01*
X18069523Y-8642380D02*
X17498095Y-8642380D01*
X17783809Y-8642380D02*
X17783809Y-7642380D01*
X17688571Y-7785238D01*
X17593333Y-7880476D01*
X17498095Y-7928095D01*
X11533142Y-13571457D02*
X11580761Y-13619076D01*
X11628380Y-13761933D01*
X11628380Y-13857171D01*
X11580761Y-14000028D01*
X11485523Y-14095266D01*
X11390285Y-14142885D01*
X11199809Y-14190504D01*
X11056952Y-14190504D01*
X10866476Y-14142885D01*
X10771238Y-14095266D01*
X10676000Y-14000028D01*
X10628380Y-13857171D01*
X10628380Y-13761933D01*
X10676000Y-13619076D01*
X10723619Y-13571457D01*
X11628380Y-12619076D02*
X11628380Y-13190504D01*
X11628380Y-12904790D02*
X10628380Y-12904790D01*
X10771238Y-13000028D01*
X10866476Y-13095266D01*
X10914095Y-13190504D01*
X10723619Y-12238123D02*
X10676000Y-12190504D01*
X10628380Y-12095266D01*
X10628380Y-11857171D01*
X10676000Y-11761933D01*
X10723619Y-11714314D01*
X10818857Y-11666695D01*
X10914095Y-11666695D01*
X11056952Y-11714314D01*
X11628380Y-12285742D01*
X11628380Y-11666695D01*
X11372152Y-27245780D02*
X11038819Y-26769590D01*
X10800723Y-27245780D02*
X10800723Y-26245780D01*
X11181676Y-26245780D01*
X11276914Y-26293400D01*
X11324533Y-26341019D01*
X11372152Y-26436257D01*
X11372152Y-26579114D01*
X11324533Y-26674352D01*
X11276914Y-26721971D01*
X11181676Y-26769590D01*
X10800723Y-26769590D01*
X11753104Y-26341019D02*
X11800723Y-26293400D01*
X11895961Y-26245780D01*
X12134057Y-26245780D01*
X12229295Y-26293400D01*
X12276914Y-26341019D01*
X12324533Y-26436257D01*
X12324533Y-26531495D01*
X12276914Y-26674352D01*
X11705485Y-27245780D01*
X12324533Y-27245780D01*
X12705485Y-26341019D02*
X12753104Y-26293400D01*
X12848342Y-26245780D01*
X13086438Y-26245780D01*
X13181676Y-26293400D01*
X13229295Y-26341019D01*
X13276914Y-26436257D01*
X13276914Y-26531495D01*
X13229295Y-26674352D01*
X12657866Y-27245780D01*
X13276914Y-27245780D01*
X13657866Y-26341019D02*
X13705485Y-26293400D01*
X13800723Y-26245780D01*
X14038819Y-26245780D01*
X14134057Y-26293400D01*
X14181676Y-26341019D01*
X14229295Y-26436257D01*
X14229295Y-26531495D01*
X14181676Y-26674352D01*
X13610247Y-27245780D01*
X14229295Y-27245780D01*
X34970952Y-49052380D02*
X34637619Y-48576190D01*
X34399523Y-49052380D02*
X34399523Y-48052380D01*
X34780476Y-48052380D01*
X34875714Y-48100000D01*
X34923333Y-48147619D01*
X34970952Y-48242857D01*
X34970952Y-48385714D01*
X34923333Y-48480952D01*
X34875714Y-48528571D01*
X34780476Y-48576190D01*
X34399523Y-48576190D01*
X35351904Y-48147619D02*
X35399523Y-48100000D01*
X35494761Y-48052380D01*
X35732857Y-48052380D01*
X35828095Y-48100000D01*
X35875714Y-48147619D01*
X35923333Y-48242857D01*
X35923333Y-48338095D01*
X35875714Y-48480952D01*
X35304285Y-49052380D01*
X35923333Y-49052380D01*
X36256666Y-48052380D02*
X36923333Y-48052380D01*
X36494761Y-49052380D01*
X37209047Y-48052380D02*
X37828095Y-48052380D01*
X37494761Y-48433333D01*
X37637619Y-48433333D01*
X37732857Y-48480952D01*
X37780476Y-48528571D01*
X37828095Y-48623809D01*
X37828095Y-48861904D01*
X37780476Y-48957142D01*
X37732857Y-49004761D01*
X37637619Y-49052380D01*
X37351904Y-49052380D01*
X37256666Y-49004761D01*
X37209047Y-48957142D01*
X14312380Y-83534285D02*
X13312380Y-83534285D01*
X13312380Y-83296190D01*
X13360000Y-83153333D01*
X13455238Y-83058095D01*
X13550476Y-83010476D01*
X13740952Y-82962857D01*
X13883809Y-82962857D01*
X14074285Y-83010476D01*
X14169523Y-83058095D01*
X14264761Y-83153333D01*
X14312380Y-83296190D01*
X14312380Y-83534285D01*
X13407619Y-82581904D02*
X13360000Y-82534285D01*
X13312380Y-82439047D01*
X13312380Y-82200952D01*
X13360000Y-82105714D01*
X13407619Y-82058095D01*
X13502857Y-82010476D01*
X13598095Y-82010476D01*
X13740952Y-82058095D01*
X14312380Y-82629523D01*
X14312380Y-82010476D01*
X13312380Y-81677142D02*
X13312380Y-81058095D01*
X13693333Y-81391428D01*
X13693333Y-81248571D01*
X13740952Y-81153333D01*
X13788571Y-81105714D01*
X13883809Y-81058095D01*
X14121904Y-81058095D01*
X14217142Y-81105714D01*
X14264761Y-81153333D01*
X14312380Y-81248571D01*
X14312380Y-81534285D01*
X14264761Y-81629523D01*
X14217142Y-81677142D01*
X48474380Y-78380933D02*
X49283904Y-78380933D01*
X49379142Y-78333314D01*
X49426761Y-78285695D01*
X49474380Y-78190457D01*
X49474380Y-77999980D01*
X49426761Y-77904742D01*
X49379142Y-77857123D01*
X49283904Y-77809504D01*
X48474380Y-77809504D01*
X48569619Y-77380933D02*
X48522000Y-77333314D01*
X48474380Y-77238076D01*
X48474380Y-76999980D01*
X48522000Y-76904742D01*
X48569619Y-76857123D01*
X48664857Y-76809504D01*
X48760095Y-76809504D01*
X48902952Y-76857123D01*
X49474380Y-77428552D01*
X49474380Y-76809504D01*
X48474380Y-76476171D02*
X48474380Y-75809504D01*
X49474380Y-76238076D01*
X49093428Y-75428552D02*
X49093428Y-74666647D01*
X48902952Y-74047600D02*
X48855333Y-74142838D01*
X48807714Y-74190457D01*
X48712476Y-74238076D01*
X48664857Y-74238076D01*
X48569619Y-74190457D01*
X48522000Y-74142838D01*
X48474380Y-74047600D01*
X48474380Y-73857123D01*
X48522000Y-73761885D01*
X48569619Y-73714266D01*
X48664857Y-73666647D01*
X48712476Y-73666647D01*
X48807714Y-73714266D01*
X48855333Y-73761885D01*
X48902952Y-73857123D01*
X48902952Y-74047600D01*
X48950571Y-74142838D01*
X48998190Y-74190457D01*
X49093428Y-74238076D01*
X49283904Y-74238076D01*
X49379142Y-74190457D01*
X49426761Y-74142838D01*
X49474380Y-74047600D01*
X49474380Y-73857123D01*
X49426761Y-73761885D01*
X49379142Y-73714266D01*
X49283904Y-73666647D01*
X49093428Y-73666647D01*
X48998190Y-73714266D01*
X48950571Y-73761885D01*
X48902952Y-73857123D01*
X38247580Y-28068447D02*
X37771390Y-28401780D01*
X38247580Y-28639876D02*
X37247580Y-28639876D01*
X37247580Y-28258923D01*
X37295200Y-28163685D01*
X37342819Y-28116066D01*
X37438057Y-28068447D01*
X37580914Y-28068447D01*
X37676152Y-28116066D01*
X37723771Y-28163685D01*
X37771390Y-28258923D01*
X37771390Y-28639876D01*
X37342819Y-27687495D02*
X37295200Y-27639876D01*
X37247580Y-27544638D01*
X37247580Y-27306542D01*
X37295200Y-27211304D01*
X37342819Y-27163685D01*
X37438057Y-27116066D01*
X37533295Y-27116066D01*
X37676152Y-27163685D01*
X38247580Y-27735114D01*
X38247580Y-27116066D01*
X37247580Y-26258923D02*
X37247580Y-26449400D01*
X37295200Y-26544638D01*
X37342819Y-26592257D01*
X37485676Y-26687495D01*
X37676152Y-26735114D01*
X38057104Y-26735114D01*
X38152342Y-26687495D01*
X38199961Y-26639876D01*
X38247580Y-26544638D01*
X38247580Y-26354161D01*
X38199961Y-26258923D01*
X38152342Y-26211304D01*
X38057104Y-26163685D01*
X37819009Y-26163685D01*
X37723771Y-26211304D01*
X37676152Y-26258923D01*
X37628533Y-26354161D01*
X37628533Y-26544638D01*
X37676152Y-26639876D01*
X37723771Y-26687495D01*
X37819009Y-26735114D01*
X37342819Y-25782733D02*
X37295200Y-25735114D01*
X37247580Y-25639876D01*
X37247580Y-25401780D01*
X37295200Y-25306542D01*
X37342819Y-25258923D01*
X37438057Y-25211304D01*
X37533295Y-25211304D01*
X37676152Y-25258923D01*
X38247580Y-25830352D01*
X38247580Y-25211304D01*
X41629152Y-45486580D02*
X41295819Y-45010390D01*
X41057723Y-45486580D02*
X41057723Y-44486580D01*
X41438676Y-44486580D01*
X41533914Y-44534200D01*
X41581533Y-44581819D01*
X41629152Y-44677057D01*
X41629152Y-44819914D01*
X41581533Y-44915152D01*
X41533914Y-44962771D01*
X41438676Y-45010390D01*
X41057723Y-45010390D01*
X42010104Y-44581819D02*
X42057723Y-44534200D01*
X42152961Y-44486580D01*
X42391057Y-44486580D01*
X42486295Y-44534200D01*
X42533914Y-44581819D01*
X42581533Y-44677057D01*
X42581533Y-44772295D01*
X42533914Y-44915152D01*
X41962485Y-45486580D01*
X42581533Y-45486580D01*
X42914866Y-44486580D02*
X43581533Y-44486580D01*
X43152961Y-45486580D01*
X44486295Y-45486580D02*
X43914866Y-45486580D01*
X44200580Y-45486580D02*
X44200580Y-44486580D01*
X44105342Y-44629438D01*
X44010104Y-44724676D01*
X43914866Y-44772295D01*
X18438761Y-41138095D02*
X18486380Y-40995238D01*
X18486380Y-40757142D01*
X18438761Y-40661904D01*
X18391142Y-40614285D01*
X18295904Y-40566666D01*
X18200666Y-40566666D01*
X18105428Y-40614285D01*
X18057809Y-40661904D01*
X18010190Y-40757142D01*
X17962571Y-40947619D01*
X17914952Y-41042857D01*
X17867333Y-41090476D01*
X17772095Y-41138095D01*
X17676857Y-41138095D01*
X17581619Y-41090476D01*
X17534000Y-41042857D01*
X17486380Y-40947619D01*
X17486380Y-40709523D01*
X17534000Y-40566666D01*
X17581619Y-40185714D02*
X17534000Y-40138095D01*
X17486380Y-40042857D01*
X17486380Y-39804761D01*
X17534000Y-39709523D01*
X17581619Y-39661904D01*
X17676857Y-39614285D01*
X17772095Y-39614285D01*
X17914952Y-39661904D01*
X18486380Y-40233333D01*
X18486380Y-39614285D01*
X18486380Y-38661904D02*
X18486380Y-39233333D01*
X18486380Y-38947619D02*
X17486380Y-38947619D01*
X17629238Y-39042857D01*
X17724476Y-39138095D01*
X17772095Y-39233333D01*
X15787142Y-15262380D02*
X15453809Y-14786190D01*
X15215714Y-15262380D02*
X15215714Y-14262380D01*
X15596666Y-14262380D01*
X15691904Y-14310000D01*
X15739523Y-14357619D01*
X15787142Y-14452857D01*
X15787142Y-14595714D01*
X15739523Y-14690952D01*
X15691904Y-14738571D01*
X15596666Y-14786190D01*
X15215714Y-14786190D01*
X16739523Y-15262380D02*
X16168095Y-15262380D01*
X16453809Y-15262380D02*
X16453809Y-14262380D01*
X16358571Y-14405238D01*
X16263333Y-14500476D01*
X16168095Y-14548095D01*
X17691904Y-15262380D02*
X17120476Y-15262380D01*
X17406190Y-15262380D02*
X17406190Y-14262380D01*
X17310952Y-14405238D01*
X17215714Y-14500476D01*
X17120476Y-14548095D01*
X18337352Y-75179180D02*
X18004019Y-74702990D01*
X17765923Y-75179180D02*
X17765923Y-74179180D01*
X18146876Y-74179180D01*
X18242114Y-74226800D01*
X18289733Y-74274419D01*
X18337352Y-74369657D01*
X18337352Y-74512514D01*
X18289733Y-74607752D01*
X18242114Y-74655371D01*
X18146876Y-74702990D01*
X17765923Y-74702990D01*
X18718304Y-74274419D02*
X18765923Y-74226800D01*
X18861161Y-74179180D01*
X19099257Y-74179180D01*
X19194495Y-74226800D01*
X19242114Y-74274419D01*
X19289733Y-74369657D01*
X19289733Y-74464895D01*
X19242114Y-74607752D01*
X18670685Y-75179180D01*
X19289733Y-75179180D01*
X19623066Y-74179180D02*
X20242114Y-74179180D01*
X19908780Y-74560133D01*
X20051638Y-74560133D01*
X20146876Y-74607752D01*
X20194495Y-74655371D01*
X20242114Y-74750609D01*
X20242114Y-74988704D01*
X20194495Y-75083942D01*
X20146876Y-75131561D01*
X20051638Y-75179180D01*
X19765923Y-75179180D01*
X19670685Y-75131561D01*
X19623066Y-75083942D01*
X20623066Y-74274419D02*
X20670685Y-74226800D01*
X20765923Y-74179180D01*
X21004019Y-74179180D01*
X21099257Y-74226800D01*
X21146876Y-74274419D01*
X21194495Y-74369657D01*
X21194495Y-74464895D01*
X21146876Y-74607752D01*
X20575447Y-75179180D01*
X21194495Y-75179180D01*
X19267142Y-15147142D02*
X19219523Y-15194761D01*
X19076666Y-15242380D01*
X18981428Y-15242380D01*
X18838571Y-15194761D01*
X18743333Y-15099523D01*
X18695714Y-15004285D01*
X18648095Y-14813809D01*
X18648095Y-14670952D01*
X18695714Y-14480476D01*
X18743333Y-14385238D01*
X18838571Y-14290000D01*
X18981428Y-14242380D01*
X19076666Y-14242380D01*
X19219523Y-14290000D01*
X19267142Y-14337619D01*
X20219523Y-15242380D02*
X19648095Y-15242380D01*
X19933809Y-15242380D02*
X19933809Y-14242380D01*
X19838571Y-14385238D01*
X19743333Y-14480476D01*
X19648095Y-14528095D01*
X21171904Y-15242380D02*
X20600476Y-15242380D01*
X20886190Y-15242380D02*
X20886190Y-14242380D01*
X20790952Y-14385238D01*
X20695714Y-14480476D01*
X20600476Y-14528095D01*
X11770952Y-36692380D02*
X11437619Y-36216190D01*
X11199523Y-36692380D02*
X11199523Y-35692380D01*
X11580476Y-35692380D01*
X11675714Y-35740000D01*
X11723333Y-35787619D01*
X11770952Y-35882857D01*
X11770952Y-36025714D01*
X11723333Y-36120952D01*
X11675714Y-36168571D01*
X11580476Y-36216190D01*
X11199523Y-36216190D01*
X12151904Y-35787619D02*
X12199523Y-35740000D01*
X12294761Y-35692380D01*
X12532857Y-35692380D01*
X12628095Y-35740000D01*
X12675714Y-35787619D01*
X12723333Y-35882857D01*
X12723333Y-35978095D01*
X12675714Y-36120952D01*
X12104285Y-36692380D01*
X12723333Y-36692380D01*
X13675714Y-36692380D02*
X13104285Y-36692380D01*
X13390000Y-36692380D02*
X13390000Y-35692380D01*
X13294761Y-35835238D01*
X13199523Y-35930476D01*
X13104285Y-35978095D01*
X14628095Y-36692380D02*
X14056666Y-36692380D01*
X14342380Y-36692380D02*
X14342380Y-35692380D01*
X14247142Y-35835238D01*
X14151904Y-35930476D01*
X14056666Y-35978095D01*
X36425714Y-56092380D02*
X36425714Y-55092380D01*
X36663809Y-55092380D01*
X36806666Y-55140000D01*
X36901904Y-55235238D01*
X36949523Y-55330476D01*
X36997142Y-55520952D01*
X36997142Y-55663809D01*
X36949523Y-55854285D01*
X36901904Y-55949523D01*
X36806666Y-56044761D01*
X36663809Y-56092380D01*
X36425714Y-56092380D01*
X37378095Y-55187619D02*
X37425714Y-55140000D01*
X37520952Y-55092380D01*
X37759047Y-55092380D01*
X37854285Y-55140000D01*
X37901904Y-55187619D01*
X37949523Y-55282857D01*
X37949523Y-55378095D01*
X37901904Y-55520952D01*
X37330476Y-56092380D01*
X37949523Y-56092380D01*
X38282857Y-55092380D02*
X38949523Y-55092380D01*
X38520952Y-56092380D01*
X14016666Y-47336666D02*
X14016666Y-47903333D01*
X14050000Y-47970000D01*
X14083333Y-48003333D01*
X14150000Y-48036666D01*
X14283333Y-48036666D01*
X14350000Y-48003333D01*
X14383333Y-47970000D01*
X14416666Y-47903333D01*
X14416666Y-47336666D01*
X14716666Y-47403333D02*
X14750000Y-47370000D01*
X14816666Y-47336666D01*
X14983333Y-47336666D01*
X15050000Y-47370000D01*
X15083333Y-47403333D01*
X15116666Y-47470000D01*
X15116666Y-47536666D01*
X15083333Y-47636666D01*
X14683333Y-48036666D01*
X15116666Y-48036666D01*
X15783333Y-48036666D02*
X15383333Y-48036666D01*
X15583333Y-48036666D02*
X15583333Y-47336666D01*
X15516666Y-47436666D01*
X15450000Y-47503333D01*
X15383333Y-47536666D01*
X16083333Y-47770000D02*
X16616666Y-47770000D01*
X16916666Y-47403333D02*
X16950000Y-47370000D01*
X17016666Y-47336666D01*
X17183333Y-47336666D01*
X17250000Y-47370000D01*
X17283333Y-47403333D01*
X17316666Y-47470000D01*
X17316666Y-47536666D01*
X17283333Y-47636666D01*
X16883333Y-48036666D01*
X17316666Y-48036666D01*
X23692380Y-30809047D02*
X23216190Y-31142380D01*
X23692380Y-31380476D02*
X22692380Y-31380476D01*
X22692380Y-30999523D01*
X22740000Y-30904285D01*
X22787619Y-30856666D01*
X22882857Y-30809047D01*
X23025714Y-30809047D01*
X23120952Y-30856666D01*
X23168571Y-30904285D01*
X23216190Y-30999523D01*
X23216190Y-31380476D01*
X22787619Y-30428095D02*
X22740000Y-30380476D01*
X22692380Y-30285238D01*
X22692380Y-30047142D01*
X22740000Y-29951904D01*
X22787619Y-29904285D01*
X22882857Y-29856666D01*
X22978095Y-29856666D01*
X23120952Y-29904285D01*
X23692380Y-30475714D01*
X23692380Y-29856666D01*
X22787619Y-29475714D02*
X22740000Y-29428095D01*
X22692380Y-29332857D01*
X22692380Y-29094761D01*
X22740000Y-28999523D01*
X22787619Y-28951904D01*
X22882857Y-28904285D01*
X22978095Y-28904285D01*
X23120952Y-28951904D01*
X23692380Y-29523333D01*
X23692380Y-28904285D01*
X22692380Y-28570952D02*
X22692380Y-27951904D01*
X23073333Y-28285238D01*
X23073333Y-28142380D01*
X23120952Y-28047142D01*
X23168571Y-27999523D01*
X23263809Y-27951904D01*
X23501904Y-27951904D01*
X23597142Y-27999523D01*
X23644761Y-28047142D01*
X23692380Y-28142380D01*
X23692380Y-28428095D01*
X23644761Y-28523333D01*
X23597142Y-28570952D01*
X42944761Y-41238095D02*
X42992380Y-41095238D01*
X42992380Y-40857142D01*
X42944761Y-40761904D01*
X42897142Y-40714285D01*
X42801904Y-40666666D01*
X42706666Y-40666666D01*
X42611428Y-40714285D01*
X42563809Y-40761904D01*
X42516190Y-40857142D01*
X42468571Y-41047619D01*
X42420952Y-41142857D01*
X42373333Y-41190476D01*
X42278095Y-41238095D01*
X42182857Y-41238095D01*
X42087619Y-41190476D01*
X42040000Y-41142857D01*
X41992380Y-41047619D01*
X41992380Y-40809523D01*
X42040000Y-40666666D01*
X42087619Y-40285714D02*
X42040000Y-40238095D01*
X41992380Y-40142857D01*
X41992380Y-39904761D01*
X42040000Y-39809523D01*
X42087619Y-39761904D01*
X42182857Y-39714285D01*
X42278095Y-39714285D01*
X42420952Y-39761904D01*
X42992380Y-40333333D01*
X42992380Y-39714285D01*
X41992380Y-38857142D02*
X41992380Y-39047619D01*
X42040000Y-39142857D01*
X42087619Y-39190476D01*
X42230476Y-39285714D01*
X42420952Y-39333333D01*
X42801904Y-39333333D01*
X42897142Y-39285714D01*
X42944761Y-39238095D01*
X42992380Y-39142857D01*
X42992380Y-38952380D01*
X42944761Y-38857142D01*
X42897142Y-38809523D01*
X42801904Y-38761904D01*
X42563809Y-38761904D01*
X42468571Y-38809523D01*
X42420952Y-38857142D01*
X42373333Y-38952380D01*
X42373333Y-39142857D01*
X42420952Y-39238095D01*
X42468571Y-39285714D01*
X42563809Y-39333333D01*
X12352152Y-20977980D02*
X12018819Y-20501790D01*
X11780723Y-20977980D02*
X11780723Y-19977980D01*
X12161676Y-19977980D01*
X12256914Y-20025600D01*
X12304533Y-20073219D01*
X12352152Y-20168457D01*
X12352152Y-20311314D01*
X12304533Y-20406552D01*
X12256914Y-20454171D01*
X12161676Y-20501790D01*
X11780723Y-20501790D01*
X12733104Y-20073219D02*
X12780723Y-20025600D01*
X12875961Y-19977980D01*
X13114057Y-19977980D01*
X13209295Y-20025600D01*
X13256914Y-20073219D01*
X13304533Y-20168457D01*
X13304533Y-20263695D01*
X13256914Y-20406552D01*
X12685485Y-20977980D01*
X13304533Y-20977980D01*
X13685485Y-20073219D02*
X13733104Y-20025600D01*
X13828342Y-19977980D01*
X14066438Y-19977980D01*
X14161676Y-20025600D01*
X14209295Y-20073219D01*
X14256914Y-20168457D01*
X14256914Y-20263695D01*
X14209295Y-20406552D01*
X13637866Y-20977980D01*
X14256914Y-20977980D01*
X15209295Y-20977980D02*
X14637866Y-20977980D01*
X14923580Y-20977980D02*
X14923580Y-19977980D01*
X14828342Y-20120838D01*
X14733104Y-20216076D01*
X14637866Y-20263695D01*
X18314761Y-61278095D02*
X18362380Y-61135238D01*
X18362380Y-60897142D01*
X18314761Y-60801904D01*
X18267142Y-60754285D01*
X18171904Y-60706666D01*
X18076666Y-60706666D01*
X17981428Y-60754285D01*
X17933809Y-60801904D01*
X17886190Y-60897142D01*
X17838571Y-61087619D01*
X17790952Y-61182857D01*
X17743333Y-61230476D01*
X17648095Y-61278095D01*
X17552857Y-61278095D01*
X17457619Y-61230476D01*
X17410000Y-61182857D01*
X17362380Y-61087619D01*
X17362380Y-60849523D01*
X17410000Y-60706666D01*
X17457619Y-60325714D02*
X17410000Y-60278095D01*
X17362380Y-60182857D01*
X17362380Y-59944761D01*
X17410000Y-59849523D01*
X17457619Y-59801904D01*
X17552857Y-59754285D01*
X17648095Y-59754285D01*
X17790952Y-59801904D01*
X18362380Y-60373333D01*
X18362380Y-59754285D01*
X17695714Y-58897142D02*
X18362380Y-58897142D01*
X17314761Y-59135238D02*
X18029047Y-59373333D01*
X18029047Y-58754285D01*
X8129542Y-78792247D02*
X8177161Y-78839866D01*
X8224780Y-78982723D01*
X8224780Y-79077961D01*
X8177161Y-79220819D01*
X8081923Y-79316057D01*
X7986685Y-79363676D01*
X7796209Y-79411295D01*
X7653352Y-79411295D01*
X7462876Y-79363676D01*
X7367638Y-79316057D01*
X7272400Y-79220819D01*
X7224780Y-79077961D01*
X7224780Y-78982723D01*
X7272400Y-78839866D01*
X7320019Y-78792247D01*
X7320019Y-78411295D02*
X7272400Y-78363676D01*
X7224780Y-78268438D01*
X7224780Y-78030342D01*
X7272400Y-77935104D01*
X7320019Y-77887485D01*
X7415257Y-77839866D01*
X7510495Y-77839866D01*
X7653352Y-77887485D01*
X8224780Y-78458914D01*
X8224780Y-77839866D01*
X7224780Y-77506533D02*
X7224780Y-76887485D01*
X7605733Y-77220819D01*
X7605733Y-77077961D01*
X7653352Y-76982723D01*
X7700971Y-76935104D01*
X7796209Y-76887485D01*
X8034304Y-76887485D01*
X8129542Y-76935104D01*
X8177161Y-76982723D01*
X8224780Y-77077961D01*
X8224780Y-77363676D01*
X8177161Y-77458914D01*
X8129542Y-77506533D01*
X8224780Y-75935104D02*
X8224780Y-76506533D01*
X8224780Y-76220819D02*
X7224780Y-76220819D01*
X7367638Y-76316057D01*
X7462876Y-76411295D01*
X7510495Y-76506533D01*
X46731180Y-73966247D02*
X46254990Y-74299580D01*
X46731180Y-74537676D02*
X45731180Y-74537676D01*
X45731180Y-74156723D01*
X45778800Y-74061485D01*
X45826419Y-74013866D01*
X45921657Y-73966247D01*
X46064514Y-73966247D01*
X46159752Y-74013866D01*
X46207371Y-74061485D01*
X46254990Y-74156723D01*
X46254990Y-74537676D01*
X45826419Y-73585295D02*
X45778800Y-73537676D01*
X45731180Y-73442438D01*
X45731180Y-73204342D01*
X45778800Y-73109104D01*
X45826419Y-73061485D01*
X45921657Y-73013866D01*
X46016895Y-73013866D01*
X46159752Y-73061485D01*
X46731180Y-73632914D01*
X46731180Y-73013866D01*
X46159752Y-72442438D02*
X46112133Y-72537676D01*
X46064514Y-72585295D01*
X45969276Y-72632914D01*
X45921657Y-72632914D01*
X45826419Y-72585295D01*
X45778800Y-72537676D01*
X45731180Y-72442438D01*
X45731180Y-72251961D01*
X45778800Y-72156723D01*
X45826419Y-72109104D01*
X45921657Y-72061485D01*
X45969276Y-72061485D01*
X46064514Y-72109104D01*
X46112133Y-72156723D01*
X46159752Y-72251961D01*
X46159752Y-72442438D01*
X46207371Y-72537676D01*
X46254990Y-72585295D01*
X46350228Y-72632914D01*
X46540704Y-72632914D01*
X46635942Y-72585295D01*
X46683561Y-72537676D01*
X46731180Y-72442438D01*
X46731180Y-72251961D01*
X46683561Y-72156723D01*
X46635942Y-72109104D01*
X46540704Y-72061485D01*
X46350228Y-72061485D01*
X46254990Y-72109104D01*
X46207371Y-72156723D01*
X46159752Y-72251961D01*
X46731180Y-71109104D02*
X46731180Y-71680533D01*
X46731180Y-71394819D02*
X45731180Y-71394819D01*
X45874038Y-71490057D01*
X45969276Y-71585295D01*
X46016895Y-71680533D01*
X43100952Y-12488180D02*
X42767619Y-12011990D01*
X42529523Y-12488180D02*
X42529523Y-11488180D01*
X42910476Y-11488180D01*
X43005714Y-11535800D01*
X43053333Y-11583419D01*
X43100952Y-11678657D01*
X43100952Y-11821514D01*
X43053333Y-11916752D01*
X43005714Y-11964371D01*
X42910476Y-12011990D01*
X42529523Y-12011990D01*
X43481904Y-11583419D02*
X43529523Y-11535800D01*
X43624761Y-11488180D01*
X43862857Y-11488180D01*
X43958095Y-11535800D01*
X44005714Y-11583419D01*
X44053333Y-11678657D01*
X44053333Y-11773895D01*
X44005714Y-11916752D01*
X43434285Y-12488180D01*
X44053333Y-12488180D01*
X44958095Y-11488180D02*
X44481904Y-11488180D01*
X44434285Y-11964371D01*
X44481904Y-11916752D01*
X44577142Y-11869133D01*
X44815238Y-11869133D01*
X44910476Y-11916752D01*
X44958095Y-11964371D01*
X45005714Y-12059609D01*
X45005714Y-12297704D01*
X44958095Y-12392942D01*
X44910476Y-12440561D01*
X44815238Y-12488180D01*
X44577142Y-12488180D01*
X44481904Y-12440561D01*
X44434285Y-12392942D01*
X45386666Y-11583419D02*
X45434285Y-11535800D01*
X45529523Y-11488180D01*
X45767619Y-11488180D01*
X45862857Y-11535800D01*
X45910476Y-11583419D01*
X45958095Y-11678657D01*
X45958095Y-11773895D01*
X45910476Y-11916752D01*
X45339047Y-12488180D01*
X45958095Y-12488180D01*
X24327142Y-11962380D02*
X23993809Y-11486190D01*
X23755714Y-11962380D02*
X23755714Y-10962380D01*
X24136666Y-10962380D01*
X24231904Y-11010000D01*
X24279523Y-11057619D01*
X24327142Y-11152857D01*
X24327142Y-11295714D01*
X24279523Y-11390952D01*
X24231904Y-11438571D01*
X24136666Y-11486190D01*
X23755714Y-11486190D01*
X25279523Y-11962380D02*
X24708095Y-11962380D01*
X24993809Y-11962380D02*
X24993809Y-10962380D01*
X24898571Y-11105238D01*
X24803333Y-11200476D01*
X24708095Y-11248095D01*
X26136666Y-11295714D02*
X26136666Y-11962380D01*
X25898571Y-10914761D02*
X25660476Y-11629047D01*
X26279523Y-11629047D01*
X5410295Y-9951980D02*
X4838866Y-9951980D01*
X5124580Y-9951980D02*
X5124580Y-8951980D01*
X5029342Y-9094838D01*
X4934104Y-9190076D01*
X4838866Y-9237695D01*
X5838866Y-9951980D02*
X5838866Y-8951980D01*
X6172200Y-9666266D01*
X6505533Y-8951980D01*
X6505533Y-9951980D01*
X7410295Y-9285314D02*
X7410295Y-9951980D01*
X7172200Y-8904361D02*
X6934104Y-9618647D01*
X7553152Y-9618647D01*
D11*
X17739400Y-94794000D02*
X17739400Y-95302000D01*
X17739400Y-95302000D02*
X19695200Y-95302000D01*
X19695200Y-95302000D02*
X20304800Y-95302000D01*
X22260600Y-89206000D02*
X22260600Y-88698000D01*
X22260600Y-95302000D02*
X22260600Y-94794000D01*
X20304800Y-95302000D02*
X22260600Y-95302000D01*
X22260600Y-88698000D02*
X17739400Y-88698000D01*
X17739400Y-88698000D02*
X17739400Y-89206000D01*
X20304800Y-95302000D02*
G75*
G03*
X19695200Y-95302000I-304800J0D01*
G01*
D12*
X39477500Y-72237258D02*
X39477500Y-71762742D01*
X40522500Y-72237258D02*
X40522500Y-71762742D01*
X11091142Y-78449700D02*
X11565658Y-78449700D01*
X11091142Y-77404700D02*
X11565658Y-77404700D01*
D13*
X16500000Y-21210000D02*
X16500000Y-18810000D01*
X22500000Y-23510000D02*
X17500000Y-23510000D01*
X23500000Y-18810000D02*
X23500000Y-21210000D01*
X17500000Y-16510000D02*
X22500000Y-16510000D01*
D12*
X32477500Y-70237258D02*
X32477500Y-69762742D01*
X33522500Y-70237258D02*
X33522500Y-69762742D01*
D13*
X42500000Y-83500000D02*
X37500000Y-83500000D01*
X36500000Y-81200000D02*
X36500000Y-78800000D01*
X37500000Y-76500000D02*
X42500000Y-76500000D01*
X43500000Y-78800000D02*
X43500000Y-81200000D01*
D12*
X16762742Y-70522500D02*
X17237258Y-70522500D01*
X16762742Y-69477500D02*
X17237258Y-69477500D01*
D13*
X36917200Y-13742400D02*
X36917200Y-11042400D01*
D14*
X36027200Y-12032400D02*
X36027200Y-12602400D01*
X35867200Y-12432400D02*
X36187200Y-12432400D01*
D13*
X35117200Y-13742400D02*
X35117200Y-11042400D01*
X36022712Y-12371010D02*
X35917200Y-12182400D01*
X35917200Y-12182400D02*
X36127200Y-12182400D01*
X36127200Y-12182400D02*
X36022712Y-12371010D01*
G36*
X36022712Y-12371010D02*
G01*
X35917200Y-12182400D01*
X36127200Y-12182400D01*
X36022712Y-12371010D01*
G37*
X36022712Y-12371010D02*
X35917200Y-12182400D01*
X36127200Y-12182400D01*
X36022712Y-12371010D01*
D15*
X29222000Y-36804000D02*
X29476000Y-36550000D01*
X31508000Y-56870000D02*
X31762000Y-57124000D01*
X29476000Y-49250000D02*
X29222000Y-48996000D01*
X29476000Y-56870000D02*
X29222000Y-56616000D01*
X31508000Y-54330000D02*
X31762000Y-54584000D01*
X31508000Y-56870000D02*
X31762000Y-57124000D01*
X29222000Y-56616000D02*
X29222000Y-54584000D01*
X31762000Y-38836000D02*
X31508000Y-39090000D01*
X29222000Y-46964000D02*
X29476000Y-46710000D01*
X31762000Y-41376000D02*
X31508000Y-41630000D01*
X31508000Y-44170000D02*
X31762000Y-44424000D01*
X31762000Y-52044000D02*
X31762000Y-54076000D01*
X29222000Y-46456000D02*
X29222000Y-44424000D01*
X29222000Y-36296000D02*
X29222000Y-34518000D01*
X29476000Y-39090000D02*
X29222000Y-39344000D01*
X31762000Y-56616000D02*
X31508000Y-56870000D01*
X29476000Y-46710000D02*
X29222000Y-46456000D01*
X31762000Y-46964000D02*
X31762000Y-48996000D01*
X29222000Y-54076000D02*
X29222000Y-52044000D01*
X29222000Y-54584000D02*
X29476000Y-54330000D01*
X31762000Y-43916000D02*
X31508000Y-44170000D01*
X31508000Y-41630000D02*
X31762000Y-41884000D01*
X29476000Y-54330000D02*
X29222000Y-54076000D01*
X29222000Y-38836000D02*
X29476000Y-39090000D01*
X31762000Y-34010000D02*
X29222000Y-34010000D01*
X29222000Y-54076000D02*
X29222000Y-52044000D01*
X29222000Y-34518000D02*
X29222000Y-34010000D01*
X29222000Y-41884000D02*
X29476000Y-41630000D01*
X29476000Y-41630000D02*
X29222000Y-41376000D01*
X31762000Y-44424000D02*
X31762000Y-46456000D01*
X29222000Y-59156000D02*
X29222000Y-57124000D01*
X31762000Y-57124000D02*
X31762000Y-59156000D01*
X31762000Y-48996000D02*
X31508000Y-49250000D01*
X29222000Y-59156000D02*
X29222000Y-57124000D01*
X31508000Y-39090000D02*
X31762000Y-39344000D01*
X31508000Y-46710000D02*
X31762000Y-46964000D01*
X29222000Y-49504000D02*
X29476000Y-49250000D01*
X29222000Y-38836000D02*
X29222000Y-36804000D01*
X31508000Y-51790000D02*
X31762000Y-52044000D01*
X31508000Y-36550000D02*
X31762000Y-36804000D01*
X31762000Y-54076000D02*
X31508000Y-54330000D01*
X31762000Y-34264000D02*
X31762000Y-36296000D01*
X29222000Y-44424000D02*
X29476000Y-44170000D01*
X31508000Y-49250000D02*
X31762000Y-49504000D01*
X29222000Y-43916000D02*
X29222000Y-41884000D01*
X29222000Y-52044000D02*
X29476000Y-51790000D01*
X29476000Y-59410000D02*
X29222000Y-59156000D01*
X29476000Y-44170000D02*
X29222000Y-43916000D01*
X31762000Y-46964000D02*
X31762000Y-48996000D01*
X31762000Y-36804000D02*
X31762000Y-38836000D01*
X31762000Y-59156000D02*
X31508000Y-59410000D01*
X29222000Y-48996000D02*
X29222000Y-46964000D01*
X31762000Y-39344000D02*
X31762000Y-41376000D01*
X31762000Y-49504000D02*
X31762000Y-51536000D01*
X31762000Y-57124000D02*
X31762000Y-59156000D01*
X31762000Y-54076000D02*
X31508000Y-54330000D01*
X29222000Y-46964000D02*
X29476000Y-46710000D01*
X31762000Y-52044000D02*
X31762000Y-54076000D01*
X29222000Y-57124000D02*
X29476000Y-56870000D01*
X31762000Y-51536000D02*
X31508000Y-51790000D01*
X31762000Y-54584000D02*
X31762000Y-56616000D01*
X29222000Y-51536000D02*
X29222000Y-49504000D01*
X29476000Y-59410000D02*
X29222000Y-59156000D01*
X31508000Y-59410000D02*
X29476000Y-59410000D01*
X31508000Y-51790000D02*
X31762000Y-52044000D01*
X29222000Y-57124000D02*
X29476000Y-56870000D01*
X31762000Y-34010000D02*
X31762000Y-34264000D01*
X31762000Y-46456000D02*
X31508000Y-46710000D01*
X29476000Y-49250000D02*
X29222000Y-48996000D01*
X29222000Y-34264000D02*
X29476000Y-34010000D01*
X29222000Y-52044000D02*
X29476000Y-51790000D01*
X31762000Y-48996000D02*
X31508000Y-49250000D01*
X31762000Y-41884000D02*
X31762000Y-43916000D01*
X31508000Y-34010000D02*
X31762000Y-34264000D01*
X29222000Y-48996000D02*
X29222000Y-46964000D01*
X29222000Y-41376000D02*
X29222000Y-39344000D01*
X31508000Y-46710000D02*
X31762000Y-46964000D01*
X29476000Y-51790000D02*
X29222000Y-51536000D01*
X31762000Y-36296000D02*
X31508000Y-36550000D01*
X31762000Y-59156000D02*
X31508000Y-59410000D01*
X29476000Y-36550000D02*
X29222000Y-36296000D01*
X29476000Y-54330000D02*
X29222000Y-54076000D01*
D12*
X21174942Y-53633900D02*
X21649458Y-53633900D01*
X21174942Y-52588900D02*
X21649458Y-52588900D01*
X44237258Y-32522500D02*
X43762742Y-32522500D01*
X44237258Y-31477500D02*
X43762742Y-31477500D01*
X44140580Y-28510000D02*
X43859420Y-28510000D01*
X44140580Y-27490000D02*
X43859420Y-27490000D01*
X48140580Y-20490000D02*
X47859420Y-20490000D01*
X48140580Y-21510000D02*
X47859420Y-21510000D01*
X12859420Y-41490000D02*
X13140580Y-41490000D01*
X12859420Y-42510000D02*
X13140580Y-42510000D01*
X20610300Y-47400942D02*
X20610300Y-47875458D01*
X21655300Y-47400942D02*
X21655300Y-47875458D01*
X35494700Y-12629658D02*
X35494700Y-12155142D01*
X36539700Y-12629658D02*
X36539700Y-12155142D01*
X22522500Y-69762742D02*
X22522500Y-70237258D01*
X21477500Y-69762742D02*
X21477500Y-70237258D01*
D13*
X10300000Y-70440000D02*
X8700000Y-70440000D01*
X8700000Y-73560000D02*
X10300000Y-73560000D01*
D16*
X12100000Y-72950000D02*
G75*
G03*
X12100000Y-72950000I-100000J0D01*
G01*
D12*
X25237258Y-5977500D02*
X24762742Y-5977500D01*
X25237258Y-7022500D02*
X24762742Y-7022500D01*
D13*
X49560000Y-29800000D02*
X49560000Y-28200000D01*
X46440000Y-28200000D02*
X46440000Y-29800000D01*
D16*
X49770000Y-26600000D02*
G75*
G03*
X49770000Y-26600000I-100000J0D01*
G01*
D15*
X6362000Y-38836000D02*
X6108000Y-39090000D01*
X6362000Y-51536000D02*
X6108000Y-51790000D01*
X3822000Y-41376000D02*
X3822000Y-39344000D01*
X6108000Y-44170000D02*
X6362000Y-44424000D01*
X3822000Y-41884000D02*
X4076000Y-41630000D01*
X6108000Y-41630000D02*
X6362000Y-41884000D01*
X4076000Y-46710000D02*
X3822000Y-46456000D01*
X3822000Y-54076000D02*
X3822000Y-52044000D01*
X6362000Y-54076000D02*
X6108000Y-54330000D01*
X3822000Y-46456000D02*
X3822000Y-44424000D01*
X6108000Y-56870000D02*
X6362000Y-57124000D01*
X6362000Y-59156000D02*
X6108000Y-59410000D01*
X6362000Y-46456000D02*
X6108000Y-46710000D01*
X6108000Y-46710000D02*
X6362000Y-46964000D01*
X4076000Y-54330000D02*
X3822000Y-54076000D01*
X6362000Y-52044000D02*
X6362000Y-54076000D01*
X6362000Y-54076000D02*
X6108000Y-54330000D01*
X3822000Y-51536000D02*
X3822000Y-49504000D01*
X6108000Y-51790000D02*
X6362000Y-52044000D01*
X3822000Y-48996000D02*
X3822000Y-46964000D01*
X4076000Y-36550000D02*
X3822000Y-36296000D01*
X6362000Y-59156000D02*
X6108000Y-59410000D01*
X6362000Y-54584000D02*
X6362000Y-56616000D01*
X6362000Y-34010000D02*
X6362000Y-34264000D01*
X6362000Y-41884000D02*
X6362000Y-43916000D01*
X4076000Y-41630000D02*
X3822000Y-41376000D01*
X3822000Y-46964000D02*
X4076000Y-46710000D01*
X4076000Y-56870000D02*
X3822000Y-56616000D01*
X4076000Y-49250000D02*
X3822000Y-48996000D01*
X3822000Y-38836000D02*
X3822000Y-36804000D01*
X4076000Y-39090000D02*
X3822000Y-39344000D01*
X3822000Y-46964000D02*
X4076000Y-46710000D01*
X3822000Y-59156000D02*
X3822000Y-57124000D01*
X3822000Y-38836000D02*
X4076000Y-39090000D01*
X6108000Y-54330000D02*
X6362000Y-54584000D01*
X6362000Y-48996000D02*
X6108000Y-49250000D01*
X3822000Y-36296000D02*
X3822000Y-34518000D01*
X6362000Y-39344000D02*
X6362000Y-41376000D01*
X3822000Y-52044000D02*
X4076000Y-51790000D01*
X6362000Y-34264000D02*
X6362000Y-36296000D01*
X3822000Y-52044000D02*
X4076000Y-51790000D01*
X6108000Y-46710000D02*
X6362000Y-46964000D01*
X3822000Y-54584000D02*
X4076000Y-54330000D01*
X6362000Y-56616000D02*
X6108000Y-56870000D01*
X3822000Y-57124000D02*
X4076000Y-56870000D01*
X3822000Y-34518000D02*
X3822000Y-34010000D01*
X6362000Y-48996000D02*
X6108000Y-49250000D01*
X3822000Y-44424000D02*
X4076000Y-44170000D01*
X6362000Y-52044000D02*
X6362000Y-54076000D01*
X4076000Y-59410000D02*
X3822000Y-59156000D01*
X6108000Y-59410000D02*
X4076000Y-59410000D01*
X6362000Y-49504000D02*
X6362000Y-51536000D01*
X3822000Y-57124000D02*
X4076000Y-56870000D01*
X4076000Y-59410000D02*
X3822000Y-59156000D01*
X4076000Y-49250000D02*
X3822000Y-48996000D01*
X6362000Y-46964000D02*
X6362000Y-48996000D01*
X6362000Y-57124000D02*
X6362000Y-59156000D01*
X6362000Y-34010000D02*
X3822000Y-34010000D01*
X6362000Y-44424000D02*
X6362000Y-46456000D01*
X6108000Y-49250000D02*
X6362000Y-49504000D01*
X6108000Y-36550000D02*
X6362000Y-36804000D01*
X4076000Y-51790000D02*
X3822000Y-51536000D01*
X6362000Y-36804000D02*
X6362000Y-38836000D01*
X6108000Y-34010000D02*
X6362000Y-34264000D01*
X4076000Y-44170000D02*
X3822000Y-43916000D01*
X3822000Y-34264000D02*
X4076000Y-34010000D01*
X3822000Y-49504000D02*
X4076000Y-49250000D01*
X3822000Y-36804000D02*
X4076000Y-36550000D01*
X6362000Y-41376000D02*
X6108000Y-41630000D01*
X6108000Y-51790000D02*
X6362000Y-52044000D01*
X3822000Y-43916000D02*
X3822000Y-41884000D01*
X6362000Y-43916000D02*
X6108000Y-44170000D01*
X3822000Y-48996000D02*
X3822000Y-46964000D01*
X4076000Y-54330000D02*
X3822000Y-54076000D01*
X3822000Y-56616000D02*
X3822000Y-54584000D01*
X3822000Y-54076000D02*
X3822000Y-52044000D01*
X6108000Y-39090000D02*
X6362000Y-39344000D01*
X3822000Y-59156000D02*
X3822000Y-57124000D01*
X6362000Y-46964000D02*
X6362000Y-48996000D01*
X6108000Y-56870000D02*
X6362000Y-57124000D01*
X6362000Y-36296000D02*
X6108000Y-36550000D01*
X6362000Y-57124000D02*
X6362000Y-59156000D01*
D13*
X21994488Y-70021390D02*
X22100000Y-70210000D01*
X22100000Y-70210000D02*
X21890000Y-70210000D01*
X21890000Y-70210000D02*
X21994488Y-70021390D01*
G36*
X22100000Y-70210000D02*
G01*
X21890000Y-70210000D01*
X21994488Y-70021390D01*
X22100000Y-70210000D01*
G37*
X22100000Y-70210000D02*
X21890000Y-70210000D01*
X21994488Y-70021390D01*
X22100000Y-70210000D01*
D14*
X22150000Y-69960000D02*
X21830000Y-69960000D01*
X21990000Y-70360000D02*
X21990000Y-69790000D01*
D13*
X21100000Y-68650000D02*
X21100000Y-71350000D01*
X22900000Y-68650000D02*
X22900000Y-71350000D01*
X17500000Y-76500000D02*
X22500000Y-76500000D01*
X23500000Y-78800000D02*
X23500000Y-81200000D01*
X22500000Y-83500000D02*
X17500000Y-83500000D01*
X16500000Y-81200000D02*
X16500000Y-78800000D01*
D12*
X41258258Y-53202100D02*
X40783742Y-53202100D01*
X41258258Y-52157100D02*
X40783742Y-52157100D01*
X10237258Y-81477500D02*
X9762742Y-81477500D01*
X10237258Y-82522500D02*
X9762742Y-82522500D01*
X11899020Y-17473200D02*
X12180180Y-17473200D01*
X11899020Y-18493200D02*
X12180180Y-18493200D01*
D11*
X42260600Y-95302000D02*
X42260600Y-94794000D01*
X42260600Y-89206000D02*
X42260600Y-88698000D01*
X40304800Y-95302000D02*
X42260600Y-95302000D01*
X37739400Y-94794000D02*
X37739400Y-95302000D01*
X42260600Y-88698000D02*
X37739400Y-88698000D01*
X37739400Y-95302000D02*
X39695200Y-95302000D01*
X37739400Y-88698000D02*
X37739400Y-89206000D01*
X39695200Y-95302000D02*
X40304800Y-95302000D01*
X40304800Y-95302000D02*
G75*
G03*
X39695200Y-95302000I-304800J0D01*
G01*
D14*
X33010000Y-69640000D02*
X33010000Y-70210000D01*
D13*
X33900000Y-71350000D02*
X33900000Y-68650000D01*
D14*
X32850000Y-70040000D02*
X33170000Y-70040000D01*
D13*
X32100000Y-71350000D02*
X32100000Y-68650000D01*
X33005512Y-69978610D02*
X32900000Y-69790000D01*
X32900000Y-69790000D02*
X33110000Y-69790000D01*
X33110000Y-69790000D02*
X33005512Y-69978610D01*
G36*
X33005512Y-69978610D02*
G01*
X32900000Y-69790000D01*
X33110000Y-69790000D01*
X33005512Y-69978610D01*
G37*
X33005512Y-69978610D02*
X32900000Y-69790000D01*
X33110000Y-69790000D01*
X33005512Y-69978610D01*
D14*
X21122800Y-47998200D02*
X21122800Y-47428200D01*
X21282800Y-47598200D02*
X20962800Y-47598200D01*
D13*
X20232800Y-46288200D02*
X20232800Y-48988200D01*
X22032800Y-46288200D02*
X22032800Y-48988200D01*
X21127288Y-47659590D02*
X21232800Y-47848200D01*
X21232800Y-47848200D02*
X21022800Y-47848200D01*
X21022800Y-47848200D02*
X21127288Y-47659590D01*
G36*
X21232800Y-47848200D02*
G01*
X21022800Y-47848200D01*
X21127288Y-47659590D01*
X21232800Y-47848200D01*
G37*
X21232800Y-47848200D02*
X21022800Y-47848200D01*
X21127288Y-47659590D01*
X21232800Y-47848200D01*
X20100000Y-25650000D02*
X20100000Y-28350000D01*
X21900000Y-25650000D02*
X21900000Y-28350000D01*
D14*
X20990000Y-27360000D02*
X20990000Y-26790000D01*
X21150000Y-26960000D02*
X20830000Y-26960000D01*
D13*
X20994488Y-27021390D02*
X21100000Y-27210000D01*
X21100000Y-27210000D02*
X20890000Y-27210000D01*
X20890000Y-27210000D02*
X20994488Y-27021390D01*
G36*
X21100000Y-27210000D02*
G01*
X20890000Y-27210000D01*
X20994488Y-27021390D01*
X21100000Y-27210000D01*
G37*
X21100000Y-27210000D02*
X20890000Y-27210000D01*
X20994488Y-27021390D01*
X21100000Y-27210000D01*
D12*
X43490000Y-49859420D02*
X43490000Y-50140580D01*
X44510000Y-49859420D02*
X44510000Y-50140580D01*
X37237258Y-32477500D02*
X36762742Y-32477500D01*
X37237258Y-33522500D02*
X36762742Y-33522500D01*
X24762742Y-2477500D02*
X25237258Y-2477500D01*
X24762742Y-3522500D02*
X25237258Y-3522500D01*
D13*
X42500000Y-23500000D02*
X37500000Y-23500000D01*
X43500000Y-18800000D02*
X43500000Y-21200000D01*
X36500000Y-21200000D02*
X36500000Y-18800000D01*
X37500000Y-16500000D02*
X42500000Y-16500000D01*
X37500000Y-56500000D02*
X42500000Y-56500000D01*
X36500000Y-61200000D02*
X36500000Y-58800000D01*
X42500000Y-63500000D02*
X37500000Y-63500000D01*
X43500000Y-58800000D02*
X43500000Y-61200000D01*
D12*
X15762742Y-32477500D02*
X16237258Y-32477500D01*
X15762742Y-33522500D02*
X16237258Y-33522500D01*
X48237258Y-17522500D02*
X47762742Y-17522500D01*
X48237258Y-16477500D02*
X47762742Y-16477500D01*
D13*
X36978610Y-32994488D02*
X36790000Y-33100000D01*
X36790000Y-33100000D02*
X36790000Y-32890000D01*
X36790000Y-32890000D02*
X36978610Y-32994488D01*
G36*
X36978610Y-32994488D02*
G01*
X36790000Y-33100000D01*
X36790000Y-32890000D01*
X36978610Y-32994488D01*
G37*
X36978610Y-32994488D02*
X36790000Y-33100000D01*
X36790000Y-32890000D01*
X36978610Y-32994488D01*
D14*
X36640000Y-32990000D02*
X37210000Y-32990000D01*
D13*
X38350000Y-32100000D02*
X35650000Y-32100000D01*
D14*
X37040000Y-33150000D02*
X37040000Y-32830000D01*
D13*
X38350000Y-33900000D02*
X35650000Y-33900000D01*
D12*
X11859420Y-65490000D02*
X12140580Y-65490000D01*
X11859420Y-66510000D02*
X12140580Y-66510000D01*
X44140580Y-68490000D02*
X43859420Y-68490000D01*
X44140580Y-69510000D02*
X43859420Y-69510000D01*
X11762742Y-63522500D02*
X12237258Y-63522500D01*
X11762742Y-62477500D02*
X12237258Y-62477500D01*
X17220000Y-4232500D02*
X14472500Y-4232500D01*
X17220000Y-9727500D02*
X14472500Y-9727500D01*
X19967500Y-9727500D02*
X19967500Y-9445000D01*
X17220000Y-9727500D02*
X19967500Y-9727500D01*
X14472500Y-4232500D02*
X14472500Y-4515000D01*
X19967500Y-4232500D02*
X19967500Y-4515000D01*
X19967500Y-9445000D02*
X21620000Y-9445000D01*
X14472500Y-9727500D02*
X14472500Y-9445000D01*
X17220000Y-4232500D02*
X19967500Y-4232500D01*
X10490000Y-9859420D02*
X10490000Y-10140580D01*
X11510000Y-9859420D02*
X11510000Y-10140580D01*
X15713942Y-27725900D02*
X16188458Y-27725900D01*
X15713942Y-26680900D02*
X16188458Y-26680900D01*
X36522500Y-52237258D02*
X36522500Y-51762742D01*
X35477500Y-52237258D02*
X35477500Y-51762742D01*
D13*
X11350000Y-81100000D02*
X8650000Y-81100000D01*
D14*
X10040000Y-82150000D02*
X10040000Y-81830000D01*
D13*
X11350000Y-82900000D02*
X8650000Y-82900000D01*
D14*
X9640000Y-81990000D02*
X10210000Y-81990000D01*
D13*
X9978610Y-81994488D02*
X9790000Y-82100000D01*
X9790000Y-82100000D02*
X9790000Y-81890000D01*
X9790000Y-81890000D02*
X9978610Y-81994488D01*
G36*
X9978610Y-81994488D02*
G01*
X9790000Y-82100000D01*
X9790000Y-81890000D01*
X9978610Y-81994488D01*
G37*
X9978610Y-81994488D02*
X9790000Y-82100000D01*
X9790000Y-81890000D01*
X9978610Y-81994488D01*
X47440000Y-69200000D02*
X47440000Y-70800000D01*
X50560000Y-70800000D02*
X50560000Y-69200000D01*
D16*
X50720000Y-67590000D02*
G75*
G03*
X50720000Y-67590000I-100000J0D01*
G01*
D12*
X39507900Y-28050258D02*
X39507900Y-27575742D01*
X40552900Y-28050258D02*
X40552900Y-27575742D01*
X43188658Y-46035700D02*
X42714142Y-46035700D01*
X43188658Y-47080700D02*
X42714142Y-47080700D01*
D13*
X22500000Y-43500000D02*
X17500000Y-43500000D01*
X16500000Y-41200000D02*
X16500000Y-38800000D01*
X17500000Y-36500000D02*
X22500000Y-36500000D01*
X23500000Y-38800000D02*
X23500000Y-41200000D01*
D12*
X15067500Y-12257742D02*
X15067500Y-12732258D01*
X16112500Y-12257742D02*
X16112500Y-12732258D01*
X16762742Y-73522500D02*
X17237258Y-73522500D01*
X16762742Y-72477500D02*
X17237258Y-72477500D01*
X20110000Y-12645580D02*
X20110000Y-12364420D01*
X19090000Y-12645580D02*
X19090000Y-12364420D01*
X12762742Y-37477500D02*
X13237258Y-37477500D01*
X12762742Y-38522500D02*
X13237258Y-38522500D01*
D13*
X36005512Y-51978610D02*
X35900000Y-51790000D01*
X35900000Y-51790000D02*
X36110000Y-51790000D01*
X36110000Y-51790000D02*
X36005512Y-51978610D01*
G36*
X36005512Y-51978610D02*
G01*
X35900000Y-51790000D01*
X36110000Y-51790000D01*
X36005512Y-51978610D01*
G37*
X36005512Y-51978610D02*
X35900000Y-51790000D01*
X36110000Y-51790000D01*
X36005512Y-51978610D01*
X36900000Y-53350000D02*
X36900000Y-50650000D01*
D14*
X35850000Y-52040000D02*
X36170000Y-52040000D01*
D13*
X35100000Y-53350000D02*
X35100000Y-50650000D01*
D14*
X36010000Y-51640000D02*
X36010000Y-52210000D01*
D13*
X15800000Y-48440000D02*
X14200000Y-48440000D01*
X14200000Y-51560000D02*
X15800000Y-51560000D01*
D16*
X17470000Y-51450000D02*
G75*
G03*
X17470000Y-51450000I-100000J0D01*
G01*
D12*
X20477500Y-26762742D02*
X20477500Y-27237258D01*
X21522500Y-26762742D02*
X21522500Y-27237258D01*
D13*
X36500000Y-41200000D02*
X36500000Y-38800000D01*
X42500000Y-43500000D02*
X37500000Y-43500000D01*
X43500000Y-38800000D02*
X43500000Y-41200000D01*
X37500000Y-36500000D02*
X42500000Y-36500000D01*
D12*
X11903942Y-22468100D02*
X12378458Y-22468100D01*
X11903942Y-21423100D02*
X12378458Y-21423100D01*
D13*
X17500000Y-56500000D02*
X22500000Y-56500000D01*
X16500000Y-61200000D02*
X16500000Y-58800000D01*
X23500000Y-58800000D02*
X23500000Y-61200000D01*
X22500000Y-63500000D02*
X17500000Y-63500000D01*
D12*
X8456200Y-77280380D02*
X8456200Y-76999220D01*
X9476200Y-77280380D02*
X9476200Y-76999220D01*
X44237258Y-73522500D02*
X43762742Y-73522500D01*
X44237258Y-72477500D02*
X43762742Y-72477500D01*
X43237258Y-13908300D02*
X42762742Y-13908300D01*
X43237258Y-12863300D02*
X42762742Y-12863300D01*
X25237258Y-9477500D02*
X24762742Y-9477500D01*
X25237258Y-10522500D02*
X24762742Y-10522500D01*
%LPC*%
D17*
X22870200Y-94286000D03*
X22870200Y-93625600D03*
X22870200Y-92965200D03*
X22870200Y-92330200D03*
X22870200Y-91669800D03*
X22870200Y-91034800D03*
X22870200Y-90374400D03*
X22870200Y-89714000D03*
X17129800Y-89714000D03*
X17129800Y-90374400D03*
X17129800Y-91034800D03*
X17129800Y-91669800D03*
X17129800Y-92330200D03*
X17129800Y-92965200D03*
X17129800Y-93625600D03*
X17129800Y-94286000D03*
D18*
X40000000Y-72825000D03*
X40000000Y-71175000D03*
D19*
X10503400Y-77927200D03*
X12153400Y-77927200D03*
D20*
X7500000Y-95000000D03*
D21*
X24000000Y-17510000D03*
X16000000Y-22510000D03*
X24000000Y-22510000D03*
X16000000Y-17510000D03*
D18*
X33000000Y-70825000D03*
X33000000Y-69175000D03*
D21*
X36000000Y-82500000D03*
X44000000Y-77500000D03*
X36000000Y-77500000D03*
X44000000Y-82500000D03*
D19*
X16175000Y-70000000D03*
X17825000Y-70000000D03*
D22*
X36017200Y-14122400D03*
X36017200Y-10662400D03*
D23*
X30492000Y-58140000D03*
X30492000Y-55600000D03*
X30492000Y-53060000D03*
X30492000Y-50520000D03*
X30492000Y-47980000D03*
X30492000Y-45440000D03*
X30492000Y-42900000D03*
X30492000Y-40360000D03*
X30492000Y-37820000D03*
D24*
X30492000Y-35280000D03*
D19*
X20587200Y-53111400D03*
X22237200Y-53111400D03*
D25*
X44825000Y-32000000D03*
X43175000Y-32000000D03*
D26*
X44775000Y-28000000D03*
X43225000Y-28000000D03*
X48775000Y-21000000D03*
X47225000Y-21000000D03*
D27*
X12225000Y-42000000D03*
X13775000Y-42000000D03*
D28*
X21132800Y-46813200D03*
X21132800Y-48463200D03*
D18*
X36017200Y-13217400D03*
X36017200Y-11567400D03*
D28*
X22000000Y-70825000D03*
X22000000Y-69175000D03*
D29*
X10755000Y-72950000D03*
X10755000Y-72000000D03*
X10755000Y-71050000D03*
X8245000Y-71050000D03*
X8245000Y-72000000D03*
X8245000Y-72950000D03*
D20*
X52500000Y-95000000D03*
D25*
X25825000Y-6500000D03*
X24175000Y-6500000D03*
D30*
X48950000Y-27745000D03*
X48000000Y-27745000D03*
X47050000Y-27745000D03*
X47050000Y-30255000D03*
X48000000Y-30255000D03*
X48950000Y-30255000D03*
D23*
X5092000Y-58140000D03*
X5092000Y-55600000D03*
X5092000Y-53060000D03*
X5092000Y-50520000D03*
X5092000Y-47980000D03*
X5092000Y-45440000D03*
X5092000Y-42900000D03*
X5092000Y-40360000D03*
X5092000Y-37820000D03*
D24*
X5092000Y-35280000D03*
D31*
X22000000Y-71730000D03*
X22000000Y-68270000D03*
D20*
X52500000Y-50000000D03*
D21*
X24000000Y-77500000D03*
X16000000Y-82500000D03*
X24000000Y-82500000D03*
X16000000Y-77500000D03*
D20*
X52500000Y-5000000D03*
D25*
X40196000Y-52679600D03*
X41846000Y-52679600D03*
X10825000Y-82000000D03*
X9175000Y-82000000D03*
D27*
X11264600Y-17983200D03*
X12814600Y-17983200D03*
D17*
X42870200Y-94286000D03*
X42870200Y-93625600D03*
X42870200Y-92965200D03*
X42870200Y-92330200D03*
X42870200Y-91669800D03*
X42870200Y-91034800D03*
X42870200Y-90374400D03*
X42870200Y-89714000D03*
X37129800Y-89714000D03*
X37129800Y-90374400D03*
X37129800Y-91034800D03*
X37129800Y-91669800D03*
X37129800Y-92330200D03*
X37129800Y-92965200D03*
X37129800Y-93625600D03*
X37129800Y-94286000D03*
D22*
X33000000Y-71730000D03*
X33000000Y-68270000D03*
D31*
X21132800Y-45908200D03*
X21132800Y-49368200D03*
X21000000Y-25270000D03*
X21000000Y-28730000D03*
D32*
X44000000Y-50775000D03*
X44000000Y-49225000D03*
D25*
X36175000Y-33000000D03*
X37825000Y-33000000D03*
D19*
X24175000Y-3000000D03*
X25825000Y-3000000D03*
D21*
X36000000Y-22500000D03*
X44000000Y-17500000D03*
X36000000Y-17500000D03*
X44000000Y-22500000D03*
X36000000Y-62500000D03*
X44000000Y-57500000D03*
X36000000Y-57500000D03*
X44000000Y-62500000D03*
D19*
X15175000Y-33000000D03*
X16825000Y-33000000D03*
D25*
X48825000Y-17000000D03*
X47175000Y-17000000D03*
D33*
X35270000Y-33000000D03*
X38730000Y-33000000D03*
D27*
X11225000Y-66000000D03*
X12775000Y-66000000D03*
D26*
X44775000Y-69000000D03*
X43225000Y-69000000D03*
D19*
X11175000Y-63000000D03*
X12825000Y-63000000D03*
D34*
X20820000Y-8885000D03*
X20820000Y-7615000D03*
X20820000Y-6345000D03*
X20820000Y-5075000D03*
X13620000Y-5075000D03*
X13620000Y-6345000D03*
X13620000Y-7615000D03*
X13620000Y-8885000D03*
D32*
X11000000Y-9225000D03*
X11000000Y-10775000D03*
D19*
X15126200Y-27203400D03*
X16776200Y-27203400D03*
D18*
X36000000Y-51175000D03*
X36000000Y-52825000D03*
D33*
X11730000Y-82000000D03*
X8270000Y-82000000D03*
D30*
X49950000Y-68745000D03*
X49000000Y-68745000D03*
X48050000Y-68745000D03*
X48050000Y-71255000D03*
X49000000Y-71255000D03*
X49950000Y-71255000D03*
D18*
X40030400Y-28638000D03*
X40030400Y-26988000D03*
D25*
X42126400Y-46558200D03*
X43776400Y-46558200D03*
D21*
X24000000Y-37500000D03*
X16000000Y-42500000D03*
X24000000Y-42500000D03*
X16000000Y-37500000D03*
D28*
X15590000Y-11670000D03*
X15590000Y-13320000D03*
D19*
X16175000Y-73000000D03*
X17825000Y-73000000D03*
D35*
X19600000Y-13280000D03*
X19600000Y-11730000D03*
D19*
X12175000Y-38000000D03*
X13825000Y-38000000D03*
D22*
X36000000Y-50270000D03*
X36000000Y-53730000D03*
D29*
X16255000Y-50950000D03*
X16255000Y-50000000D03*
X16255000Y-49050000D03*
X13745000Y-49050000D03*
X13745000Y-50000000D03*
X13745000Y-50950000D03*
D28*
X21000000Y-26175000D03*
X21000000Y-27825000D03*
D21*
X36000000Y-42500000D03*
X44000000Y-37500000D03*
X36000000Y-37500000D03*
X44000000Y-42500000D03*
D19*
X11316200Y-21945600D03*
X12966200Y-21945600D03*
D21*
X24000000Y-57500000D03*
X16000000Y-62500000D03*
X24000000Y-62500000D03*
X16000000Y-57500000D03*
D35*
X8966200Y-76364800D03*
X8966200Y-77914800D03*
D25*
X44825000Y-73000000D03*
X43175000Y-73000000D03*
X43825000Y-13385800D03*
X42175000Y-13385800D03*
X25825000Y-10000000D03*
X24175000Y-10000000D03*
D20*
X7500000Y-5000000D03*
G36*
X28159480Y-1985640D02*
G01*
X28404702Y-2052519D01*
X28438329Y-2067231D01*
X28613635Y-2176797D01*
X28635950Y-2194550D01*
X28793450Y-2352050D01*
X28811203Y-2374365D01*
X28922655Y-2552688D01*
X28935341Y-2579623D01*
X29024594Y-2847381D01*
X29030866Y-2894215D01*
X29008425Y-3298148D01*
X28992438Y-3352932D01*
X28793699Y-3706246D01*
X28751526Y-3750774D01*
X28511888Y-3903271D01*
X28484087Y-3916504D01*
X28078098Y-4051834D01*
X28004530Y-4053703D01*
X27600857Y-3941571D01*
X27569753Y-3928212D01*
X27347370Y-3794782D01*
X27317372Y-3769710D01*
X27164385Y-3594868D01*
X27145031Y-3565180D01*
X26986621Y-3225731D01*
X26974800Y-3172447D01*
X26974800Y-2774967D01*
X26989861Y-2715230D01*
X27143834Y-2429280D01*
X27165678Y-2399922D01*
X27458869Y-2106731D01*
X27515499Y-2074080D01*
X27847848Y-1985454D01*
X27880313Y-1981200D01*
X28126327Y-1981200D01*
X28159480Y-1985640D01*
G37*
G36*
X28159480Y-5490840D02*
G01*
X28404702Y-5557719D01*
X28438329Y-5572431D01*
X28613635Y-5681997D01*
X28635950Y-5699750D01*
X28793450Y-5857250D01*
X28811203Y-5879565D01*
X28922655Y-6057888D01*
X28935341Y-6084823D01*
X29024594Y-6352581D01*
X29030866Y-6399415D01*
X29008425Y-6803348D01*
X28992438Y-6858132D01*
X28793699Y-7211446D01*
X28751526Y-7255974D01*
X28511888Y-7408471D01*
X28484087Y-7421704D01*
X28078098Y-7557034D01*
X28004530Y-7558903D01*
X27600857Y-7446771D01*
X27569753Y-7433412D01*
X27347370Y-7299982D01*
X27317372Y-7274910D01*
X27164385Y-7100068D01*
X27145031Y-7070380D01*
X26986621Y-6730931D01*
X26974800Y-6677647D01*
X26974800Y-6280167D01*
X26989861Y-6220430D01*
X27143834Y-5934480D01*
X27165678Y-5905122D01*
X27458869Y-5611931D01*
X27515499Y-5579280D01*
X27847848Y-5490654D01*
X27880313Y-5486400D01*
X28126327Y-5486400D01*
X28159480Y-5490840D01*
G37*
G36*
X28149873Y-8984905D02*
G01*
X28395095Y-9051784D01*
X28428722Y-9066496D01*
X28604028Y-9176062D01*
X28626343Y-9193815D01*
X28783843Y-9351315D01*
X28801596Y-9373630D01*
X28913048Y-9551953D01*
X28925734Y-9578888D01*
X29014987Y-9846646D01*
X29021259Y-9893480D01*
X28998818Y-10297413D01*
X28982831Y-10352197D01*
X28784092Y-10705511D01*
X28741919Y-10750039D01*
X28502281Y-10902536D01*
X28474480Y-10915769D01*
X28068491Y-11051099D01*
X27994923Y-11052968D01*
X27591250Y-10940836D01*
X27560146Y-10927477D01*
X27337763Y-10794047D01*
X27307765Y-10768975D01*
X27154778Y-10594133D01*
X27135424Y-10564445D01*
X26977014Y-10224996D01*
X26965193Y-10171712D01*
X26965193Y-9774232D01*
X26980254Y-9714495D01*
X27134227Y-9428545D01*
X27156071Y-9399187D01*
X27449262Y-9105996D01*
X27505892Y-9073345D01*
X27838241Y-8984719D01*
X27870706Y-8980465D01*
X28116720Y-8980465D01*
X28149873Y-8984905D01*
G37*
M02*
