M48
; DRILL file {KiCad (6.0.2)} date Fri Apr  1 11:59:29 2022
; FORMAT={-:-/ absolute / metric / decimal}
; #@! TF.CreationDate,2022-04-01T11:59:29+02:00
; #@! TF.GenerationSoftware,Kicad,Pcbnew,(6.0.2)
; #@! TF.FileFunction,Plated,1,2,PTH
FMAT,2
METRIC
; #@! TA.AperFunction,Plated,PTH,ViaDrill
T1C0.300
; #@! TA.AperFunction,Plated,PTH,ViaDrill
T2C0.400
; #@! TA.AperFunction,Plated,PTH,ViaDrill
T3C1.000
; #@! TA.AperFunction,Plated,PTH,ComponentDrill
T4C1.000
%
G90
G05
T1
X7.63Y-74.45
X8.06Y-78.0
X10.94Y-54.39
X11.82Y-74.48
X12.02Y-72.01
X12.534Y-50.01
X13.77Y-16.9
X13.77Y-43.22
X13.99Y-66.0
X14.158Y-79.792
X14.425Y-61.785
X14.44Y-52.29
X15.39Y-54.42
X15.78Y-75.72
X15.96Y-35.61
X16.825Y-44.265
X17.37Y-64.73
X17.48Y-50.0
X22.33Y-5.13
X22.675Y-8.885
X23.99Y-59.0
X23.99Y-78.96
X24.0Y-19.08
X24.01Y-39.11
X25.044Y-50.851
X25.16Y-71.72
X25.23Y-34.49
X25.516Y-37.75
X25.516Y-54.53
X27.434Y-54.48
X27.686Y-50.851
X31.064Y-71.704
X32.58Y-66.05
X33.87Y-34.43
X33.95Y-23.0
X34.008Y-41.768
X34.605Y-62.413
X34.62Y-25.75
X35.99Y-60.97
X35.99Y-80.97
X36.0Y-20.81
X36.03Y-44.0
X46.06Y-21.0
T2
X12.37Y-96.266
X12.425Y-92.579
X13.64Y-92.431
X13.767Y-86.538
X24.13Y-85.242
X26.34Y-87.555
X26.39Y-95.18
X29.337Y-80.416
X30.683Y-92.507
X31.242Y-98.069
X31.42Y-95.58
X32.309Y-83.464
X33.401Y-95.656
X33.401Y-97.434
X41.87Y-69.0
X42.08Y-28.0
X43.9Y-71.26
X43.98Y-51.95
X44.05Y-30.0
X45.51Y-62.5
X46.39Y-96.49
X46.4Y-87.55
X47.2Y-62.5
X47.95Y-22.5
X48.0Y-31.7
X48.01Y-26.3
X49.0Y-72.76
X49.01Y-67.4
X49.81Y-22.5
T3
X28.0Y-3.0
X28.0Y-6.5
X28.0Y-10.0
T4
X5.092Y-35.28
X5.092Y-37.82
X5.092Y-40.36
X5.092Y-42.9
X5.092Y-45.44
X5.092Y-47.98
X5.092Y-50.52
X5.092Y-53.06
X5.092Y-55.6
X5.092Y-58.14
X30.492Y-35.28
X30.492Y-37.82
X30.492Y-40.36
X30.492Y-42.9
X30.492Y-45.44
X30.492Y-47.98
X30.492Y-50.52
X30.492Y-53.06
X30.492Y-55.6
X30.492Y-58.14
T0
M30
