M48
; DRILL file {KiCad (6.0.2)} date Fri Apr  1 11:09:22 2022
; FORMAT={-:-/ absolute / inch / decimal}
; #@! TF.CreationDate,2022-04-01T11:09:22+02:00
; #@! TF.GenerationSoftware,Kicad,Pcbnew,(6.0.2)
; #@! TF.FileFunction,Plated,1,2,PTH
FMAT,2
INCH
; #@! TA.AperFunction,Plated,PTH,ViaDrill
T1C0.0118
; #@! TA.AperFunction,Plated,PTH,ViaDrill
T2C0.0157
; #@! TA.AperFunction,Plated,PTH,ViaDrill
T3C0.0394
; #@! TA.AperFunction,Plated,PTH,ComponentDrill
T4C0.0394
%
G90
G05
T1
X0.3004Y-2.9311
X0.3173Y-3.0709
X0.4307Y-2.1413
X0.4653Y-2.9323
X0.4732Y-2.835
X0.4935Y-1.9689
X0.5421Y-0.6654
X0.5421Y-1.7016
X0.5508Y-2.5984
X0.5574Y-3.1414
X0.5679Y-2.4325
X0.5685Y-2.0587
X0.6059Y-2.1425
X0.6213Y-2.9811
X0.6283Y-1.402
X0.6624Y-1.7427
X0.6839Y-2.5484
X0.6882Y-1.9685
X0.8791Y-0.202
X0.8927Y-0.3498
X0.9445Y-2.3228
X0.9445Y-3.1087
X0.9449Y-0.7512
X0.9453Y-1.5398
X0.986Y-2.002
X0.9906Y-2.8236
X0.9933Y-1.3579
X1.0046Y-1.4862
X1.0046Y-2.1469
X1.0801Y-2.1449
X1.09Y-2.002
X1.223Y-2.823
X1.2827Y-2.6004
X1.3335Y-1.3555
X1.3366Y-0.9055
X1.3389Y-1.6444
X1.3624Y-2.4572
X1.363Y-1.0138
X1.4169Y-2.4004
X1.4169Y-3.1878
X1.4173Y-0.8193
X1.4185Y-1.7323
X1.8134Y-0.8268
T2
X0.487Y-3.79
X0.4892Y-3.6448
X0.537Y-3.639
X0.542Y-3.407
X0.95Y-3.356
X1.037Y-3.447
X1.039Y-3.7472
X1.155Y-3.166
X1.208Y-3.642
X1.23Y-3.861
X1.237Y-3.763
X1.272Y-3.286
X1.315Y-3.766
X1.315Y-3.836
X1.6484Y-2.7165
X1.6567Y-1.1024
X1.7283Y-2.8055
X1.7315Y-2.0453
X1.7343Y-1.1811
X1.7917Y-2.4606
X1.8264Y-3.7988
X1.8268Y-3.4469
X1.8583Y-2.4606
X1.8878Y-0.8858
X1.8898Y-1.248
X1.8902Y-1.0354
X1.9291Y-2.8646
X1.9295Y-2.6535
X1.961Y-0.8858
T3
X1.1024Y-0.1181
X1.1024Y-0.2559
X1.1024Y-0.3937
T4
X0.2005Y-1.389
X0.2005Y-1.489
X0.2005Y-1.589
X0.2005Y-1.689
X0.2005Y-1.789
X0.2005Y-1.889
X0.2005Y-1.989
X0.2005Y-2.089
X0.2005Y-2.189
X0.2005Y-2.289
X1.2005Y-1.389
X1.2005Y-1.489
X1.2005Y-1.589
X1.2005Y-1.689
X1.2005Y-1.789
X1.2005Y-1.889
X1.2005Y-1.989
X1.2005Y-2.089
X1.2005Y-2.189
X1.2005Y-2.289
T0
M30
