G04 #@! TF.GenerationSoftware,KiCad,Pcbnew,(6.0.2)*
G04 #@! TF.CreationDate,2022-04-01T14:21:22+02:00*
G04 #@! TF.ProjectId,cartteFille,63617274-7465-4466-996c-6c652e6b6963,rev?*
G04 #@! TF.SameCoordinates,Original*
G04 #@! TF.FileFunction,Copper,L1,Top*
G04 #@! TF.FilePolarity,Positive*
%FSLAX46Y46*%
G04 Gerber Fmt 4.6, Leading zero omitted, Abs format (unit mm)*
G04 Created by KiCad (PCBNEW (6.0.2)) date 2022-04-01 14:21:22*
%MOMM*%
%LPD*%
G01*
G04 APERTURE LIST*
G04 Aperture macros list*
%AMRoundRect*
0 Rectangle with rounded corners*
0 $1 Rounding radius*
0 $2 $3 $4 $5 $6 $7 $8 $9 X,Y pos of 4 corners*
0 Add a 4 corners polygon primitive as box body*
4,1,4,$2,$3,$4,$5,$6,$7,$8,$9,$2,$3,0*
0 Add four circle primitives for the rounded corners*
1,1,$1+$1,$2,$3*
1,1,$1+$1,$4,$5*
1,1,$1+$1,$6,$7*
1,1,$1+$1,$8,$9*
0 Add four rect primitives between the rounded corners*
20,1,$1+$1,$2,$3,$4,$5,0*
20,1,$1+$1,$4,$5,$6,$7,0*
20,1,$1+$1,$6,$7,$8,$9,0*
20,1,$1+$1,$8,$9,$2,$3,0*%
G04 Aperture macros list end*
G04 #@! TA.AperFunction,SMDPad,CuDef*
%ADD10R,1.803400X0.533400*%
G04 #@! TD*
G04 #@! TA.AperFunction,SMDPad,CuDef*
%ADD11RoundRect,0.200000X0.275000X-0.200000X0.275000X0.200000X-0.275000X0.200000X-0.275000X-0.200000X0*%
G04 #@! TD*
G04 #@! TA.AperFunction,SMDPad,CuDef*
%ADD12RoundRect,0.200000X-0.200000X-0.275000X0.200000X-0.275000X0.200000X0.275000X-0.200000X0.275000X0*%
G04 #@! TD*
G04 #@! TA.AperFunction,SMDPad,CuDef*
%ADD13R,1.300000X2.000000*%
G04 #@! TD*
G04 #@! TA.AperFunction,SMDPad,CuDef*
%ADD14RoundRect,0.064000X0.336000X-0.496000X0.336000X0.496000X-0.336000X0.496000X-0.336000X-0.496000X0*%
G04 #@! TD*
G04 #@! TA.AperFunction,ComponentPad*
%ADD15R,1.778000X1.778000*%
G04 #@! TD*
G04 #@! TA.AperFunction,ComponentPad*
%ADD16C,1.778000*%
G04 #@! TD*
G04 #@! TA.AperFunction,SMDPad,CuDef*
%ADD17RoundRect,0.200000X0.200000X0.275000X-0.200000X0.275000X-0.200000X-0.275000X0.200000X-0.275000X0*%
G04 #@! TD*
G04 #@! TA.AperFunction,SMDPad,CuDef*
%ADD18RoundRect,0.225000X0.225000X0.250000X-0.225000X0.250000X-0.225000X-0.250000X0.225000X-0.250000X0*%
G04 #@! TD*
G04 #@! TA.AperFunction,SMDPad,CuDef*
%ADD19RoundRect,0.225000X-0.225000X-0.250000X0.225000X-0.250000X0.225000X0.250000X-0.225000X0.250000X0*%
G04 #@! TD*
G04 #@! TA.AperFunction,SMDPad,CuDef*
%ADD20RoundRect,0.200000X-0.275000X0.200000X-0.275000X-0.200000X0.275000X-0.200000X0.275000X0.200000X0*%
G04 #@! TD*
G04 #@! TA.AperFunction,SMDPad,CuDef*
%ADD21RoundRect,0.040600X0.564400X0.249400X-0.564400X0.249400X-0.564400X-0.249400X0.564400X-0.249400X0*%
G04 #@! TD*
G04 #@! TA.AperFunction,SMDPad,CuDef*
%ADD22RoundRect,0.040600X-0.249400X0.564400X-0.249400X-0.564400X0.249400X-0.564400X0.249400X0.564400X0*%
G04 #@! TD*
G04 #@! TA.AperFunction,SMDPad,CuDef*
%ADD23RoundRect,0.064000X-0.336000X0.496000X-0.336000X-0.496000X0.336000X-0.496000X0.336000X0.496000X0*%
G04 #@! TD*
G04 #@! TA.AperFunction,SMDPad,CuDef*
%ADD24RoundRect,0.225000X-0.250000X0.225000X-0.250000X-0.225000X0.250000X-0.225000X0.250000X0.225000X0*%
G04 #@! TD*
G04 #@! TA.AperFunction,SMDPad,CuDef*
%ADD25RoundRect,0.064000X0.496000X0.336000X-0.496000X0.336000X-0.496000X-0.336000X0.496000X-0.336000X0*%
G04 #@! TD*
G04 #@! TA.AperFunction,SMDPad,CuDef*
%ADD26RoundRect,0.150000X0.650000X0.150000X-0.650000X0.150000X-0.650000X-0.150000X0.650000X-0.150000X0*%
G04 #@! TD*
G04 #@! TA.AperFunction,SMDPad,CuDef*
%ADD27RoundRect,0.225000X0.250000X-0.225000X0.250000X0.225000X-0.250000X0.225000X-0.250000X-0.225000X0*%
G04 #@! TD*
G04 #@! TA.AperFunction,ViaPad*
%ADD28C,0.800000*%
G04 #@! TD*
G04 #@! TA.AperFunction,ViaPad*
%ADD29C,0.600000*%
G04 #@! TD*
G04 #@! TA.AperFunction,ViaPad*
%ADD30C,2.000000*%
G04 #@! TD*
G04 #@! TA.AperFunction,Conductor*
%ADD31C,0.250000*%
G04 #@! TD*
G04 APERTURE END LIST*
D10*
X24775200Y-96445000D03*
X24775200Y-95175000D03*
X24775200Y-93905000D03*
X24775200Y-92635000D03*
X24775200Y-91365000D03*
X24775200Y-90095000D03*
X24775200Y-88825000D03*
X24775200Y-87555000D03*
X15224800Y-87555000D03*
X15224800Y-88825000D03*
X15224800Y-90095000D03*
X15224800Y-91365000D03*
X15224800Y-92635000D03*
X15224800Y-93905000D03*
X15224800Y-95175000D03*
X15224800Y-96445000D03*
D11*
X40000000Y-72825000D03*
X40000000Y-71175000D03*
D12*
X12675000Y-78000000D03*
X14325000Y-78000000D03*
D13*
X24000000Y-17510000D03*
X16000000Y-22510000D03*
X24000000Y-22510000D03*
X16000000Y-17510000D03*
D11*
X33000000Y-70825000D03*
X33000000Y-69175000D03*
D13*
X36000000Y-82500000D03*
X44000000Y-77500000D03*
X36000000Y-77500000D03*
X44000000Y-82500000D03*
D12*
X16175000Y-70000000D03*
X17825000Y-70000000D03*
D14*
X36000000Y-14730000D03*
X36000000Y-11270000D03*
D15*
X30492000Y-35280000D03*
D16*
X30492000Y-37820000D03*
X30492000Y-40360000D03*
X30492000Y-42900000D03*
X30492000Y-45440000D03*
X30492000Y-47980000D03*
X30492000Y-50520000D03*
X30492000Y-53060000D03*
X30492000Y-55600000D03*
X30492000Y-58140000D03*
D12*
X20587200Y-53111400D03*
X22237200Y-53111400D03*
D17*
X44825000Y-32000000D03*
X43175000Y-32000000D03*
D18*
X44775000Y-28000000D03*
X43225000Y-28000000D03*
X48775000Y-21000000D03*
X47225000Y-21000000D03*
D19*
X12225000Y-42000000D03*
X13775000Y-42000000D03*
D20*
X21000000Y-46175000D03*
X21000000Y-47825000D03*
D11*
X36000000Y-13825000D03*
X36000000Y-12175000D03*
D20*
X22000000Y-69175000D03*
X22000000Y-70825000D03*
D21*
X10755000Y-72950000D03*
X10755000Y-72000000D03*
X10755000Y-71050000D03*
X8245000Y-71050000D03*
X8245000Y-72000000D03*
X8245000Y-72950000D03*
D17*
X25825000Y-6500000D03*
X24175000Y-6500000D03*
D22*
X48950000Y-27745000D03*
X48000000Y-27745000D03*
X47050000Y-27745000D03*
X47050000Y-30255000D03*
X48000000Y-30255000D03*
X48950000Y-30255000D03*
D15*
X5092000Y-35280000D03*
D16*
X5092000Y-37820000D03*
X5092000Y-40360000D03*
X5092000Y-42900000D03*
X5092000Y-45440000D03*
X5092000Y-47980000D03*
X5092000Y-50520000D03*
X5092000Y-53060000D03*
X5092000Y-55600000D03*
X5092000Y-58140000D03*
D23*
X22000000Y-68270000D03*
X22000000Y-71730000D03*
D13*
X24000000Y-77500000D03*
X16000000Y-82500000D03*
X24000000Y-82500000D03*
X16000000Y-77500000D03*
D17*
X43825000Y-55000000D03*
X42175000Y-55000000D03*
X10825000Y-82000000D03*
X9175000Y-82000000D03*
D19*
X12225000Y-18000000D03*
X13775000Y-18000000D03*
D10*
X44775200Y-96445000D03*
X44775200Y-95175000D03*
X44775200Y-93905000D03*
X44775200Y-92635000D03*
X44775200Y-91365000D03*
X44775200Y-90095000D03*
X44775200Y-88825000D03*
X44775200Y-87555000D03*
X35224800Y-87555000D03*
X35224800Y-88825000D03*
X35224800Y-90095000D03*
X35224800Y-91365000D03*
X35224800Y-92635000D03*
X35224800Y-93905000D03*
X35224800Y-95175000D03*
X35224800Y-96445000D03*
D14*
X33000000Y-71730000D03*
X33000000Y-68270000D03*
D23*
X21000000Y-45270000D03*
X21000000Y-48730000D03*
X21000000Y-25270000D03*
X21000000Y-28730000D03*
D24*
X44000000Y-49225000D03*
X44000000Y-50775000D03*
D17*
X37825000Y-33000000D03*
X36175000Y-33000000D03*
D12*
X24175000Y-3000000D03*
X25825000Y-3000000D03*
D13*
X36000000Y-22500000D03*
X44000000Y-17500000D03*
X36000000Y-17500000D03*
X44000000Y-22500000D03*
X36000000Y-62500000D03*
X44000000Y-57500000D03*
X36000000Y-57500000D03*
X44000000Y-62500000D03*
D12*
X15175000Y-33000000D03*
X16825000Y-33000000D03*
D17*
X48825000Y-17000000D03*
X47175000Y-17000000D03*
D25*
X38730000Y-33000000D03*
X35270000Y-33000000D03*
D19*
X11225000Y-66000000D03*
X12775000Y-66000000D03*
D18*
X44775000Y-69000000D03*
X43225000Y-69000000D03*
D12*
X11175000Y-63000000D03*
X12825000Y-63000000D03*
D26*
X20820000Y-8885000D03*
X20820000Y-7615000D03*
X20820000Y-6345000D03*
X20820000Y-5075000D03*
X13620000Y-5075000D03*
X13620000Y-6345000D03*
X13620000Y-7615000D03*
X13620000Y-8885000D03*
D24*
X11000000Y-9225000D03*
X11000000Y-10775000D03*
D12*
X15175000Y-25000000D03*
X16825000Y-25000000D03*
D11*
X36000000Y-52825000D03*
X36000000Y-51175000D03*
D25*
X11730000Y-82000000D03*
X8270000Y-82000000D03*
D22*
X49950000Y-68745000D03*
X49000000Y-68745000D03*
X48050000Y-68745000D03*
X48050000Y-71255000D03*
X49000000Y-71255000D03*
X49950000Y-71255000D03*
D11*
X40000000Y-26825000D03*
X40000000Y-25175000D03*
D17*
X43825000Y-46000000D03*
X42175000Y-46000000D03*
D13*
X24000000Y-37500000D03*
X16000000Y-42500000D03*
X24000000Y-42500000D03*
X16000000Y-37500000D03*
D20*
X15590000Y-11670000D03*
X15590000Y-13320000D03*
D12*
X16175000Y-73000000D03*
X17825000Y-73000000D03*
D27*
X19600000Y-13280000D03*
X19600000Y-11730000D03*
D12*
X12175000Y-38000000D03*
X13825000Y-38000000D03*
D14*
X36000000Y-53730000D03*
X36000000Y-50270000D03*
D21*
X16255000Y-50950000D03*
X16255000Y-50000000D03*
X16255000Y-49050000D03*
X13745000Y-49050000D03*
X13745000Y-50000000D03*
X13745000Y-50950000D03*
D20*
X21000000Y-26175000D03*
X21000000Y-27825000D03*
D13*
X36000000Y-42500000D03*
X44000000Y-37500000D03*
X36000000Y-37500000D03*
X44000000Y-42500000D03*
D12*
X12175000Y-22000000D03*
X13825000Y-22000000D03*
D13*
X24000000Y-57500000D03*
X16000000Y-62500000D03*
X24000000Y-62500000D03*
X16000000Y-57500000D03*
D18*
X10775000Y-78000000D03*
X9225000Y-78000000D03*
D17*
X44825000Y-73000000D03*
X43175000Y-73000000D03*
X43825000Y-15000000D03*
X42175000Y-15000000D03*
X25825000Y-10000000D03*
X24175000Y-10000000D03*
D28*
X48010000Y-26300000D03*
D29*
X23990000Y-78960000D03*
D28*
X49010000Y-67400000D03*
D29*
X35990000Y-60970000D03*
X13770000Y-16900000D03*
D28*
X46400000Y-87550000D03*
D29*
X35990000Y-80970000D03*
X46060000Y-21000000D03*
D28*
X46390000Y-96490000D03*
D29*
X13770000Y-43220000D03*
X13990000Y-66000000D03*
X23990000Y-59000000D03*
X36030000Y-44000000D03*
D28*
X26340000Y-87555000D03*
D29*
X12020000Y-72010000D03*
X8060000Y-78000000D03*
X17480000Y-50000000D03*
D28*
X43980000Y-51950000D03*
D29*
X24000000Y-19080000D03*
D28*
X42080000Y-28000000D03*
D29*
X36000000Y-20810000D03*
X22675000Y-8885000D03*
D28*
X41870000Y-69000000D03*
D29*
X22330000Y-5130000D03*
D28*
X26390000Y-95180000D03*
D29*
X24010000Y-39110000D03*
D28*
X30683200Y-92506800D03*
D29*
X25044400Y-50850800D03*
D28*
X43900000Y-71260000D03*
X48000000Y-31700000D03*
D29*
X34008000Y-41768000D03*
X14440000Y-52290000D03*
X16825000Y-44265000D03*
X17370000Y-64730000D03*
D28*
X32308800Y-83464400D03*
D29*
X11819750Y-74480000D03*
D28*
X44050500Y-30000000D03*
D29*
X14425000Y-61785000D03*
X7630250Y-74450000D03*
D28*
X49000000Y-72760000D03*
D29*
X27686000Y-50850800D03*
X15960000Y-35610000D03*
X12534500Y-50010000D03*
X33950000Y-23000000D03*
X25160000Y-71720000D03*
X15780000Y-75720000D03*
X34604500Y-62413411D03*
X32580000Y-66050000D03*
X14158411Y-79791589D03*
X34620000Y-25750000D03*
X33870000Y-34430000D03*
X25515980Y-37750000D03*
X25230000Y-34490000D03*
X31064200Y-71704200D03*
D28*
X24130000Y-85242400D03*
D29*
X27434500Y-54480000D03*
D28*
X13639800Y-92430600D03*
D29*
X15390000Y-54420000D03*
D28*
X29337000Y-80416400D03*
D29*
X10940000Y-54390000D03*
X25515991Y-54530000D03*
D28*
X13766800Y-86537800D03*
X31419800Y-95580200D03*
X31242000Y-98069400D03*
X12424899Y-92578701D03*
X12369800Y-96266000D03*
X33401000Y-95656400D03*
X33401000Y-97434400D03*
D30*
X28000000Y-10000000D03*
X28000000Y-3000000D03*
D28*
X47950000Y-22500000D03*
X49810000Y-22500000D03*
X45510000Y-62500000D03*
X47200000Y-62500000D03*
D30*
X28000000Y-6500000D03*
D31*
X15590000Y-13320000D02*
X19560000Y-13320000D01*
X8680000Y-36772000D02*
X5092000Y-40360000D01*
X10200000Y-14530000D02*
X8680000Y-16050000D01*
X14380000Y-14530000D02*
X10200000Y-14530000D01*
X15590000Y-13320000D02*
X14380000Y-14530000D01*
X19560000Y-13320000D02*
X19600000Y-13280000D01*
X8680000Y-16050000D02*
X8680000Y-36772000D01*
X44775200Y-95175000D02*
X44775200Y-96445000D01*
X20820000Y-7615000D02*
X20820000Y-8885000D01*
X49000000Y-67410000D02*
X49010000Y-67400000D01*
X35990000Y-60970000D02*
X36000000Y-60980000D01*
X19600000Y-11730000D02*
X20820000Y-10510000D01*
X26385000Y-95175000D02*
X24775200Y-95175000D01*
X20820000Y-10510000D02*
X20820000Y-8885000D01*
X36000000Y-60980000D02*
X36000000Y-62500000D01*
X12010000Y-72000000D02*
X10755000Y-72000000D01*
X22275000Y-5075000D02*
X22330000Y-5130000D01*
X24775200Y-95175000D02*
X24775200Y-93905000D01*
X35990000Y-80970000D02*
X36000000Y-80980000D01*
X24000000Y-39100000D02*
X24010000Y-39110000D01*
X24000000Y-78950000D02*
X24000000Y-77500000D01*
X13775000Y-43215000D02*
X13770000Y-43220000D01*
X24775200Y-87555000D02*
X26340000Y-87555000D01*
X15590000Y-11670000D02*
X11895000Y-11670000D01*
X43225000Y-28000000D02*
X42080000Y-28000000D01*
X20820000Y-8885000D02*
X22675000Y-8885000D01*
X48000000Y-26310000D02*
X48010000Y-26300000D01*
X15590000Y-11670000D02*
X19540000Y-11670000D01*
X44775200Y-87555000D02*
X46395000Y-87555000D01*
X19540000Y-11670000D02*
X19600000Y-11730000D01*
X23060000Y-8885000D02*
X24175000Y-10000000D01*
X36000000Y-22500000D02*
X36000000Y-20810000D01*
X23990000Y-78960000D02*
X24000000Y-78950000D01*
X24000000Y-37500000D02*
X24000000Y-39100000D01*
X12775000Y-66000000D02*
X13990000Y-66000000D01*
X12020000Y-72010000D02*
X12010000Y-72000000D01*
X11895000Y-11670000D02*
X11000000Y-10775000D01*
X46395000Y-87555000D02*
X46400000Y-87550000D01*
X22675000Y-8885000D02*
X23060000Y-8885000D01*
X44775200Y-93905000D02*
X44775200Y-95175000D01*
X17480000Y-50000000D02*
X16255000Y-50000000D01*
X43225000Y-69000000D02*
X41870000Y-69000000D01*
X48000000Y-27745000D02*
X48000000Y-26310000D01*
X24000000Y-19080000D02*
X24000000Y-17510000D01*
X44775200Y-96445000D02*
X46345000Y-96445000D01*
X13770000Y-16900000D02*
X13770000Y-17995000D01*
X23990000Y-59000000D02*
X24000000Y-58990000D01*
X44000000Y-50775000D02*
X44000000Y-51930000D01*
X49000000Y-68745000D02*
X49000000Y-67410000D01*
X20820000Y-5075000D02*
X22275000Y-5075000D01*
X46060000Y-21000000D02*
X47225000Y-21000000D01*
X13775000Y-42000000D02*
X13775000Y-43215000D01*
X36000000Y-80980000D02*
X36000000Y-82500000D01*
X36000000Y-43970000D02*
X36000000Y-42500000D01*
X9225000Y-78000000D02*
X8060000Y-78000000D01*
X24000000Y-58990000D02*
X24000000Y-57500000D01*
X13770000Y-17995000D02*
X13775000Y-18000000D01*
X31560000Y-22450000D02*
X27700000Y-26310000D01*
X17370000Y-64730000D02*
X17825000Y-65185000D01*
X17825000Y-71995000D02*
X17825000Y-73000000D01*
X13280000Y-9225000D02*
X11965000Y-9225000D01*
X48000000Y-31700000D02*
X48000000Y-30255000D01*
X42175000Y-10725000D02*
X42175000Y-15000000D01*
X39660000Y-54180000D02*
X39660000Y-48400000D01*
X25905000Y-4730000D02*
X24175000Y-3000000D01*
X32308800Y-81838800D02*
X32308800Y-83464400D01*
X39950489Y-25125489D02*
X34235489Y-25125489D01*
X15761400Y-97561400D02*
X24536400Y-97561400D01*
X29615200Y-96445000D02*
X28015000Y-96445000D01*
X19786600Y-53111400D02*
X20587200Y-53111400D01*
X19659200Y-50850800D02*
X19340000Y-51170000D01*
X18370000Y-52140000D02*
X18592600Y-51917400D01*
X17720000Y-72100000D02*
X17825000Y-71995000D01*
X24775200Y-96445000D02*
X28015000Y-96445000D01*
X44050500Y-30000000D02*
X42490000Y-30000000D01*
X14440000Y-52290000D02*
X14590000Y-52140000D01*
X12544500Y-50000000D02*
X13745000Y-50000000D01*
X30683200Y-95377000D02*
X29615200Y-96445000D01*
X28295600Y-53111400D02*
X28295600Y-59588400D01*
X16825000Y-33565000D02*
X16825000Y-33000000D01*
X49000000Y-71255000D02*
X49000000Y-72940000D01*
X11965000Y-3895000D02*
X11965000Y-9225000D01*
X19340000Y-46290000D02*
X19340000Y-51170000D01*
X30492000Y-37820000D02*
X27700000Y-40612000D01*
X27700000Y-50836800D02*
X27686000Y-50850800D01*
X34235489Y-25125489D02*
X31560000Y-22450000D01*
X14590000Y-52140000D02*
X18370000Y-52140000D01*
X34150000Y-47020000D02*
X33979989Y-46849989D01*
X40000000Y-54520000D02*
X39660000Y-54180000D01*
X27686000Y-52501800D02*
X28295600Y-53111400D01*
X34310000Y-9420000D02*
X29620000Y-4730000D01*
X17315000Y-44265000D02*
X19340000Y-46290000D01*
X7630250Y-74450000D02*
X6959600Y-73779350D01*
X40015000Y-25160000D02*
X40000000Y-25175000D01*
X27700000Y-26310000D02*
X27700000Y-41340000D01*
X41130000Y-25330000D02*
X40960000Y-25160000D01*
X18592600Y-51917400D02*
X19340000Y-51170000D01*
X24536400Y-97561400D02*
X24775200Y-97322600D01*
X38280000Y-47020000D02*
X34150000Y-47020000D01*
X28015000Y-96445000D02*
X35224800Y-96445000D01*
X6959600Y-73779350D02*
X6959600Y-72415400D01*
X13620000Y-8885000D02*
X13280000Y-9225000D01*
X14410000Y-52320000D02*
X14410000Y-61770000D01*
X39660000Y-48400000D02*
X38280000Y-47020000D01*
X12220000Y-74480000D02*
X14600000Y-72100000D01*
X17825000Y-65185000D02*
X17825000Y-71995000D01*
X34008000Y-41768000D02*
X33979989Y-41796011D01*
X14410000Y-61770000D02*
X14425000Y-61785000D01*
X40000000Y-25175000D02*
X39950489Y-25125489D01*
X15224800Y-97024800D02*
X15761400Y-97561400D01*
X34310000Y-9420000D02*
X40870000Y-9420000D01*
X30353000Y-79883000D02*
X32308800Y-81838800D01*
X14600000Y-72100000D02*
X17720000Y-72100000D01*
X30683200Y-92506800D02*
X30683200Y-95377000D01*
X15960000Y-34980000D02*
X16825000Y-34115000D01*
X11965000Y-9225000D02*
X11000000Y-9225000D01*
X27700000Y-40612000D02*
X27700000Y-41340000D01*
X40870000Y-9420000D02*
X42175000Y-10725000D01*
X7375000Y-72000000D02*
X8245000Y-72000000D01*
X33979989Y-65154989D02*
X40000000Y-71175000D01*
X27700000Y-41340000D02*
X27700000Y-50836800D01*
X43815000Y-71175000D02*
X43900000Y-71260000D01*
X42175000Y-55000000D02*
X41695000Y-54520000D01*
X40000000Y-71175000D02*
X43815000Y-71175000D01*
X42490000Y-30000000D02*
X41130000Y-28640000D01*
X28295600Y-59588400D02*
X30353000Y-61645800D01*
X14440000Y-52290000D02*
X14410000Y-52320000D01*
X24775200Y-97322600D02*
X24775200Y-96445000D01*
X16825000Y-44265000D02*
X17315000Y-44265000D01*
X15224800Y-96445000D02*
X15224800Y-97024800D01*
X24175000Y-3000000D02*
X12860000Y-3000000D01*
X33979989Y-41796011D02*
X33979989Y-46849989D01*
X25044400Y-50850800D02*
X19659200Y-50850800D01*
X41695000Y-54520000D02*
X40000000Y-54520000D01*
X17825000Y-70000000D02*
X17825000Y-65185000D01*
X33979989Y-46849989D02*
X33979989Y-65154989D01*
X30353000Y-61645800D02*
X30353000Y-79883000D01*
X27686000Y-50850800D02*
X27686000Y-52501800D01*
X18592600Y-51917400D02*
X19786600Y-53111400D01*
X12860000Y-3000000D02*
X11965000Y-3895000D01*
X16825000Y-34115000D02*
X16825000Y-33565000D01*
X6959600Y-72415400D02*
X7375000Y-72000000D01*
X31560000Y-22450000D02*
X31560000Y-12170000D01*
X41130000Y-28640000D02*
X41130000Y-25330000D01*
X11819750Y-74480000D02*
X12220000Y-74480000D01*
X29620000Y-4730000D02*
X25905000Y-4730000D01*
X40960000Y-25160000D02*
X40015000Y-25160000D01*
X15960000Y-35610000D02*
X15960000Y-34980000D01*
X16825000Y-25000000D02*
X16825000Y-33565000D01*
X31560000Y-12170000D02*
X34310000Y-9420000D01*
X18510000Y-50190000D02*
X17750000Y-50950000D01*
X12225000Y-44275000D02*
X13320000Y-45370000D01*
X12175000Y-38000000D02*
X11980000Y-38195000D01*
X18510000Y-46730000D02*
X18510000Y-50190000D01*
X17750000Y-50950000D02*
X16255000Y-50950000D01*
X12225000Y-42000000D02*
X12225000Y-44275000D01*
X11980000Y-41755000D02*
X12225000Y-42000000D01*
X11980000Y-38195000D02*
X11980000Y-41755000D01*
X13320000Y-45370000D02*
X17150000Y-45370000D01*
X17150000Y-45370000D02*
X18510000Y-46730000D01*
X9950000Y-23030000D02*
X9950000Y-43990000D01*
X17750000Y-47280000D02*
X17750000Y-48930000D01*
X16880000Y-46410000D02*
X17750000Y-47280000D01*
X12225000Y-18000000D02*
X12225000Y-21950000D01*
X12370000Y-46410000D02*
X16880000Y-46410000D01*
X12225000Y-21950000D02*
X12175000Y-22000000D01*
X17750000Y-48930000D02*
X17630000Y-49050000D01*
X9950000Y-43990000D02*
X12370000Y-46410000D01*
X17630000Y-49050000D02*
X16255000Y-49050000D01*
X12175000Y-22000000D02*
X10980000Y-22000000D01*
X10980000Y-22000000D02*
X9950000Y-23030000D01*
X10775000Y-78000000D02*
X12675000Y-78000000D01*
X11070000Y-73265000D02*
X11070000Y-77705000D01*
X11070000Y-77705000D02*
X10775000Y-78000000D01*
X10755000Y-72950000D02*
X11070000Y-73265000D01*
X10930000Y-66295000D02*
X10930000Y-70875000D01*
X11225000Y-66000000D02*
X10930000Y-66295000D01*
X11175000Y-65950000D02*
X11225000Y-66000000D01*
X10930000Y-70875000D02*
X10755000Y-71050000D01*
X11175000Y-63000000D02*
X11175000Y-65950000D01*
X48950000Y-21175000D02*
X48775000Y-21000000D01*
X48950000Y-27745000D02*
X48950000Y-21175000D01*
X48825000Y-17000000D02*
X48825000Y-20950000D01*
X44775000Y-28000000D02*
X46795000Y-28000000D01*
X44775000Y-28000000D02*
X44775000Y-31950000D01*
X46795000Y-28000000D02*
X47050000Y-27745000D01*
X44775000Y-31950000D02*
X44825000Y-32000000D01*
X44907000Y-49225000D02*
X45466000Y-49784000D01*
X46234511Y-61982511D02*
X46234511Y-63534511D01*
X43825000Y-49050000D02*
X44000000Y-49225000D01*
X46234511Y-63534511D02*
X49950000Y-67250000D01*
X49950000Y-67250000D02*
X49950000Y-68745000D01*
X45466000Y-49784000D02*
X45466000Y-61214000D01*
X45466000Y-61214000D02*
X46234511Y-61982511D01*
X44000000Y-49225000D02*
X44907000Y-49225000D01*
X43825000Y-46000000D02*
X43825000Y-49050000D01*
X47795000Y-69000000D02*
X48050000Y-68745000D01*
X44825000Y-69050000D02*
X44775000Y-69000000D01*
X44825000Y-73000000D02*
X44825000Y-69050000D01*
X44775000Y-69000000D02*
X47795000Y-69000000D01*
X24000000Y-43420000D02*
X22150000Y-45270000D01*
X21000000Y-45270000D02*
X21000000Y-46175000D01*
X24000000Y-42500000D02*
X24000000Y-43420000D01*
X22150000Y-45270000D02*
X21000000Y-45270000D01*
X33640000Y-11270000D02*
X36000000Y-11270000D01*
X25120600Y-43688000D02*
X22580000Y-46228600D01*
X31064200Y-71704200D02*
X31038800Y-71678800D01*
X22000000Y-71730000D02*
X22000000Y-70825000D01*
X14158411Y-79791589D02*
X7998411Y-79791589D01*
X7770000Y-80020000D02*
X7770000Y-81500000D01*
X32580000Y-67850000D02*
X33000000Y-68270000D01*
X34589520Y-50740480D02*
X35060000Y-50270000D01*
X21000000Y-28730000D02*
X21000000Y-27825000D01*
X21000000Y-48730000D02*
X21000000Y-47825000D01*
X32580000Y-66050000D02*
X32580000Y-67850000D01*
X32580000Y-12330000D02*
X33640000Y-11270000D01*
X35060000Y-50270000D02*
X36000000Y-50270000D01*
X24010000Y-71730000D02*
X24010000Y-73620000D01*
X33870000Y-34320000D02*
X35190000Y-33000000D01*
X21000000Y-30260000D02*
X25230000Y-34490000D01*
X25120600Y-38145380D02*
X25120600Y-43688000D01*
X31038800Y-71678800D02*
X31038800Y-67591200D01*
X16790000Y-74710000D02*
X15780000Y-75720000D01*
X24010000Y-71730000D02*
X25150000Y-71730000D01*
X22150000Y-48730000D02*
X21000000Y-48730000D01*
X34604500Y-62413411D02*
X34589520Y-62398431D01*
X33950000Y-23000000D02*
X33870000Y-23000000D01*
X22580000Y-48300000D02*
X22150000Y-48730000D01*
X21000000Y-28730000D02*
X21000000Y-30260000D01*
X7998411Y-79791589D02*
X7770000Y-80020000D01*
X35270000Y-33000000D02*
X34620000Y-32350000D01*
X30492000Y-35280000D02*
X32580000Y-37368000D01*
X31038800Y-67591200D02*
X32580000Y-66050000D01*
X33870000Y-23000000D02*
X32560000Y-21690000D01*
X34589520Y-62398431D02*
X34589520Y-50740480D01*
X33870000Y-34430000D02*
X33870000Y-34320000D01*
X32560000Y-12350000D02*
X32580000Y-12330000D01*
X22000000Y-71730000D02*
X24010000Y-71730000D01*
X36000000Y-50270000D02*
X36000000Y-51175000D01*
X7770000Y-81500000D02*
X8270000Y-82000000D01*
X22580000Y-46228600D02*
X22580000Y-48300000D01*
X24010000Y-73620000D02*
X22920000Y-74710000D01*
X25515980Y-37750000D02*
X25120600Y-38145380D01*
X32580000Y-37368000D02*
X32580000Y-66050000D01*
X8270000Y-82000000D02*
X9175000Y-82000000D01*
X25150000Y-71730000D02*
X25160000Y-71720000D01*
X35270000Y-33000000D02*
X36175000Y-33000000D01*
X22920000Y-74710000D02*
X16790000Y-74710000D01*
X32560000Y-21690000D02*
X32560000Y-12350000D01*
X34620000Y-32350000D02*
X34620000Y-25750000D01*
X24000000Y-22510000D02*
X24000000Y-23610000D01*
X22340000Y-25270000D02*
X21000000Y-25270000D01*
X21000000Y-26175000D02*
X21000000Y-25270000D01*
X24000000Y-23610000D02*
X22340000Y-25270000D01*
X11730000Y-82400000D02*
X13430000Y-84100000D01*
X11730000Y-82000000D02*
X11730000Y-82400000D01*
X24000000Y-83530000D02*
X24000000Y-82500000D01*
X23430000Y-84100000D02*
X24000000Y-83530000D01*
X10825000Y-82000000D02*
X11730000Y-82000000D01*
X13430000Y-84100000D02*
X23430000Y-84100000D01*
X24000000Y-66270000D02*
X22000000Y-68270000D01*
X24000000Y-62500000D02*
X24000000Y-66270000D01*
X36000000Y-14730000D02*
X36000000Y-17500000D01*
X38730000Y-33000000D02*
X36000000Y-35730000D01*
X36000000Y-35730000D02*
X36000000Y-37500000D01*
X36000000Y-53730000D02*
X36000000Y-57500000D01*
X33000000Y-76310000D02*
X33000000Y-71730000D01*
X36000000Y-77500000D02*
X34190000Y-77500000D01*
X34190000Y-77500000D02*
X33000000Y-76310000D01*
X30937200Y-91047200D02*
X30937200Y-82118200D01*
X15062200Y-85242400D02*
X24130000Y-85242400D01*
X25515991Y-54530000D02*
X25405991Y-54420000D01*
X10490000Y-54390000D02*
X8440000Y-52340000D01*
X29337000Y-80518000D02*
X29337000Y-80416400D01*
X8440000Y-52340000D02*
X8440000Y-50500000D01*
X22846800Y-54420000D02*
X15390000Y-54420000D01*
X29337000Y-80416400D02*
X29337000Y-62382400D01*
X15224800Y-92635000D02*
X13844200Y-92635000D01*
X22237200Y-53111400D02*
X22237200Y-53810400D01*
X22237200Y-53810400D02*
X22846800Y-54420000D01*
X27434500Y-60479900D02*
X27434500Y-54480000D01*
X35224800Y-92635000D02*
X32525000Y-92635000D01*
X13766800Y-86537800D02*
X15062200Y-85242400D01*
X30937200Y-82118200D02*
X29337000Y-80518000D01*
X25405991Y-54420000D02*
X22846800Y-54420000D01*
X32525000Y-92635000D02*
X30937200Y-91047200D01*
X13844200Y-92635000D02*
X13639800Y-92430600D01*
X5920000Y-47980000D02*
X5092000Y-47980000D01*
X10940000Y-54390000D02*
X10490000Y-54390000D01*
X8440000Y-50500000D02*
X5920000Y-47980000D01*
X29337000Y-62382400D02*
X27434500Y-60479900D01*
X13742600Y-93905000D02*
X3270000Y-83432400D01*
X35224800Y-93905000D02*
X33095000Y-93905000D01*
X12424899Y-92578701D02*
X12446000Y-92557600D01*
X6730000Y-50520000D02*
X5092000Y-50520000D01*
X12539000Y-92464600D02*
X12539000Y-92405200D01*
X15224800Y-93905000D02*
X13742600Y-93905000D01*
X33095000Y-93905000D02*
X31419800Y-95580200D01*
X31242000Y-98069400D02*
X27101800Y-98069400D01*
X26416000Y-98755200D02*
X13589000Y-98755200D01*
X3270000Y-67500000D02*
X7320000Y-63450000D01*
X13589000Y-98755200D02*
X12369800Y-97536000D01*
X7320000Y-63450000D02*
X7320000Y-51110000D01*
X12369800Y-97536000D02*
X12369800Y-96266000D01*
X12424899Y-92578701D02*
X12539000Y-92464600D01*
X12446000Y-92557600D02*
X12446000Y-92337600D01*
X27101800Y-98069400D02*
X26416000Y-98755200D01*
X7320000Y-51110000D02*
X6730000Y-50520000D01*
X3270000Y-83432400D02*
X3270000Y-67500000D01*
X32181800Y-97104200D02*
X32512000Y-97434400D01*
X13234600Y-95175000D02*
X2200000Y-84140400D01*
X2200000Y-84140400D02*
X2200000Y-66820000D01*
X2200000Y-66820000D02*
X5092000Y-63928000D01*
X25513941Y-98069400D02*
X26479141Y-97104200D01*
X15224800Y-95175000D02*
X13474700Y-95175000D01*
X5092000Y-63928000D02*
X5092000Y-58140000D01*
X13474700Y-95175000D02*
X13474700Y-96672400D01*
X13474700Y-96672400D02*
X14871700Y-98069400D01*
X35224800Y-95175000D02*
X33882400Y-95175000D01*
X32512000Y-97434400D02*
X33401000Y-97434400D01*
X14871700Y-98069400D02*
X25513941Y-98069400D01*
X33882400Y-95175000D02*
X33401000Y-95656400D01*
X15224800Y-95175000D02*
X13234600Y-95175000D01*
X26479141Y-97104200D02*
X32181800Y-97104200D01*
X25825000Y-10000000D02*
X28000000Y-10000000D01*
X25825000Y-3000000D02*
X28000000Y-3000000D01*
X14860000Y-33315000D02*
X15175000Y-33000000D01*
X14860000Y-36965000D02*
X14860000Y-33315000D01*
X13825000Y-38045000D02*
X16000000Y-40220000D01*
X13825000Y-38000000D02*
X13825000Y-38045000D01*
X13825000Y-38000000D02*
X14860000Y-36965000D01*
X16000000Y-40220000D02*
X16000000Y-42500000D01*
X15490000Y-23020000D02*
X15490000Y-24685000D01*
X15490000Y-22000000D02*
X16000000Y-22510000D01*
X15490000Y-24685000D02*
X15175000Y-25000000D01*
X13825000Y-22000000D02*
X15490000Y-22000000D01*
X16000000Y-22510000D02*
X15490000Y-23020000D01*
X14970000Y-77355000D02*
X14970000Y-74205000D01*
X14325000Y-79075000D02*
X16000000Y-80750000D01*
X16000000Y-80750000D02*
X16000000Y-82500000D01*
X14970000Y-74205000D02*
X16175000Y-73000000D01*
X14325000Y-78000000D02*
X14970000Y-77355000D01*
X14325000Y-78000000D02*
X14325000Y-79075000D01*
X13325000Y-62500000D02*
X16000000Y-62500000D01*
X12825000Y-63000000D02*
X13325000Y-62500000D01*
X16000000Y-69825000D02*
X16000000Y-62500000D01*
X16175000Y-70000000D02*
X16000000Y-69825000D01*
X44510000Y-16990000D02*
X47165000Y-16990000D01*
X44000000Y-15175000D02*
X44000000Y-17500000D01*
X44000000Y-17500000D02*
X44510000Y-16990000D01*
X43825000Y-15000000D02*
X44000000Y-15175000D01*
X47165000Y-16990000D02*
X47175000Y-17000000D01*
X43175000Y-32000000D02*
X40870000Y-32000000D01*
X43175000Y-34405000D02*
X44000000Y-35230000D01*
X44000000Y-35230000D02*
X44000000Y-37500000D01*
X40000000Y-31130000D02*
X40000000Y-26825000D01*
X40870000Y-32000000D02*
X40000000Y-31130000D01*
X43175000Y-32000000D02*
X43175000Y-34405000D01*
X43825000Y-53315000D02*
X42175000Y-51665000D01*
X44000000Y-57500000D02*
X44000000Y-55175000D01*
X44000000Y-55175000D02*
X43825000Y-55000000D01*
X43825000Y-55000000D02*
X43825000Y-53315000D01*
X42175000Y-51665000D02*
X42175000Y-46000000D01*
X44000000Y-75990000D02*
X44000000Y-77500000D01*
X43175000Y-75165000D02*
X44000000Y-75990000D01*
X43175000Y-73000000D02*
X40175000Y-73000000D01*
X40175000Y-73000000D02*
X40000000Y-72825000D01*
X43175000Y-73000000D02*
X43175000Y-75165000D01*
X26140491Y-63097491D02*
X26140491Y-37270491D01*
X16000000Y-36620000D02*
X16000000Y-37500000D01*
X26140491Y-37270491D02*
X24700000Y-35830000D01*
X24775200Y-91365000D02*
X28446800Y-91365000D01*
X16790000Y-35830000D02*
X16000000Y-36620000D01*
X27355800Y-64312800D02*
X26140491Y-63097491D01*
X24700000Y-35830000D02*
X16790000Y-35830000D01*
X29184600Y-84912200D02*
X27355800Y-83083400D01*
X27355800Y-83083400D02*
X27355800Y-64312800D01*
X29184600Y-90627200D02*
X29184600Y-84912200D01*
X28446800Y-91365000D02*
X29184600Y-90627200D01*
X30022800Y-91338400D02*
X30022800Y-83464400D01*
X28371800Y-63398400D02*
X26810000Y-61836600D01*
X30022800Y-83464400D02*
X28371800Y-81813400D01*
X24775200Y-92635000D02*
X28726200Y-92635000D01*
X16000000Y-16350000D02*
X16000000Y-17510000D01*
X28371800Y-81813400D02*
X28371800Y-63398400D01*
X26810000Y-16960000D02*
X25470000Y-15620000D01*
X26810000Y-61836600D02*
X26810000Y-16960000D01*
X28726200Y-92635000D02*
X30022800Y-91338400D01*
X25470000Y-15620000D02*
X16730000Y-15620000D01*
X16730000Y-15620000D02*
X16000000Y-16350000D01*
X17050000Y-75540000D02*
X24840000Y-75540000D01*
X27381200Y-88392000D02*
X26948200Y-88825000D01*
X16000000Y-76590000D02*
X17050000Y-75540000D01*
X25400000Y-85064600D02*
X27381200Y-87045800D01*
X24840000Y-75540000D02*
X25400000Y-76100000D01*
X27381200Y-87045800D02*
X27381200Y-88392000D01*
X26948200Y-88825000D02*
X24775200Y-88825000D01*
X25400000Y-76100000D02*
X25400000Y-85064600D01*
X16000000Y-77500000D02*
X16000000Y-76590000D01*
X16000000Y-57500000D02*
X16000000Y-55800000D01*
X16000000Y-55800000D02*
X16260000Y-55540000D01*
X25250000Y-56250000D02*
X25250000Y-63990000D01*
X26263600Y-65003600D02*
X26263600Y-84074000D01*
X28194000Y-89306400D02*
X27405400Y-90095000D01*
X25250000Y-63990000D02*
X26263600Y-65003600D01*
X26263600Y-84074000D02*
X28194000Y-86004400D01*
X16260000Y-55540000D02*
X24540000Y-55540000D01*
X28194000Y-86004400D02*
X28194000Y-89306400D01*
X27405400Y-90095000D02*
X24775200Y-90095000D01*
X24540000Y-55540000D02*
X25250000Y-56250000D01*
X57734200Y-81457800D02*
X46557000Y-92635000D01*
X57734200Y-65811400D02*
X57734200Y-81457800D01*
X44000000Y-22500000D02*
X47950000Y-22500000D01*
X49810000Y-22500000D02*
X52070000Y-24760000D01*
X48514000Y-56591200D02*
X57734200Y-65811400D01*
X52070000Y-37287200D02*
X48514000Y-40843200D01*
X46557000Y-92635000D02*
X44775200Y-92635000D01*
X48514000Y-40843200D02*
X48514000Y-56591200D01*
X52070000Y-24760000D02*
X52070000Y-37287200D01*
X53238400Y-82143600D02*
X46557000Y-88825000D01*
X46557000Y-88825000D02*
X44775200Y-88825000D01*
X46228000Y-59944000D02*
X53238400Y-66954400D01*
X44000000Y-42500000D02*
X45212000Y-43712000D01*
X45212000Y-43712000D02*
X45212000Y-48260000D01*
X46228000Y-49276000D02*
X46228000Y-59944000D01*
X45212000Y-48260000D02*
X46228000Y-49276000D01*
X53238400Y-66954400D02*
X53238400Y-82143600D01*
X44000000Y-62500000D02*
X45510000Y-62500000D01*
X35224800Y-87050800D02*
X35224800Y-87555000D01*
X51714400Y-67014400D02*
X51714400Y-81407000D01*
X51714400Y-81407000D02*
X46685200Y-86436200D01*
X35839400Y-86436200D02*
X35224800Y-87050800D01*
X46685200Y-86436200D02*
X35839400Y-86436200D01*
X47200000Y-62500000D02*
X51714400Y-67014400D01*
X44000000Y-83600000D02*
X43500600Y-84099400D01*
X31826200Y-85471000D02*
X31826200Y-90006200D01*
X44000000Y-82500000D02*
X44000000Y-83600000D01*
X43500600Y-84099400D02*
X33197800Y-84099400D01*
X31826200Y-90006200D02*
X33185000Y-91365000D01*
X33197800Y-84099400D02*
X31826200Y-85471000D01*
X33185000Y-91365000D02*
X35224800Y-91365000D01*
X11690000Y-49700000D02*
X12340000Y-49050000D01*
X11690000Y-57520000D02*
X11690000Y-49700000D01*
X8700000Y-60510000D02*
X11690000Y-57520000D01*
X12575000Y-91365000D02*
X4310000Y-83100000D01*
X15224800Y-91365000D02*
X12575000Y-91365000D01*
X4310000Y-68410000D02*
X8700000Y-64020000D01*
X12340000Y-49050000D02*
X13745000Y-49050000D01*
X8700000Y-64020000D02*
X8700000Y-60510000D01*
X4310000Y-83100000D02*
X4310000Y-68410000D01*
X9960000Y-64390000D02*
X9960000Y-61010000D01*
X5330000Y-69020000D02*
X9960000Y-64390000D01*
X12205000Y-90095000D02*
X5330000Y-83220000D01*
X9960000Y-61010000D02*
X12950000Y-58020000D01*
X5330000Y-83220000D02*
X5330000Y-69020000D01*
X12950000Y-58020000D02*
X12950000Y-51745000D01*
X15224800Y-90095000D02*
X12205000Y-90095000D01*
X12950000Y-51745000D02*
X13745000Y-50950000D01*
X6290000Y-83290000D02*
X6290000Y-71357800D01*
X15224800Y-88825000D02*
X11825000Y-88825000D01*
X6597800Y-71050000D02*
X8245000Y-71050000D01*
X6290000Y-71357800D02*
X6597800Y-71050000D01*
X11825000Y-88825000D02*
X6290000Y-83290000D01*
X11470718Y-87555000D02*
X7120000Y-83204282D01*
X7120000Y-75930000D02*
X8430000Y-74620000D01*
X8430000Y-73135000D02*
X8245000Y-72950000D01*
X15224800Y-87555000D02*
X11470718Y-87555000D01*
X7120000Y-83204282D02*
X7120000Y-75930000D01*
X8430000Y-74620000D02*
X8430000Y-73135000D01*
X46557000Y-90095000D02*
X44775200Y-90095000D01*
X46228000Y-35433000D02*
X46228000Y-47752000D01*
X46939200Y-48463200D02*
X46939200Y-58877200D01*
X54711600Y-66649600D02*
X54711600Y-81940400D01*
X47050000Y-30255000D02*
X47050000Y-34611000D01*
X46228000Y-47752000D02*
X46939200Y-48463200D01*
X54711600Y-81940400D02*
X46557000Y-90095000D01*
X47050000Y-34611000D02*
X46228000Y-35433000D01*
X46939200Y-58877200D02*
X54711600Y-66649600D01*
X56286400Y-66446400D02*
X56286400Y-81635600D01*
X47726600Y-35585400D02*
X47726600Y-57886600D01*
X56286400Y-81635600D02*
X46557000Y-91365000D01*
X46557000Y-91365000D02*
X44775200Y-91365000D01*
X48950000Y-30255000D02*
X48950000Y-34362000D01*
X48950000Y-34362000D02*
X47726600Y-35585400D01*
X47726600Y-57886600D02*
X56286400Y-66446400D01*
X25825000Y-6500000D02*
X28000000Y-6500000D01*
X24175000Y-6500000D02*
X20975000Y-6500000D01*
X20975000Y-6500000D02*
X20820000Y-6345000D01*
X33477200Y-84861400D02*
X32613600Y-85725000D01*
X44268600Y-84861400D02*
X33477200Y-84861400D01*
X48050000Y-71255000D02*
X48050000Y-81080000D01*
X48050000Y-81080000D02*
X44268600Y-84861400D01*
X32613600Y-89413600D02*
X33295000Y-90095000D01*
X33295000Y-90095000D02*
X35224800Y-90095000D01*
X32613600Y-85725000D02*
X32613600Y-89413600D01*
X33820400Y-85699600D02*
X33477200Y-86042800D01*
X45262800Y-85699600D02*
X33820400Y-85699600D01*
X33477200Y-86042800D02*
X33477200Y-88307200D01*
X33995000Y-88825000D02*
X35224800Y-88825000D01*
X49950000Y-81012400D02*
X45262800Y-85699600D01*
X33477200Y-88307200D02*
X33995000Y-88825000D01*
X49950000Y-71255000D02*
X49950000Y-81012400D01*
M02*
