%TF.GenerationSoftware,KiCad,Pcbnew,(6.0.2)*%
%TF.CreationDate,2022-04-01T11:09:41+02:00*%
%TF.ProjectId,cartteFille,63617274-7465-4466-996c-6c652e6b6963,rev?*%
%TF.SameCoordinates,Original*%
%TF.FileFunction,Paste,Top*%
%TF.FilePolarity,Positive*%
%FSLAX46Y46*%
G04 Gerber Fmt 4.6, Leading zero omitted, Abs format (unit mm)*
G04 Created by KiCad (PCBNEW (6.0.2)) date 2022-04-01 11:09:41*
%MOMM*%
%LPD*%
G01*
G04 APERTURE LIST*
G04 Aperture macros list*
%AMRoundRect*
0 Rectangle with rounded corners*
0 $1 Rounding radius*
0 $2 $3 $4 $5 $6 $7 $8 $9 X,Y pos of 4 corners*
0 Add a 4 corners polygon primitive as box body*
4,1,4,$2,$3,$4,$5,$6,$7,$8,$9,$2,$3,0*
0 Add four circle primitives for the rounded corners*
1,1,$1+$1,$2,$3*
1,1,$1+$1,$4,$5*
1,1,$1+$1,$6,$7*
1,1,$1+$1,$8,$9*
0 Add four rect primitives between the rounded corners*
20,1,$1+$1,$2,$3,$4,$5,0*
20,1,$1+$1,$4,$5,$6,$7,0*
20,1,$1+$1,$6,$7,$8,$9,0*
20,1,$1+$1,$8,$9,$2,$3,0*%
G04 Aperture macros list end*
%ADD10R,1.803400X0.533400*%
%ADD11RoundRect,0.200000X0.275000X-0.200000X0.275000X0.200000X-0.275000X0.200000X-0.275000X-0.200000X0*%
%ADD12RoundRect,0.200000X-0.200000X-0.275000X0.200000X-0.275000X0.200000X0.275000X-0.200000X0.275000X0*%
%ADD13R,1.300000X2.000000*%
%ADD14RoundRect,0.064000X0.336000X-0.496000X0.336000X0.496000X-0.336000X0.496000X-0.336000X-0.496000X0*%
%ADD15RoundRect,0.200000X0.200000X0.275000X-0.200000X0.275000X-0.200000X-0.275000X0.200000X-0.275000X0*%
%ADD16RoundRect,0.225000X0.225000X0.250000X-0.225000X0.250000X-0.225000X-0.250000X0.225000X-0.250000X0*%
%ADD17RoundRect,0.225000X-0.225000X-0.250000X0.225000X-0.250000X0.225000X0.250000X-0.225000X0.250000X0*%
%ADD18RoundRect,0.200000X-0.275000X0.200000X-0.275000X-0.200000X0.275000X-0.200000X0.275000X0.200000X0*%
%ADD19RoundRect,0.040600X0.564400X0.249400X-0.564400X0.249400X-0.564400X-0.249400X0.564400X-0.249400X0*%
%ADD20RoundRect,0.040600X-0.249400X0.564400X-0.249400X-0.564400X0.249400X-0.564400X0.249400X0.564400X0*%
%ADD21RoundRect,0.064000X-0.336000X0.496000X-0.336000X-0.496000X0.336000X-0.496000X0.336000X0.496000X0*%
%ADD22RoundRect,0.225000X-0.250000X0.225000X-0.250000X-0.225000X0.250000X-0.225000X0.250000X0.225000X0*%
%ADD23RoundRect,0.064000X0.496000X0.336000X-0.496000X0.336000X-0.496000X-0.336000X0.496000X-0.336000X0*%
%ADD24RoundRect,0.150000X0.650000X0.150000X-0.650000X0.150000X-0.650000X-0.150000X0.650000X-0.150000X0*%
%ADD25RoundRect,0.225000X0.250000X-0.225000X0.250000X0.225000X-0.250000X0.225000X-0.250000X-0.225000X0*%
G04 APERTURE END LIST*
D10*
%TO.C,U202*%
X24775200Y-96445000D03*
X24775200Y-95175000D03*
X24775200Y-93905000D03*
X24775200Y-92635000D03*
X24775200Y-91365000D03*
X24775200Y-90095000D03*
X24775200Y-88825000D03*
X24775200Y-87555000D03*
X15224800Y-87555000D03*
X15224800Y-88825000D03*
X15224800Y-90095000D03*
X15224800Y-91365000D03*
X15224800Y-92635000D03*
X15224800Y-93905000D03*
X15224800Y-95175000D03*
X15224800Y-96445000D03*
%TD*%
D11*
%TO.C,R282*%
X40000000Y-72825000D03*
X40000000Y-71175000D03*
%TD*%
D12*
%TO.C,R231*%
X12675000Y-78000000D03*
X14325000Y-78000000D03*
%TD*%
D13*
%TO.C,S22*%
X24000000Y-17510000D03*
X16000000Y-22510000D03*
X24000000Y-22510000D03*
X16000000Y-17510000D03*
%TD*%
D11*
%TO.C,R283*%
X33000000Y-70825000D03*
X33000000Y-69175000D03*
%TD*%
D13*
%TO.C,S28*%
X36000000Y-82500000D03*
X44000000Y-77500000D03*
X36000000Y-77500000D03*
X44000000Y-82500000D03*
%TD*%
D12*
%TO.C,R242*%
X16175000Y-70000000D03*
X17825000Y-70000000D03*
%TD*%
D14*
%TO.C,D25*%
X36000000Y-14730000D03*
X36000000Y-11270000D03*
%TD*%
D12*
%TO.C,R001*%
X20587200Y-53111400D03*
X22237200Y-53111400D03*
%TD*%
D15*
%TO.C,R261*%
X44825000Y-32000000D03*
X43175000Y-32000000D03*
%TD*%
D16*
%TO.C,C261*%
X44775000Y-28000000D03*
X43225000Y-28000000D03*
%TD*%
%TO.C,C251*%
X48775000Y-21000000D03*
X47225000Y-21000000D03*
%TD*%
D17*
%TO.C,C211*%
X12225000Y-42000000D03*
X13775000Y-42000000D03*
%TD*%
D18*
%TO.C,R213*%
X21000000Y-46175000D03*
X21000000Y-47825000D03*
%TD*%
D11*
%TO.C,R253*%
X36000000Y-13825000D03*
X36000000Y-12175000D03*
%TD*%
D18*
%TO.C,R243*%
X22000000Y-69175000D03*
X22000000Y-70825000D03*
%TD*%
D19*
%TO.C,U23-4*%
X10755000Y-72950000D03*
X10755000Y-72000000D03*
X10755000Y-71050000D03*
X8245000Y-71050000D03*
X8245000Y-72000000D03*
X8245000Y-72950000D03*
%TD*%
D15*
%TO.C,R12*%
X25825000Y-6500000D03*
X24175000Y-6500000D03*
%TD*%
D20*
%TO.C,U25-6*%
X48950000Y-27745000D03*
X48000000Y-27745000D03*
X47050000Y-27745000D03*
X47050000Y-30255000D03*
X48000000Y-30255000D03*
X48950000Y-30255000D03*
%TD*%
D21*
%TO.C,D24*%
X22000000Y-68270000D03*
X22000000Y-71730000D03*
%TD*%
D13*
%TO.C,S23*%
X24000000Y-77500000D03*
X16000000Y-82500000D03*
X24000000Y-82500000D03*
X16000000Y-77500000D03*
%TD*%
D15*
%TO.C,R272*%
X43825000Y-55000000D03*
X42175000Y-55000000D03*
%TD*%
%TO.C,R233*%
X10825000Y-82000000D03*
X9175000Y-82000000D03*
%TD*%
D17*
%TO.C,C221*%
X12225000Y-18000000D03*
X13775000Y-18000000D03*
%TD*%
D10*
%TO.C,U201*%
X44775200Y-96445000D03*
X44775200Y-95175000D03*
X44775200Y-93905000D03*
X44775200Y-92635000D03*
X44775200Y-91365000D03*
X44775200Y-90095000D03*
X44775200Y-88825000D03*
X44775200Y-87555000D03*
X35224800Y-87555000D03*
X35224800Y-88825000D03*
X35224800Y-90095000D03*
X35224800Y-91365000D03*
X35224800Y-92635000D03*
X35224800Y-93905000D03*
X35224800Y-95175000D03*
X35224800Y-96445000D03*
%TD*%
D14*
%TO.C,D28*%
X33000000Y-71730000D03*
X33000000Y-68270000D03*
%TD*%
D21*
%TO.C,D21*%
X21000000Y-45270000D03*
X21000000Y-48730000D03*
%TD*%
%TO.C,D22*%
X21000000Y-25270000D03*
X21000000Y-28730000D03*
%TD*%
D22*
%TO.C,C271*%
X44000000Y-49225000D03*
X44000000Y-50775000D03*
%TD*%
D15*
%TO.C,R263*%
X37825000Y-33000000D03*
X36175000Y-33000000D03*
%TD*%
D12*
%TO.C,R15*%
X24175000Y-3000000D03*
X25825000Y-3000000D03*
%TD*%
D13*
%TO.C,S25*%
X36000000Y-22500000D03*
X44000000Y-17500000D03*
X36000000Y-17500000D03*
X44000000Y-22500000D03*
%TD*%
%TO.C,S27*%
X36000000Y-62500000D03*
X44000000Y-57500000D03*
X36000000Y-57500000D03*
X44000000Y-62500000D03*
%TD*%
D12*
%TO.C,R212*%
X15175000Y-33000000D03*
X16825000Y-33000000D03*
%TD*%
D15*
%TO.C,R251*%
X48825000Y-17000000D03*
X47175000Y-17000000D03*
%TD*%
D23*
%TO.C,D26*%
X38730000Y-33000000D03*
X35270000Y-33000000D03*
%TD*%
D17*
%TO.C,C241*%
X11225000Y-66000000D03*
X12775000Y-66000000D03*
%TD*%
D16*
%TO.C,C281*%
X44775000Y-69000000D03*
X43225000Y-69000000D03*
%TD*%
D12*
%TO.C,R241*%
X11175000Y-63000000D03*
X12825000Y-63000000D03*
%TD*%
D24*
%TO.C,U1*%
X20820000Y-8885000D03*
X20820000Y-7615000D03*
X20820000Y-6345000D03*
X20820000Y-5075000D03*
X13620000Y-5075000D03*
X13620000Y-6345000D03*
X13620000Y-7615000D03*
X13620000Y-8885000D03*
%TD*%
D22*
%TO.C,C12*%
X11000000Y-9225000D03*
X11000000Y-10775000D03*
%TD*%
D12*
%TO.C,R222*%
X15175000Y-25000000D03*
X16825000Y-25000000D03*
%TD*%
D11*
%TO.C,R273*%
X36000000Y-52825000D03*
X36000000Y-51175000D03*
%TD*%
D23*
%TO.C,D23*%
X11730000Y-82000000D03*
X8270000Y-82000000D03*
%TD*%
D20*
%TO.C,U27-8*%
X49950000Y-68745000D03*
X49000000Y-68745000D03*
X48050000Y-68745000D03*
X48050000Y-71255000D03*
X49000000Y-71255000D03*
X49950000Y-71255000D03*
%TD*%
D11*
%TO.C,R262*%
X40000000Y-26825000D03*
X40000000Y-25175000D03*
%TD*%
D15*
%TO.C,R271*%
X43825000Y-46000000D03*
X42175000Y-46000000D03*
%TD*%
D13*
%TO.C,S21*%
X24000000Y-37500000D03*
X16000000Y-42500000D03*
X24000000Y-42500000D03*
X16000000Y-37500000D03*
%TD*%
D18*
%TO.C,R11*%
X15590000Y-11670000D03*
X15590000Y-13320000D03*
%TD*%
D12*
%TO.C,R232*%
X16175000Y-73000000D03*
X17825000Y-73000000D03*
%TD*%
D25*
%TO.C,C11*%
X19600000Y-13280000D03*
X19600000Y-11730000D03*
%TD*%
D12*
%TO.C,R211*%
X12175000Y-38000000D03*
X13825000Y-38000000D03*
%TD*%
D14*
%TO.C,D27*%
X36000000Y-53730000D03*
X36000000Y-50270000D03*
%TD*%
D19*
%TO.C,U21-2*%
X16255000Y-50950000D03*
X16255000Y-50000000D03*
X16255000Y-49050000D03*
X13745000Y-49050000D03*
X13745000Y-50000000D03*
X13745000Y-50950000D03*
%TD*%
D18*
%TO.C,R223*%
X21000000Y-26175000D03*
X21000000Y-27825000D03*
%TD*%
D13*
%TO.C,S26*%
X36000000Y-42500000D03*
X44000000Y-37500000D03*
X36000000Y-37500000D03*
X44000000Y-42500000D03*
%TD*%
D12*
%TO.C,R221*%
X12175000Y-22000000D03*
X13825000Y-22000000D03*
%TD*%
D13*
%TO.C,S24*%
X24000000Y-57500000D03*
X16000000Y-62500000D03*
X24000000Y-62500000D03*
X16000000Y-57500000D03*
%TD*%
D16*
%TO.C,C231*%
X10775000Y-78000000D03*
X9225000Y-78000000D03*
%TD*%
D15*
%TO.C,R281*%
X44825000Y-73000000D03*
X43175000Y-73000000D03*
%TD*%
%TO.C,R252*%
X43825000Y-15000000D03*
X42175000Y-15000000D03*
%TD*%
%TO.C,R14*%
X25825000Y-10000000D03*
X24175000Y-10000000D03*
%TD*%
M02*
