%FSLAX45Y45*%
G04 Gerber Fmt 4.5, Leading zero omitted, Abs format (unit mm)*
G04 Created by KiCad (PCBNEW (6.0.2)) date 2022-06-11 16:42:49*
%MOMM*%
%LPD*%
G01*
G04 APERTURE LIST*
%TA.AperFunction,Profile*%
%ADD10C,0.500000*%
%TD*%
%ADD11C,0.200000*%
%ADD12C,0.430000*%
G04 APERTURE END LIST*
D10*
X250000Y0D02*
X5750000Y0D01*
X5750000Y0D02*
X5750000Y-10000000D01*
X5750000Y-10000000D02*
X250000Y-10000000D01*
X250000Y-10000000D02*
X250000Y0D01*
D11*
D12*
X535000Y-285000D02*
X965000Y-715000D01*
X965000Y-285000D02*
X535000Y-715000D01*
X535000Y-9285000D02*
X965000Y-9715000D01*
X965000Y-9285000D02*
X535000Y-9715000D01*
X5035000Y-285000D02*
X5465000Y-715000D01*
X5465000Y-285000D02*
X5035000Y-715000D01*
X5035000Y-4785000D02*
X5465000Y-5215000D01*
X5465000Y-4785000D02*
X5035000Y-5215000D01*
X5035000Y-9285000D02*
X5465000Y-9715000D01*
X5465000Y-9285000D02*
X5035000Y-9715000D01*
D11*
X482619Y-10335476D02*
X482619Y-10135476D01*
X530238Y-10135476D01*
X558810Y-10145000D01*
X577857Y-10164048D01*
X587381Y-10183095D01*
X596905Y-10221190D01*
X596905Y-10249762D01*
X587381Y-10287857D01*
X577857Y-10306905D01*
X558810Y-10325952D01*
X530238Y-10335476D01*
X482619Y-10335476D01*
X682619Y-10335476D02*
X682619Y-10202143D01*
X682619Y-10240238D02*
X692143Y-10221190D01*
X701667Y-10211667D01*
X720714Y-10202143D01*
X739762Y-10202143D01*
X806428Y-10335476D02*
X806428Y-10202143D01*
X806428Y-10135476D02*
X796905Y-10145000D01*
X806428Y-10154524D01*
X815952Y-10145000D01*
X806428Y-10135476D01*
X806428Y-10154524D01*
X930238Y-10335476D02*
X911190Y-10325952D01*
X901667Y-10306905D01*
X901667Y-10135476D01*
X1035000Y-10335476D02*
X1015952Y-10325952D01*
X1006428Y-10306905D01*
X1006428Y-10135476D01*
X1263571Y-10335476D02*
X1263571Y-10135476D01*
X1330238Y-10278333D01*
X1396905Y-10135476D01*
X1396905Y-10335476D01*
X1577857Y-10335476D02*
X1577857Y-10230714D01*
X1568333Y-10211667D01*
X1549286Y-10202143D01*
X1511190Y-10202143D01*
X1492143Y-10211667D01*
X1577857Y-10325952D02*
X1558809Y-10335476D01*
X1511190Y-10335476D01*
X1492143Y-10325952D01*
X1482619Y-10306905D01*
X1482619Y-10287857D01*
X1492143Y-10268810D01*
X1511190Y-10259286D01*
X1558809Y-10259286D01*
X1577857Y-10249762D01*
X1673095Y-10202143D02*
X1673095Y-10402143D01*
X1673095Y-10211667D02*
X1692143Y-10202143D01*
X1730238Y-10202143D01*
X1749286Y-10211667D01*
X1758809Y-10221190D01*
X1768333Y-10240238D01*
X1768333Y-10297381D01*
X1758809Y-10316429D01*
X1749286Y-10325952D01*
X1730238Y-10335476D01*
X1692143Y-10335476D01*
X1673095Y-10325952D01*
X1854048Y-10316429D02*
X1863571Y-10325952D01*
X1854048Y-10335476D01*
X1844524Y-10325952D01*
X1854048Y-10316429D01*
X1854048Y-10335476D01*
X1854048Y-10211667D02*
X1863571Y-10221190D01*
X1854048Y-10230714D01*
X1844524Y-10221190D01*
X1854048Y-10211667D01*
X1854048Y-10230714D01*
X25000Y-10565000D02*
X225000Y-10765000D01*
X225000Y-10565000D02*
X25000Y-10765000D01*
X568333Y-10622143D02*
X568333Y-10755476D01*
X520714Y-10545952D02*
X473095Y-10688810D01*
X596905Y-10688810D01*
X673095Y-10736429D02*
X682619Y-10745952D01*
X673095Y-10755476D01*
X663571Y-10745952D01*
X673095Y-10736429D01*
X673095Y-10755476D01*
X749286Y-10555476D02*
X873095Y-10555476D01*
X806428Y-10631667D01*
X835000Y-10631667D01*
X854048Y-10641190D01*
X863571Y-10650714D01*
X873095Y-10669762D01*
X873095Y-10717381D01*
X863571Y-10736429D01*
X854048Y-10745952D01*
X835000Y-10755476D01*
X777857Y-10755476D01*
X758809Y-10745952D01*
X749286Y-10736429D01*
X996905Y-10555476D02*
X1015952Y-10555476D01*
X1035000Y-10565000D01*
X1044524Y-10574524D01*
X1054048Y-10593571D01*
X1063571Y-10631667D01*
X1063571Y-10679286D01*
X1054048Y-10717381D01*
X1044524Y-10736429D01*
X1035000Y-10745952D01*
X1015952Y-10755476D01*
X996905Y-10755476D01*
X977857Y-10745952D01*
X968333Y-10736429D01*
X958809Y-10717381D01*
X949286Y-10679286D01*
X949286Y-10631667D01*
X958809Y-10593571D01*
X968333Y-10574524D01*
X977857Y-10565000D01*
X996905Y-10555476D01*
X1187381Y-10555476D02*
X1206429Y-10555476D01*
X1225476Y-10565000D01*
X1235000Y-10574524D01*
X1244524Y-10593571D01*
X1254048Y-10631667D01*
X1254048Y-10679286D01*
X1244524Y-10717381D01*
X1235000Y-10736429D01*
X1225476Y-10745952D01*
X1206429Y-10755476D01*
X1187381Y-10755476D01*
X1168333Y-10745952D01*
X1158810Y-10736429D01*
X1149286Y-10717381D01*
X1139762Y-10679286D01*
X1139762Y-10631667D01*
X1149286Y-10593571D01*
X1158810Y-10574524D01*
X1168333Y-10565000D01*
X1187381Y-10555476D01*
X1339762Y-10755476D02*
X1339762Y-10622143D01*
X1339762Y-10641190D02*
X1349286Y-10631667D01*
X1368333Y-10622143D01*
X1396905Y-10622143D01*
X1415952Y-10631667D01*
X1425476Y-10650714D01*
X1425476Y-10755476D01*
X1425476Y-10650714D02*
X1435000Y-10631667D01*
X1454048Y-10622143D01*
X1482619Y-10622143D01*
X1501667Y-10631667D01*
X1511190Y-10650714D01*
X1511190Y-10755476D01*
X1606428Y-10755476D02*
X1606428Y-10622143D01*
X1606428Y-10641190D02*
X1615952Y-10631667D01*
X1635000Y-10622143D01*
X1663571Y-10622143D01*
X1682619Y-10631667D01*
X1692143Y-10650714D01*
X1692143Y-10755476D01*
X1692143Y-10650714D02*
X1701667Y-10631667D01*
X1720714Y-10622143D01*
X1749286Y-10622143D01*
X1768333Y-10631667D01*
X1777857Y-10650714D01*
X1777857Y-10755476D01*
X2168333Y-10545952D02*
X1996905Y-10803095D01*
X2425476Y-10555476D02*
X2444524Y-10555476D01*
X2463571Y-10565000D01*
X2473095Y-10574524D01*
X2482619Y-10593571D01*
X2492143Y-10631667D01*
X2492143Y-10679286D01*
X2482619Y-10717381D01*
X2473095Y-10736429D01*
X2463571Y-10745952D01*
X2444524Y-10755476D01*
X2425476Y-10755476D01*
X2406429Y-10745952D01*
X2396905Y-10736429D01*
X2387381Y-10717381D01*
X2377857Y-10679286D01*
X2377857Y-10631667D01*
X2387381Y-10593571D01*
X2396905Y-10574524D01*
X2406429Y-10565000D01*
X2425476Y-10555476D01*
X2577857Y-10736429D02*
X2587381Y-10745952D01*
X2577857Y-10755476D01*
X2568333Y-10745952D01*
X2577857Y-10736429D01*
X2577857Y-10755476D01*
X2777857Y-10755476D02*
X2663571Y-10755476D01*
X2720714Y-10755476D02*
X2720714Y-10555476D01*
X2701667Y-10584048D01*
X2682619Y-10603095D01*
X2663571Y-10612619D01*
X2949286Y-10555476D02*
X2911190Y-10555476D01*
X2892143Y-10565000D01*
X2882619Y-10574524D01*
X2863571Y-10603095D01*
X2854048Y-10641190D01*
X2854048Y-10717381D01*
X2863571Y-10736429D01*
X2873095Y-10745952D01*
X2892143Y-10755476D01*
X2930238Y-10755476D01*
X2949286Y-10745952D01*
X2958809Y-10736429D01*
X2968333Y-10717381D01*
X2968333Y-10669762D01*
X2958809Y-10650714D01*
X2949286Y-10641190D01*
X2930238Y-10631667D01*
X2892143Y-10631667D01*
X2873095Y-10641190D01*
X2863571Y-10650714D01*
X2854048Y-10669762D01*
X3063571Y-10755476D02*
X3101667Y-10755476D01*
X3120714Y-10745952D01*
X3130238Y-10736429D01*
X3149286Y-10707857D01*
X3158809Y-10669762D01*
X3158809Y-10593571D01*
X3149286Y-10574524D01*
X3139762Y-10565000D01*
X3120714Y-10555476D01*
X3082619Y-10555476D01*
X3063571Y-10565000D01*
X3054048Y-10574524D01*
X3044524Y-10593571D01*
X3044524Y-10641190D01*
X3054048Y-10660238D01*
X3063571Y-10669762D01*
X3082619Y-10679286D01*
X3120714Y-10679286D01*
X3139762Y-10669762D01*
X3149286Y-10660238D01*
X3158809Y-10641190D01*
X3225476Y-10555476D02*
X3349286Y-10555476D01*
X3282619Y-10631667D01*
X3311190Y-10631667D01*
X3330238Y-10641190D01*
X3339762Y-10650714D01*
X3349286Y-10669762D01*
X3349286Y-10717381D01*
X3339762Y-10736429D01*
X3330238Y-10745952D01*
X3311190Y-10755476D01*
X3254048Y-10755476D01*
X3235000Y-10745952D01*
X3225476Y-10736429D01*
X3425476Y-10555476D02*
X3425476Y-10593571D01*
X3501667Y-10555476D02*
X3501667Y-10593571D01*
X3796905Y-10831667D02*
X3787381Y-10822143D01*
X3768333Y-10793571D01*
X3758809Y-10774524D01*
X3749286Y-10745952D01*
X3739762Y-10698333D01*
X3739762Y-10660238D01*
X3749286Y-10612619D01*
X3758809Y-10584048D01*
X3768333Y-10565000D01*
X3787381Y-10536429D01*
X3796905Y-10526905D01*
X3968333Y-10555476D02*
X3873095Y-10555476D01*
X3863571Y-10650714D01*
X3873095Y-10641190D01*
X3892143Y-10631667D01*
X3939762Y-10631667D01*
X3958809Y-10641190D01*
X3968333Y-10650714D01*
X3977857Y-10669762D01*
X3977857Y-10717381D01*
X3968333Y-10736429D01*
X3958809Y-10745952D01*
X3939762Y-10755476D01*
X3892143Y-10755476D01*
X3873095Y-10745952D01*
X3863571Y-10736429D01*
X4215952Y-10755476D02*
X4215952Y-10555476D01*
X4301667Y-10755476D02*
X4301667Y-10650714D01*
X4292143Y-10631667D01*
X4273095Y-10622143D01*
X4244524Y-10622143D01*
X4225476Y-10631667D01*
X4215952Y-10641190D01*
X4425476Y-10755476D02*
X4406429Y-10745952D01*
X4396905Y-10736429D01*
X4387381Y-10717381D01*
X4387381Y-10660238D01*
X4396905Y-10641190D01*
X4406429Y-10631667D01*
X4425476Y-10622143D01*
X4454048Y-10622143D01*
X4473095Y-10631667D01*
X4482619Y-10641190D01*
X4492143Y-10660238D01*
X4492143Y-10717381D01*
X4482619Y-10736429D01*
X4473095Y-10745952D01*
X4454048Y-10755476D01*
X4425476Y-10755476D01*
X4606429Y-10755476D02*
X4587381Y-10745952D01*
X4577857Y-10726905D01*
X4577857Y-10555476D01*
X4758810Y-10745952D02*
X4739762Y-10755476D01*
X4701667Y-10755476D01*
X4682619Y-10745952D01*
X4673095Y-10726905D01*
X4673095Y-10650714D01*
X4682619Y-10631667D01*
X4701667Y-10622143D01*
X4739762Y-10622143D01*
X4758810Y-10631667D01*
X4768333Y-10650714D01*
X4768333Y-10669762D01*
X4673095Y-10688810D01*
X4844524Y-10745952D02*
X4863571Y-10755476D01*
X4901667Y-10755476D01*
X4920714Y-10745952D01*
X4930238Y-10726905D01*
X4930238Y-10717381D01*
X4920714Y-10698333D01*
X4901667Y-10688810D01*
X4873095Y-10688810D01*
X4854048Y-10679286D01*
X4844524Y-10660238D01*
X4844524Y-10650714D01*
X4854048Y-10631667D01*
X4873095Y-10622143D01*
X4901667Y-10622143D01*
X4920714Y-10631667D01*
X4996905Y-10831667D02*
X5006429Y-10822143D01*
X5025476Y-10793571D01*
X5035000Y-10774524D01*
X5044524Y-10745952D01*
X5054048Y-10698333D01*
X5054048Y-10660238D01*
X5044524Y-10612619D01*
X5035000Y-10584048D01*
X5025476Y-10565000D01*
X5006429Y-10536429D01*
X4996905Y-10526905D01*
X5358810Y-10831667D02*
X5349286Y-10822143D01*
X5330238Y-10793571D01*
X5320714Y-10774524D01*
X5311190Y-10745952D01*
X5301667Y-10698333D01*
X5301667Y-10660238D01*
X5311190Y-10612619D01*
X5320714Y-10584048D01*
X5330238Y-10565000D01*
X5349286Y-10536429D01*
X5358810Y-10526905D01*
X5435000Y-10622143D02*
X5435000Y-10755476D01*
X5435000Y-10641190D02*
X5444524Y-10631667D01*
X5463571Y-10622143D01*
X5492143Y-10622143D01*
X5511190Y-10631667D01*
X5520714Y-10650714D01*
X5520714Y-10755476D01*
X5644524Y-10755476D02*
X5625476Y-10745952D01*
X5615952Y-10736429D01*
X5606428Y-10717381D01*
X5606428Y-10660238D01*
X5615952Y-10641190D01*
X5625476Y-10631667D01*
X5644524Y-10622143D01*
X5673095Y-10622143D01*
X5692143Y-10631667D01*
X5701667Y-10641190D01*
X5711190Y-10660238D01*
X5711190Y-10717381D01*
X5701667Y-10736429D01*
X5692143Y-10745952D01*
X5673095Y-10755476D01*
X5644524Y-10755476D01*
X5768333Y-10622143D02*
X5844524Y-10622143D01*
X5796905Y-10555476D02*
X5796905Y-10726905D01*
X5806428Y-10745952D01*
X5825476Y-10755476D01*
X5844524Y-10755476D01*
X6063571Y-10622143D02*
X6063571Y-10822143D01*
X6063571Y-10631667D02*
X6082619Y-10622143D01*
X6120714Y-10622143D01*
X6139762Y-10631667D01*
X6149286Y-10641190D01*
X6158809Y-10660238D01*
X6158809Y-10717381D01*
X6149286Y-10736429D01*
X6139762Y-10745952D01*
X6120714Y-10755476D01*
X6082619Y-10755476D01*
X6063571Y-10745952D01*
X6273095Y-10755476D02*
X6254048Y-10745952D01*
X6244524Y-10726905D01*
X6244524Y-10555476D01*
X6435000Y-10755476D02*
X6435000Y-10650714D01*
X6425476Y-10631667D01*
X6406428Y-10622143D01*
X6368333Y-10622143D01*
X6349286Y-10631667D01*
X6435000Y-10745952D02*
X6415952Y-10755476D01*
X6368333Y-10755476D01*
X6349286Y-10745952D01*
X6339762Y-10726905D01*
X6339762Y-10707857D01*
X6349286Y-10688810D01*
X6368333Y-10679286D01*
X6415952Y-10679286D01*
X6435000Y-10669762D01*
X6501667Y-10622143D02*
X6577857Y-10622143D01*
X6530238Y-10555476D02*
X6530238Y-10726905D01*
X6539762Y-10745952D01*
X6558809Y-10755476D01*
X6577857Y-10755476D01*
X6720714Y-10745952D02*
X6701667Y-10755476D01*
X6663571Y-10755476D01*
X6644524Y-10745952D01*
X6635000Y-10726905D01*
X6635000Y-10650714D01*
X6644524Y-10631667D01*
X6663571Y-10622143D01*
X6701667Y-10622143D01*
X6720714Y-10631667D01*
X6730238Y-10650714D01*
X6730238Y-10669762D01*
X6635000Y-10688810D01*
X6901667Y-10755476D02*
X6901667Y-10555476D01*
X6901667Y-10745952D02*
X6882619Y-10755476D01*
X6844524Y-10755476D01*
X6825476Y-10745952D01*
X6815952Y-10736429D01*
X6806428Y-10717381D01*
X6806428Y-10660238D01*
X6815952Y-10641190D01*
X6825476Y-10631667D01*
X6844524Y-10622143D01*
X6882619Y-10622143D01*
X6901667Y-10631667D01*
X6977857Y-10831667D02*
X6987381Y-10822143D01*
X7006428Y-10793571D01*
X7015952Y-10774524D01*
X7025476Y-10745952D01*
X7035000Y-10698333D01*
X7035000Y-10660238D01*
X7025476Y-10612619D01*
X7015952Y-10584048D01*
X7006428Y-10565000D01*
X6987381Y-10536429D01*
X6977857Y-10526905D01*
M02*
