G04 #@! TF.GenerationSoftware,KiCad,Pcbnew,(6.0.2)*
G04 #@! TF.CreationDate,2022-04-01T12:59:17+02:00*
G04 #@! TF.ProjectId,cartteFille,63617274-7465-4466-996c-6c652e6b6963,rev?*
G04 #@! TF.SameCoordinates,Original*
G04 #@! TF.FileFunction,Legend,Top*
G04 #@! TF.FilePolarity,Positive*
%FSLAX46Y46*%
G04 Gerber Fmt 4.6, Leading zero omitted, Abs format (unit mm)*
G04 Created by KiCad (PCBNEW (6.0.2)) date 2022-04-01 12:59:17*
%MOMM*%
%LPD*%
G01*
G04 APERTURE LIST*
G04 Aperture macros list*
%AMRoundRect*
0 Rectangle with rounded corners*
0 $1 Rounding radius*
0 $2 $3 $4 $5 $6 $7 $8 $9 X,Y pos of 4 corners*
0 Add a 4 corners polygon primitive as box body*
4,1,4,$2,$3,$4,$5,$6,$7,$8,$9,$2,$3,0*
0 Add four circle primitives for the rounded corners*
1,1,$1+$1,$2,$3*
1,1,$1+$1,$4,$5*
1,1,$1+$1,$6,$7*
1,1,$1+$1,$8,$9*
0 Add four rect primitives between the rounded corners*
20,1,$1+$1,$2,$3,$4,$5,0*
20,1,$1+$1,$4,$5,$6,$7,0*
20,1,$1+$1,$6,$7,$8,$9,0*
20,1,$1+$1,$8,$9,$2,$3,0*%
G04 Aperture macros list end*
%ADD10C,0.150000*%
%ADD11C,0.152400*%
%ADD12C,0.120000*%
%ADD13C,0.127000*%
%ADD14C,0.100000*%
%ADD15C,0.254000*%
%ADD16C,0.200000*%
%ADD17R,1.803400X0.533400*%
%ADD18RoundRect,0.200000X0.275000X-0.200000X0.275000X0.200000X-0.275000X0.200000X-0.275000X-0.200000X0*%
%ADD19RoundRect,0.200000X-0.200000X-0.275000X0.200000X-0.275000X0.200000X0.275000X-0.200000X0.275000X0*%
%ADD20C,4.300000*%
%ADD21R,1.300000X2.000000*%
%ADD22RoundRect,0.064000X0.336000X-0.496000X0.336000X0.496000X-0.336000X0.496000X-0.336000X-0.496000X0*%
%ADD23RoundRect,0.050800X-0.889000X0.889000X-0.889000X-0.889000X0.889000X-0.889000X0.889000X0.889000X0*%
%ADD24C,1.879600*%
%ADD25RoundRect,0.200000X0.200000X0.275000X-0.200000X0.275000X-0.200000X-0.275000X0.200000X-0.275000X0*%
%ADD26RoundRect,0.225000X0.225000X0.250000X-0.225000X0.250000X-0.225000X-0.250000X0.225000X-0.250000X0*%
%ADD27RoundRect,0.225000X-0.225000X-0.250000X0.225000X-0.250000X0.225000X0.250000X-0.225000X0.250000X0*%
%ADD28RoundRect,0.200000X-0.275000X0.200000X-0.275000X-0.200000X0.275000X-0.200000X0.275000X0.200000X0*%
%ADD29RoundRect,0.040600X0.564400X0.249400X-0.564400X0.249400X-0.564400X-0.249400X0.564400X-0.249400X0*%
%ADD30RoundRect,0.040600X-0.249400X0.564400X-0.249400X-0.564400X0.249400X-0.564400X0.249400X0.564400X0*%
%ADD31RoundRect,0.064000X-0.336000X0.496000X-0.336000X-0.496000X0.336000X-0.496000X0.336000X0.496000X0*%
%ADD32RoundRect,0.225000X-0.250000X0.225000X-0.250000X-0.225000X0.250000X-0.225000X0.250000X0.225000X0*%
%ADD33RoundRect,0.064000X0.496000X0.336000X-0.496000X0.336000X-0.496000X-0.336000X0.496000X-0.336000X0*%
%ADD34RoundRect,0.150000X0.650000X0.150000X-0.650000X0.150000X-0.650000X-0.150000X0.650000X-0.150000X0*%
%ADD35RoundRect,0.225000X0.250000X-0.225000X0.250000X0.225000X-0.250000X0.225000X-0.250000X-0.225000X0*%
G04 APERTURE END LIST*
D10*
X29489447Y-10739428D02*
X30251352Y-10739428D01*
X29121219Y-7329514D02*
X29359314Y-7996180D01*
X29597409Y-7329514D01*
X30406933Y-7996180D02*
X30406933Y-7472371D01*
X30359314Y-7377133D01*
X30264076Y-7329514D01*
X30073600Y-7329514D01*
X29978361Y-7377133D01*
X30406933Y-7948561D02*
X30311695Y-7996180D01*
X30073600Y-7996180D01*
X29978361Y-7948561D01*
X29930742Y-7853323D01*
X29930742Y-7758085D01*
X29978361Y-7662847D01*
X30073600Y-7615228D01*
X30311695Y-7615228D01*
X30406933Y-7567609D01*
X31025980Y-7996180D02*
X30930742Y-7948561D01*
X30883123Y-7853323D01*
X30883123Y-6996180D01*
X29438647Y-3830628D02*
X30200552Y-3830628D01*
X29819600Y-4211580D02*
X29819600Y-3449676D01*
X18055714Y-91482380D02*
X18055714Y-92291904D01*
X18103333Y-92387142D01*
X18150952Y-92434761D01*
X18246190Y-92482380D01*
X18436666Y-92482380D01*
X18531904Y-92434761D01*
X18579523Y-92387142D01*
X18627142Y-92291904D01*
X18627142Y-91482380D01*
X19055714Y-91577619D02*
X19103333Y-91530000D01*
X19198571Y-91482380D01*
X19436666Y-91482380D01*
X19531904Y-91530000D01*
X19579523Y-91577619D01*
X19627142Y-91672857D01*
X19627142Y-91768095D01*
X19579523Y-91910952D01*
X19008095Y-92482380D01*
X19627142Y-92482380D01*
X20246190Y-91482380D02*
X20341428Y-91482380D01*
X20436666Y-91530000D01*
X20484285Y-91577619D01*
X20531904Y-91672857D01*
X20579523Y-91863333D01*
X20579523Y-92101428D01*
X20531904Y-92291904D01*
X20484285Y-92387142D01*
X20436666Y-92434761D01*
X20341428Y-92482380D01*
X20246190Y-92482380D01*
X20150952Y-92434761D01*
X20103333Y-92387142D01*
X20055714Y-92291904D01*
X20008095Y-92101428D01*
X20008095Y-91863333D01*
X20055714Y-91672857D01*
X20103333Y-91577619D01*
X20150952Y-91530000D01*
X20246190Y-91482380D01*
X20960476Y-91577619D02*
X21008095Y-91530000D01*
X21103333Y-91482380D01*
X21341428Y-91482380D01*
X21436666Y-91530000D01*
X21484285Y-91577619D01*
X21531904Y-91672857D01*
X21531904Y-91768095D01*
X21484285Y-91910952D01*
X20912857Y-92482380D01*
X21531904Y-92482380D01*
X38922380Y-74449047D02*
X38446190Y-74782380D01*
X38922380Y-75020476D02*
X37922380Y-75020476D01*
X37922380Y-74639523D01*
X37970000Y-74544285D01*
X38017619Y-74496666D01*
X38112857Y-74449047D01*
X38255714Y-74449047D01*
X38350952Y-74496666D01*
X38398571Y-74544285D01*
X38446190Y-74639523D01*
X38446190Y-75020476D01*
X38017619Y-74068095D02*
X37970000Y-74020476D01*
X37922380Y-73925238D01*
X37922380Y-73687142D01*
X37970000Y-73591904D01*
X38017619Y-73544285D01*
X38112857Y-73496666D01*
X38208095Y-73496666D01*
X38350952Y-73544285D01*
X38922380Y-74115714D01*
X38922380Y-73496666D01*
X38350952Y-72925238D02*
X38303333Y-73020476D01*
X38255714Y-73068095D01*
X38160476Y-73115714D01*
X38112857Y-73115714D01*
X38017619Y-73068095D01*
X37970000Y-73020476D01*
X37922380Y-72925238D01*
X37922380Y-72734761D01*
X37970000Y-72639523D01*
X38017619Y-72591904D01*
X38112857Y-72544285D01*
X38160476Y-72544285D01*
X38255714Y-72591904D01*
X38303333Y-72639523D01*
X38350952Y-72734761D01*
X38350952Y-72925238D01*
X38398571Y-73020476D01*
X38446190Y-73068095D01*
X38541428Y-73115714D01*
X38731904Y-73115714D01*
X38827142Y-73068095D01*
X38874761Y-73020476D01*
X38922380Y-72925238D01*
X38922380Y-72734761D01*
X38874761Y-72639523D01*
X38827142Y-72591904D01*
X38731904Y-72544285D01*
X38541428Y-72544285D01*
X38446190Y-72591904D01*
X38398571Y-72639523D01*
X38350952Y-72734761D01*
X38017619Y-72163333D02*
X37970000Y-72115714D01*
X37922380Y-72020476D01*
X37922380Y-71782380D01*
X37970000Y-71687142D01*
X38017619Y-71639523D01*
X38112857Y-71591904D01*
X38208095Y-71591904D01*
X38350952Y-71639523D01*
X38922380Y-72210952D01*
X38922380Y-71591904D01*
X11880952Y-77082380D02*
X11547619Y-76606190D01*
X11309523Y-77082380D02*
X11309523Y-76082380D01*
X11690476Y-76082380D01*
X11785714Y-76130000D01*
X11833333Y-76177619D01*
X11880952Y-76272857D01*
X11880952Y-76415714D01*
X11833333Y-76510952D01*
X11785714Y-76558571D01*
X11690476Y-76606190D01*
X11309523Y-76606190D01*
X12261904Y-76177619D02*
X12309523Y-76130000D01*
X12404761Y-76082380D01*
X12642857Y-76082380D01*
X12738095Y-76130000D01*
X12785714Y-76177619D01*
X12833333Y-76272857D01*
X12833333Y-76368095D01*
X12785714Y-76510952D01*
X12214285Y-77082380D01*
X12833333Y-77082380D01*
X13166666Y-76082380D02*
X13785714Y-76082380D01*
X13452380Y-76463333D01*
X13595238Y-76463333D01*
X13690476Y-76510952D01*
X13738095Y-76558571D01*
X13785714Y-76653809D01*
X13785714Y-76891904D01*
X13738095Y-76987142D01*
X13690476Y-77034761D01*
X13595238Y-77082380D01*
X13309523Y-77082380D01*
X13214285Y-77034761D01*
X13166666Y-76987142D01*
X14738095Y-77082380D02*
X14166666Y-77082380D01*
X14452380Y-77082380D02*
X14452380Y-76082380D01*
X14357142Y-76225238D01*
X14261904Y-76320476D01*
X14166666Y-76368095D01*
X8096666Y-97827619D02*
X8144285Y-97780000D01*
X8239523Y-97732380D01*
X8477619Y-97732380D01*
X8572857Y-97780000D01*
X8620476Y-97827619D01*
X8668095Y-97922857D01*
X8668095Y-98018095D01*
X8620476Y-98160952D01*
X8049047Y-98732380D01*
X8668095Y-98732380D01*
X9096666Y-98732380D02*
X9096666Y-97732380D01*
X9430000Y-98446666D01*
X9763333Y-97732380D01*
X9763333Y-98732380D01*
X10668095Y-98065714D02*
X10668095Y-98732380D01*
X10430000Y-97684761D02*
X10191904Y-98399047D01*
X10810952Y-98399047D01*
X17864761Y-21248095D02*
X17912380Y-21105238D01*
X17912380Y-20867142D01*
X17864761Y-20771904D01*
X17817142Y-20724285D01*
X17721904Y-20676666D01*
X17626666Y-20676666D01*
X17531428Y-20724285D01*
X17483809Y-20771904D01*
X17436190Y-20867142D01*
X17388571Y-21057619D01*
X17340952Y-21152857D01*
X17293333Y-21200476D01*
X17198095Y-21248095D01*
X17102857Y-21248095D01*
X17007619Y-21200476D01*
X16960000Y-21152857D01*
X16912380Y-21057619D01*
X16912380Y-20819523D01*
X16960000Y-20676666D01*
X17007619Y-20295714D02*
X16960000Y-20248095D01*
X16912380Y-20152857D01*
X16912380Y-19914761D01*
X16960000Y-19819523D01*
X17007619Y-19771904D01*
X17102857Y-19724285D01*
X17198095Y-19724285D01*
X17340952Y-19771904D01*
X17912380Y-20343333D01*
X17912380Y-19724285D01*
X17007619Y-19343333D02*
X16960000Y-19295714D01*
X16912380Y-19200476D01*
X16912380Y-18962380D01*
X16960000Y-18867142D01*
X17007619Y-18819523D01*
X17102857Y-18771904D01*
X17198095Y-18771904D01*
X17340952Y-18819523D01*
X17912380Y-19390952D01*
X17912380Y-18771904D01*
X35732980Y-70080047D02*
X35256790Y-70413380D01*
X35732980Y-70651476D02*
X34732980Y-70651476D01*
X34732980Y-70270523D01*
X34780600Y-70175285D01*
X34828219Y-70127666D01*
X34923457Y-70080047D01*
X35066314Y-70080047D01*
X35161552Y-70127666D01*
X35209171Y-70175285D01*
X35256790Y-70270523D01*
X35256790Y-70651476D01*
X34828219Y-69699095D02*
X34780600Y-69651476D01*
X34732980Y-69556238D01*
X34732980Y-69318142D01*
X34780600Y-69222904D01*
X34828219Y-69175285D01*
X34923457Y-69127666D01*
X35018695Y-69127666D01*
X35161552Y-69175285D01*
X35732980Y-69746714D01*
X35732980Y-69127666D01*
X35161552Y-68556238D02*
X35113933Y-68651476D01*
X35066314Y-68699095D01*
X34971076Y-68746714D01*
X34923457Y-68746714D01*
X34828219Y-68699095D01*
X34780600Y-68651476D01*
X34732980Y-68556238D01*
X34732980Y-68365761D01*
X34780600Y-68270523D01*
X34828219Y-68222904D01*
X34923457Y-68175285D01*
X34971076Y-68175285D01*
X35066314Y-68222904D01*
X35113933Y-68270523D01*
X35161552Y-68365761D01*
X35161552Y-68556238D01*
X35209171Y-68651476D01*
X35256790Y-68699095D01*
X35352028Y-68746714D01*
X35542504Y-68746714D01*
X35637742Y-68699095D01*
X35685361Y-68651476D01*
X35732980Y-68556238D01*
X35732980Y-68365761D01*
X35685361Y-68270523D01*
X35637742Y-68222904D01*
X35542504Y-68175285D01*
X35352028Y-68175285D01*
X35256790Y-68222904D01*
X35209171Y-68270523D01*
X35161552Y-68365761D01*
X34732980Y-67841952D02*
X34732980Y-67222904D01*
X35113933Y-67556238D01*
X35113933Y-67413380D01*
X35161552Y-67318142D01*
X35209171Y-67270523D01*
X35304409Y-67222904D01*
X35542504Y-67222904D01*
X35637742Y-67270523D01*
X35685361Y-67318142D01*
X35732980Y-67413380D01*
X35732980Y-67699095D01*
X35685361Y-67794333D01*
X35637742Y-67841952D01*
X42944761Y-81238095D02*
X42992380Y-81095238D01*
X42992380Y-80857142D01*
X42944761Y-80761904D01*
X42897142Y-80714285D01*
X42801904Y-80666666D01*
X42706666Y-80666666D01*
X42611428Y-80714285D01*
X42563809Y-80761904D01*
X42516190Y-80857142D01*
X42468571Y-81047619D01*
X42420952Y-81142857D01*
X42373333Y-81190476D01*
X42278095Y-81238095D01*
X42182857Y-81238095D01*
X42087619Y-81190476D01*
X42040000Y-81142857D01*
X41992380Y-81047619D01*
X41992380Y-80809523D01*
X42040000Y-80666666D01*
X42087619Y-80285714D02*
X42040000Y-80238095D01*
X41992380Y-80142857D01*
X41992380Y-79904761D01*
X42040000Y-79809523D01*
X42087619Y-79761904D01*
X42182857Y-79714285D01*
X42278095Y-79714285D01*
X42420952Y-79761904D01*
X42992380Y-80333333D01*
X42992380Y-79714285D01*
X42420952Y-79142857D02*
X42373333Y-79238095D01*
X42325714Y-79285714D01*
X42230476Y-79333333D01*
X42182857Y-79333333D01*
X42087619Y-79285714D01*
X42040000Y-79238095D01*
X41992380Y-79142857D01*
X41992380Y-78952380D01*
X42040000Y-78857142D01*
X42087619Y-78809523D01*
X42182857Y-78761904D01*
X42230476Y-78761904D01*
X42325714Y-78809523D01*
X42373333Y-78857142D01*
X42420952Y-78952380D01*
X42420952Y-79142857D01*
X42468571Y-79238095D01*
X42516190Y-79285714D01*
X42611428Y-79333333D01*
X42801904Y-79333333D01*
X42897142Y-79285714D01*
X42944761Y-79238095D01*
X42992380Y-79142857D01*
X42992380Y-78952380D01*
X42944761Y-78857142D01*
X42897142Y-78809523D01*
X42801904Y-78761904D01*
X42611428Y-78761904D01*
X42516190Y-78809523D01*
X42468571Y-78857142D01*
X42420952Y-78952380D01*
X12440952Y-70402380D02*
X12107619Y-69926190D01*
X11869523Y-70402380D02*
X11869523Y-69402380D01*
X12250476Y-69402380D01*
X12345714Y-69450000D01*
X12393333Y-69497619D01*
X12440952Y-69592857D01*
X12440952Y-69735714D01*
X12393333Y-69830952D01*
X12345714Y-69878571D01*
X12250476Y-69926190D01*
X11869523Y-69926190D01*
X12821904Y-69497619D02*
X12869523Y-69450000D01*
X12964761Y-69402380D01*
X13202857Y-69402380D01*
X13298095Y-69450000D01*
X13345714Y-69497619D01*
X13393333Y-69592857D01*
X13393333Y-69688095D01*
X13345714Y-69830952D01*
X12774285Y-70402380D01*
X13393333Y-70402380D01*
X14250476Y-69735714D02*
X14250476Y-70402380D01*
X14012380Y-69354761D02*
X13774285Y-70069047D01*
X14393333Y-70069047D01*
X14726666Y-69497619D02*
X14774285Y-69450000D01*
X14869523Y-69402380D01*
X15107619Y-69402380D01*
X15202857Y-69450000D01*
X15250476Y-69497619D01*
X15298095Y-69592857D01*
X15298095Y-69688095D01*
X15250476Y-69830952D01*
X14679047Y-70402380D01*
X15298095Y-70402380D01*
X39542380Y-15634285D02*
X38542380Y-15634285D01*
X38542380Y-15396190D01*
X38590000Y-15253333D01*
X38685238Y-15158095D01*
X38780476Y-15110476D01*
X38970952Y-15062857D01*
X39113809Y-15062857D01*
X39304285Y-15110476D01*
X39399523Y-15158095D01*
X39494761Y-15253333D01*
X39542380Y-15396190D01*
X39542380Y-15634285D01*
X38637619Y-14681904D02*
X38590000Y-14634285D01*
X38542380Y-14539047D01*
X38542380Y-14300952D01*
X38590000Y-14205714D01*
X38637619Y-14158095D01*
X38732857Y-14110476D01*
X38828095Y-14110476D01*
X38970952Y-14158095D01*
X39542380Y-14729523D01*
X39542380Y-14110476D01*
X38542380Y-13205714D02*
X38542380Y-13681904D01*
X39018571Y-13729523D01*
X38970952Y-13681904D01*
X38923333Y-13586666D01*
X38923333Y-13348571D01*
X38970952Y-13253333D01*
X39018571Y-13205714D01*
X39113809Y-13158095D01*
X39351904Y-13158095D01*
X39447142Y-13205714D01*
X39494761Y-13253333D01*
X39542380Y-13348571D01*
X39542380Y-13586666D01*
X39494761Y-13681904D01*
X39447142Y-13729523D01*
X28652380Y-32978571D02*
X28985714Y-32978571D01*
X29128571Y-33502380D02*
X28652380Y-33502380D01*
X28652380Y-32502380D01*
X29128571Y-32502380D01*
X29461904Y-32502380D02*
X30128571Y-33502380D01*
X30128571Y-32502380D02*
X29461904Y-33502380D01*
X30366666Y-32502380D02*
X30938095Y-32502380D01*
X30652380Y-33502380D02*
X30652380Y-32502380D01*
X31795238Y-33502380D02*
X31223809Y-33502380D01*
X31509523Y-33502380D02*
X31509523Y-32502380D01*
X31414285Y-32645238D01*
X31319047Y-32740476D01*
X31223809Y-32788095D01*
X20445552Y-52166780D02*
X20112219Y-51690590D01*
X19874123Y-52166780D02*
X19874123Y-51166780D01*
X20255076Y-51166780D01*
X20350314Y-51214400D01*
X20397933Y-51262019D01*
X20445552Y-51357257D01*
X20445552Y-51500114D01*
X20397933Y-51595352D01*
X20350314Y-51642971D01*
X20255076Y-51690590D01*
X19874123Y-51690590D01*
X21064600Y-51166780D02*
X21159838Y-51166780D01*
X21255076Y-51214400D01*
X21302695Y-51262019D01*
X21350314Y-51357257D01*
X21397933Y-51547733D01*
X21397933Y-51785828D01*
X21350314Y-51976304D01*
X21302695Y-52071542D01*
X21255076Y-52119161D01*
X21159838Y-52166780D01*
X21064600Y-52166780D01*
X20969361Y-52119161D01*
X20921742Y-52071542D01*
X20874123Y-51976304D01*
X20826504Y-51785828D01*
X20826504Y-51547733D01*
X20874123Y-51357257D01*
X20921742Y-51262019D01*
X20969361Y-51214400D01*
X21064600Y-51166780D01*
X22016980Y-51166780D02*
X22112219Y-51166780D01*
X22207457Y-51214400D01*
X22255076Y-51262019D01*
X22302695Y-51357257D01*
X22350314Y-51547733D01*
X22350314Y-51785828D01*
X22302695Y-51976304D01*
X22255076Y-52071542D01*
X22207457Y-52119161D01*
X22112219Y-52166780D01*
X22016980Y-52166780D01*
X21921742Y-52119161D01*
X21874123Y-52071542D01*
X21826504Y-51976304D01*
X21778885Y-51785828D01*
X21778885Y-51547733D01*
X21826504Y-51357257D01*
X21874123Y-51262019D01*
X21921742Y-51214400D01*
X22016980Y-51166780D01*
X23302695Y-52166780D02*
X22731266Y-52166780D01*
X23016980Y-52166780D02*
X23016980Y-51166780D01*
X22921742Y-51309638D01*
X22826504Y-51404876D01*
X22731266Y-51452495D01*
X43965952Y-34081980D02*
X43632619Y-33605790D01*
X43394523Y-34081980D02*
X43394523Y-33081980D01*
X43775476Y-33081980D01*
X43870714Y-33129600D01*
X43918333Y-33177219D01*
X43965952Y-33272457D01*
X43965952Y-33415314D01*
X43918333Y-33510552D01*
X43870714Y-33558171D01*
X43775476Y-33605790D01*
X43394523Y-33605790D01*
X44346904Y-33177219D02*
X44394523Y-33129600D01*
X44489761Y-33081980D01*
X44727857Y-33081980D01*
X44823095Y-33129600D01*
X44870714Y-33177219D01*
X44918333Y-33272457D01*
X44918333Y-33367695D01*
X44870714Y-33510552D01*
X44299285Y-34081980D01*
X44918333Y-34081980D01*
X45775476Y-33081980D02*
X45585000Y-33081980D01*
X45489761Y-33129600D01*
X45442142Y-33177219D01*
X45346904Y-33320076D01*
X45299285Y-33510552D01*
X45299285Y-33891504D01*
X45346904Y-33986742D01*
X45394523Y-34034361D01*
X45489761Y-34081980D01*
X45680238Y-34081980D01*
X45775476Y-34034361D01*
X45823095Y-33986742D01*
X45870714Y-33891504D01*
X45870714Y-33653409D01*
X45823095Y-33558171D01*
X45775476Y-33510552D01*
X45680238Y-33462933D01*
X45489761Y-33462933D01*
X45394523Y-33510552D01*
X45346904Y-33558171D01*
X45299285Y-33653409D01*
X46823095Y-34081980D02*
X46251666Y-34081980D01*
X46537380Y-34081980D02*
X46537380Y-33081980D01*
X46442142Y-33224838D01*
X46346904Y-33320076D01*
X46251666Y-33367695D01*
X42780952Y-26377142D02*
X42733333Y-26424761D01*
X42590476Y-26472380D01*
X42495238Y-26472380D01*
X42352380Y-26424761D01*
X42257142Y-26329523D01*
X42209523Y-26234285D01*
X42161904Y-26043809D01*
X42161904Y-25900952D01*
X42209523Y-25710476D01*
X42257142Y-25615238D01*
X42352380Y-25520000D01*
X42495238Y-25472380D01*
X42590476Y-25472380D01*
X42733333Y-25520000D01*
X42780952Y-25567619D01*
X43161904Y-25567619D02*
X43209523Y-25520000D01*
X43304761Y-25472380D01*
X43542857Y-25472380D01*
X43638095Y-25520000D01*
X43685714Y-25567619D01*
X43733333Y-25662857D01*
X43733333Y-25758095D01*
X43685714Y-25900952D01*
X43114285Y-26472380D01*
X43733333Y-26472380D01*
X44590476Y-25472380D02*
X44400000Y-25472380D01*
X44304761Y-25520000D01*
X44257142Y-25567619D01*
X44161904Y-25710476D01*
X44114285Y-25900952D01*
X44114285Y-26281904D01*
X44161904Y-26377142D01*
X44209523Y-26424761D01*
X44304761Y-26472380D01*
X44495238Y-26472380D01*
X44590476Y-26424761D01*
X44638095Y-26377142D01*
X44685714Y-26281904D01*
X44685714Y-26043809D01*
X44638095Y-25948571D01*
X44590476Y-25900952D01*
X44495238Y-25853333D01*
X44304761Y-25853333D01*
X44209523Y-25900952D01*
X44161904Y-25948571D01*
X44114285Y-26043809D01*
X45638095Y-26472380D02*
X45066666Y-26472380D01*
X45352380Y-26472380D02*
X45352380Y-25472380D01*
X45257142Y-25615238D01*
X45161904Y-25710476D01*
X45066666Y-25758095D01*
X50798552Y-21362942D02*
X50750933Y-21410561D01*
X50608076Y-21458180D01*
X50512838Y-21458180D01*
X50369980Y-21410561D01*
X50274742Y-21315323D01*
X50227123Y-21220085D01*
X50179504Y-21029609D01*
X50179504Y-20886752D01*
X50227123Y-20696276D01*
X50274742Y-20601038D01*
X50369980Y-20505800D01*
X50512838Y-20458180D01*
X50608076Y-20458180D01*
X50750933Y-20505800D01*
X50798552Y-20553419D01*
X51179504Y-20553419D02*
X51227123Y-20505800D01*
X51322361Y-20458180D01*
X51560457Y-20458180D01*
X51655695Y-20505800D01*
X51703314Y-20553419D01*
X51750933Y-20648657D01*
X51750933Y-20743895D01*
X51703314Y-20886752D01*
X51131885Y-21458180D01*
X51750933Y-21458180D01*
X52655695Y-20458180D02*
X52179504Y-20458180D01*
X52131885Y-20934371D01*
X52179504Y-20886752D01*
X52274742Y-20839133D01*
X52512838Y-20839133D01*
X52608076Y-20886752D01*
X52655695Y-20934371D01*
X52703314Y-21029609D01*
X52703314Y-21267704D01*
X52655695Y-21362942D01*
X52608076Y-21410561D01*
X52512838Y-21458180D01*
X52274742Y-21458180D01*
X52179504Y-21410561D01*
X52131885Y-21362942D01*
X53655695Y-21458180D02*
X53084266Y-21458180D01*
X53369980Y-21458180D02*
X53369980Y-20458180D01*
X53274742Y-20601038D01*
X53179504Y-20696276D01*
X53084266Y-20743895D01*
X12850952Y-40907142D02*
X12803333Y-40954761D01*
X12660476Y-41002380D01*
X12565238Y-41002380D01*
X12422380Y-40954761D01*
X12327142Y-40859523D01*
X12279523Y-40764285D01*
X12231904Y-40573809D01*
X12231904Y-40430952D01*
X12279523Y-40240476D01*
X12327142Y-40145238D01*
X12422380Y-40050000D01*
X12565238Y-40002380D01*
X12660476Y-40002380D01*
X12803333Y-40050000D01*
X12850952Y-40097619D01*
X13231904Y-40097619D02*
X13279523Y-40050000D01*
X13374761Y-40002380D01*
X13612857Y-40002380D01*
X13708095Y-40050000D01*
X13755714Y-40097619D01*
X13803333Y-40192857D01*
X13803333Y-40288095D01*
X13755714Y-40430952D01*
X13184285Y-41002380D01*
X13803333Y-41002380D01*
X14755714Y-41002380D02*
X14184285Y-41002380D01*
X14470000Y-41002380D02*
X14470000Y-40002380D01*
X14374761Y-40145238D01*
X14279523Y-40240476D01*
X14184285Y-40288095D01*
X15708095Y-41002380D02*
X15136666Y-41002380D01*
X15422380Y-41002380D02*
X15422380Y-40002380D01*
X15327142Y-40145238D01*
X15231904Y-40240476D01*
X15136666Y-40288095D01*
X23596666Y-50113333D02*
X23263333Y-50346666D01*
X23596666Y-50513333D02*
X22896666Y-50513333D01*
X22896666Y-50246666D01*
X22930000Y-50180000D01*
X22963333Y-50146666D01*
X23030000Y-50113333D01*
X23130000Y-50113333D01*
X23196666Y-50146666D01*
X23230000Y-50180000D01*
X23263333Y-50246666D01*
X23263333Y-50513333D01*
X22963333Y-49846666D02*
X22930000Y-49813333D01*
X22896666Y-49746666D01*
X22896666Y-49580000D01*
X22930000Y-49513333D01*
X22963333Y-49480000D01*
X23030000Y-49446666D01*
X23096666Y-49446666D01*
X23196666Y-49480000D01*
X23596666Y-49880000D01*
X23596666Y-49446666D01*
X23596666Y-48780000D02*
X23596666Y-49180000D01*
X23596666Y-48980000D02*
X22896666Y-48980000D01*
X22996666Y-49046666D01*
X23063333Y-49113333D01*
X23096666Y-49180000D01*
X22896666Y-48546666D02*
X22896666Y-48113333D01*
X23163333Y-48346666D01*
X23163333Y-48246666D01*
X23196666Y-48180000D01*
X23230000Y-48146666D01*
X23296666Y-48113333D01*
X23463333Y-48113333D01*
X23530000Y-48146666D01*
X23563333Y-48180000D01*
X23596666Y-48246666D01*
X23596666Y-48446666D01*
X23563333Y-48513333D01*
X23530000Y-48546666D01*
X38362380Y-14979047D02*
X37886190Y-15312380D01*
X38362380Y-15550476D02*
X37362380Y-15550476D01*
X37362380Y-15169523D01*
X37410000Y-15074285D01*
X37457619Y-15026666D01*
X37552857Y-14979047D01*
X37695714Y-14979047D01*
X37790952Y-15026666D01*
X37838571Y-15074285D01*
X37886190Y-15169523D01*
X37886190Y-15550476D01*
X37457619Y-14598095D02*
X37410000Y-14550476D01*
X37362380Y-14455238D01*
X37362380Y-14217142D01*
X37410000Y-14121904D01*
X37457619Y-14074285D01*
X37552857Y-14026666D01*
X37648095Y-14026666D01*
X37790952Y-14074285D01*
X38362380Y-14645714D01*
X38362380Y-14026666D01*
X37362380Y-13121904D02*
X37362380Y-13598095D01*
X37838571Y-13645714D01*
X37790952Y-13598095D01*
X37743333Y-13502857D01*
X37743333Y-13264761D01*
X37790952Y-13169523D01*
X37838571Y-13121904D01*
X37933809Y-13074285D01*
X38171904Y-13074285D01*
X38267142Y-13121904D01*
X38314761Y-13169523D01*
X38362380Y-13264761D01*
X38362380Y-13502857D01*
X38314761Y-13598095D01*
X38267142Y-13645714D01*
X37362380Y-12740952D02*
X37362380Y-12121904D01*
X37743333Y-12455238D01*
X37743333Y-12312380D01*
X37790952Y-12217142D01*
X37838571Y-12169523D01*
X37933809Y-12121904D01*
X38171904Y-12121904D01*
X38267142Y-12169523D01*
X38314761Y-12217142D01*
X38362380Y-12312380D01*
X38362380Y-12598095D01*
X38314761Y-12693333D01*
X38267142Y-12740952D01*
X20120952Y-66302380D02*
X19787619Y-65826190D01*
X19549523Y-66302380D02*
X19549523Y-65302380D01*
X19930476Y-65302380D01*
X20025714Y-65350000D01*
X20073333Y-65397619D01*
X20120952Y-65492857D01*
X20120952Y-65635714D01*
X20073333Y-65730952D01*
X20025714Y-65778571D01*
X19930476Y-65826190D01*
X19549523Y-65826190D01*
X20501904Y-65397619D02*
X20549523Y-65350000D01*
X20644761Y-65302380D01*
X20882857Y-65302380D01*
X20978095Y-65350000D01*
X21025714Y-65397619D01*
X21073333Y-65492857D01*
X21073333Y-65588095D01*
X21025714Y-65730952D01*
X20454285Y-66302380D01*
X21073333Y-66302380D01*
X21930476Y-65635714D02*
X21930476Y-66302380D01*
X21692380Y-65254761D02*
X21454285Y-65969047D01*
X22073333Y-65969047D01*
X22359047Y-65302380D02*
X22978095Y-65302380D01*
X22644761Y-65683333D01*
X22787619Y-65683333D01*
X22882857Y-65730952D01*
X22930476Y-65778571D01*
X22978095Y-65873809D01*
X22978095Y-66111904D01*
X22930476Y-66207142D01*
X22882857Y-66254761D01*
X22787619Y-66302380D01*
X22501904Y-66302380D01*
X22406666Y-66254761D01*
X22359047Y-66207142D01*
X5976666Y-69092380D02*
X5976666Y-69901904D01*
X6024285Y-69997142D01*
X6071904Y-70044761D01*
X6167142Y-70092380D01*
X6357619Y-70092380D01*
X6452857Y-70044761D01*
X6500476Y-69997142D01*
X6548095Y-69901904D01*
X6548095Y-69092380D01*
X6976666Y-69187619D02*
X7024285Y-69140000D01*
X7119523Y-69092380D01*
X7357619Y-69092380D01*
X7452857Y-69140000D01*
X7500476Y-69187619D01*
X7548095Y-69282857D01*
X7548095Y-69378095D01*
X7500476Y-69520952D01*
X6929047Y-70092380D01*
X7548095Y-70092380D01*
X7881428Y-69092380D02*
X8500476Y-69092380D01*
X8167142Y-69473333D01*
X8310000Y-69473333D01*
X8405238Y-69520952D01*
X8452857Y-69568571D01*
X8500476Y-69663809D01*
X8500476Y-69901904D01*
X8452857Y-69997142D01*
X8405238Y-70044761D01*
X8310000Y-70092380D01*
X8024285Y-70092380D01*
X7929047Y-70044761D01*
X7881428Y-69997142D01*
X8929047Y-69711428D02*
X9690952Y-69711428D01*
X10595714Y-69425714D02*
X10595714Y-70092380D01*
X10357619Y-69044761D02*
X10119523Y-69759047D01*
X10738571Y-69759047D01*
X55809047Y-89282380D02*
X56428095Y-89282380D01*
X56094761Y-89663333D01*
X56237619Y-89663333D01*
X56332857Y-89710952D01*
X56380476Y-89758571D01*
X56428095Y-89853809D01*
X56428095Y-90091904D01*
X56380476Y-90187142D01*
X56332857Y-90234761D01*
X56237619Y-90282380D01*
X55951904Y-90282380D01*
X55856666Y-90234761D01*
X55809047Y-90187142D01*
X56856666Y-90282380D02*
X56856666Y-89282380D01*
X57190000Y-89996666D01*
X57523333Y-89282380D01*
X57523333Y-90282380D01*
X58428095Y-89615714D02*
X58428095Y-90282380D01*
X58190000Y-89234761D02*
X57951904Y-89949047D01*
X58570952Y-89949047D01*
X23547142Y-5612380D02*
X23213809Y-5136190D01*
X22975714Y-5612380D02*
X22975714Y-4612380D01*
X23356666Y-4612380D01*
X23451904Y-4660000D01*
X23499523Y-4707619D01*
X23547142Y-4802857D01*
X23547142Y-4945714D01*
X23499523Y-5040952D01*
X23451904Y-5088571D01*
X23356666Y-5136190D01*
X22975714Y-5136190D01*
X24499523Y-5612380D02*
X23928095Y-5612380D01*
X24213809Y-5612380D02*
X24213809Y-4612380D01*
X24118571Y-4755238D01*
X24023333Y-4850476D01*
X23928095Y-4898095D01*
X24880476Y-4707619D02*
X24928095Y-4660000D01*
X25023333Y-4612380D01*
X25261428Y-4612380D01*
X25356666Y-4660000D01*
X25404285Y-4707619D01*
X25451904Y-4802857D01*
X25451904Y-4898095D01*
X25404285Y-5040952D01*
X24832857Y-5612380D01*
X25451904Y-5612380D01*
X49871380Y-31441733D02*
X50680904Y-31441733D01*
X50776142Y-31394114D01*
X50823761Y-31346495D01*
X50871380Y-31251257D01*
X50871380Y-31060780D01*
X50823761Y-30965542D01*
X50776142Y-30917923D01*
X50680904Y-30870304D01*
X49871380Y-30870304D01*
X49966619Y-30441733D02*
X49919000Y-30394114D01*
X49871380Y-30298876D01*
X49871380Y-30060780D01*
X49919000Y-29965542D01*
X49966619Y-29917923D01*
X50061857Y-29870304D01*
X50157095Y-29870304D01*
X50299952Y-29917923D01*
X50871380Y-30489352D01*
X50871380Y-29870304D01*
X49871380Y-28965542D02*
X49871380Y-29441733D01*
X50347571Y-29489352D01*
X50299952Y-29441733D01*
X50252333Y-29346495D01*
X50252333Y-29108400D01*
X50299952Y-29013161D01*
X50347571Y-28965542D01*
X50442809Y-28917923D01*
X50680904Y-28917923D01*
X50776142Y-28965542D01*
X50823761Y-29013161D01*
X50871380Y-29108400D01*
X50871380Y-29346495D01*
X50823761Y-29441733D01*
X50776142Y-29489352D01*
X50490428Y-28489352D02*
X50490428Y-27727447D01*
X49871380Y-26822685D02*
X49871380Y-27013161D01*
X49919000Y-27108400D01*
X49966619Y-27156019D01*
X50109476Y-27251257D01*
X50299952Y-27298876D01*
X50680904Y-27298876D01*
X50776142Y-27251257D01*
X50823761Y-27203638D01*
X50871380Y-27108400D01*
X50871380Y-26917923D01*
X50823761Y-26822685D01*
X50776142Y-26775066D01*
X50680904Y-26727447D01*
X50442809Y-26727447D01*
X50347571Y-26775066D01*
X50299952Y-26822685D01*
X50252333Y-26917923D01*
X50252333Y-27108400D01*
X50299952Y-27203638D01*
X50347571Y-27251257D01*
X50442809Y-27298876D01*
X3652380Y-33088571D02*
X3985714Y-33088571D01*
X4128571Y-33612380D02*
X3652380Y-33612380D01*
X3652380Y-32612380D01*
X4128571Y-32612380D01*
X4461904Y-32612380D02*
X5128571Y-33612380D01*
X5128571Y-32612380D02*
X4461904Y-33612380D01*
X5366666Y-32612380D02*
X5938095Y-32612380D01*
X5652380Y-33612380D02*
X5652380Y-32612380D01*
X6223809Y-32707619D02*
X6271428Y-32660000D01*
X6366666Y-32612380D01*
X6604761Y-32612380D01*
X6700000Y-32660000D01*
X6747619Y-32707619D01*
X6795238Y-32802857D01*
X6795238Y-32898095D01*
X6747619Y-33040952D01*
X6176190Y-33612380D01*
X6795238Y-33612380D01*
X20855714Y-73972380D02*
X20855714Y-72972380D01*
X21093809Y-72972380D01*
X21236666Y-73020000D01*
X21331904Y-73115238D01*
X21379523Y-73210476D01*
X21427142Y-73400952D01*
X21427142Y-73543809D01*
X21379523Y-73734285D01*
X21331904Y-73829523D01*
X21236666Y-73924761D01*
X21093809Y-73972380D01*
X20855714Y-73972380D01*
X21808095Y-73067619D02*
X21855714Y-73020000D01*
X21950952Y-72972380D01*
X22189047Y-72972380D01*
X22284285Y-73020000D01*
X22331904Y-73067619D01*
X22379523Y-73162857D01*
X22379523Y-73258095D01*
X22331904Y-73400952D01*
X21760476Y-73972380D01*
X22379523Y-73972380D01*
X23236666Y-73305714D02*
X23236666Y-73972380D01*
X22998571Y-72924761D02*
X22760476Y-73639047D01*
X23379523Y-73639047D01*
X54202857Y-54725714D02*
X54202857Y-55392380D01*
X53964761Y-54344761D02*
X53726666Y-55059047D01*
X54345714Y-55059047D01*
X54726666Y-55392380D02*
X54726666Y-54392380D01*
X55060000Y-55106666D01*
X55393333Y-54392380D01*
X55393333Y-55392380D01*
X56298095Y-54725714D02*
X56298095Y-55392380D01*
X56060000Y-54344761D02*
X55821904Y-55059047D01*
X56440952Y-55059047D01*
X18424761Y-81228095D02*
X18472380Y-81085238D01*
X18472380Y-80847142D01*
X18424761Y-80751904D01*
X18377142Y-80704285D01*
X18281904Y-80656666D01*
X18186666Y-80656666D01*
X18091428Y-80704285D01*
X18043809Y-80751904D01*
X17996190Y-80847142D01*
X17948571Y-81037619D01*
X17900952Y-81132857D01*
X17853333Y-81180476D01*
X17758095Y-81228095D01*
X17662857Y-81228095D01*
X17567619Y-81180476D01*
X17520000Y-81132857D01*
X17472380Y-81037619D01*
X17472380Y-80799523D01*
X17520000Y-80656666D01*
X17567619Y-80275714D02*
X17520000Y-80228095D01*
X17472380Y-80132857D01*
X17472380Y-79894761D01*
X17520000Y-79799523D01*
X17567619Y-79751904D01*
X17662857Y-79704285D01*
X17758095Y-79704285D01*
X17900952Y-79751904D01*
X18472380Y-80323333D01*
X18472380Y-79704285D01*
X17472380Y-79370952D02*
X17472380Y-78751904D01*
X17853333Y-79085238D01*
X17853333Y-78942380D01*
X17900952Y-78847142D01*
X17948571Y-78799523D01*
X18043809Y-78751904D01*
X18281904Y-78751904D01*
X18377142Y-78799523D01*
X18424761Y-78847142D01*
X18472380Y-78942380D01*
X18472380Y-79228095D01*
X18424761Y-79323333D01*
X18377142Y-79370952D01*
X54250476Y-9392380D02*
X53774285Y-9392380D01*
X53726666Y-9868571D01*
X53774285Y-9820952D01*
X53869523Y-9773333D01*
X54107619Y-9773333D01*
X54202857Y-9820952D01*
X54250476Y-9868571D01*
X54298095Y-9963809D01*
X54298095Y-10201904D01*
X54250476Y-10297142D01*
X54202857Y-10344761D01*
X54107619Y-10392380D01*
X53869523Y-10392380D01*
X53774285Y-10344761D01*
X53726666Y-10297142D01*
X54726666Y-10392380D02*
X54726666Y-9392380D01*
X55060000Y-10106666D01*
X55393333Y-9392380D01*
X55393333Y-10392380D01*
X56298095Y-9725714D02*
X56298095Y-10392380D01*
X56060000Y-9344761D02*
X55821904Y-10059047D01*
X56440952Y-10059047D01*
X40540952Y-54032380D02*
X40207619Y-53556190D01*
X39969523Y-54032380D02*
X39969523Y-53032380D01*
X40350476Y-53032380D01*
X40445714Y-53080000D01*
X40493333Y-53127619D01*
X40540952Y-53222857D01*
X40540952Y-53365714D01*
X40493333Y-53460952D01*
X40445714Y-53508571D01*
X40350476Y-53556190D01*
X39969523Y-53556190D01*
X40921904Y-53127619D02*
X40969523Y-53080000D01*
X41064761Y-53032380D01*
X41302857Y-53032380D01*
X41398095Y-53080000D01*
X41445714Y-53127619D01*
X41493333Y-53222857D01*
X41493333Y-53318095D01*
X41445714Y-53460952D01*
X40874285Y-54032380D01*
X41493333Y-54032380D01*
X41826666Y-53032380D02*
X42493333Y-53032380D01*
X42064761Y-54032380D01*
X42826666Y-53127619D02*
X42874285Y-53080000D01*
X42969523Y-53032380D01*
X43207619Y-53032380D01*
X43302857Y-53080000D01*
X43350476Y-53127619D01*
X43398095Y-53222857D01*
X43398095Y-53318095D01*
X43350476Y-53460952D01*
X42779047Y-54032380D01*
X43398095Y-54032380D01*
X9290952Y-84322380D02*
X8957619Y-83846190D01*
X8719523Y-84322380D02*
X8719523Y-83322380D01*
X9100476Y-83322380D01*
X9195714Y-83370000D01*
X9243333Y-83417619D01*
X9290952Y-83512857D01*
X9290952Y-83655714D01*
X9243333Y-83750952D01*
X9195714Y-83798571D01*
X9100476Y-83846190D01*
X8719523Y-83846190D01*
X9671904Y-83417619D02*
X9719523Y-83370000D01*
X9814761Y-83322380D01*
X10052857Y-83322380D01*
X10148095Y-83370000D01*
X10195714Y-83417619D01*
X10243333Y-83512857D01*
X10243333Y-83608095D01*
X10195714Y-83750952D01*
X9624285Y-84322380D01*
X10243333Y-84322380D01*
X10576666Y-83322380D02*
X11195714Y-83322380D01*
X10862380Y-83703333D01*
X11005238Y-83703333D01*
X11100476Y-83750952D01*
X11148095Y-83798571D01*
X11195714Y-83893809D01*
X11195714Y-84131904D01*
X11148095Y-84227142D01*
X11100476Y-84274761D01*
X11005238Y-84322380D01*
X10719523Y-84322380D01*
X10624285Y-84274761D01*
X10576666Y-84227142D01*
X11529047Y-83322380D02*
X12148095Y-83322380D01*
X11814761Y-83703333D01*
X11957619Y-83703333D01*
X12052857Y-83750952D01*
X12100476Y-83798571D01*
X12148095Y-83893809D01*
X12148095Y-84131904D01*
X12100476Y-84227142D01*
X12052857Y-84274761D01*
X11957619Y-84322380D01*
X11671904Y-84322380D01*
X11576666Y-84274761D01*
X11529047Y-84227142D01*
X10380952Y-16967142D02*
X10333333Y-17014761D01*
X10190476Y-17062380D01*
X10095238Y-17062380D01*
X9952380Y-17014761D01*
X9857142Y-16919523D01*
X9809523Y-16824285D01*
X9761904Y-16633809D01*
X9761904Y-16490952D01*
X9809523Y-16300476D01*
X9857142Y-16205238D01*
X9952380Y-16110000D01*
X10095238Y-16062380D01*
X10190476Y-16062380D01*
X10333333Y-16110000D01*
X10380952Y-16157619D01*
X10761904Y-16157619D02*
X10809523Y-16110000D01*
X10904761Y-16062380D01*
X11142857Y-16062380D01*
X11238095Y-16110000D01*
X11285714Y-16157619D01*
X11333333Y-16252857D01*
X11333333Y-16348095D01*
X11285714Y-16490952D01*
X10714285Y-17062380D01*
X11333333Y-17062380D01*
X11714285Y-16157619D02*
X11761904Y-16110000D01*
X11857142Y-16062380D01*
X12095238Y-16062380D01*
X12190476Y-16110000D01*
X12238095Y-16157619D01*
X12285714Y-16252857D01*
X12285714Y-16348095D01*
X12238095Y-16490952D01*
X11666666Y-17062380D01*
X12285714Y-17062380D01*
X13238095Y-17062380D02*
X12666666Y-17062380D01*
X12952380Y-17062380D02*
X12952380Y-16062380D01*
X12857142Y-16205238D01*
X12761904Y-16300476D01*
X12666666Y-16348095D01*
X38235714Y-91442380D02*
X38235714Y-92251904D01*
X38283333Y-92347142D01*
X38330952Y-92394761D01*
X38426190Y-92442380D01*
X38616666Y-92442380D01*
X38711904Y-92394761D01*
X38759523Y-92347142D01*
X38807142Y-92251904D01*
X38807142Y-91442380D01*
X39235714Y-91537619D02*
X39283333Y-91490000D01*
X39378571Y-91442380D01*
X39616666Y-91442380D01*
X39711904Y-91490000D01*
X39759523Y-91537619D01*
X39807142Y-91632857D01*
X39807142Y-91728095D01*
X39759523Y-91870952D01*
X39188095Y-92442380D01*
X39807142Y-92442380D01*
X40426190Y-91442380D02*
X40521428Y-91442380D01*
X40616666Y-91490000D01*
X40664285Y-91537619D01*
X40711904Y-91632857D01*
X40759523Y-91823333D01*
X40759523Y-92061428D01*
X40711904Y-92251904D01*
X40664285Y-92347142D01*
X40616666Y-92394761D01*
X40521428Y-92442380D01*
X40426190Y-92442380D01*
X40330952Y-92394761D01*
X40283333Y-92347142D01*
X40235714Y-92251904D01*
X40188095Y-92061428D01*
X40188095Y-91823333D01*
X40235714Y-91632857D01*
X40283333Y-91537619D01*
X40330952Y-91490000D01*
X40426190Y-91442380D01*
X41711904Y-92442380D02*
X41140476Y-92442380D01*
X41426190Y-92442380D02*
X41426190Y-91442380D01*
X41330952Y-91585238D01*
X41235714Y-91680476D01*
X41140476Y-91728095D01*
X35707580Y-73883685D02*
X34707580Y-73883685D01*
X34707580Y-73645590D01*
X34755200Y-73502733D01*
X34850438Y-73407495D01*
X34945676Y-73359876D01*
X35136152Y-73312257D01*
X35279009Y-73312257D01*
X35469485Y-73359876D01*
X35564723Y-73407495D01*
X35659961Y-73502733D01*
X35707580Y-73645590D01*
X35707580Y-73883685D01*
X34802819Y-72931304D02*
X34755200Y-72883685D01*
X34707580Y-72788447D01*
X34707580Y-72550352D01*
X34755200Y-72455114D01*
X34802819Y-72407495D01*
X34898057Y-72359876D01*
X34993295Y-72359876D01*
X35136152Y-72407495D01*
X35707580Y-72978923D01*
X35707580Y-72359876D01*
X35136152Y-71788447D02*
X35088533Y-71883685D01*
X35040914Y-71931304D01*
X34945676Y-71978923D01*
X34898057Y-71978923D01*
X34802819Y-71931304D01*
X34755200Y-71883685D01*
X34707580Y-71788447D01*
X34707580Y-71597971D01*
X34755200Y-71502733D01*
X34802819Y-71455114D01*
X34898057Y-71407495D01*
X34945676Y-71407495D01*
X35040914Y-71455114D01*
X35088533Y-71502733D01*
X35136152Y-71597971D01*
X35136152Y-71788447D01*
X35183771Y-71883685D01*
X35231390Y-71931304D01*
X35326628Y-71978923D01*
X35517104Y-71978923D01*
X35612342Y-71931304D01*
X35659961Y-71883685D01*
X35707580Y-71788447D01*
X35707580Y-71597971D01*
X35659961Y-71502733D01*
X35612342Y-71455114D01*
X35517104Y-71407495D01*
X35326628Y-71407495D01*
X35231390Y-71455114D01*
X35183771Y-71502733D01*
X35136152Y-71597971D01*
X23536666Y-47860000D02*
X22836666Y-47860000D01*
X22836666Y-47693333D01*
X22870000Y-47593333D01*
X22936666Y-47526666D01*
X23003333Y-47493333D01*
X23136666Y-47460000D01*
X23236666Y-47460000D01*
X23370000Y-47493333D01*
X23436666Y-47526666D01*
X23503333Y-47593333D01*
X23536666Y-47693333D01*
X23536666Y-47860000D01*
X22903333Y-47193333D02*
X22870000Y-47160000D01*
X22836666Y-47093333D01*
X22836666Y-46926666D01*
X22870000Y-46860000D01*
X22903333Y-46826666D01*
X22970000Y-46793333D01*
X23036666Y-46793333D01*
X23136666Y-46826666D01*
X23536666Y-47226666D01*
X23536666Y-46793333D01*
X23536666Y-46126666D02*
X23536666Y-46526666D01*
X23536666Y-46326666D02*
X22836666Y-46326666D01*
X22936666Y-46393333D01*
X23003333Y-46460000D01*
X23036666Y-46526666D01*
X23662380Y-27594285D02*
X22662380Y-27594285D01*
X22662380Y-27356190D01*
X22710000Y-27213333D01*
X22805238Y-27118095D01*
X22900476Y-27070476D01*
X23090952Y-27022857D01*
X23233809Y-27022857D01*
X23424285Y-27070476D01*
X23519523Y-27118095D01*
X23614761Y-27213333D01*
X23662380Y-27356190D01*
X23662380Y-27594285D01*
X22757619Y-26641904D02*
X22710000Y-26594285D01*
X22662380Y-26499047D01*
X22662380Y-26260952D01*
X22710000Y-26165714D01*
X22757619Y-26118095D01*
X22852857Y-26070476D01*
X22948095Y-26070476D01*
X23090952Y-26118095D01*
X23662380Y-26689523D01*
X23662380Y-26070476D01*
X22757619Y-25689523D02*
X22710000Y-25641904D01*
X22662380Y-25546666D01*
X22662380Y-25308571D01*
X22710000Y-25213333D01*
X22757619Y-25165714D01*
X22852857Y-25118095D01*
X22948095Y-25118095D01*
X23090952Y-25165714D01*
X23662380Y-25737142D01*
X23662380Y-25118095D01*
X41759142Y-51030047D02*
X41806761Y-51077666D01*
X41854380Y-51220523D01*
X41854380Y-51315761D01*
X41806761Y-51458619D01*
X41711523Y-51553857D01*
X41616285Y-51601476D01*
X41425809Y-51649095D01*
X41282952Y-51649095D01*
X41092476Y-51601476D01*
X40997238Y-51553857D01*
X40902000Y-51458619D01*
X40854380Y-51315761D01*
X40854380Y-51220523D01*
X40902000Y-51077666D01*
X40949619Y-51030047D01*
X40949619Y-50649095D02*
X40902000Y-50601476D01*
X40854380Y-50506238D01*
X40854380Y-50268142D01*
X40902000Y-50172904D01*
X40949619Y-50125285D01*
X41044857Y-50077666D01*
X41140095Y-50077666D01*
X41282952Y-50125285D01*
X41854380Y-50696714D01*
X41854380Y-50077666D01*
X40854380Y-49744333D02*
X40854380Y-49077666D01*
X41854380Y-49506238D01*
X41854380Y-48172904D02*
X41854380Y-48744333D01*
X41854380Y-48458619D02*
X40854380Y-48458619D01*
X40997238Y-48553857D01*
X41092476Y-48649095D01*
X41140095Y-48744333D01*
X35700952Y-31622380D02*
X35367619Y-31146190D01*
X35129523Y-31622380D02*
X35129523Y-30622380D01*
X35510476Y-30622380D01*
X35605714Y-30670000D01*
X35653333Y-30717619D01*
X35700952Y-30812857D01*
X35700952Y-30955714D01*
X35653333Y-31050952D01*
X35605714Y-31098571D01*
X35510476Y-31146190D01*
X35129523Y-31146190D01*
X36081904Y-30717619D02*
X36129523Y-30670000D01*
X36224761Y-30622380D01*
X36462857Y-30622380D01*
X36558095Y-30670000D01*
X36605714Y-30717619D01*
X36653333Y-30812857D01*
X36653333Y-30908095D01*
X36605714Y-31050952D01*
X36034285Y-31622380D01*
X36653333Y-31622380D01*
X37510476Y-30622380D02*
X37320000Y-30622380D01*
X37224761Y-30670000D01*
X37177142Y-30717619D01*
X37081904Y-30860476D01*
X37034285Y-31050952D01*
X37034285Y-31431904D01*
X37081904Y-31527142D01*
X37129523Y-31574761D01*
X37224761Y-31622380D01*
X37415238Y-31622380D01*
X37510476Y-31574761D01*
X37558095Y-31527142D01*
X37605714Y-31431904D01*
X37605714Y-31193809D01*
X37558095Y-31098571D01*
X37510476Y-31050952D01*
X37415238Y-31003333D01*
X37224761Y-31003333D01*
X37129523Y-31050952D01*
X37081904Y-31098571D01*
X37034285Y-31193809D01*
X37939047Y-30622380D02*
X38558095Y-30622380D01*
X38224761Y-31003333D01*
X38367619Y-31003333D01*
X38462857Y-31050952D01*
X38510476Y-31098571D01*
X38558095Y-31193809D01*
X38558095Y-31431904D01*
X38510476Y-31527142D01*
X38462857Y-31574761D01*
X38367619Y-31622380D01*
X38081904Y-31622380D01*
X37986666Y-31574761D01*
X37939047Y-31527142D01*
X24417142Y-1912380D02*
X24083809Y-1436190D01*
X23845714Y-1912380D02*
X23845714Y-912380D01*
X24226666Y-912380D01*
X24321904Y-960000D01*
X24369523Y-1007619D01*
X24417142Y-1102857D01*
X24417142Y-1245714D01*
X24369523Y-1340952D01*
X24321904Y-1388571D01*
X24226666Y-1436190D01*
X23845714Y-1436190D01*
X25369523Y-1912380D02*
X24798095Y-1912380D01*
X25083809Y-1912380D02*
X25083809Y-912380D01*
X24988571Y-1055238D01*
X24893333Y-1150476D01*
X24798095Y-1198095D01*
X26274285Y-912380D02*
X25798095Y-912380D01*
X25750476Y-1388571D01*
X25798095Y-1340952D01*
X25893333Y-1293333D01*
X26131428Y-1293333D01*
X26226666Y-1340952D01*
X26274285Y-1388571D01*
X26321904Y-1483809D01*
X26321904Y-1721904D01*
X26274285Y-1817142D01*
X26226666Y-1864761D01*
X26131428Y-1912380D01*
X25893333Y-1912380D01*
X25798095Y-1864761D01*
X25750476Y-1817142D01*
X42944761Y-21238095D02*
X42992380Y-21095238D01*
X42992380Y-20857142D01*
X42944761Y-20761904D01*
X42897142Y-20714285D01*
X42801904Y-20666666D01*
X42706666Y-20666666D01*
X42611428Y-20714285D01*
X42563809Y-20761904D01*
X42516190Y-20857142D01*
X42468571Y-21047619D01*
X42420952Y-21142857D01*
X42373333Y-21190476D01*
X42278095Y-21238095D01*
X42182857Y-21238095D01*
X42087619Y-21190476D01*
X42040000Y-21142857D01*
X41992380Y-21047619D01*
X41992380Y-20809523D01*
X42040000Y-20666666D01*
X42087619Y-20285714D02*
X42040000Y-20238095D01*
X41992380Y-20142857D01*
X41992380Y-19904761D01*
X42040000Y-19809523D01*
X42087619Y-19761904D01*
X42182857Y-19714285D01*
X42278095Y-19714285D01*
X42420952Y-19761904D01*
X42992380Y-20333333D01*
X42992380Y-19714285D01*
X41992380Y-18809523D02*
X41992380Y-19285714D01*
X42468571Y-19333333D01*
X42420952Y-19285714D01*
X42373333Y-19190476D01*
X42373333Y-18952380D01*
X42420952Y-18857142D01*
X42468571Y-18809523D01*
X42563809Y-18761904D01*
X42801904Y-18761904D01*
X42897142Y-18809523D01*
X42944761Y-18857142D01*
X42992380Y-18952380D01*
X42992380Y-19190476D01*
X42944761Y-19285714D01*
X42897142Y-19333333D01*
X42944761Y-61238095D02*
X42992380Y-61095238D01*
X42992380Y-60857142D01*
X42944761Y-60761904D01*
X42897142Y-60714285D01*
X42801904Y-60666666D01*
X42706666Y-60666666D01*
X42611428Y-60714285D01*
X42563809Y-60761904D01*
X42516190Y-60857142D01*
X42468571Y-61047619D01*
X42420952Y-61142857D01*
X42373333Y-61190476D01*
X42278095Y-61238095D01*
X42182857Y-61238095D01*
X42087619Y-61190476D01*
X42040000Y-61142857D01*
X41992380Y-61047619D01*
X41992380Y-60809523D01*
X42040000Y-60666666D01*
X42087619Y-60285714D02*
X42040000Y-60238095D01*
X41992380Y-60142857D01*
X41992380Y-59904761D01*
X42040000Y-59809523D01*
X42087619Y-59761904D01*
X42182857Y-59714285D01*
X42278095Y-59714285D01*
X42420952Y-59761904D01*
X42992380Y-60333333D01*
X42992380Y-59714285D01*
X41992380Y-59380952D02*
X41992380Y-58714285D01*
X42992380Y-59142857D01*
X13600952Y-32072380D02*
X13267619Y-31596190D01*
X13029523Y-32072380D02*
X13029523Y-31072380D01*
X13410476Y-31072380D01*
X13505714Y-31120000D01*
X13553333Y-31167619D01*
X13600952Y-31262857D01*
X13600952Y-31405714D01*
X13553333Y-31500952D01*
X13505714Y-31548571D01*
X13410476Y-31596190D01*
X13029523Y-31596190D01*
X13981904Y-31167619D02*
X14029523Y-31120000D01*
X14124761Y-31072380D01*
X14362857Y-31072380D01*
X14458095Y-31120000D01*
X14505714Y-31167619D01*
X14553333Y-31262857D01*
X14553333Y-31358095D01*
X14505714Y-31500952D01*
X13934285Y-32072380D01*
X14553333Y-32072380D01*
X15505714Y-32072380D02*
X14934285Y-32072380D01*
X15220000Y-32072380D02*
X15220000Y-31072380D01*
X15124761Y-31215238D01*
X15029523Y-31310476D01*
X14934285Y-31358095D01*
X15886666Y-31167619D02*
X15934285Y-31120000D01*
X16029523Y-31072380D01*
X16267619Y-31072380D01*
X16362857Y-31120000D01*
X16410476Y-31167619D01*
X16458095Y-31262857D01*
X16458095Y-31358095D01*
X16410476Y-31500952D01*
X15839047Y-32072380D01*
X16458095Y-32072380D01*
X50519152Y-17343380D02*
X50185819Y-16867190D01*
X49947723Y-17343380D02*
X49947723Y-16343380D01*
X50328676Y-16343380D01*
X50423914Y-16391000D01*
X50471533Y-16438619D01*
X50519152Y-16533857D01*
X50519152Y-16676714D01*
X50471533Y-16771952D01*
X50423914Y-16819571D01*
X50328676Y-16867190D01*
X49947723Y-16867190D01*
X50900104Y-16438619D02*
X50947723Y-16391000D01*
X51042961Y-16343380D01*
X51281057Y-16343380D01*
X51376295Y-16391000D01*
X51423914Y-16438619D01*
X51471533Y-16533857D01*
X51471533Y-16629095D01*
X51423914Y-16771952D01*
X50852485Y-17343380D01*
X51471533Y-17343380D01*
X52376295Y-16343380D02*
X51900104Y-16343380D01*
X51852485Y-16819571D01*
X51900104Y-16771952D01*
X51995342Y-16724333D01*
X52233438Y-16724333D01*
X52328676Y-16771952D01*
X52376295Y-16819571D01*
X52423914Y-16914809D01*
X52423914Y-17152904D01*
X52376295Y-17248142D01*
X52328676Y-17295761D01*
X52233438Y-17343380D01*
X51995342Y-17343380D01*
X51900104Y-17295761D01*
X51852485Y-17248142D01*
X53376295Y-17343380D02*
X52804866Y-17343380D01*
X53090580Y-17343380D02*
X53090580Y-16343380D01*
X52995342Y-16486238D01*
X52900104Y-16581476D01*
X52804866Y-16629095D01*
X35055714Y-30162380D02*
X35055714Y-29162380D01*
X35293809Y-29162380D01*
X35436666Y-29210000D01*
X35531904Y-29305238D01*
X35579523Y-29400476D01*
X35627142Y-29590952D01*
X35627142Y-29733809D01*
X35579523Y-29924285D01*
X35531904Y-30019523D01*
X35436666Y-30114761D01*
X35293809Y-30162380D01*
X35055714Y-30162380D01*
X36008095Y-29257619D02*
X36055714Y-29210000D01*
X36150952Y-29162380D01*
X36389047Y-29162380D01*
X36484285Y-29210000D01*
X36531904Y-29257619D01*
X36579523Y-29352857D01*
X36579523Y-29448095D01*
X36531904Y-29590952D01*
X35960476Y-30162380D01*
X36579523Y-30162380D01*
X37436666Y-29162380D02*
X37246190Y-29162380D01*
X37150952Y-29210000D01*
X37103333Y-29257619D01*
X37008095Y-29400476D01*
X36960476Y-29590952D01*
X36960476Y-29971904D01*
X37008095Y-30067142D01*
X37055714Y-30114761D01*
X37150952Y-30162380D01*
X37341428Y-30162380D01*
X37436666Y-30114761D01*
X37484285Y-30067142D01*
X37531904Y-29971904D01*
X37531904Y-29733809D01*
X37484285Y-29638571D01*
X37436666Y-29590952D01*
X37341428Y-29543333D01*
X37150952Y-29543333D01*
X37055714Y-29590952D01*
X37008095Y-29638571D01*
X36960476Y-29733809D01*
X12010952Y-67837142D02*
X11963333Y-67884761D01*
X11820476Y-67932380D01*
X11725238Y-67932380D01*
X11582380Y-67884761D01*
X11487142Y-67789523D01*
X11439523Y-67694285D01*
X11391904Y-67503809D01*
X11391904Y-67360952D01*
X11439523Y-67170476D01*
X11487142Y-67075238D01*
X11582380Y-66980000D01*
X11725238Y-66932380D01*
X11820476Y-66932380D01*
X11963333Y-66980000D01*
X12010952Y-67027619D01*
X12391904Y-67027619D02*
X12439523Y-66980000D01*
X12534761Y-66932380D01*
X12772857Y-66932380D01*
X12868095Y-66980000D01*
X12915714Y-67027619D01*
X12963333Y-67122857D01*
X12963333Y-67218095D01*
X12915714Y-67360952D01*
X12344285Y-67932380D01*
X12963333Y-67932380D01*
X13820476Y-67265714D02*
X13820476Y-67932380D01*
X13582380Y-66884761D02*
X13344285Y-67599047D01*
X13963333Y-67599047D01*
X14868095Y-67932380D02*
X14296666Y-67932380D01*
X14582380Y-67932380D02*
X14582380Y-66932380D01*
X14487142Y-67075238D01*
X14391904Y-67170476D01*
X14296666Y-67218095D01*
X42949952Y-67997342D02*
X42902333Y-68044961D01*
X42759476Y-68092580D01*
X42664238Y-68092580D01*
X42521380Y-68044961D01*
X42426142Y-67949723D01*
X42378523Y-67854485D01*
X42330904Y-67664009D01*
X42330904Y-67521152D01*
X42378523Y-67330676D01*
X42426142Y-67235438D01*
X42521380Y-67140200D01*
X42664238Y-67092580D01*
X42759476Y-67092580D01*
X42902333Y-67140200D01*
X42949952Y-67187819D01*
X43330904Y-67187819D02*
X43378523Y-67140200D01*
X43473761Y-67092580D01*
X43711857Y-67092580D01*
X43807095Y-67140200D01*
X43854714Y-67187819D01*
X43902333Y-67283057D01*
X43902333Y-67378295D01*
X43854714Y-67521152D01*
X43283285Y-68092580D01*
X43902333Y-68092580D01*
X44473761Y-67521152D02*
X44378523Y-67473533D01*
X44330904Y-67425914D01*
X44283285Y-67330676D01*
X44283285Y-67283057D01*
X44330904Y-67187819D01*
X44378523Y-67140200D01*
X44473761Y-67092580D01*
X44664238Y-67092580D01*
X44759476Y-67140200D01*
X44807095Y-67187819D01*
X44854714Y-67283057D01*
X44854714Y-67330676D01*
X44807095Y-67425914D01*
X44759476Y-67473533D01*
X44664238Y-67521152D01*
X44473761Y-67521152D01*
X44378523Y-67568771D01*
X44330904Y-67616390D01*
X44283285Y-67711628D01*
X44283285Y-67902104D01*
X44330904Y-67997342D01*
X44378523Y-68044961D01*
X44473761Y-68092580D01*
X44664238Y-68092580D01*
X44759476Y-68044961D01*
X44807095Y-67997342D01*
X44854714Y-67902104D01*
X44854714Y-67711628D01*
X44807095Y-67616390D01*
X44759476Y-67568771D01*
X44664238Y-67521152D01*
X45807095Y-68092580D02*
X45235666Y-68092580D01*
X45521380Y-68092580D02*
X45521380Y-67092580D01*
X45426142Y-67235438D01*
X45330904Y-67330676D01*
X45235666Y-67378295D01*
X10980952Y-61992380D02*
X10647619Y-61516190D01*
X10409523Y-61992380D02*
X10409523Y-60992380D01*
X10790476Y-60992380D01*
X10885714Y-61040000D01*
X10933333Y-61087619D01*
X10980952Y-61182857D01*
X10980952Y-61325714D01*
X10933333Y-61420952D01*
X10885714Y-61468571D01*
X10790476Y-61516190D01*
X10409523Y-61516190D01*
X11361904Y-61087619D02*
X11409523Y-61040000D01*
X11504761Y-60992380D01*
X11742857Y-60992380D01*
X11838095Y-61040000D01*
X11885714Y-61087619D01*
X11933333Y-61182857D01*
X11933333Y-61278095D01*
X11885714Y-61420952D01*
X11314285Y-61992380D01*
X11933333Y-61992380D01*
X12790476Y-61325714D02*
X12790476Y-61992380D01*
X12552380Y-60944761D02*
X12314285Y-61659047D01*
X12933333Y-61659047D01*
X13838095Y-61992380D02*
X13266666Y-61992380D01*
X13552380Y-61992380D02*
X13552380Y-60992380D01*
X13457142Y-61135238D01*
X13361904Y-61230476D01*
X13266666Y-61278095D01*
X16498095Y-7642380D02*
X16498095Y-8451904D01*
X16545714Y-8547142D01*
X16593333Y-8594761D01*
X16688571Y-8642380D01*
X16879047Y-8642380D01*
X16974285Y-8594761D01*
X17021904Y-8547142D01*
X17069523Y-8451904D01*
X17069523Y-7642380D01*
X18069523Y-8642380D02*
X17498095Y-8642380D01*
X17783809Y-8642380D02*
X17783809Y-7642380D01*
X17688571Y-7785238D01*
X17593333Y-7880476D01*
X17498095Y-7928095D01*
X9857142Y-10772857D02*
X9904761Y-10820476D01*
X9952380Y-10963333D01*
X9952380Y-11058571D01*
X9904761Y-11201428D01*
X9809523Y-11296666D01*
X9714285Y-11344285D01*
X9523809Y-11391904D01*
X9380952Y-11391904D01*
X9190476Y-11344285D01*
X9095238Y-11296666D01*
X9000000Y-11201428D01*
X8952380Y-11058571D01*
X8952380Y-10963333D01*
X9000000Y-10820476D01*
X9047619Y-10772857D01*
X9952380Y-9820476D02*
X9952380Y-10391904D01*
X9952380Y-10106190D02*
X8952380Y-10106190D01*
X9095238Y-10201428D01*
X9190476Y-10296666D01*
X9238095Y-10391904D01*
X9047619Y-9439523D02*
X9000000Y-9391904D01*
X8952380Y-9296666D01*
X8952380Y-9058571D01*
X9000000Y-8963333D01*
X9047619Y-8915714D01*
X9142857Y-8868095D01*
X9238095Y-8868095D01*
X9380952Y-8915714D01*
X9952380Y-9487142D01*
X9952380Y-8868095D01*
X11420952Y-25042380D02*
X11087619Y-24566190D01*
X10849523Y-25042380D02*
X10849523Y-24042380D01*
X11230476Y-24042380D01*
X11325714Y-24090000D01*
X11373333Y-24137619D01*
X11420952Y-24232857D01*
X11420952Y-24375714D01*
X11373333Y-24470952D01*
X11325714Y-24518571D01*
X11230476Y-24566190D01*
X10849523Y-24566190D01*
X11801904Y-24137619D02*
X11849523Y-24090000D01*
X11944761Y-24042380D01*
X12182857Y-24042380D01*
X12278095Y-24090000D01*
X12325714Y-24137619D01*
X12373333Y-24232857D01*
X12373333Y-24328095D01*
X12325714Y-24470952D01*
X11754285Y-25042380D01*
X12373333Y-25042380D01*
X12754285Y-24137619D02*
X12801904Y-24090000D01*
X12897142Y-24042380D01*
X13135238Y-24042380D01*
X13230476Y-24090000D01*
X13278095Y-24137619D01*
X13325714Y-24232857D01*
X13325714Y-24328095D01*
X13278095Y-24470952D01*
X12706666Y-25042380D01*
X13325714Y-25042380D01*
X13706666Y-24137619D02*
X13754285Y-24090000D01*
X13849523Y-24042380D01*
X14087619Y-24042380D01*
X14182857Y-24090000D01*
X14230476Y-24137619D01*
X14278095Y-24232857D01*
X14278095Y-24328095D01*
X14230476Y-24470952D01*
X13659047Y-25042380D01*
X14278095Y-25042380D01*
X34970952Y-49052380D02*
X34637619Y-48576190D01*
X34399523Y-49052380D02*
X34399523Y-48052380D01*
X34780476Y-48052380D01*
X34875714Y-48100000D01*
X34923333Y-48147619D01*
X34970952Y-48242857D01*
X34970952Y-48385714D01*
X34923333Y-48480952D01*
X34875714Y-48528571D01*
X34780476Y-48576190D01*
X34399523Y-48576190D01*
X35351904Y-48147619D02*
X35399523Y-48100000D01*
X35494761Y-48052380D01*
X35732857Y-48052380D01*
X35828095Y-48100000D01*
X35875714Y-48147619D01*
X35923333Y-48242857D01*
X35923333Y-48338095D01*
X35875714Y-48480952D01*
X35304285Y-49052380D01*
X35923333Y-49052380D01*
X36256666Y-48052380D02*
X36923333Y-48052380D01*
X36494761Y-49052380D01*
X37209047Y-48052380D02*
X37828095Y-48052380D01*
X37494761Y-48433333D01*
X37637619Y-48433333D01*
X37732857Y-48480952D01*
X37780476Y-48528571D01*
X37828095Y-48623809D01*
X37828095Y-48861904D01*
X37780476Y-48957142D01*
X37732857Y-49004761D01*
X37637619Y-49052380D01*
X37351904Y-49052380D01*
X37256666Y-49004761D01*
X37209047Y-48957142D01*
X14312380Y-83534285D02*
X13312380Y-83534285D01*
X13312380Y-83296190D01*
X13360000Y-83153333D01*
X13455238Y-83058095D01*
X13550476Y-83010476D01*
X13740952Y-82962857D01*
X13883809Y-82962857D01*
X14074285Y-83010476D01*
X14169523Y-83058095D01*
X14264761Y-83153333D01*
X14312380Y-83296190D01*
X14312380Y-83534285D01*
X13407619Y-82581904D02*
X13360000Y-82534285D01*
X13312380Y-82439047D01*
X13312380Y-82200952D01*
X13360000Y-82105714D01*
X13407619Y-82058095D01*
X13502857Y-82010476D01*
X13598095Y-82010476D01*
X13740952Y-82058095D01*
X14312380Y-82629523D01*
X14312380Y-82010476D01*
X13312380Y-81677142D02*
X13312380Y-81058095D01*
X13693333Y-81391428D01*
X13693333Y-81248571D01*
X13740952Y-81153333D01*
X13788571Y-81105714D01*
X13883809Y-81058095D01*
X14121904Y-81058095D01*
X14217142Y-81105714D01*
X14264761Y-81153333D01*
X14312380Y-81248571D01*
X14312380Y-81534285D01*
X14264761Y-81629523D01*
X14217142Y-81677142D01*
X48474380Y-78380933D02*
X49283904Y-78380933D01*
X49379142Y-78333314D01*
X49426761Y-78285695D01*
X49474380Y-78190457D01*
X49474380Y-77999980D01*
X49426761Y-77904742D01*
X49379142Y-77857123D01*
X49283904Y-77809504D01*
X48474380Y-77809504D01*
X48569619Y-77380933D02*
X48522000Y-77333314D01*
X48474380Y-77238076D01*
X48474380Y-76999980D01*
X48522000Y-76904742D01*
X48569619Y-76857123D01*
X48664857Y-76809504D01*
X48760095Y-76809504D01*
X48902952Y-76857123D01*
X49474380Y-77428552D01*
X49474380Y-76809504D01*
X48474380Y-76476171D02*
X48474380Y-75809504D01*
X49474380Y-76238076D01*
X49093428Y-75428552D02*
X49093428Y-74666647D01*
X48902952Y-74047600D02*
X48855333Y-74142838D01*
X48807714Y-74190457D01*
X48712476Y-74238076D01*
X48664857Y-74238076D01*
X48569619Y-74190457D01*
X48522000Y-74142838D01*
X48474380Y-74047600D01*
X48474380Y-73857123D01*
X48522000Y-73761885D01*
X48569619Y-73714266D01*
X48664857Y-73666647D01*
X48712476Y-73666647D01*
X48807714Y-73714266D01*
X48855333Y-73761885D01*
X48902952Y-73857123D01*
X48902952Y-74047600D01*
X48950571Y-74142838D01*
X48998190Y-74190457D01*
X49093428Y-74238076D01*
X49283904Y-74238076D01*
X49379142Y-74190457D01*
X49426761Y-74142838D01*
X49474380Y-74047600D01*
X49474380Y-73857123D01*
X49426761Y-73761885D01*
X49379142Y-73714266D01*
X49283904Y-73666647D01*
X49093428Y-73666647D01*
X48998190Y-73714266D01*
X48950571Y-73761885D01*
X48902952Y-73857123D01*
X38247580Y-28322447D02*
X37771390Y-28655780D01*
X38247580Y-28893876D02*
X37247580Y-28893876D01*
X37247580Y-28512923D01*
X37295200Y-28417685D01*
X37342819Y-28370066D01*
X37438057Y-28322447D01*
X37580914Y-28322447D01*
X37676152Y-28370066D01*
X37723771Y-28417685D01*
X37771390Y-28512923D01*
X37771390Y-28893876D01*
X37342819Y-27941495D02*
X37295200Y-27893876D01*
X37247580Y-27798638D01*
X37247580Y-27560542D01*
X37295200Y-27465304D01*
X37342819Y-27417685D01*
X37438057Y-27370066D01*
X37533295Y-27370066D01*
X37676152Y-27417685D01*
X38247580Y-27989114D01*
X38247580Y-27370066D01*
X37247580Y-26512923D02*
X37247580Y-26703400D01*
X37295200Y-26798638D01*
X37342819Y-26846257D01*
X37485676Y-26941495D01*
X37676152Y-26989114D01*
X38057104Y-26989114D01*
X38152342Y-26941495D01*
X38199961Y-26893876D01*
X38247580Y-26798638D01*
X38247580Y-26608161D01*
X38199961Y-26512923D01*
X38152342Y-26465304D01*
X38057104Y-26417685D01*
X37819009Y-26417685D01*
X37723771Y-26465304D01*
X37676152Y-26512923D01*
X37628533Y-26608161D01*
X37628533Y-26798638D01*
X37676152Y-26893876D01*
X37723771Y-26941495D01*
X37819009Y-26989114D01*
X37342819Y-26036733D02*
X37295200Y-25989114D01*
X37247580Y-25893876D01*
X37247580Y-25655780D01*
X37295200Y-25560542D01*
X37342819Y-25512923D01*
X37438057Y-25465304D01*
X37533295Y-25465304D01*
X37676152Y-25512923D01*
X38247580Y-26084352D01*
X38247580Y-25465304D01*
X38428752Y-46426380D02*
X38095419Y-45950190D01*
X37857323Y-46426380D02*
X37857323Y-45426380D01*
X38238276Y-45426380D01*
X38333514Y-45474000D01*
X38381133Y-45521619D01*
X38428752Y-45616857D01*
X38428752Y-45759714D01*
X38381133Y-45854952D01*
X38333514Y-45902571D01*
X38238276Y-45950190D01*
X37857323Y-45950190D01*
X38809704Y-45521619D02*
X38857323Y-45474000D01*
X38952561Y-45426380D01*
X39190657Y-45426380D01*
X39285895Y-45474000D01*
X39333514Y-45521619D01*
X39381133Y-45616857D01*
X39381133Y-45712095D01*
X39333514Y-45854952D01*
X38762085Y-46426380D01*
X39381133Y-46426380D01*
X39714466Y-45426380D02*
X40381133Y-45426380D01*
X39952561Y-46426380D01*
X41285895Y-46426380D02*
X40714466Y-46426380D01*
X41000180Y-46426380D02*
X41000180Y-45426380D01*
X40904942Y-45569238D01*
X40809704Y-45664476D01*
X40714466Y-45712095D01*
X18438761Y-41138095D02*
X18486380Y-40995238D01*
X18486380Y-40757142D01*
X18438761Y-40661904D01*
X18391142Y-40614285D01*
X18295904Y-40566666D01*
X18200666Y-40566666D01*
X18105428Y-40614285D01*
X18057809Y-40661904D01*
X18010190Y-40757142D01*
X17962571Y-40947619D01*
X17914952Y-41042857D01*
X17867333Y-41090476D01*
X17772095Y-41138095D01*
X17676857Y-41138095D01*
X17581619Y-41090476D01*
X17534000Y-41042857D01*
X17486380Y-40947619D01*
X17486380Y-40709523D01*
X17534000Y-40566666D01*
X17581619Y-40185714D02*
X17534000Y-40138095D01*
X17486380Y-40042857D01*
X17486380Y-39804761D01*
X17534000Y-39709523D01*
X17581619Y-39661904D01*
X17676857Y-39614285D01*
X17772095Y-39614285D01*
X17914952Y-39661904D01*
X18486380Y-40233333D01*
X18486380Y-39614285D01*
X18486380Y-38661904D02*
X18486380Y-39233333D01*
X18486380Y-38947619D02*
X17486380Y-38947619D01*
X17629238Y-39042857D01*
X17724476Y-39138095D01*
X17772095Y-39233333D01*
X15787142Y-15262380D02*
X15453809Y-14786190D01*
X15215714Y-15262380D02*
X15215714Y-14262380D01*
X15596666Y-14262380D01*
X15691904Y-14310000D01*
X15739523Y-14357619D01*
X15787142Y-14452857D01*
X15787142Y-14595714D01*
X15739523Y-14690952D01*
X15691904Y-14738571D01*
X15596666Y-14786190D01*
X15215714Y-14786190D01*
X16739523Y-15262380D02*
X16168095Y-15262380D01*
X16453809Y-15262380D02*
X16453809Y-14262380D01*
X16358571Y-14405238D01*
X16263333Y-14500476D01*
X16168095Y-14548095D01*
X17691904Y-15262380D02*
X17120476Y-15262380D01*
X17406190Y-15262380D02*
X17406190Y-14262380D01*
X17310952Y-14405238D01*
X17215714Y-14500476D01*
X17120476Y-14548095D01*
X14680952Y-71852380D02*
X14347619Y-71376190D01*
X14109523Y-71852380D02*
X14109523Y-70852380D01*
X14490476Y-70852380D01*
X14585714Y-70900000D01*
X14633333Y-70947619D01*
X14680952Y-71042857D01*
X14680952Y-71185714D01*
X14633333Y-71280952D01*
X14585714Y-71328571D01*
X14490476Y-71376190D01*
X14109523Y-71376190D01*
X15061904Y-70947619D02*
X15109523Y-70900000D01*
X15204761Y-70852380D01*
X15442857Y-70852380D01*
X15538095Y-70900000D01*
X15585714Y-70947619D01*
X15633333Y-71042857D01*
X15633333Y-71138095D01*
X15585714Y-71280952D01*
X15014285Y-71852380D01*
X15633333Y-71852380D01*
X15966666Y-70852380D02*
X16585714Y-70852380D01*
X16252380Y-71233333D01*
X16395238Y-71233333D01*
X16490476Y-71280952D01*
X16538095Y-71328571D01*
X16585714Y-71423809D01*
X16585714Y-71661904D01*
X16538095Y-71757142D01*
X16490476Y-71804761D01*
X16395238Y-71852380D01*
X16109523Y-71852380D01*
X16014285Y-71804761D01*
X15966666Y-71757142D01*
X16966666Y-70947619D02*
X17014285Y-70900000D01*
X17109523Y-70852380D01*
X17347619Y-70852380D01*
X17442857Y-70900000D01*
X17490476Y-70947619D01*
X17538095Y-71042857D01*
X17538095Y-71138095D01*
X17490476Y-71280952D01*
X16919047Y-71852380D01*
X17538095Y-71852380D01*
X19267142Y-15147142D02*
X19219523Y-15194761D01*
X19076666Y-15242380D01*
X18981428Y-15242380D01*
X18838571Y-15194761D01*
X18743333Y-15099523D01*
X18695714Y-15004285D01*
X18648095Y-14813809D01*
X18648095Y-14670952D01*
X18695714Y-14480476D01*
X18743333Y-14385238D01*
X18838571Y-14290000D01*
X18981428Y-14242380D01*
X19076666Y-14242380D01*
X19219523Y-14290000D01*
X19267142Y-14337619D01*
X20219523Y-15242380D02*
X19648095Y-15242380D01*
X19933809Y-15242380D02*
X19933809Y-14242380D01*
X19838571Y-14385238D01*
X19743333Y-14480476D01*
X19648095Y-14528095D01*
X21171904Y-15242380D02*
X20600476Y-15242380D01*
X20886190Y-15242380D02*
X20886190Y-14242380D01*
X20790952Y-14385238D01*
X20695714Y-14480476D01*
X20600476Y-14528095D01*
X11770952Y-36692380D02*
X11437619Y-36216190D01*
X11199523Y-36692380D02*
X11199523Y-35692380D01*
X11580476Y-35692380D01*
X11675714Y-35740000D01*
X11723333Y-35787619D01*
X11770952Y-35882857D01*
X11770952Y-36025714D01*
X11723333Y-36120952D01*
X11675714Y-36168571D01*
X11580476Y-36216190D01*
X11199523Y-36216190D01*
X12151904Y-35787619D02*
X12199523Y-35740000D01*
X12294761Y-35692380D01*
X12532857Y-35692380D01*
X12628095Y-35740000D01*
X12675714Y-35787619D01*
X12723333Y-35882857D01*
X12723333Y-35978095D01*
X12675714Y-36120952D01*
X12104285Y-36692380D01*
X12723333Y-36692380D01*
X13675714Y-36692380D02*
X13104285Y-36692380D01*
X13390000Y-36692380D02*
X13390000Y-35692380D01*
X13294761Y-35835238D01*
X13199523Y-35930476D01*
X13104285Y-35978095D01*
X14628095Y-36692380D02*
X14056666Y-36692380D01*
X14342380Y-36692380D02*
X14342380Y-35692380D01*
X14247142Y-35835238D01*
X14151904Y-35930476D01*
X14056666Y-35978095D01*
X36425714Y-56092380D02*
X36425714Y-55092380D01*
X36663809Y-55092380D01*
X36806666Y-55140000D01*
X36901904Y-55235238D01*
X36949523Y-55330476D01*
X36997142Y-55520952D01*
X36997142Y-55663809D01*
X36949523Y-55854285D01*
X36901904Y-55949523D01*
X36806666Y-56044761D01*
X36663809Y-56092380D01*
X36425714Y-56092380D01*
X37378095Y-55187619D02*
X37425714Y-55140000D01*
X37520952Y-55092380D01*
X37759047Y-55092380D01*
X37854285Y-55140000D01*
X37901904Y-55187619D01*
X37949523Y-55282857D01*
X37949523Y-55378095D01*
X37901904Y-55520952D01*
X37330476Y-56092380D01*
X37949523Y-56092380D01*
X38282857Y-55092380D02*
X38949523Y-55092380D01*
X38520952Y-56092380D01*
X14016666Y-47336666D02*
X14016666Y-47903333D01*
X14050000Y-47970000D01*
X14083333Y-48003333D01*
X14150000Y-48036666D01*
X14283333Y-48036666D01*
X14350000Y-48003333D01*
X14383333Y-47970000D01*
X14416666Y-47903333D01*
X14416666Y-47336666D01*
X14716666Y-47403333D02*
X14750000Y-47370000D01*
X14816666Y-47336666D01*
X14983333Y-47336666D01*
X15050000Y-47370000D01*
X15083333Y-47403333D01*
X15116666Y-47470000D01*
X15116666Y-47536666D01*
X15083333Y-47636666D01*
X14683333Y-48036666D01*
X15116666Y-48036666D01*
X15783333Y-48036666D02*
X15383333Y-48036666D01*
X15583333Y-48036666D02*
X15583333Y-47336666D01*
X15516666Y-47436666D01*
X15450000Y-47503333D01*
X15383333Y-47536666D01*
X16083333Y-47770000D02*
X16616666Y-47770000D01*
X16916666Y-47403333D02*
X16950000Y-47370000D01*
X17016666Y-47336666D01*
X17183333Y-47336666D01*
X17250000Y-47370000D01*
X17283333Y-47403333D01*
X17316666Y-47470000D01*
X17316666Y-47536666D01*
X17283333Y-47636666D01*
X16883333Y-48036666D01*
X17316666Y-48036666D01*
X23692380Y-30809047D02*
X23216190Y-31142380D01*
X23692380Y-31380476D02*
X22692380Y-31380476D01*
X22692380Y-30999523D01*
X22740000Y-30904285D01*
X22787619Y-30856666D01*
X22882857Y-30809047D01*
X23025714Y-30809047D01*
X23120952Y-30856666D01*
X23168571Y-30904285D01*
X23216190Y-30999523D01*
X23216190Y-31380476D01*
X22787619Y-30428095D02*
X22740000Y-30380476D01*
X22692380Y-30285238D01*
X22692380Y-30047142D01*
X22740000Y-29951904D01*
X22787619Y-29904285D01*
X22882857Y-29856666D01*
X22978095Y-29856666D01*
X23120952Y-29904285D01*
X23692380Y-30475714D01*
X23692380Y-29856666D01*
X22787619Y-29475714D02*
X22740000Y-29428095D01*
X22692380Y-29332857D01*
X22692380Y-29094761D01*
X22740000Y-28999523D01*
X22787619Y-28951904D01*
X22882857Y-28904285D01*
X22978095Y-28904285D01*
X23120952Y-28951904D01*
X23692380Y-29523333D01*
X23692380Y-28904285D01*
X22692380Y-28570952D02*
X22692380Y-27951904D01*
X23073333Y-28285238D01*
X23073333Y-28142380D01*
X23120952Y-28047142D01*
X23168571Y-27999523D01*
X23263809Y-27951904D01*
X23501904Y-27951904D01*
X23597142Y-27999523D01*
X23644761Y-28047142D01*
X23692380Y-28142380D01*
X23692380Y-28428095D01*
X23644761Y-28523333D01*
X23597142Y-28570952D01*
X42944761Y-41238095D02*
X42992380Y-41095238D01*
X42992380Y-40857142D01*
X42944761Y-40761904D01*
X42897142Y-40714285D01*
X42801904Y-40666666D01*
X42706666Y-40666666D01*
X42611428Y-40714285D01*
X42563809Y-40761904D01*
X42516190Y-40857142D01*
X42468571Y-41047619D01*
X42420952Y-41142857D01*
X42373333Y-41190476D01*
X42278095Y-41238095D01*
X42182857Y-41238095D01*
X42087619Y-41190476D01*
X42040000Y-41142857D01*
X41992380Y-41047619D01*
X41992380Y-40809523D01*
X42040000Y-40666666D01*
X42087619Y-40285714D02*
X42040000Y-40238095D01*
X41992380Y-40142857D01*
X41992380Y-39904761D01*
X42040000Y-39809523D01*
X42087619Y-39761904D01*
X42182857Y-39714285D01*
X42278095Y-39714285D01*
X42420952Y-39761904D01*
X42992380Y-40333333D01*
X42992380Y-39714285D01*
X41992380Y-38857142D02*
X41992380Y-39047619D01*
X42040000Y-39142857D01*
X42087619Y-39190476D01*
X42230476Y-39285714D01*
X42420952Y-39333333D01*
X42801904Y-39333333D01*
X42897142Y-39285714D01*
X42944761Y-39238095D01*
X42992380Y-39142857D01*
X42992380Y-38952380D01*
X42944761Y-38857142D01*
X42897142Y-38809523D01*
X42801904Y-38761904D01*
X42563809Y-38761904D01*
X42468571Y-38809523D01*
X42420952Y-38857142D01*
X42373333Y-38952380D01*
X42373333Y-39142857D01*
X42420952Y-39238095D01*
X42468571Y-39285714D01*
X42563809Y-39333333D01*
X13210952Y-21032380D02*
X12877619Y-20556190D01*
X12639523Y-21032380D02*
X12639523Y-20032380D01*
X13020476Y-20032380D01*
X13115714Y-20080000D01*
X13163333Y-20127619D01*
X13210952Y-20222857D01*
X13210952Y-20365714D01*
X13163333Y-20460952D01*
X13115714Y-20508571D01*
X13020476Y-20556190D01*
X12639523Y-20556190D01*
X13591904Y-20127619D02*
X13639523Y-20080000D01*
X13734761Y-20032380D01*
X13972857Y-20032380D01*
X14068095Y-20080000D01*
X14115714Y-20127619D01*
X14163333Y-20222857D01*
X14163333Y-20318095D01*
X14115714Y-20460952D01*
X13544285Y-21032380D01*
X14163333Y-21032380D01*
X14544285Y-20127619D02*
X14591904Y-20080000D01*
X14687142Y-20032380D01*
X14925238Y-20032380D01*
X15020476Y-20080000D01*
X15068095Y-20127619D01*
X15115714Y-20222857D01*
X15115714Y-20318095D01*
X15068095Y-20460952D01*
X14496666Y-21032380D01*
X15115714Y-21032380D01*
X16068095Y-21032380D02*
X15496666Y-21032380D01*
X15782380Y-21032380D02*
X15782380Y-20032380D01*
X15687142Y-20175238D01*
X15591904Y-20270476D01*
X15496666Y-20318095D01*
X18314761Y-61278095D02*
X18362380Y-61135238D01*
X18362380Y-60897142D01*
X18314761Y-60801904D01*
X18267142Y-60754285D01*
X18171904Y-60706666D01*
X18076666Y-60706666D01*
X17981428Y-60754285D01*
X17933809Y-60801904D01*
X17886190Y-60897142D01*
X17838571Y-61087619D01*
X17790952Y-61182857D01*
X17743333Y-61230476D01*
X17648095Y-61278095D01*
X17552857Y-61278095D01*
X17457619Y-61230476D01*
X17410000Y-61182857D01*
X17362380Y-61087619D01*
X17362380Y-60849523D01*
X17410000Y-60706666D01*
X17457619Y-60325714D02*
X17410000Y-60278095D01*
X17362380Y-60182857D01*
X17362380Y-59944761D01*
X17410000Y-59849523D01*
X17457619Y-59801904D01*
X17552857Y-59754285D01*
X17648095Y-59754285D01*
X17790952Y-59801904D01*
X18362380Y-60373333D01*
X18362380Y-59754285D01*
X17695714Y-58897142D02*
X18362380Y-58897142D01*
X17314761Y-59135238D02*
X18029047Y-59373333D01*
X18029047Y-58754285D01*
X7980952Y-77047142D02*
X7933333Y-77094761D01*
X7790476Y-77142380D01*
X7695238Y-77142380D01*
X7552380Y-77094761D01*
X7457142Y-76999523D01*
X7409523Y-76904285D01*
X7361904Y-76713809D01*
X7361904Y-76570952D01*
X7409523Y-76380476D01*
X7457142Y-76285238D01*
X7552380Y-76190000D01*
X7695238Y-76142380D01*
X7790476Y-76142380D01*
X7933333Y-76190000D01*
X7980952Y-76237619D01*
X8361904Y-76237619D02*
X8409523Y-76190000D01*
X8504761Y-76142380D01*
X8742857Y-76142380D01*
X8838095Y-76190000D01*
X8885714Y-76237619D01*
X8933333Y-76332857D01*
X8933333Y-76428095D01*
X8885714Y-76570952D01*
X8314285Y-77142380D01*
X8933333Y-77142380D01*
X9266666Y-76142380D02*
X9885714Y-76142380D01*
X9552380Y-76523333D01*
X9695238Y-76523333D01*
X9790476Y-76570952D01*
X9838095Y-76618571D01*
X9885714Y-76713809D01*
X9885714Y-76951904D01*
X9838095Y-77047142D01*
X9790476Y-77094761D01*
X9695238Y-77142380D01*
X9409523Y-77142380D01*
X9314285Y-77094761D01*
X9266666Y-77047142D01*
X10838095Y-77142380D02*
X10266666Y-77142380D01*
X10552380Y-77142380D02*
X10552380Y-76142380D01*
X10457142Y-76285238D01*
X10361904Y-76380476D01*
X10266666Y-76428095D01*
X46731180Y-73966247D02*
X46254990Y-74299580D01*
X46731180Y-74537676D02*
X45731180Y-74537676D01*
X45731180Y-74156723D01*
X45778800Y-74061485D01*
X45826419Y-74013866D01*
X45921657Y-73966247D01*
X46064514Y-73966247D01*
X46159752Y-74013866D01*
X46207371Y-74061485D01*
X46254990Y-74156723D01*
X46254990Y-74537676D01*
X45826419Y-73585295D02*
X45778800Y-73537676D01*
X45731180Y-73442438D01*
X45731180Y-73204342D01*
X45778800Y-73109104D01*
X45826419Y-73061485D01*
X45921657Y-73013866D01*
X46016895Y-73013866D01*
X46159752Y-73061485D01*
X46731180Y-73632914D01*
X46731180Y-73013866D01*
X46159752Y-72442438D02*
X46112133Y-72537676D01*
X46064514Y-72585295D01*
X45969276Y-72632914D01*
X45921657Y-72632914D01*
X45826419Y-72585295D01*
X45778800Y-72537676D01*
X45731180Y-72442438D01*
X45731180Y-72251961D01*
X45778800Y-72156723D01*
X45826419Y-72109104D01*
X45921657Y-72061485D01*
X45969276Y-72061485D01*
X46064514Y-72109104D01*
X46112133Y-72156723D01*
X46159752Y-72251961D01*
X46159752Y-72442438D01*
X46207371Y-72537676D01*
X46254990Y-72585295D01*
X46350228Y-72632914D01*
X46540704Y-72632914D01*
X46635942Y-72585295D01*
X46683561Y-72537676D01*
X46731180Y-72442438D01*
X46731180Y-72251961D01*
X46683561Y-72156723D01*
X46635942Y-72109104D01*
X46540704Y-72061485D01*
X46350228Y-72061485D01*
X46254990Y-72109104D01*
X46207371Y-72156723D01*
X46159752Y-72251961D01*
X46731180Y-71109104D02*
X46731180Y-71680533D01*
X46731180Y-71394819D02*
X45731180Y-71394819D01*
X45874038Y-71490057D01*
X45969276Y-71585295D01*
X46016895Y-71680533D01*
X43100952Y-14102380D02*
X42767619Y-13626190D01*
X42529523Y-14102380D02*
X42529523Y-13102380D01*
X42910476Y-13102380D01*
X43005714Y-13150000D01*
X43053333Y-13197619D01*
X43100952Y-13292857D01*
X43100952Y-13435714D01*
X43053333Y-13530952D01*
X43005714Y-13578571D01*
X42910476Y-13626190D01*
X42529523Y-13626190D01*
X43481904Y-13197619D02*
X43529523Y-13150000D01*
X43624761Y-13102380D01*
X43862857Y-13102380D01*
X43958095Y-13150000D01*
X44005714Y-13197619D01*
X44053333Y-13292857D01*
X44053333Y-13388095D01*
X44005714Y-13530952D01*
X43434285Y-14102380D01*
X44053333Y-14102380D01*
X44958095Y-13102380D02*
X44481904Y-13102380D01*
X44434285Y-13578571D01*
X44481904Y-13530952D01*
X44577142Y-13483333D01*
X44815238Y-13483333D01*
X44910476Y-13530952D01*
X44958095Y-13578571D01*
X45005714Y-13673809D01*
X45005714Y-13911904D01*
X44958095Y-14007142D01*
X44910476Y-14054761D01*
X44815238Y-14102380D01*
X44577142Y-14102380D01*
X44481904Y-14054761D01*
X44434285Y-14007142D01*
X45386666Y-13197619D02*
X45434285Y-13150000D01*
X45529523Y-13102380D01*
X45767619Y-13102380D01*
X45862857Y-13150000D01*
X45910476Y-13197619D01*
X45958095Y-13292857D01*
X45958095Y-13388095D01*
X45910476Y-13530952D01*
X45339047Y-14102380D01*
X45958095Y-14102380D01*
X24327142Y-11962380D02*
X23993809Y-11486190D01*
X23755714Y-11962380D02*
X23755714Y-10962380D01*
X24136666Y-10962380D01*
X24231904Y-11010000D01*
X24279523Y-11057619D01*
X24327142Y-11152857D01*
X24327142Y-11295714D01*
X24279523Y-11390952D01*
X24231904Y-11438571D01*
X24136666Y-11486190D01*
X23755714Y-11486190D01*
X25279523Y-11962380D02*
X24708095Y-11962380D01*
X24993809Y-11962380D02*
X24993809Y-10962380D01*
X24898571Y-11105238D01*
X24803333Y-11200476D01*
X24708095Y-11248095D01*
X26136666Y-11295714D02*
X26136666Y-11962380D01*
X25898571Y-10914761D02*
X25660476Y-11629047D01*
X26279523Y-11629047D01*
X4298095Y-10392380D02*
X3726666Y-10392380D01*
X4012380Y-10392380D02*
X4012380Y-9392380D01*
X3917142Y-9535238D01*
X3821904Y-9630476D01*
X3726666Y-9678095D01*
X4726666Y-10392380D02*
X4726666Y-9392380D01*
X5060000Y-10106666D01*
X5393333Y-9392380D01*
X5393333Y-10392380D01*
X6298095Y-9725714D02*
X6298095Y-10392380D01*
X6060000Y-9344761D02*
X5821904Y-10059047D01*
X6440952Y-10059047D01*
D11*
X23810000Y-97257800D02*
X23810000Y-97029200D01*
X19695200Y-97257800D02*
X20304800Y-97257800D01*
X23810000Y-86742200D02*
X16190000Y-86742200D01*
X23810000Y-86970800D02*
X23810000Y-86742200D01*
X20304800Y-97257800D02*
X23810000Y-97257800D01*
X16190000Y-86742200D02*
X16190000Y-86970800D01*
X16190000Y-97029200D02*
X16190000Y-97257800D01*
X16190000Y-97257800D02*
X19695200Y-97257800D01*
X20304800Y-97257800D02*
G75*
G03*
X19695200Y-97257800I-304800J0D01*
G01*
D12*
X39477500Y-72237258D02*
X39477500Y-71762742D01*
X40522500Y-72237258D02*
X40522500Y-71762742D01*
X13262742Y-78522500D02*
X13737258Y-78522500D01*
X13262742Y-77477500D02*
X13737258Y-77477500D01*
D13*
X16500000Y-21210000D02*
X16500000Y-18810000D01*
X22500000Y-23510000D02*
X17500000Y-23510000D01*
X23500000Y-18810000D02*
X23500000Y-21210000D01*
X17500000Y-16510000D02*
X22500000Y-16510000D01*
D12*
X32477500Y-70237258D02*
X32477500Y-69762742D01*
X33522500Y-70237258D02*
X33522500Y-69762742D01*
D13*
X42500000Y-83500000D02*
X37500000Y-83500000D01*
X36500000Y-81200000D02*
X36500000Y-78800000D01*
X37500000Y-76500000D02*
X42500000Y-76500000D01*
X43500000Y-78800000D02*
X43500000Y-81200000D01*
D12*
X16762742Y-70522500D02*
X17237258Y-70522500D01*
X16762742Y-69477500D02*
X17237258Y-69477500D01*
D13*
X36900000Y-14350000D02*
X36900000Y-11650000D01*
D14*
X36010000Y-12640000D02*
X36010000Y-13210000D01*
X35850000Y-13040000D02*
X36170000Y-13040000D01*
D13*
X35100000Y-14350000D02*
X35100000Y-11650000D01*
X36005512Y-12978610D02*
X35900000Y-12790000D01*
X35900000Y-12790000D02*
X36110000Y-12790000D01*
X36110000Y-12790000D02*
X36005512Y-12978610D01*
G36*
X36005512Y-12978610D02*
G01*
X35900000Y-12790000D01*
X36110000Y-12790000D01*
X36005512Y-12978610D01*
G37*
X36005512Y-12978610D02*
X35900000Y-12790000D01*
X36110000Y-12790000D01*
X36005512Y-12978610D01*
D15*
X29476000Y-54330000D02*
X29222000Y-54076000D01*
X29476000Y-36550000D02*
X29222000Y-36296000D01*
X31762000Y-59156000D02*
X31508000Y-59410000D01*
X31762000Y-36296000D02*
X31508000Y-36550000D01*
X29476000Y-51790000D02*
X29222000Y-51536000D01*
X31508000Y-46710000D02*
X31762000Y-46964000D01*
X29222000Y-41376000D02*
X29222000Y-39344000D01*
X29222000Y-48996000D02*
X29222000Y-46964000D01*
X31508000Y-34010000D02*
X31762000Y-34264000D01*
X31762000Y-41884000D02*
X31762000Y-43916000D01*
X31762000Y-48996000D02*
X31508000Y-49250000D01*
X29222000Y-52044000D02*
X29476000Y-51790000D01*
X29222000Y-34264000D02*
X29476000Y-34010000D01*
X29476000Y-49250000D02*
X29222000Y-48996000D01*
X31762000Y-46456000D02*
X31508000Y-46710000D01*
X31762000Y-34010000D02*
X31762000Y-34264000D01*
X29222000Y-57124000D02*
X29476000Y-56870000D01*
X31508000Y-51790000D02*
X31762000Y-52044000D01*
X31508000Y-59410000D02*
X29476000Y-59410000D01*
X29476000Y-59410000D02*
X29222000Y-59156000D01*
X29222000Y-51536000D02*
X29222000Y-49504000D01*
X31762000Y-54584000D02*
X31762000Y-56616000D01*
X31762000Y-51536000D02*
X31508000Y-51790000D01*
X29222000Y-57124000D02*
X29476000Y-56870000D01*
X31762000Y-52044000D02*
X31762000Y-54076000D01*
X29222000Y-46964000D02*
X29476000Y-46710000D01*
X31762000Y-54076000D02*
X31508000Y-54330000D01*
X31762000Y-57124000D02*
X31762000Y-59156000D01*
X31762000Y-49504000D02*
X31762000Y-51536000D01*
X31762000Y-39344000D02*
X31762000Y-41376000D01*
X29222000Y-48996000D02*
X29222000Y-46964000D01*
X31762000Y-59156000D02*
X31508000Y-59410000D01*
X31762000Y-36804000D02*
X31762000Y-38836000D01*
X31762000Y-46964000D02*
X31762000Y-48996000D01*
X29476000Y-44170000D02*
X29222000Y-43916000D01*
X29476000Y-59410000D02*
X29222000Y-59156000D01*
X29222000Y-52044000D02*
X29476000Y-51790000D01*
X29222000Y-43916000D02*
X29222000Y-41884000D01*
X31508000Y-49250000D02*
X31762000Y-49504000D01*
X29222000Y-44424000D02*
X29476000Y-44170000D01*
X31762000Y-34264000D02*
X31762000Y-36296000D01*
X31762000Y-54076000D02*
X31508000Y-54330000D01*
X31508000Y-36550000D02*
X31762000Y-36804000D01*
X31508000Y-51790000D02*
X31762000Y-52044000D01*
X29222000Y-38836000D02*
X29222000Y-36804000D01*
X29222000Y-49504000D02*
X29476000Y-49250000D01*
X31508000Y-46710000D02*
X31762000Y-46964000D01*
X31508000Y-39090000D02*
X31762000Y-39344000D01*
X29222000Y-59156000D02*
X29222000Y-57124000D01*
X31762000Y-48996000D02*
X31508000Y-49250000D01*
X31762000Y-57124000D02*
X31762000Y-59156000D01*
X29222000Y-59156000D02*
X29222000Y-57124000D01*
X31762000Y-44424000D02*
X31762000Y-46456000D01*
X29476000Y-41630000D02*
X29222000Y-41376000D01*
X29222000Y-41884000D02*
X29476000Y-41630000D01*
X29222000Y-34518000D02*
X29222000Y-34010000D01*
X29222000Y-54076000D02*
X29222000Y-52044000D01*
X31762000Y-34010000D02*
X29222000Y-34010000D01*
X29222000Y-38836000D02*
X29476000Y-39090000D01*
X29476000Y-54330000D02*
X29222000Y-54076000D01*
X31508000Y-41630000D02*
X31762000Y-41884000D01*
X31762000Y-43916000D02*
X31508000Y-44170000D01*
X29222000Y-54584000D02*
X29476000Y-54330000D01*
X29222000Y-54076000D02*
X29222000Y-52044000D01*
X31762000Y-46964000D02*
X31762000Y-48996000D01*
X29476000Y-46710000D02*
X29222000Y-46456000D01*
X31762000Y-56616000D02*
X31508000Y-56870000D01*
X29476000Y-39090000D02*
X29222000Y-39344000D01*
X29222000Y-36296000D02*
X29222000Y-34518000D01*
X29222000Y-46456000D02*
X29222000Y-44424000D01*
X31762000Y-52044000D02*
X31762000Y-54076000D01*
X31508000Y-44170000D02*
X31762000Y-44424000D01*
X31762000Y-41376000D02*
X31508000Y-41630000D01*
X29222000Y-46964000D02*
X29476000Y-46710000D01*
X31762000Y-38836000D02*
X31508000Y-39090000D01*
X29222000Y-56616000D02*
X29222000Y-54584000D01*
X31508000Y-56870000D02*
X31762000Y-57124000D01*
X31508000Y-54330000D02*
X31762000Y-54584000D01*
X29476000Y-56870000D02*
X29222000Y-56616000D01*
X29476000Y-49250000D02*
X29222000Y-48996000D01*
X31508000Y-56870000D02*
X31762000Y-57124000D01*
X29222000Y-36804000D02*
X29476000Y-36550000D01*
D12*
X21174942Y-53633900D02*
X21649458Y-53633900D01*
X21174942Y-52588900D02*
X21649458Y-52588900D01*
X44237258Y-32522500D02*
X43762742Y-32522500D01*
X44237258Y-31477500D02*
X43762742Y-31477500D01*
X44140580Y-28510000D02*
X43859420Y-28510000D01*
X44140580Y-27490000D02*
X43859420Y-27490000D01*
X48140580Y-20490000D02*
X47859420Y-20490000D01*
X48140580Y-21510000D02*
X47859420Y-21510000D01*
X12859420Y-41490000D02*
X13140580Y-41490000D01*
X12859420Y-42510000D02*
X13140580Y-42510000D01*
X20477500Y-46762742D02*
X20477500Y-47237258D01*
X21522500Y-46762742D02*
X21522500Y-47237258D01*
X35477500Y-13237258D02*
X35477500Y-12762742D01*
X36522500Y-13237258D02*
X36522500Y-12762742D01*
X21477500Y-69762742D02*
X21477500Y-70237258D01*
X22522500Y-69762742D02*
X22522500Y-70237258D01*
D13*
X10300000Y-70440000D02*
X8700000Y-70440000D01*
X8700000Y-73560000D02*
X10300000Y-73560000D01*
D16*
X12100000Y-72950000D02*
G75*
G03*
X12100000Y-72950000I-100000J0D01*
G01*
D12*
X25237258Y-5977500D02*
X24762742Y-5977500D01*
X25237258Y-7022500D02*
X24762742Y-7022500D01*
D13*
X49560000Y-29800000D02*
X49560000Y-28200000D01*
X46440000Y-28200000D02*
X46440000Y-29800000D01*
D16*
X49770000Y-26600000D02*
G75*
G03*
X49770000Y-26600000I-100000J0D01*
G01*
D15*
X6362000Y-57124000D02*
X6362000Y-59156000D01*
X6362000Y-36296000D02*
X6108000Y-36550000D01*
X6108000Y-56870000D02*
X6362000Y-57124000D01*
X6362000Y-46964000D02*
X6362000Y-48996000D01*
X3822000Y-59156000D02*
X3822000Y-57124000D01*
X6108000Y-39090000D02*
X6362000Y-39344000D01*
X3822000Y-54076000D02*
X3822000Y-52044000D01*
X3822000Y-56616000D02*
X3822000Y-54584000D01*
X4076000Y-54330000D02*
X3822000Y-54076000D01*
X3822000Y-48996000D02*
X3822000Y-46964000D01*
X6362000Y-43916000D02*
X6108000Y-44170000D01*
X3822000Y-43916000D02*
X3822000Y-41884000D01*
X6108000Y-51790000D02*
X6362000Y-52044000D01*
X6362000Y-41376000D02*
X6108000Y-41630000D01*
X3822000Y-36804000D02*
X4076000Y-36550000D01*
X3822000Y-49504000D02*
X4076000Y-49250000D01*
X3822000Y-34264000D02*
X4076000Y-34010000D01*
X4076000Y-44170000D02*
X3822000Y-43916000D01*
X6108000Y-34010000D02*
X6362000Y-34264000D01*
X6362000Y-36804000D02*
X6362000Y-38836000D01*
X4076000Y-51790000D02*
X3822000Y-51536000D01*
X6108000Y-36550000D02*
X6362000Y-36804000D01*
X6108000Y-49250000D02*
X6362000Y-49504000D01*
X6362000Y-44424000D02*
X6362000Y-46456000D01*
X6362000Y-34010000D02*
X3822000Y-34010000D01*
X6362000Y-57124000D02*
X6362000Y-59156000D01*
X6362000Y-46964000D02*
X6362000Y-48996000D01*
X4076000Y-49250000D02*
X3822000Y-48996000D01*
X4076000Y-59410000D02*
X3822000Y-59156000D01*
X3822000Y-57124000D02*
X4076000Y-56870000D01*
X6362000Y-49504000D02*
X6362000Y-51536000D01*
X6108000Y-59410000D02*
X4076000Y-59410000D01*
X4076000Y-59410000D02*
X3822000Y-59156000D01*
X6362000Y-52044000D02*
X6362000Y-54076000D01*
X3822000Y-44424000D02*
X4076000Y-44170000D01*
X6362000Y-48996000D02*
X6108000Y-49250000D01*
X3822000Y-34518000D02*
X3822000Y-34010000D01*
X3822000Y-57124000D02*
X4076000Y-56870000D01*
X6362000Y-56616000D02*
X6108000Y-56870000D01*
X3822000Y-54584000D02*
X4076000Y-54330000D01*
X6108000Y-46710000D02*
X6362000Y-46964000D01*
X3822000Y-52044000D02*
X4076000Y-51790000D01*
X6362000Y-34264000D02*
X6362000Y-36296000D01*
X3822000Y-52044000D02*
X4076000Y-51790000D01*
X6362000Y-39344000D02*
X6362000Y-41376000D01*
X3822000Y-36296000D02*
X3822000Y-34518000D01*
X6362000Y-48996000D02*
X6108000Y-49250000D01*
X6108000Y-54330000D02*
X6362000Y-54584000D01*
X3822000Y-38836000D02*
X4076000Y-39090000D01*
X3822000Y-59156000D02*
X3822000Y-57124000D01*
X3822000Y-46964000D02*
X4076000Y-46710000D01*
X4076000Y-39090000D02*
X3822000Y-39344000D01*
X3822000Y-38836000D02*
X3822000Y-36804000D01*
X4076000Y-49250000D02*
X3822000Y-48996000D01*
X4076000Y-56870000D02*
X3822000Y-56616000D01*
X3822000Y-46964000D02*
X4076000Y-46710000D01*
X4076000Y-41630000D02*
X3822000Y-41376000D01*
X6362000Y-41884000D02*
X6362000Y-43916000D01*
X6362000Y-34010000D02*
X6362000Y-34264000D01*
X6362000Y-54584000D02*
X6362000Y-56616000D01*
X6362000Y-59156000D02*
X6108000Y-59410000D01*
X4076000Y-36550000D02*
X3822000Y-36296000D01*
X3822000Y-48996000D02*
X3822000Y-46964000D01*
X6108000Y-51790000D02*
X6362000Y-52044000D01*
X3822000Y-51536000D02*
X3822000Y-49504000D01*
X6362000Y-54076000D02*
X6108000Y-54330000D01*
X6362000Y-52044000D02*
X6362000Y-54076000D01*
X4076000Y-54330000D02*
X3822000Y-54076000D01*
X6108000Y-46710000D02*
X6362000Y-46964000D01*
X6362000Y-46456000D02*
X6108000Y-46710000D01*
X6362000Y-59156000D02*
X6108000Y-59410000D01*
X6108000Y-56870000D02*
X6362000Y-57124000D01*
X3822000Y-46456000D02*
X3822000Y-44424000D01*
X6362000Y-54076000D02*
X6108000Y-54330000D01*
X3822000Y-54076000D02*
X3822000Y-52044000D01*
X4076000Y-46710000D02*
X3822000Y-46456000D01*
X6108000Y-41630000D02*
X6362000Y-41884000D01*
X3822000Y-41884000D02*
X4076000Y-41630000D01*
X6108000Y-44170000D02*
X6362000Y-44424000D01*
X3822000Y-41376000D02*
X3822000Y-39344000D01*
X6362000Y-51536000D02*
X6108000Y-51790000D01*
X6362000Y-38836000D02*
X6108000Y-39090000D01*
D13*
X22900000Y-68650000D02*
X22900000Y-71350000D01*
X21100000Y-68650000D02*
X21100000Y-71350000D01*
D14*
X21990000Y-70360000D02*
X21990000Y-69790000D01*
X22150000Y-69960000D02*
X21830000Y-69960000D01*
D13*
X21994488Y-70021390D02*
X22100000Y-70210000D01*
X22100000Y-70210000D02*
X21890000Y-70210000D01*
X21890000Y-70210000D02*
X21994488Y-70021390D01*
G36*
X22100000Y-70210000D02*
G01*
X21890000Y-70210000D01*
X21994488Y-70021390D01*
X22100000Y-70210000D01*
G37*
X22100000Y-70210000D02*
X21890000Y-70210000D01*
X21994488Y-70021390D01*
X22100000Y-70210000D01*
X17500000Y-76500000D02*
X22500000Y-76500000D01*
X23500000Y-78800000D02*
X23500000Y-81200000D01*
X22500000Y-83500000D02*
X17500000Y-83500000D01*
X16500000Y-81200000D02*
X16500000Y-78800000D01*
D12*
X43237258Y-54477500D02*
X42762742Y-54477500D01*
X43237258Y-55522500D02*
X42762742Y-55522500D01*
X10237258Y-81477500D02*
X9762742Y-81477500D01*
X10237258Y-82522500D02*
X9762742Y-82522500D01*
X12859420Y-17490000D02*
X13140580Y-17490000D01*
X12859420Y-18510000D02*
X13140580Y-18510000D01*
D11*
X43810000Y-86742200D02*
X36190000Y-86742200D01*
X36190000Y-97029200D02*
X36190000Y-97257800D01*
X39695200Y-97257800D02*
X40304800Y-97257800D01*
X36190000Y-97257800D02*
X39695200Y-97257800D01*
X36190000Y-86742200D02*
X36190000Y-86970800D01*
X40304800Y-97257800D02*
X43810000Y-97257800D01*
X43810000Y-86970800D02*
X43810000Y-86742200D01*
X43810000Y-97257800D02*
X43810000Y-97029200D01*
X40304800Y-97257800D02*
G75*
G03*
X39695200Y-97257800I-304800J0D01*
G01*
D14*
X33010000Y-69640000D02*
X33010000Y-70210000D01*
D13*
X33900000Y-71350000D02*
X33900000Y-68650000D01*
D14*
X32850000Y-70040000D02*
X33170000Y-70040000D01*
D13*
X32100000Y-71350000D02*
X32100000Y-68650000D01*
X33005512Y-69978610D02*
X32900000Y-69790000D01*
X32900000Y-69790000D02*
X33110000Y-69790000D01*
X33110000Y-69790000D02*
X33005512Y-69978610D01*
G36*
X33005512Y-69978610D02*
G01*
X32900000Y-69790000D01*
X33110000Y-69790000D01*
X33005512Y-69978610D01*
G37*
X33005512Y-69978610D02*
X32900000Y-69790000D01*
X33110000Y-69790000D01*
X33005512Y-69978610D01*
D14*
X20990000Y-47360000D02*
X20990000Y-46790000D01*
X21150000Y-46960000D02*
X20830000Y-46960000D01*
D13*
X20100000Y-45650000D02*
X20100000Y-48350000D01*
X21900000Y-45650000D02*
X21900000Y-48350000D01*
X20994488Y-47021390D02*
X21100000Y-47210000D01*
X21100000Y-47210000D02*
X20890000Y-47210000D01*
X20890000Y-47210000D02*
X20994488Y-47021390D01*
G36*
X21100000Y-47210000D02*
G01*
X20890000Y-47210000D01*
X20994488Y-47021390D01*
X21100000Y-47210000D01*
G37*
X21100000Y-47210000D02*
X20890000Y-47210000D01*
X20994488Y-47021390D01*
X21100000Y-47210000D01*
X20100000Y-25650000D02*
X20100000Y-28350000D01*
X21900000Y-25650000D02*
X21900000Y-28350000D01*
D14*
X20990000Y-27360000D02*
X20990000Y-26790000D01*
X21150000Y-26960000D02*
X20830000Y-26960000D01*
D13*
X20994488Y-27021390D02*
X21100000Y-27210000D01*
X21100000Y-27210000D02*
X20890000Y-27210000D01*
X20890000Y-27210000D02*
X20994488Y-27021390D01*
G36*
X21100000Y-27210000D02*
G01*
X20890000Y-27210000D01*
X20994488Y-27021390D01*
X21100000Y-27210000D01*
G37*
X21100000Y-27210000D02*
X20890000Y-27210000D01*
X20994488Y-27021390D01*
X21100000Y-27210000D01*
D12*
X44510000Y-49859420D02*
X44510000Y-50140580D01*
X43490000Y-49859420D02*
X43490000Y-50140580D01*
X37237258Y-33522500D02*
X36762742Y-33522500D01*
X37237258Y-32477500D02*
X36762742Y-32477500D01*
X24762742Y-2477500D02*
X25237258Y-2477500D01*
X24762742Y-3522500D02*
X25237258Y-3522500D01*
D13*
X42500000Y-23500000D02*
X37500000Y-23500000D01*
X43500000Y-18800000D02*
X43500000Y-21200000D01*
X36500000Y-21200000D02*
X36500000Y-18800000D01*
X37500000Y-16500000D02*
X42500000Y-16500000D01*
X37500000Y-56500000D02*
X42500000Y-56500000D01*
X36500000Y-61200000D02*
X36500000Y-58800000D01*
X42500000Y-63500000D02*
X37500000Y-63500000D01*
X43500000Y-58800000D02*
X43500000Y-61200000D01*
D12*
X15762742Y-32477500D02*
X16237258Y-32477500D01*
X15762742Y-33522500D02*
X16237258Y-33522500D01*
X48237258Y-17522500D02*
X47762742Y-17522500D01*
X48237258Y-16477500D02*
X47762742Y-16477500D01*
D13*
X38350000Y-33900000D02*
X35650000Y-33900000D01*
D14*
X37040000Y-33150000D02*
X37040000Y-32830000D01*
D13*
X38350000Y-32100000D02*
X35650000Y-32100000D01*
D14*
X36640000Y-32990000D02*
X37210000Y-32990000D01*
D13*
X36978610Y-32994488D02*
X36790000Y-33100000D01*
X36790000Y-33100000D02*
X36790000Y-32890000D01*
X36790000Y-32890000D02*
X36978610Y-32994488D01*
G36*
X36978610Y-32994488D02*
G01*
X36790000Y-33100000D01*
X36790000Y-32890000D01*
X36978610Y-32994488D01*
G37*
X36978610Y-32994488D02*
X36790000Y-33100000D01*
X36790000Y-32890000D01*
X36978610Y-32994488D01*
D12*
X11859420Y-65490000D02*
X12140580Y-65490000D01*
X11859420Y-66510000D02*
X12140580Y-66510000D01*
X44140580Y-68490000D02*
X43859420Y-68490000D01*
X44140580Y-69510000D02*
X43859420Y-69510000D01*
X11762742Y-63522500D02*
X12237258Y-63522500D01*
X11762742Y-62477500D02*
X12237258Y-62477500D01*
X17220000Y-4232500D02*
X14472500Y-4232500D01*
X17220000Y-9727500D02*
X14472500Y-9727500D01*
X19967500Y-9727500D02*
X19967500Y-9445000D01*
X17220000Y-9727500D02*
X19967500Y-9727500D01*
X14472500Y-4232500D02*
X14472500Y-4515000D01*
X19967500Y-4232500D02*
X19967500Y-4515000D01*
X19967500Y-9445000D02*
X21620000Y-9445000D01*
X14472500Y-9727500D02*
X14472500Y-9445000D01*
X17220000Y-4232500D02*
X19967500Y-4232500D01*
X10490000Y-9859420D02*
X10490000Y-10140580D01*
X11510000Y-9859420D02*
X11510000Y-10140580D01*
X15762742Y-25522500D02*
X16237258Y-25522500D01*
X15762742Y-24477500D02*
X16237258Y-24477500D01*
X35477500Y-52237258D02*
X35477500Y-51762742D01*
X36522500Y-52237258D02*
X36522500Y-51762742D01*
D13*
X11350000Y-81100000D02*
X8650000Y-81100000D01*
D14*
X10040000Y-82150000D02*
X10040000Y-81830000D01*
D13*
X11350000Y-82900000D02*
X8650000Y-82900000D01*
D14*
X9640000Y-81990000D02*
X10210000Y-81990000D01*
D13*
X9978610Y-81994488D02*
X9790000Y-82100000D01*
X9790000Y-82100000D02*
X9790000Y-81890000D01*
X9790000Y-81890000D02*
X9978610Y-81994488D01*
G36*
X9978610Y-81994488D02*
G01*
X9790000Y-82100000D01*
X9790000Y-81890000D01*
X9978610Y-81994488D01*
G37*
X9978610Y-81994488D02*
X9790000Y-82100000D01*
X9790000Y-81890000D01*
X9978610Y-81994488D01*
X47440000Y-69200000D02*
X47440000Y-70800000D01*
X50560000Y-70800000D02*
X50560000Y-69200000D01*
D16*
X50720000Y-67590000D02*
G75*
G03*
X50720000Y-67590000I-100000J0D01*
G01*
D12*
X39477500Y-26237258D02*
X39477500Y-25762742D01*
X40522500Y-26237258D02*
X40522500Y-25762742D01*
X43237258Y-46522500D02*
X42762742Y-46522500D01*
X43237258Y-45477500D02*
X42762742Y-45477500D01*
D13*
X22500000Y-43500000D02*
X17500000Y-43500000D01*
X16500000Y-41200000D02*
X16500000Y-38800000D01*
X17500000Y-36500000D02*
X22500000Y-36500000D01*
X23500000Y-38800000D02*
X23500000Y-41200000D01*
D12*
X15067500Y-12257742D02*
X15067500Y-12732258D01*
X16112500Y-12257742D02*
X16112500Y-12732258D01*
X16762742Y-73522500D02*
X17237258Y-73522500D01*
X16762742Y-72477500D02*
X17237258Y-72477500D01*
X20110000Y-12645580D02*
X20110000Y-12364420D01*
X19090000Y-12645580D02*
X19090000Y-12364420D01*
X12762742Y-37477500D02*
X13237258Y-37477500D01*
X12762742Y-38522500D02*
X13237258Y-38522500D01*
D14*
X36010000Y-51640000D02*
X36010000Y-52210000D01*
D13*
X35100000Y-53350000D02*
X35100000Y-50650000D01*
D14*
X35850000Y-52040000D02*
X36170000Y-52040000D01*
D13*
X36900000Y-53350000D02*
X36900000Y-50650000D01*
X36005512Y-51978610D02*
X35900000Y-51790000D01*
X35900000Y-51790000D02*
X36110000Y-51790000D01*
X36110000Y-51790000D02*
X36005512Y-51978610D01*
G36*
X36005512Y-51978610D02*
G01*
X35900000Y-51790000D01*
X36110000Y-51790000D01*
X36005512Y-51978610D01*
G37*
X36005512Y-51978610D02*
X35900000Y-51790000D01*
X36110000Y-51790000D01*
X36005512Y-51978610D01*
X15800000Y-48440000D02*
X14200000Y-48440000D01*
X14200000Y-51560000D02*
X15800000Y-51560000D01*
D16*
X17470000Y-51450000D02*
G75*
G03*
X17470000Y-51450000I-100000J0D01*
G01*
D12*
X20477500Y-26762742D02*
X20477500Y-27237258D01*
X21522500Y-26762742D02*
X21522500Y-27237258D01*
D13*
X36500000Y-41200000D02*
X36500000Y-38800000D01*
X42500000Y-43500000D02*
X37500000Y-43500000D01*
X43500000Y-38800000D02*
X43500000Y-41200000D01*
X37500000Y-36500000D02*
X42500000Y-36500000D01*
D12*
X12762742Y-22522500D02*
X13237258Y-22522500D01*
X12762742Y-21477500D02*
X13237258Y-21477500D01*
D13*
X17500000Y-56500000D02*
X22500000Y-56500000D01*
X16500000Y-61200000D02*
X16500000Y-58800000D01*
X23500000Y-58800000D02*
X23500000Y-61200000D01*
X22500000Y-63500000D02*
X17500000Y-63500000D01*
D12*
X10140580Y-77490000D02*
X9859420Y-77490000D01*
X10140580Y-78510000D02*
X9859420Y-78510000D01*
X44237258Y-73522500D02*
X43762742Y-73522500D01*
X44237258Y-72477500D02*
X43762742Y-72477500D01*
X43237258Y-15522500D02*
X42762742Y-15522500D01*
X43237258Y-14477500D02*
X42762742Y-14477500D01*
X25237258Y-9477500D02*
X24762742Y-9477500D01*
X25237258Y-10522500D02*
X24762742Y-10522500D01*
%LPC*%
D17*
X24775200Y-96445000D03*
X24775200Y-95175000D03*
X24775200Y-93905000D03*
X24775200Y-92635000D03*
X24775200Y-91365000D03*
X24775200Y-90095000D03*
X24775200Y-88825000D03*
X24775200Y-87555000D03*
X15224800Y-87555000D03*
X15224800Y-88825000D03*
X15224800Y-90095000D03*
X15224800Y-91365000D03*
X15224800Y-92635000D03*
X15224800Y-93905000D03*
X15224800Y-95175000D03*
X15224800Y-96445000D03*
D18*
X40000000Y-72825000D03*
X40000000Y-71175000D03*
D19*
X12675000Y-78000000D03*
X14325000Y-78000000D03*
D20*
X5000000Y-95000000D03*
D21*
X24000000Y-17510000D03*
X16000000Y-22510000D03*
X24000000Y-22510000D03*
X16000000Y-17510000D03*
D18*
X33000000Y-70825000D03*
X33000000Y-69175000D03*
D21*
X36000000Y-82500000D03*
X44000000Y-77500000D03*
X36000000Y-77500000D03*
X44000000Y-82500000D03*
D19*
X16175000Y-70000000D03*
X17825000Y-70000000D03*
D22*
X36000000Y-14730000D03*
X36000000Y-11270000D03*
D23*
X30492000Y-35280000D03*
D24*
X30492000Y-37820000D03*
X30492000Y-40360000D03*
X30492000Y-42900000D03*
X30492000Y-45440000D03*
X30492000Y-47980000D03*
X30492000Y-50520000D03*
X30492000Y-53060000D03*
X30492000Y-55600000D03*
X30492000Y-58140000D03*
D19*
X20587200Y-53111400D03*
X22237200Y-53111400D03*
D25*
X44825000Y-32000000D03*
X43175000Y-32000000D03*
D26*
X44775000Y-28000000D03*
X43225000Y-28000000D03*
X48775000Y-21000000D03*
X47225000Y-21000000D03*
D27*
X12225000Y-42000000D03*
X13775000Y-42000000D03*
D28*
X21000000Y-46175000D03*
X21000000Y-47825000D03*
D18*
X36000000Y-13825000D03*
X36000000Y-12175000D03*
D28*
X22000000Y-69175000D03*
X22000000Y-70825000D03*
D29*
X10755000Y-72950000D03*
X10755000Y-72000000D03*
X10755000Y-71050000D03*
X8245000Y-71050000D03*
X8245000Y-72000000D03*
X8245000Y-72950000D03*
D20*
X55000000Y-95000000D03*
D25*
X25825000Y-6500000D03*
X24175000Y-6500000D03*
D30*
X48950000Y-27745000D03*
X48000000Y-27745000D03*
X47050000Y-27745000D03*
X47050000Y-30255000D03*
X48000000Y-30255000D03*
X48950000Y-30255000D03*
D23*
X5092000Y-35280000D03*
D24*
X5092000Y-37820000D03*
X5092000Y-40360000D03*
X5092000Y-42900000D03*
X5092000Y-45440000D03*
X5092000Y-47980000D03*
X5092000Y-50520000D03*
X5092000Y-53060000D03*
X5092000Y-55600000D03*
X5092000Y-58140000D03*
D31*
X22000000Y-68270000D03*
X22000000Y-71730000D03*
D20*
X55000000Y-50000000D03*
D21*
X24000000Y-77500000D03*
X16000000Y-82500000D03*
X24000000Y-82500000D03*
X16000000Y-77500000D03*
D20*
X55000000Y-5000000D03*
D25*
X43825000Y-55000000D03*
X42175000Y-55000000D03*
X10825000Y-82000000D03*
X9175000Y-82000000D03*
D27*
X12225000Y-18000000D03*
X13775000Y-18000000D03*
D17*
X44775200Y-96445000D03*
X44775200Y-95175000D03*
X44775200Y-93905000D03*
X44775200Y-92635000D03*
X44775200Y-91365000D03*
X44775200Y-90095000D03*
X44775200Y-88825000D03*
X44775200Y-87555000D03*
X35224800Y-87555000D03*
X35224800Y-88825000D03*
X35224800Y-90095000D03*
X35224800Y-91365000D03*
X35224800Y-92635000D03*
X35224800Y-93905000D03*
X35224800Y-95175000D03*
X35224800Y-96445000D03*
D22*
X33000000Y-71730000D03*
X33000000Y-68270000D03*
D31*
X21000000Y-45270000D03*
X21000000Y-48730000D03*
X21000000Y-25270000D03*
X21000000Y-28730000D03*
D32*
X44000000Y-49225000D03*
X44000000Y-50775000D03*
D25*
X37825000Y-33000000D03*
X36175000Y-33000000D03*
D19*
X24175000Y-3000000D03*
X25825000Y-3000000D03*
D21*
X36000000Y-22500000D03*
X44000000Y-17500000D03*
X36000000Y-17500000D03*
X44000000Y-22500000D03*
X36000000Y-62500000D03*
X44000000Y-57500000D03*
X36000000Y-57500000D03*
X44000000Y-62500000D03*
D19*
X15175000Y-33000000D03*
X16825000Y-33000000D03*
D25*
X48825000Y-17000000D03*
X47175000Y-17000000D03*
D33*
X38730000Y-33000000D03*
X35270000Y-33000000D03*
D27*
X11225000Y-66000000D03*
X12775000Y-66000000D03*
D26*
X44775000Y-69000000D03*
X43225000Y-69000000D03*
D19*
X11175000Y-63000000D03*
X12825000Y-63000000D03*
D34*
X20820000Y-8885000D03*
X20820000Y-7615000D03*
X20820000Y-6345000D03*
X20820000Y-5075000D03*
X13620000Y-5075000D03*
X13620000Y-6345000D03*
X13620000Y-7615000D03*
X13620000Y-8885000D03*
D32*
X11000000Y-9225000D03*
X11000000Y-10775000D03*
D19*
X15175000Y-25000000D03*
X16825000Y-25000000D03*
D18*
X36000000Y-52825000D03*
X36000000Y-51175000D03*
D33*
X11730000Y-82000000D03*
X8270000Y-82000000D03*
D30*
X49950000Y-68745000D03*
X49000000Y-68745000D03*
X48050000Y-68745000D03*
X48050000Y-71255000D03*
X49000000Y-71255000D03*
X49950000Y-71255000D03*
D18*
X40000000Y-26825000D03*
X40000000Y-25175000D03*
D25*
X43825000Y-46000000D03*
X42175000Y-46000000D03*
D21*
X24000000Y-37500000D03*
X16000000Y-42500000D03*
X24000000Y-42500000D03*
X16000000Y-37500000D03*
D28*
X15590000Y-11670000D03*
X15590000Y-13320000D03*
D19*
X16175000Y-73000000D03*
X17825000Y-73000000D03*
D35*
X19600000Y-13280000D03*
X19600000Y-11730000D03*
D19*
X12175000Y-38000000D03*
X13825000Y-38000000D03*
D22*
X36000000Y-53730000D03*
X36000000Y-50270000D03*
D29*
X16255000Y-50950000D03*
X16255000Y-50000000D03*
X16255000Y-49050000D03*
X13745000Y-49050000D03*
X13745000Y-50000000D03*
X13745000Y-50950000D03*
D28*
X21000000Y-26175000D03*
X21000000Y-27825000D03*
D21*
X36000000Y-42500000D03*
X44000000Y-37500000D03*
X36000000Y-37500000D03*
X44000000Y-42500000D03*
D19*
X12175000Y-22000000D03*
X13825000Y-22000000D03*
D21*
X24000000Y-57500000D03*
X16000000Y-62500000D03*
X24000000Y-62500000D03*
X16000000Y-57500000D03*
D26*
X10775000Y-78000000D03*
X9225000Y-78000000D03*
D25*
X44825000Y-73000000D03*
X43175000Y-73000000D03*
X43825000Y-15000000D03*
X42175000Y-15000000D03*
X25825000Y-10000000D03*
X24175000Y-10000000D03*
D20*
X5000000Y-5000000D03*
M02*
