%FSLAX45Y45*%
G04 Gerber Fmt 4.5, Leading zero omitted, Abs format (unit mm)*
G04 Created by KiCad (PCBNEW (6.0.2)) date 2022-04-01 11:09:30*
%MOMM*%
%LPD*%
G01*
G04 APERTURE LIST*
%TA.AperFunction,Profile*%
%ADD10C,0.500000*%
%TD*%
%ADD11C,0.200000*%
%ADD12C,0.030000*%
%ADD13C,0.040000*%
%ADD14C,0.100000*%
G04 APERTURE END LIST*
D10*
X0Y0D02*
X6000000Y0D01*
X6000000Y0D02*
X6000000Y-10000000D01*
X6000000Y-10000000D02*
X0Y-10000000D01*
X0Y-10000000D02*
X0Y0D01*
D11*
D12*
X748025Y-7430000D02*
X778025Y-7460000D01*
X778025Y-7430000D02*
X748025Y-7460000D01*
X791000Y-7785000D02*
X821000Y-7815000D01*
X821000Y-7785000D02*
X791000Y-7815000D01*
X1079000Y-5424000D02*
X1109000Y-5454000D01*
X1109000Y-5424000D02*
X1079000Y-5454000D01*
X1166975Y-7433000D02*
X1196975Y-7463000D01*
X1196975Y-7433000D02*
X1166975Y-7463000D01*
X1187000Y-7186000D02*
X1217000Y-7216000D01*
X1217000Y-7186000D02*
X1187000Y-7216000D01*
X1238450Y-4986000D02*
X1268450Y-5016000D01*
X1268450Y-4986000D02*
X1238450Y-5016000D01*
X1362000Y-1675000D02*
X1392000Y-1705000D01*
X1392000Y-1675000D02*
X1362000Y-1705000D01*
X1362000Y-4307000D02*
X1392000Y-4337000D01*
X1392000Y-4307000D02*
X1362000Y-4337000D01*
X1384000Y-6585000D02*
X1414000Y-6615000D01*
X1414000Y-6585000D02*
X1384000Y-6615000D01*
X1400841Y-7964159D02*
X1430841Y-7994159D01*
X1430841Y-7964159D02*
X1400841Y-7994159D01*
X1427500Y-6163500D02*
X1457500Y-6193500D01*
X1457500Y-6163500D02*
X1427500Y-6193500D01*
X1429000Y-5214000D02*
X1459000Y-5244000D01*
X1459000Y-5214000D02*
X1429000Y-5244000D01*
X1524000Y-5427000D02*
X1554000Y-5457000D01*
X1554000Y-5427000D02*
X1524000Y-5457000D01*
X1563000Y-7557000D02*
X1593000Y-7587000D01*
X1593000Y-7557000D02*
X1563000Y-7587000D01*
X1581000Y-3546000D02*
X1611000Y-3576000D01*
X1611000Y-3546000D02*
X1581000Y-3576000D01*
X1667500Y-4411500D02*
X1697500Y-4441500D01*
X1697500Y-4411500D02*
X1667500Y-4441500D01*
X1722000Y-6458000D02*
X1752000Y-6488000D01*
X1752000Y-6458000D02*
X1722000Y-6488000D01*
X1733000Y-4985000D02*
X1763000Y-5015000D01*
X1763000Y-4985000D02*
X1733000Y-5015000D01*
X2218000Y-498000D02*
X2248000Y-528000D01*
X2248000Y-498000D02*
X2218000Y-528000D01*
X2252500Y-873500D02*
X2282500Y-903500D01*
X2282500Y-873500D02*
X2252500Y-903500D01*
X2384000Y-5885000D02*
X2414000Y-5915000D01*
X2414000Y-5885000D02*
X2384000Y-5915000D01*
X2384000Y-7881000D02*
X2414000Y-7911000D01*
X2414000Y-7881000D02*
X2384000Y-7911000D01*
X2385000Y-1893000D02*
X2415000Y-1923000D01*
X2415000Y-1893000D02*
X2385000Y-1923000D01*
X2386000Y-3896000D02*
X2416000Y-3926000D01*
X2416000Y-3896000D02*
X2386000Y-3926000D01*
X2489440Y-5070080D02*
X2519440Y-5100080D01*
X2519440Y-5070080D02*
X2489440Y-5100080D01*
X2501000Y-7157000D02*
X2531000Y-7187000D01*
X2531000Y-7157000D02*
X2501000Y-7187000D01*
X2508000Y-3434000D02*
X2538000Y-3464000D01*
X2538000Y-3434000D02*
X2508000Y-3464000D01*
X2536598Y-3760000D02*
X2566598Y-3790000D01*
X2566598Y-3760000D02*
X2536598Y-3790000D01*
X2536599Y-5438000D02*
X2566599Y-5468000D01*
X2566599Y-5438000D02*
X2536599Y-5468000D01*
X2728450Y-5433000D02*
X2758450Y-5463000D01*
X2758450Y-5433000D02*
X2728450Y-5463000D01*
X2753600Y-5070080D02*
X2783600Y-5100080D01*
X2783600Y-5070080D02*
X2753600Y-5100080D01*
X3091420Y-7155420D02*
X3121420Y-7185420D01*
X3121420Y-7155420D02*
X3091420Y-7185420D01*
X3243000Y-6590000D02*
X3273000Y-6620000D01*
X3273000Y-6590000D02*
X3243000Y-6620000D01*
X3372000Y-3428000D02*
X3402000Y-3458000D01*
X3402000Y-3428000D02*
X3372000Y-3458000D01*
X3380000Y-2285000D02*
X3410000Y-2315000D01*
X3410000Y-2285000D02*
X3380000Y-2315000D01*
X3385800Y-4161800D02*
X3415800Y-4191800D01*
X3415800Y-4161800D02*
X3385800Y-4191800D01*
X3445450Y-6226341D02*
X3475450Y-6256341D01*
X3475450Y-6226341D02*
X3445450Y-6256341D01*
X3447000Y-2560000D02*
X3477000Y-2590000D01*
X3477000Y-2560000D02*
X3447000Y-2590000D01*
X3584000Y-6082000D02*
X3614000Y-6112000D01*
X3614000Y-6082000D02*
X3584000Y-6112000D01*
X3584000Y-8082000D02*
X3614000Y-8112000D01*
X3614000Y-8082000D02*
X3584000Y-8112000D01*
X3585000Y-2066000D02*
X3615000Y-2096000D01*
X3615000Y-2066000D02*
X3585000Y-2096000D01*
X3588000Y-4385000D02*
X3618000Y-4415000D01*
X3618000Y-4385000D02*
X3588000Y-4415000D01*
X4591000Y-2085000D02*
X4621000Y-2115000D01*
X4621000Y-2085000D02*
X4591000Y-2115000D01*
D13*
X1256980Y-9626600D02*
G75*
G03*
X1256980Y-9626600I-20000J0D01*
G01*
X1262490Y-9257870D02*
G75*
G03*
X1262490Y-9257870I-20000J0D01*
G01*
X1383980Y-9243060D02*
G75*
G03*
X1383980Y-9243060I-20000J0D01*
G01*
X1396680Y-8653780D02*
G75*
G03*
X1396680Y-8653780I-20000J0D01*
G01*
X2433000Y-8524240D02*
G75*
G03*
X2433000Y-8524240I-20000J0D01*
G01*
X2654000Y-8755500D02*
G75*
G03*
X2654000Y-8755500I-20000J0D01*
G01*
X2659000Y-9518000D02*
G75*
G03*
X2659000Y-9518000I-20000J0D01*
G01*
X2953700Y-8041640D02*
G75*
G03*
X2953700Y-8041640I-20000J0D01*
G01*
X3088320Y-9250680D02*
G75*
G03*
X3088320Y-9250680I-20000J0D01*
G01*
X3144200Y-9806940D02*
G75*
G03*
X3144200Y-9806940I-20000J0D01*
G01*
X3161980Y-9558020D02*
G75*
G03*
X3161980Y-9558020I-20000J0D01*
G01*
X3250880Y-8346440D02*
G75*
G03*
X3250880Y-8346440I-20000J0D01*
G01*
X3360100Y-9565640D02*
G75*
G03*
X3360100Y-9565640I-20000J0D01*
G01*
X3360100Y-9743440D02*
G75*
G03*
X3360100Y-9743440I-20000J0D01*
G01*
X4207000Y-6900000D02*
G75*
G03*
X4207000Y-6900000I-20000J0D01*
G01*
X4228000Y-2800000D02*
G75*
G03*
X4228000Y-2800000I-20000J0D01*
G01*
X4410000Y-7126000D02*
G75*
G03*
X4410000Y-7126000I-20000J0D01*
G01*
X4418000Y-5195000D02*
G75*
G03*
X4418000Y-5195000I-20000J0D01*
G01*
X4425050Y-3000000D02*
G75*
G03*
X4425050Y-3000000I-20000J0D01*
G01*
X4571000Y-6250000D02*
G75*
G03*
X4571000Y-6250000I-20000J0D01*
G01*
X4659000Y-9649000D02*
G75*
G03*
X4659000Y-9649000I-20000J0D01*
G01*
X4660000Y-8755000D02*
G75*
G03*
X4660000Y-8755000I-20000J0D01*
G01*
X4740000Y-6250000D02*
G75*
G03*
X4740000Y-6250000I-20000J0D01*
G01*
X4815000Y-2250000D02*
G75*
G03*
X4815000Y-2250000I-20000J0D01*
G01*
X4820000Y-3170000D02*
G75*
G03*
X4820000Y-3170000I-20000J0D01*
G01*
X4821000Y-2630000D02*
G75*
G03*
X4821000Y-2630000I-20000J0D01*
G01*
X4920000Y-7276000D02*
G75*
G03*
X4920000Y-7276000I-20000J0D01*
G01*
X4921000Y-6740000D02*
G75*
G03*
X4921000Y-6740000I-20000J0D01*
G01*
X5001000Y-2250000D02*
G75*
G03*
X5001000Y-2250000I-20000J0D01*
G01*
D14*
X2800000Y-250000D02*
X2800000Y-350000D01*
X2750000Y-300000D02*
X2850000Y-300000D01*
X2800000Y-600000D02*
X2800000Y-700000D01*
X2750000Y-650000D02*
X2850000Y-650000D01*
X2800000Y-950000D02*
X2800000Y-1050000D01*
X2750000Y-1000000D02*
X2850000Y-1000000D01*
X544556Y-3563356D02*
X544556Y-3492644D01*
X473844Y-3492644D01*
X473844Y-3563356D01*
X544556Y-3563356D01*
X544556Y-3817356D02*
X544556Y-3746644D01*
X473844Y-3746644D01*
X473844Y-3817356D01*
X544556Y-3817356D01*
X544556Y-4071356D02*
X544556Y-4000644D01*
X473844Y-4000644D01*
X473844Y-4071356D01*
X544556Y-4071356D01*
X544556Y-4325356D02*
X544556Y-4254644D01*
X473844Y-4254644D01*
X473844Y-4325356D01*
X544556Y-4325356D01*
X544556Y-4579356D02*
X544556Y-4508644D01*
X473844Y-4508644D01*
X473844Y-4579356D01*
X544556Y-4579356D01*
X544556Y-4833356D02*
X544556Y-4762644D01*
X473844Y-4762644D01*
X473844Y-4833356D01*
X544556Y-4833356D01*
X544556Y-5087356D02*
X544556Y-5016644D01*
X473844Y-5016644D01*
X473844Y-5087356D01*
X544556Y-5087356D01*
X544556Y-5341356D02*
X544556Y-5270644D01*
X473844Y-5270644D01*
X473844Y-5341356D01*
X544556Y-5341356D01*
X544556Y-5595356D02*
X544556Y-5524644D01*
X473844Y-5524644D01*
X473844Y-5595356D01*
X544556Y-5595356D01*
X544556Y-5849356D02*
X544556Y-5778644D01*
X473844Y-5778644D01*
X473844Y-5849356D01*
X544556Y-5849356D01*
X3084556Y-3563356D02*
X3084556Y-3492644D01*
X3013844Y-3492644D01*
X3013844Y-3563356D01*
X3084556Y-3563356D01*
X3084556Y-3817356D02*
X3084556Y-3746644D01*
X3013844Y-3746644D01*
X3013844Y-3817356D01*
X3084556Y-3817356D01*
X3084556Y-4071356D02*
X3084556Y-4000644D01*
X3013844Y-4000644D01*
X3013844Y-4071356D01*
X3084556Y-4071356D01*
X3084556Y-4325356D02*
X3084556Y-4254644D01*
X3013844Y-4254644D01*
X3013844Y-4325356D01*
X3084556Y-4325356D01*
X3084556Y-4579356D02*
X3084556Y-4508644D01*
X3013844Y-4508644D01*
X3013844Y-4579356D01*
X3084556Y-4579356D01*
X3084556Y-4833356D02*
X3084556Y-4762644D01*
X3013844Y-4762644D01*
X3013844Y-4833356D01*
X3084556Y-4833356D01*
X3084556Y-5087356D02*
X3084556Y-5016644D01*
X3013844Y-5016644D01*
X3013844Y-5087356D01*
X3084556Y-5087356D01*
X3084556Y-5341356D02*
X3084556Y-5270644D01*
X3013844Y-5270644D01*
X3013844Y-5341356D01*
X3084556Y-5341356D01*
X3084556Y-5595356D02*
X3084556Y-5524644D01*
X3013844Y-5524644D01*
X3013844Y-5595356D01*
X3084556Y-5595356D01*
X3084556Y-5849356D02*
X3084556Y-5778644D01*
X3013844Y-5778644D01*
X3013844Y-5849356D01*
X3084556Y-5849356D01*
D11*
X232619Y-10335476D02*
X232619Y-10135476D01*
X280238Y-10135476D01*
X308810Y-10145000D01*
X327857Y-10164048D01*
X337381Y-10183095D01*
X346905Y-10221190D01*
X346905Y-10249762D01*
X337381Y-10287857D01*
X327857Y-10306905D01*
X308810Y-10325952D01*
X280238Y-10335476D01*
X232619Y-10335476D01*
X432619Y-10335476D02*
X432619Y-10202143D01*
X432619Y-10240238D02*
X442143Y-10221190D01*
X451667Y-10211667D01*
X470714Y-10202143D01*
X489762Y-10202143D01*
X556429Y-10335476D02*
X556429Y-10202143D01*
X556429Y-10135476D02*
X546905Y-10145000D01*
X556429Y-10154524D01*
X565952Y-10145000D01*
X556429Y-10135476D01*
X556429Y-10154524D01*
X680238Y-10335476D02*
X661190Y-10325952D01*
X651667Y-10306905D01*
X651667Y-10135476D01*
X785000Y-10335476D02*
X765952Y-10325952D01*
X756428Y-10306905D01*
X756428Y-10135476D01*
X1013571Y-10335476D02*
X1013571Y-10135476D01*
X1080238Y-10278333D01*
X1146905Y-10135476D01*
X1146905Y-10335476D01*
X1327857Y-10335476D02*
X1327857Y-10230714D01*
X1318333Y-10211667D01*
X1299286Y-10202143D01*
X1261190Y-10202143D01*
X1242143Y-10211667D01*
X1327857Y-10325952D02*
X1308810Y-10335476D01*
X1261190Y-10335476D01*
X1242143Y-10325952D01*
X1232619Y-10306905D01*
X1232619Y-10287857D01*
X1242143Y-10268810D01*
X1261190Y-10259286D01*
X1308810Y-10259286D01*
X1327857Y-10249762D01*
X1423095Y-10202143D02*
X1423095Y-10402143D01*
X1423095Y-10211667D02*
X1442143Y-10202143D01*
X1480238Y-10202143D01*
X1499286Y-10211667D01*
X1508809Y-10221190D01*
X1518333Y-10240238D01*
X1518333Y-10297381D01*
X1508809Y-10316429D01*
X1499286Y-10325952D01*
X1480238Y-10335476D01*
X1442143Y-10335476D01*
X1423095Y-10325952D01*
X1604048Y-10316429D02*
X1613571Y-10325952D01*
X1604048Y-10335476D01*
X1594524Y-10325952D01*
X1604048Y-10316429D01*
X1604048Y-10335476D01*
X1604048Y-10211667D02*
X1613571Y-10221190D01*
X1604048Y-10230714D01*
X1594524Y-10221190D01*
X1604048Y-10211667D01*
X1604048Y-10230714D01*
D12*
X-55000Y-10650000D02*
X-25000Y-10680000D01*
X-25000Y-10650000D02*
X-55000Y-10680000D01*
D11*
X270714Y-10555476D02*
X289762Y-10555476D01*
X308810Y-10565000D01*
X318333Y-10574524D01*
X327857Y-10593571D01*
X337381Y-10631667D01*
X337381Y-10679286D01*
X327857Y-10717381D01*
X318333Y-10736429D01*
X308810Y-10745952D01*
X289762Y-10755476D01*
X270714Y-10755476D01*
X251667Y-10745952D01*
X242143Y-10736429D01*
X232619Y-10717381D01*
X223095Y-10679286D01*
X223095Y-10631667D01*
X232619Y-10593571D01*
X242143Y-10574524D01*
X251667Y-10565000D01*
X270714Y-10555476D01*
X423095Y-10736429D02*
X432619Y-10745952D01*
X423095Y-10755476D01*
X413571Y-10745952D01*
X423095Y-10736429D01*
X423095Y-10755476D01*
X499286Y-10555476D02*
X623095Y-10555476D01*
X556429Y-10631667D01*
X585000Y-10631667D01*
X604048Y-10641190D01*
X613571Y-10650714D01*
X623095Y-10669762D01*
X623095Y-10717381D01*
X613571Y-10736429D01*
X604048Y-10745952D01*
X585000Y-10755476D01*
X527857Y-10755476D01*
X508809Y-10745952D01*
X499286Y-10736429D01*
X746905Y-10555476D02*
X765952Y-10555476D01*
X785000Y-10565000D01*
X794524Y-10574524D01*
X804048Y-10593571D01*
X813571Y-10631667D01*
X813571Y-10679286D01*
X804048Y-10717381D01*
X794524Y-10736429D01*
X785000Y-10745952D01*
X765952Y-10755476D01*
X746905Y-10755476D01*
X727857Y-10745952D01*
X718333Y-10736429D01*
X708809Y-10717381D01*
X699286Y-10679286D01*
X699286Y-10631667D01*
X708809Y-10593571D01*
X718333Y-10574524D01*
X727857Y-10565000D01*
X746905Y-10555476D01*
X937381Y-10555476D02*
X956428Y-10555476D01*
X975476Y-10565000D01*
X985000Y-10574524D01*
X994524Y-10593571D01*
X1004048Y-10631667D01*
X1004048Y-10679286D01*
X994524Y-10717381D01*
X985000Y-10736429D01*
X975476Y-10745952D01*
X956428Y-10755476D01*
X937381Y-10755476D01*
X918333Y-10745952D01*
X908809Y-10736429D01*
X899286Y-10717381D01*
X889762Y-10679286D01*
X889762Y-10631667D01*
X899286Y-10593571D01*
X908809Y-10574524D01*
X918333Y-10565000D01*
X937381Y-10555476D01*
X1089762Y-10755476D02*
X1089762Y-10622143D01*
X1089762Y-10641190D02*
X1099286Y-10631667D01*
X1118333Y-10622143D01*
X1146905Y-10622143D01*
X1165952Y-10631667D01*
X1175476Y-10650714D01*
X1175476Y-10755476D01*
X1175476Y-10650714D02*
X1185000Y-10631667D01*
X1204048Y-10622143D01*
X1232619Y-10622143D01*
X1251667Y-10631667D01*
X1261190Y-10650714D01*
X1261190Y-10755476D01*
X1356429Y-10755476D02*
X1356429Y-10622143D01*
X1356429Y-10641190D02*
X1365952Y-10631667D01*
X1385000Y-10622143D01*
X1413571Y-10622143D01*
X1432619Y-10631667D01*
X1442143Y-10650714D01*
X1442143Y-10755476D01*
X1442143Y-10650714D02*
X1451667Y-10631667D01*
X1470714Y-10622143D01*
X1499286Y-10622143D01*
X1518333Y-10631667D01*
X1527857Y-10650714D01*
X1527857Y-10755476D01*
X1918333Y-10545952D02*
X1746905Y-10803095D01*
X2175476Y-10555476D02*
X2194524Y-10555476D01*
X2213571Y-10565000D01*
X2223095Y-10574524D01*
X2232619Y-10593571D01*
X2242143Y-10631667D01*
X2242143Y-10679286D01*
X2232619Y-10717381D01*
X2223095Y-10736429D01*
X2213571Y-10745952D01*
X2194524Y-10755476D01*
X2175476Y-10755476D01*
X2156429Y-10745952D01*
X2146905Y-10736429D01*
X2137381Y-10717381D01*
X2127857Y-10679286D01*
X2127857Y-10631667D01*
X2137381Y-10593571D01*
X2146905Y-10574524D01*
X2156429Y-10565000D01*
X2175476Y-10555476D01*
X2327857Y-10736429D02*
X2337381Y-10745952D01*
X2327857Y-10755476D01*
X2318333Y-10745952D01*
X2327857Y-10736429D01*
X2327857Y-10755476D01*
X2461190Y-10555476D02*
X2480238Y-10555476D01*
X2499286Y-10565000D01*
X2508810Y-10574524D01*
X2518333Y-10593571D01*
X2527857Y-10631667D01*
X2527857Y-10679286D01*
X2518333Y-10717381D01*
X2508810Y-10736429D01*
X2499286Y-10745952D01*
X2480238Y-10755476D01*
X2461190Y-10755476D01*
X2442143Y-10745952D01*
X2432619Y-10736429D01*
X2423095Y-10717381D01*
X2413571Y-10679286D01*
X2413571Y-10631667D01*
X2423095Y-10593571D01*
X2432619Y-10574524D01*
X2442143Y-10565000D01*
X2461190Y-10555476D01*
X2718333Y-10755476D02*
X2604048Y-10755476D01*
X2661190Y-10755476D02*
X2661190Y-10555476D01*
X2642143Y-10584048D01*
X2623095Y-10603095D01*
X2604048Y-10612619D01*
X2908809Y-10755476D02*
X2794524Y-10755476D01*
X2851667Y-10755476D02*
X2851667Y-10555476D01*
X2832619Y-10584048D01*
X2813571Y-10603095D01*
X2794524Y-10612619D01*
X3023095Y-10641190D02*
X3004048Y-10631667D01*
X2994524Y-10622143D01*
X2985000Y-10603095D01*
X2985000Y-10593571D01*
X2994524Y-10574524D01*
X3004048Y-10565000D01*
X3023095Y-10555476D01*
X3061190Y-10555476D01*
X3080238Y-10565000D01*
X3089762Y-10574524D01*
X3099286Y-10593571D01*
X3099286Y-10603095D01*
X3089762Y-10622143D01*
X3080238Y-10631667D01*
X3061190Y-10641190D01*
X3023095Y-10641190D01*
X3004048Y-10650714D01*
X2994524Y-10660238D01*
X2985000Y-10679286D01*
X2985000Y-10717381D01*
X2994524Y-10736429D01*
X3004048Y-10745952D01*
X3023095Y-10755476D01*
X3061190Y-10755476D01*
X3080238Y-10745952D01*
X3089762Y-10736429D01*
X3099286Y-10717381D01*
X3099286Y-10679286D01*
X3089762Y-10660238D01*
X3080238Y-10650714D01*
X3061190Y-10641190D01*
X3175476Y-10555476D02*
X3175476Y-10593571D01*
X3251667Y-10555476D02*
X3251667Y-10593571D01*
X3546905Y-10831667D02*
X3537381Y-10822143D01*
X3518333Y-10793571D01*
X3508809Y-10774524D01*
X3499286Y-10745952D01*
X3489762Y-10698333D01*
X3489762Y-10660238D01*
X3499286Y-10612619D01*
X3508809Y-10584048D01*
X3518333Y-10565000D01*
X3537381Y-10536429D01*
X3546905Y-10526905D01*
X3708809Y-10622143D02*
X3708809Y-10755476D01*
X3661190Y-10545952D02*
X3613571Y-10688810D01*
X3737381Y-10688810D01*
X3794524Y-10555476D02*
X3918333Y-10555476D01*
X3851667Y-10631667D01*
X3880238Y-10631667D01*
X3899286Y-10641190D01*
X3908809Y-10650714D01*
X3918333Y-10669762D01*
X3918333Y-10717381D01*
X3908809Y-10736429D01*
X3899286Y-10745952D01*
X3880238Y-10755476D01*
X3823095Y-10755476D01*
X3804048Y-10745952D01*
X3794524Y-10736429D01*
X4156428Y-10755476D02*
X4156428Y-10555476D01*
X4242143Y-10755476D02*
X4242143Y-10650714D01*
X4232619Y-10631667D01*
X4213571Y-10622143D01*
X4185000Y-10622143D01*
X4165952Y-10631667D01*
X4156428Y-10641190D01*
X4365952Y-10755476D02*
X4346905Y-10745952D01*
X4337381Y-10736429D01*
X4327857Y-10717381D01*
X4327857Y-10660238D01*
X4337381Y-10641190D01*
X4346905Y-10631667D01*
X4365952Y-10622143D01*
X4394524Y-10622143D01*
X4413571Y-10631667D01*
X4423095Y-10641190D01*
X4432619Y-10660238D01*
X4432619Y-10717381D01*
X4423095Y-10736429D01*
X4413571Y-10745952D01*
X4394524Y-10755476D01*
X4365952Y-10755476D01*
X4546905Y-10755476D02*
X4527857Y-10745952D01*
X4518333Y-10726905D01*
X4518333Y-10555476D01*
X4699286Y-10745952D02*
X4680238Y-10755476D01*
X4642143Y-10755476D01*
X4623095Y-10745952D01*
X4613571Y-10726905D01*
X4613571Y-10650714D01*
X4623095Y-10631667D01*
X4642143Y-10622143D01*
X4680238Y-10622143D01*
X4699286Y-10631667D01*
X4708810Y-10650714D01*
X4708810Y-10669762D01*
X4613571Y-10688810D01*
X4785000Y-10745952D02*
X4804048Y-10755476D01*
X4842143Y-10755476D01*
X4861190Y-10745952D01*
X4870714Y-10726905D01*
X4870714Y-10717381D01*
X4861190Y-10698333D01*
X4842143Y-10688810D01*
X4813571Y-10688810D01*
X4794524Y-10679286D01*
X4785000Y-10660238D01*
X4785000Y-10650714D01*
X4794524Y-10631667D01*
X4813571Y-10622143D01*
X4842143Y-10622143D01*
X4861190Y-10631667D01*
X4937381Y-10831667D02*
X4946905Y-10822143D01*
X4965952Y-10793571D01*
X4975476Y-10774524D01*
X4985000Y-10745952D01*
X4994524Y-10698333D01*
X4994524Y-10660238D01*
X4985000Y-10612619D01*
X4975476Y-10584048D01*
X4965952Y-10565000D01*
X4946905Y-10536429D01*
X4937381Y-10526905D01*
D13*
X-25000Y-10929000D02*
G75*
G03*
X-25000Y-10929000I-20000J0D01*
G01*
D11*
X270714Y-10819476D02*
X289762Y-10819476D01*
X308810Y-10829000D01*
X318333Y-10838524D01*
X327857Y-10857571D01*
X337381Y-10895667D01*
X337381Y-10943286D01*
X327857Y-10981381D01*
X318333Y-11000429D01*
X308810Y-11009952D01*
X289762Y-11019476D01*
X270714Y-11019476D01*
X251667Y-11009952D01*
X242143Y-11000429D01*
X232619Y-10981381D01*
X223095Y-10943286D01*
X223095Y-10895667D01*
X232619Y-10857571D01*
X242143Y-10838524D01*
X251667Y-10829000D01*
X270714Y-10819476D01*
X423095Y-11000429D02*
X432619Y-11009952D01*
X423095Y-11019476D01*
X413571Y-11009952D01*
X423095Y-11000429D01*
X423095Y-11019476D01*
X604048Y-10886143D02*
X604048Y-11019476D01*
X556429Y-10809952D02*
X508809Y-10952810D01*
X632619Y-10952810D01*
X746905Y-10819476D02*
X765952Y-10819476D01*
X785000Y-10829000D01*
X794524Y-10838524D01*
X804048Y-10857571D01*
X813571Y-10895667D01*
X813571Y-10943286D01*
X804048Y-10981381D01*
X794524Y-11000429D01*
X785000Y-11009952D01*
X765952Y-11019476D01*
X746905Y-11019476D01*
X727857Y-11009952D01*
X718333Y-11000429D01*
X708809Y-10981381D01*
X699286Y-10943286D01*
X699286Y-10895667D01*
X708809Y-10857571D01*
X718333Y-10838524D01*
X727857Y-10829000D01*
X746905Y-10819476D01*
X937381Y-10819476D02*
X956428Y-10819476D01*
X975476Y-10829000D01*
X985000Y-10838524D01*
X994524Y-10857571D01*
X1004048Y-10895667D01*
X1004048Y-10943286D01*
X994524Y-10981381D01*
X985000Y-11000429D01*
X975476Y-11009952D01*
X956428Y-11019476D01*
X937381Y-11019476D01*
X918333Y-11009952D01*
X908809Y-11000429D01*
X899286Y-10981381D01*
X889762Y-10943286D01*
X889762Y-10895667D01*
X899286Y-10857571D01*
X908809Y-10838524D01*
X918333Y-10829000D01*
X937381Y-10819476D01*
X1089762Y-11019476D02*
X1089762Y-10886143D01*
X1089762Y-10905190D02*
X1099286Y-10895667D01*
X1118333Y-10886143D01*
X1146905Y-10886143D01*
X1165952Y-10895667D01*
X1175476Y-10914714D01*
X1175476Y-11019476D01*
X1175476Y-10914714D02*
X1185000Y-10895667D01*
X1204048Y-10886143D01*
X1232619Y-10886143D01*
X1251667Y-10895667D01*
X1261190Y-10914714D01*
X1261190Y-11019476D01*
X1356429Y-11019476D02*
X1356429Y-10886143D01*
X1356429Y-10905190D02*
X1365952Y-10895667D01*
X1385000Y-10886143D01*
X1413571Y-10886143D01*
X1432619Y-10895667D01*
X1442143Y-10914714D01*
X1442143Y-11019476D01*
X1442143Y-10914714D02*
X1451667Y-10895667D01*
X1470714Y-10886143D01*
X1499286Y-10886143D01*
X1518333Y-10895667D01*
X1527857Y-10914714D01*
X1527857Y-11019476D01*
X1918333Y-10809952D02*
X1746905Y-11067095D01*
X2175476Y-10819476D02*
X2194524Y-10819476D01*
X2213571Y-10829000D01*
X2223095Y-10838524D01*
X2232619Y-10857571D01*
X2242143Y-10895667D01*
X2242143Y-10943286D01*
X2232619Y-10981381D01*
X2223095Y-11000429D01*
X2213571Y-11009952D01*
X2194524Y-11019476D01*
X2175476Y-11019476D01*
X2156429Y-11009952D01*
X2146905Y-11000429D01*
X2137381Y-10981381D01*
X2127857Y-10943286D01*
X2127857Y-10895667D01*
X2137381Y-10857571D01*
X2146905Y-10838524D01*
X2156429Y-10829000D01*
X2175476Y-10819476D01*
X2327857Y-11000429D02*
X2337381Y-11009952D01*
X2327857Y-11019476D01*
X2318333Y-11009952D01*
X2327857Y-11000429D01*
X2327857Y-11019476D01*
X2461190Y-10819476D02*
X2480238Y-10819476D01*
X2499286Y-10829000D01*
X2508810Y-10838524D01*
X2518333Y-10857571D01*
X2527857Y-10895667D01*
X2527857Y-10943286D01*
X2518333Y-10981381D01*
X2508810Y-11000429D01*
X2499286Y-11009952D01*
X2480238Y-11019476D01*
X2461190Y-11019476D01*
X2442143Y-11009952D01*
X2432619Y-11000429D01*
X2423095Y-10981381D01*
X2413571Y-10943286D01*
X2413571Y-10895667D01*
X2423095Y-10857571D01*
X2432619Y-10838524D01*
X2442143Y-10829000D01*
X2461190Y-10819476D01*
X2718333Y-11019476D02*
X2604048Y-11019476D01*
X2661190Y-11019476D02*
X2661190Y-10819476D01*
X2642143Y-10848048D01*
X2623095Y-10867095D01*
X2604048Y-10876619D01*
X2899286Y-10819476D02*
X2804048Y-10819476D01*
X2794524Y-10914714D01*
X2804048Y-10905190D01*
X2823095Y-10895667D01*
X2870714Y-10895667D01*
X2889762Y-10905190D01*
X2899286Y-10914714D01*
X2908809Y-10933762D01*
X2908809Y-10981381D01*
X2899286Y-11000429D01*
X2889762Y-11009952D01*
X2870714Y-11019476D01*
X2823095Y-11019476D01*
X2804048Y-11009952D01*
X2794524Y-11000429D01*
X2975476Y-10819476D02*
X3108809Y-10819476D01*
X3023095Y-11019476D01*
X3175476Y-10819476D02*
X3175476Y-10857571D01*
X3251667Y-10819476D02*
X3251667Y-10857571D01*
X3546905Y-11095667D02*
X3537381Y-11086143D01*
X3518333Y-11057571D01*
X3508809Y-11038524D01*
X3499286Y-11009952D01*
X3489762Y-10962333D01*
X3489762Y-10924238D01*
X3499286Y-10876619D01*
X3508809Y-10848048D01*
X3518333Y-10829000D01*
X3537381Y-10800429D01*
X3546905Y-10790905D01*
X3613571Y-10838524D02*
X3623095Y-10829000D01*
X3642143Y-10819476D01*
X3689762Y-10819476D01*
X3708809Y-10829000D01*
X3718333Y-10838524D01*
X3727857Y-10857571D01*
X3727857Y-10876619D01*
X3718333Y-10905190D01*
X3604048Y-11019476D01*
X3727857Y-11019476D01*
X3823095Y-11019476D02*
X3861190Y-11019476D01*
X3880238Y-11009952D01*
X3889762Y-11000429D01*
X3908809Y-10971857D01*
X3918333Y-10933762D01*
X3918333Y-10857571D01*
X3908809Y-10838524D01*
X3899286Y-10829000D01*
X3880238Y-10819476D01*
X3842143Y-10819476D01*
X3823095Y-10829000D01*
X3813571Y-10838524D01*
X3804048Y-10857571D01*
X3804048Y-10905190D01*
X3813571Y-10924238D01*
X3823095Y-10933762D01*
X3842143Y-10943286D01*
X3880238Y-10943286D01*
X3899286Y-10933762D01*
X3908809Y-10924238D01*
X3918333Y-10905190D01*
X4156428Y-11019476D02*
X4156428Y-10819476D01*
X4242143Y-11019476D02*
X4242143Y-10914714D01*
X4232619Y-10895667D01*
X4213571Y-10886143D01*
X4185000Y-10886143D01*
X4165952Y-10895667D01*
X4156428Y-10905190D01*
X4365952Y-11019476D02*
X4346905Y-11009952D01*
X4337381Y-11000429D01*
X4327857Y-10981381D01*
X4327857Y-10924238D01*
X4337381Y-10905190D01*
X4346905Y-10895667D01*
X4365952Y-10886143D01*
X4394524Y-10886143D01*
X4413571Y-10895667D01*
X4423095Y-10905190D01*
X4432619Y-10924238D01*
X4432619Y-10981381D01*
X4423095Y-11000429D01*
X4413571Y-11009952D01*
X4394524Y-11019476D01*
X4365952Y-11019476D01*
X4546905Y-11019476D02*
X4527857Y-11009952D01*
X4518333Y-10990905D01*
X4518333Y-10819476D01*
X4699286Y-11009952D02*
X4680238Y-11019476D01*
X4642143Y-11019476D01*
X4623095Y-11009952D01*
X4613571Y-10990905D01*
X4613571Y-10914714D01*
X4623095Y-10895667D01*
X4642143Y-10886143D01*
X4680238Y-10886143D01*
X4699286Y-10895667D01*
X4708810Y-10914714D01*
X4708810Y-10933762D01*
X4613571Y-10952810D01*
X4785000Y-11009952D02*
X4804048Y-11019476D01*
X4842143Y-11019476D01*
X4861190Y-11009952D01*
X4870714Y-10990905D01*
X4870714Y-10981381D01*
X4861190Y-10962333D01*
X4842143Y-10952810D01*
X4813571Y-10952810D01*
X4794524Y-10943286D01*
X4785000Y-10924238D01*
X4785000Y-10914714D01*
X4794524Y-10895667D01*
X4813571Y-10886143D01*
X4842143Y-10886143D01*
X4861190Y-10895667D01*
X4937381Y-11095667D02*
X4946905Y-11086143D01*
X4965952Y-11057571D01*
X4975476Y-11038524D01*
X4985000Y-11009952D01*
X4994524Y-10962333D01*
X4994524Y-10924238D01*
X4985000Y-10876619D01*
X4975476Y-10848048D01*
X4965952Y-10829000D01*
X4946905Y-10800429D01*
X4937381Y-10790905D01*
D14*
X-75000Y-11143000D02*
X-75000Y-11243000D01*
X-125000Y-11193000D02*
X-25000Y-11193000D01*
D11*
X337381Y-11283476D02*
X223095Y-11283476D01*
X280238Y-11283476D02*
X280238Y-11083476D01*
X261190Y-11112048D01*
X242143Y-11131095D01*
X223095Y-11140619D01*
X423095Y-11264428D02*
X432619Y-11273952D01*
X423095Y-11283476D01*
X413571Y-11273952D01*
X423095Y-11264428D01*
X423095Y-11283476D01*
X556429Y-11083476D02*
X575476Y-11083476D01*
X594524Y-11093000D01*
X604048Y-11102524D01*
X613571Y-11121571D01*
X623095Y-11159667D01*
X623095Y-11207286D01*
X613571Y-11245381D01*
X604048Y-11264428D01*
X594524Y-11273952D01*
X575476Y-11283476D01*
X556429Y-11283476D01*
X537381Y-11273952D01*
X527857Y-11264428D01*
X518333Y-11245381D01*
X508809Y-11207286D01*
X508809Y-11159667D01*
X518333Y-11121571D01*
X527857Y-11102524D01*
X537381Y-11093000D01*
X556429Y-11083476D01*
X746905Y-11083476D02*
X765952Y-11083476D01*
X785000Y-11093000D01*
X794524Y-11102524D01*
X804048Y-11121571D01*
X813571Y-11159667D01*
X813571Y-11207286D01*
X804048Y-11245381D01*
X794524Y-11264428D01*
X785000Y-11273952D01*
X765952Y-11283476D01*
X746905Y-11283476D01*
X727857Y-11273952D01*
X718333Y-11264428D01*
X708809Y-11245381D01*
X699286Y-11207286D01*
X699286Y-11159667D01*
X708809Y-11121571D01*
X718333Y-11102524D01*
X727857Y-11093000D01*
X746905Y-11083476D01*
X937381Y-11083476D02*
X956428Y-11083476D01*
X975476Y-11093000D01*
X985000Y-11102524D01*
X994524Y-11121571D01*
X1004048Y-11159667D01*
X1004048Y-11207286D01*
X994524Y-11245381D01*
X985000Y-11264428D01*
X975476Y-11273952D01*
X956428Y-11283476D01*
X937381Y-11283476D01*
X918333Y-11273952D01*
X908809Y-11264428D01*
X899286Y-11245381D01*
X889762Y-11207286D01*
X889762Y-11159667D01*
X899286Y-11121571D01*
X908809Y-11102524D01*
X918333Y-11093000D01*
X937381Y-11083476D01*
X1089762Y-11283476D02*
X1089762Y-11150143D01*
X1089762Y-11169190D02*
X1099286Y-11159667D01*
X1118333Y-11150143D01*
X1146905Y-11150143D01*
X1165952Y-11159667D01*
X1175476Y-11178714D01*
X1175476Y-11283476D01*
X1175476Y-11178714D02*
X1185000Y-11159667D01*
X1204048Y-11150143D01*
X1232619Y-11150143D01*
X1251667Y-11159667D01*
X1261190Y-11178714D01*
X1261190Y-11283476D01*
X1356429Y-11283476D02*
X1356429Y-11150143D01*
X1356429Y-11169190D02*
X1365952Y-11159667D01*
X1385000Y-11150143D01*
X1413571Y-11150143D01*
X1432619Y-11159667D01*
X1442143Y-11178714D01*
X1442143Y-11283476D01*
X1442143Y-11178714D02*
X1451667Y-11159667D01*
X1470714Y-11150143D01*
X1499286Y-11150143D01*
X1518333Y-11159667D01*
X1527857Y-11178714D01*
X1527857Y-11283476D01*
X1918333Y-11073952D02*
X1746905Y-11331095D01*
X2175476Y-11083476D02*
X2194524Y-11083476D01*
X2213571Y-11093000D01*
X2223095Y-11102524D01*
X2232619Y-11121571D01*
X2242143Y-11159667D01*
X2242143Y-11207286D01*
X2232619Y-11245381D01*
X2223095Y-11264428D01*
X2213571Y-11273952D01*
X2194524Y-11283476D01*
X2175476Y-11283476D01*
X2156429Y-11273952D01*
X2146905Y-11264428D01*
X2137381Y-11245381D01*
X2127857Y-11207286D01*
X2127857Y-11159667D01*
X2137381Y-11121571D01*
X2146905Y-11102524D01*
X2156429Y-11093000D01*
X2175476Y-11083476D01*
X2327857Y-11264428D02*
X2337381Y-11273952D01*
X2327857Y-11283476D01*
X2318333Y-11273952D01*
X2327857Y-11264428D01*
X2327857Y-11283476D01*
X2461190Y-11083476D02*
X2480238Y-11083476D01*
X2499286Y-11093000D01*
X2508810Y-11102524D01*
X2518333Y-11121571D01*
X2527857Y-11159667D01*
X2527857Y-11207286D01*
X2518333Y-11245381D01*
X2508810Y-11264428D01*
X2499286Y-11273952D01*
X2480238Y-11283476D01*
X2461190Y-11283476D01*
X2442143Y-11273952D01*
X2432619Y-11264428D01*
X2423095Y-11245381D01*
X2413571Y-11207286D01*
X2413571Y-11159667D01*
X2423095Y-11121571D01*
X2432619Y-11102524D01*
X2442143Y-11093000D01*
X2461190Y-11083476D01*
X2594524Y-11083476D02*
X2718333Y-11083476D01*
X2651667Y-11159667D01*
X2680238Y-11159667D01*
X2699286Y-11169190D01*
X2708810Y-11178714D01*
X2718333Y-11197762D01*
X2718333Y-11245381D01*
X2708810Y-11264428D01*
X2699286Y-11273952D01*
X2680238Y-11283476D01*
X2623095Y-11283476D01*
X2604048Y-11273952D01*
X2594524Y-11264428D01*
X2813571Y-11283476D02*
X2851667Y-11283476D01*
X2870714Y-11273952D01*
X2880238Y-11264428D01*
X2899286Y-11235857D01*
X2908809Y-11197762D01*
X2908809Y-11121571D01*
X2899286Y-11102524D01*
X2889762Y-11093000D01*
X2870714Y-11083476D01*
X2832619Y-11083476D01*
X2813571Y-11093000D01*
X2804048Y-11102524D01*
X2794524Y-11121571D01*
X2794524Y-11169190D01*
X2804048Y-11188238D01*
X2813571Y-11197762D01*
X2832619Y-11207286D01*
X2870714Y-11207286D01*
X2889762Y-11197762D01*
X2899286Y-11188238D01*
X2908809Y-11169190D01*
X3080238Y-11150143D02*
X3080238Y-11283476D01*
X3032619Y-11073952D02*
X2985000Y-11216809D01*
X3108809Y-11216809D01*
X3175476Y-11083476D02*
X3175476Y-11121571D01*
X3251667Y-11083476D02*
X3251667Y-11121571D01*
X3546905Y-11359667D02*
X3537381Y-11350143D01*
X3518333Y-11321571D01*
X3508809Y-11302524D01*
X3499286Y-11273952D01*
X3489762Y-11226333D01*
X3489762Y-11188238D01*
X3499286Y-11140619D01*
X3508809Y-11112048D01*
X3518333Y-11093000D01*
X3537381Y-11064429D01*
X3546905Y-11054905D01*
X3604048Y-11083476D02*
X3727857Y-11083476D01*
X3661190Y-11159667D01*
X3689762Y-11159667D01*
X3708809Y-11169190D01*
X3718333Y-11178714D01*
X3727857Y-11197762D01*
X3727857Y-11245381D01*
X3718333Y-11264428D01*
X3708809Y-11273952D01*
X3689762Y-11283476D01*
X3632619Y-11283476D01*
X3613571Y-11273952D01*
X3604048Y-11264428D01*
X3965952Y-11283476D02*
X3965952Y-11083476D01*
X4051667Y-11283476D02*
X4051667Y-11178714D01*
X4042143Y-11159667D01*
X4023095Y-11150143D01*
X3994524Y-11150143D01*
X3975476Y-11159667D01*
X3965952Y-11169190D01*
X4175476Y-11283476D02*
X4156428Y-11273952D01*
X4146905Y-11264428D01*
X4137381Y-11245381D01*
X4137381Y-11188238D01*
X4146905Y-11169190D01*
X4156428Y-11159667D01*
X4175476Y-11150143D01*
X4204048Y-11150143D01*
X4223095Y-11159667D01*
X4232619Y-11169190D01*
X4242143Y-11188238D01*
X4242143Y-11245381D01*
X4232619Y-11264428D01*
X4223095Y-11273952D01*
X4204048Y-11283476D01*
X4175476Y-11283476D01*
X4356429Y-11283476D02*
X4337381Y-11273952D01*
X4327857Y-11254905D01*
X4327857Y-11083476D01*
X4508810Y-11273952D02*
X4489762Y-11283476D01*
X4451667Y-11283476D01*
X4432619Y-11273952D01*
X4423095Y-11254905D01*
X4423095Y-11178714D01*
X4432619Y-11159667D01*
X4451667Y-11150143D01*
X4489762Y-11150143D01*
X4508810Y-11159667D01*
X4518333Y-11178714D01*
X4518333Y-11197762D01*
X4423095Y-11216809D01*
X4594524Y-11273952D02*
X4613571Y-11283476D01*
X4651667Y-11283476D01*
X4670714Y-11273952D01*
X4680238Y-11254905D01*
X4680238Y-11245381D01*
X4670714Y-11226333D01*
X4651667Y-11216809D01*
X4623095Y-11216809D01*
X4604048Y-11207286D01*
X4594524Y-11188238D01*
X4594524Y-11178714D01*
X4604048Y-11159667D01*
X4623095Y-11150143D01*
X4651667Y-11150143D01*
X4670714Y-11159667D01*
X4746905Y-11359667D02*
X4756429Y-11350143D01*
X4775476Y-11321571D01*
X4785000Y-11302524D01*
X4794524Y-11273952D01*
X4804048Y-11226333D01*
X4804048Y-11188238D01*
X4794524Y-11140619D01*
X4785000Y-11112048D01*
X4775476Y-11093000D01*
X4756429Y-11064429D01*
X4746905Y-11054905D01*
D14*
X-39644Y-11492356D02*
X-39644Y-11421644D01*
X-110356Y-11421644D01*
X-110356Y-11492356D01*
X-39644Y-11492356D01*
D11*
X337381Y-11547476D02*
X223095Y-11547476D01*
X280238Y-11547476D02*
X280238Y-11347476D01*
X261190Y-11376048D01*
X242143Y-11395095D01*
X223095Y-11404619D01*
X423095Y-11528428D02*
X432619Y-11537952D01*
X423095Y-11547476D01*
X413571Y-11537952D01*
X423095Y-11528428D01*
X423095Y-11547476D01*
X556429Y-11347476D02*
X575476Y-11347476D01*
X594524Y-11357000D01*
X604048Y-11366524D01*
X613571Y-11385571D01*
X623095Y-11423667D01*
X623095Y-11471286D01*
X613571Y-11509381D01*
X604048Y-11528428D01*
X594524Y-11537952D01*
X575476Y-11547476D01*
X556429Y-11547476D01*
X537381Y-11537952D01*
X527857Y-11528428D01*
X518333Y-11509381D01*
X508809Y-11471286D01*
X508809Y-11423667D01*
X518333Y-11385571D01*
X527857Y-11366524D01*
X537381Y-11357000D01*
X556429Y-11347476D01*
X746905Y-11347476D02*
X765952Y-11347476D01*
X785000Y-11357000D01*
X794524Y-11366524D01*
X804048Y-11385571D01*
X813571Y-11423667D01*
X813571Y-11471286D01*
X804048Y-11509381D01*
X794524Y-11528428D01*
X785000Y-11537952D01*
X765952Y-11547476D01*
X746905Y-11547476D01*
X727857Y-11537952D01*
X718333Y-11528428D01*
X708809Y-11509381D01*
X699286Y-11471286D01*
X699286Y-11423667D01*
X708809Y-11385571D01*
X718333Y-11366524D01*
X727857Y-11357000D01*
X746905Y-11347476D01*
X937381Y-11347476D02*
X956428Y-11347476D01*
X975476Y-11357000D01*
X985000Y-11366524D01*
X994524Y-11385571D01*
X1004048Y-11423667D01*
X1004048Y-11471286D01*
X994524Y-11509381D01*
X985000Y-11528428D01*
X975476Y-11537952D01*
X956428Y-11547476D01*
X937381Y-11547476D01*
X918333Y-11537952D01*
X908809Y-11528428D01*
X899286Y-11509381D01*
X889762Y-11471286D01*
X889762Y-11423667D01*
X899286Y-11385571D01*
X908809Y-11366524D01*
X918333Y-11357000D01*
X937381Y-11347476D01*
X1089762Y-11547476D02*
X1089762Y-11414143D01*
X1089762Y-11433190D02*
X1099286Y-11423667D01*
X1118333Y-11414143D01*
X1146905Y-11414143D01*
X1165952Y-11423667D01*
X1175476Y-11442714D01*
X1175476Y-11547476D01*
X1175476Y-11442714D02*
X1185000Y-11423667D01*
X1204048Y-11414143D01*
X1232619Y-11414143D01*
X1251667Y-11423667D01*
X1261190Y-11442714D01*
X1261190Y-11547476D01*
X1356429Y-11547476D02*
X1356429Y-11414143D01*
X1356429Y-11433190D02*
X1365952Y-11423667D01*
X1385000Y-11414143D01*
X1413571Y-11414143D01*
X1432619Y-11423667D01*
X1442143Y-11442714D01*
X1442143Y-11547476D01*
X1442143Y-11442714D02*
X1451667Y-11423667D01*
X1470714Y-11414143D01*
X1499286Y-11414143D01*
X1518333Y-11423667D01*
X1527857Y-11442714D01*
X1527857Y-11547476D01*
X1918333Y-11337952D02*
X1746905Y-11595095D01*
X2175476Y-11347476D02*
X2194524Y-11347476D01*
X2213571Y-11357000D01*
X2223095Y-11366524D01*
X2232619Y-11385571D01*
X2242143Y-11423667D01*
X2242143Y-11471286D01*
X2232619Y-11509381D01*
X2223095Y-11528428D01*
X2213571Y-11537952D01*
X2194524Y-11547476D01*
X2175476Y-11547476D01*
X2156429Y-11537952D01*
X2146905Y-11528428D01*
X2137381Y-11509381D01*
X2127857Y-11471286D01*
X2127857Y-11423667D01*
X2137381Y-11385571D01*
X2146905Y-11366524D01*
X2156429Y-11357000D01*
X2175476Y-11347476D01*
X2327857Y-11528428D02*
X2337381Y-11537952D01*
X2327857Y-11547476D01*
X2318333Y-11537952D01*
X2327857Y-11528428D01*
X2327857Y-11547476D01*
X2461190Y-11347476D02*
X2480238Y-11347476D01*
X2499286Y-11357000D01*
X2508810Y-11366524D01*
X2518333Y-11385571D01*
X2527857Y-11423667D01*
X2527857Y-11471286D01*
X2518333Y-11509381D01*
X2508810Y-11528428D01*
X2499286Y-11537952D01*
X2480238Y-11547476D01*
X2461190Y-11547476D01*
X2442143Y-11537952D01*
X2432619Y-11528428D01*
X2423095Y-11509381D01*
X2413571Y-11471286D01*
X2413571Y-11423667D01*
X2423095Y-11385571D01*
X2432619Y-11366524D01*
X2442143Y-11357000D01*
X2461190Y-11347476D01*
X2594524Y-11347476D02*
X2718333Y-11347476D01*
X2651667Y-11423667D01*
X2680238Y-11423667D01*
X2699286Y-11433190D01*
X2708810Y-11442714D01*
X2718333Y-11461762D01*
X2718333Y-11509381D01*
X2708810Y-11528428D01*
X2699286Y-11537952D01*
X2680238Y-11547476D01*
X2623095Y-11547476D01*
X2604048Y-11537952D01*
X2594524Y-11528428D01*
X2813571Y-11547476D02*
X2851667Y-11547476D01*
X2870714Y-11537952D01*
X2880238Y-11528428D01*
X2899286Y-11499857D01*
X2908809Y-11461762D01*
X2908809Y-11385571D01*
X2899286Y-11366524D01*
X2889762Y-11357000D01*
X2870714Y-11347476D01*
X2832619Y-11347476D01*
X2813571Y-11357000D01*
X2804048Y-11366524D01*
X2794524Y-11385571D01*
X2794524Y-11433190D01*
X2804048Y-11452238D01*
X2813571Y-11461762D01*
X2832619Y-11471286D01*
X2870714Y-11471286D01*
X2889762Y-11461762D01*
X2899286Y-11452238D01*
X2908809Y-11433190D01*
X3080238Y-11414143D02*
X3080238Y-11547476D01*
X3032619Y-11337952D02*
X2985000Y-11480809D01*
X3108809Y-11480809D01*
X3175476Y-11347476D02*
X3175476Y-11385571D01*
X3251667Y-11347476D02*
X3251667Y-11385571D01*
X3546905Y-11623667D02*
X3537381Y-11614143D01*
X3518333Y-11585571D01*
X3508809Y-11566524D01*
X3499286Y-11537952D01*
X3489762Y-11490333D01*
X3489762Y-11452238D01*
X3499286Y-11404619D01*
X3508809Y-11376048D01*
X3518333Y-11357000D01*
X3537381Y-11328428D01*
X3546905Y-11318905D01*
X3613571Y-11366524D02*
X3623095Y-11357000D01*
X3642143Y-11347476D01*
X3689762Y-11347476D01*
X3708809Y-11357000D01*
X3718333Y-11366524D01*
X3727857Y-11385571D01*
X3727857Y-11404619D01*
X3718333Y-11433190D01*
X3604048Y-11547476D01*
X3727857Y-11547476D01*
X3851667Y-11347476D02*
X3870714Y-11347476D01*
X3889762Y-11357000D01*
X3899286Y-11366524D01*
X3908809Y-11385571D01*
X3918333Y-11423667D01*
X3918333Y-11471286D01*
X3908809Y-11509381D01*
X3899286Y-11528428D01*
X3889762Y-11537952D01*
X3870714Y-11547476D01*
X3851667Y-11547476D01*
X3832619Y-11537952D01*
X3823095Y-11528428D01*
X3813571Y-11509381D01*
X3804048Y-11471286D01*
X3804048Y-11423667D01*
X3813571Y-11385571D01*
X3823095Y-11366524D01*
X3832619Y-11357000D01*
X3851667Y-11347476D01*
X4156428Y-11547476D02*
X4156428Y-11347476D01*
X4242143Y-11547476D02*
X4242143Y-11442714D01*
X4232619Y-11423667D01*
X4213571Y-11414143D01*
X4185000Y-11414143D01*
X4165952Y-11423667D01*
X4156428Y-11433190D01*
X4365952Y-11547476D02*
X4346905Y-11537952D01*
X4337381Y-11528428D01*
X4327857Y-11509381D01*
X4327857Y-11452238D01*
X4337381Y-11433190D01*
X4346905Y-11423667D01*
X4365952Y-11414143D01*
X4394524Y-11414143D01*
X4413571Y-11423667D01*
X4423095Y-11433190D01*
X4432619Y-11452238D01*
X4432619Y-11509381D01*
X4423095Y-11528428D01*
X4413571Y-11537952D01*
X4394524Y-11547476D01*
X4365952Y-11547476D01*
X4546905Y-11547476D02*
X4527857Y-11537952D01*
X4518333Y-11518905D01*
X4518333Y-11347476D01*
X4699286Y-11537952D02*
X4680238Y-11547476D01*
X4642143Y-11547476D01*
X4623095Y-11537952D01*
X4613571Y-11518905D01*
X4613571Y-11442714D01*
X4623095Y-11423667D01*
X4642143Y-11414143D01*
X4680238Y-11414143D01*
X4699286Y-11423667D01*
X4708810Y-11442714D01*
X4708810Y-11461762D01*
X4613571Y-11480809D01*
X4785000Y-11537952D02*
X4804048Y-11547476D01*
X4842143Y-11547476D01*
X4861190Y-11537952D01*
X4870714Y-11518905D01*
X4870714Y-11509381D01*
X4861190Y-11490333D01*
X4842143Y-11480809D01*
X4813571Y-11480809D01*
X4794524Y-11471286D01*
X4785000Y-11452238D01*
X4785000Y-11442714D01*
X4794524Y-11423667D01*
X4813571Y-11414143D01*
X4842143Y-11414143D01*
X4861190Y-11423667D01*
X4937381Y-11623667D02*
X4946905Y-11614143D01*
X4965952Y-11585571D01*
X4975476Y-11566524D01*
X4985000Y-11537952D01*
X4994524Y-11490333D01*
X4994524Y-11452238D01*
X4985000Y-11404619D01*
X4975476Y-11376048D01*
X4965952Y-11357000D01*
X4946905Y-11328428D01*
X4937381Y-11318905D01*
M02*
